<svg width="340" height="339" viewBox="0 0 340 339" fill="none" xmlns="http://www.w3.org/2000/svg">
<g clip-path="url(#clip0_2439_14725)">
<g filter="url(#filter0_dd_2439_14725)">
<path d="M175.566 83.6557C176.254 83.4118 176.92 83.108 177.556 82.7476C178.442 82.2014 179.211 81.4838 179.816 80.6368C180.422 79.7899 180.853 78.8306 181.083 77.8151C181.231 77.1184 181.289 76.4056 181.257 75.6941C181.182 74.9092 181.028 74.1339 180.797 73.3803C180.367 71.7693 179.901 70.0152 179.397 68.143L176.001 55.3671L171.896 39.8793C171.529 38.486 171.156 37.0741 170.77 35.6311C170.464 34.189 169.757 32.8629 168.73 31.8058C167.669 30.7265 166.308 29.9917 164.824 29.6972C163.281 29.4316 161.696 29.5753 160.227 30.1139L119.48 40.8497C117.737 41.3144 116.217 42.3865 115.194 43.8726C114.18 45.3359 113.727 47.1158 113.919 48.8859C114.048 49.7682 114.243 50.6394 114.504 51.4921C114.734 52.3691 114.958 53.2399 115.188 54.1045C115.644 55.8378 116.094 57.5566 116.538 59.2608C118.323 66.1028 120.04 72.6525 121.682 78.9223C122.511 82.0572 123.307 85.1091 124.07 88.0781C124.328 89.5351 124.955 90.9016 125.893 92.0465C126.817 93.1322 128.032 93.9325 129.394 94.3541C132.119 95.312 134.824 94.012 137.406 93.4522L144.87 91.5178L167.33 85.7207L173.444 84.172L175.037 83.7863C175.398 83.6992 175.584 83.6744 175.584 83.6744C175.584 83.6744 175.41 83.7428 175.055 83.8423L173.476 84.2901L167.386 85.9446L144.994 91.9283L137.53 93.9L133.574 94.9388C132.122 95.3075 130.595 95.2629 129.166 94.8101C127.737 94.3573 126.463 93.5143 125.488 92.3761C124.493 91.1765 123.823 89.7416 123.541 88.2087C122.758 85.248 121.953 82.1981 121.128 79.0591C119.48 72.7956 117.744 66.2272 115.953 59.4101C115.505 57.7058 115.053 55.9871 114.597 54.2538C114.365 53.3912 114.135 52.5204 113.907 51.6413C113.63 50.7609 113.422 49.8605 113.285 48.9481C113.078 47.0358 113.566 45.113 114.659 43.5305C115.766 41.9043 117.423 40.7318 119.324 40.2277L160.078 29.5541C161.63 28.9997 163.3 28.8582 164.923 29.1436C166.509 29.4746 167.958 30.2742 169.084 31.4388C170.17 32.5663 170.918 33.9756 171.243 35.5067C171.616 36.9435 171.989 38.3617 172.35 39.7549C173.799 45.3529 175.149 50.5155 176.38 55.2614C177.612 60.0072 178.719 64.2866 179.696 68.0559C180.181 69.9427 180.633 71.6926 181.052 73.3056C181.285 74.0807 181.443 74.8764 181.524 75.6817C181.551 76.4176 181.48 77.1539 181.313 77.8711C181.067 78.9069 180.613 79.882 179.979 80.7373C179.345 81.5926 178.544 82.3104 177.624 82.8471C177.151 83.127 176.646 83.3484 176.119 83.5064C175.752 83.6184 175.566 83.6557 175.566 83.6557Z" fill="#E0E0E0"/>
<path d="M159.182 67.7323C159.06 67.7872 158.933 67.8309 158.803 67.8629L157.708 68.1739L153.628 69.2998L139.944 72.982H139.832L139.782 72.8763L138.837 70.7055L132.212 54.832L132.312 54.8756L128.655 55.8086L127.678 56.0449L127.336 56.1134C127.442 56.0656 127.552 56.0282 127.666 56.0014L128.63 55.7215L132.275 54.7139H132.349V54.7823L139.061 70.6246L139.981 72.8203L139.826 72.7394L153.559 69.1443L157.658 68.0993L158.766 67.8318C158.902 67.7873 159.041 67.754 159.182 67.7323Z" fill="#E0E0E0"/>
<path d="M138.264 69.0009C138.264 69.0009 138.295 69.0009 138.358 68.9636L138.638 68.8765L139.738 68.5655L143.856 67.4335L158.087 63.6082L157.994 63.745C157.783 61.257 157.553 58.5265 157.31 55.715C157.192 54.272 157.067 52.8538 156.955 51.4979L157.123 51.616L140.329 56.0198L135.353 57.3011L134.01 57.637L133.662 57.7116C133.581 57.7116 133.543 57.7116 133.537 57.7116L133.655 57.6743L133.997 57.5686L135.335 57.1892L140.311 55.8332L157.105 51.3424L157.254 51.2988V51.4543C157.366 52.8103 157.484 54.2284 157.609 55.6715C157.845 58.4829 158.069 61.1948 158.28 63.7077V63.8135H158.175L143.918 67.5455L139.782 68.6029L138.669 68.8765L138.382 68.945L138.264 69.0009Z" fill="#E0E0E0"/>
<path d="M146.071 76.8075C146.071 76.8075 146.002 76.6458 145.84 76.3783C145.613 76.0066 145.27 75.7202 144.864 75.5635C144.57 75.4507 144.253 75.4122 143.94 75.4512C143.628 75.4903 143.33 75.6058 143.072 75.7874C142.879 75.952 142.722 76.1541 142.61 76.3816C142.497 76.609 142.433 76.857 142.42 77.1102C142.406 77.3635 142.445 77.6169 142.533 77.8547C142.621 78.0926 142.756 78.3101 142.931 78.4938C143.106 78.6776 143.317 78.8237 143.55 78.9234C143.783 79.023 144.034 79.0741 144.288 79.0735C144.541 79.0728 144.792 79.0205 145.025 78.9196C145.258 78.8188 145.467 78.6715 145.641 78.4869C145.915 78.1503 146.071 77.7327 146.083 77.2989C146.083 76.9879 146.046 76.8137 146.083 76.8075C146.163 76.9589 146.203 77.1278 146.201 77.2989C146.226 77.7675 146.085 78.23 145.803 78.6051C145.589 78.8915 145.305 79.118 144.978 79.2628C144.651 79.4077 144.293 79.4661 143.937 79.4323C143.502 79.3957 143.09 79.2256 142.756 78.9453C142.422 78.665 142.182 78.2882 142.071 77.8666C141.959 77.4451 141.98 76.9992 142.132 76.5903C142.283 76.1813 142.558 75.8292 142.917 75.5822C143.207 75.3819 143.543 75.2591 143.893 75.2253C144.244 75.1916 144.597 75.248 144.92 75.3893C145.35 75.5781 145.702 75.9099 145.915 76.3286C146.006 76.4729 146.059 76.6375 146.071 76.8075Z" fill="#E0E0E0"/>
<path d="M158.51 73.5174C158.51 73.5174 158.442 73.3495 158.28 73.0882C158.052 72.718 157.709 72.4321 157.304 72.2734C156.983 72.1505 156.634 72.1186 156.296 72.1813C155.958 72.2439 155.644 72.3987 155.389 72.6286C155.133 72.8585 154.946 73.1544 154.848 73.4839C154.75 73.8133 154.745 74.1634 154.833 74.4956C154.921 74.8278 155.1 75.1291 155.349 75.3663C155.597 75.6035 155.907 75.7674 156.243 75.84C156.579 75.9125 156.928 75.8908 157.253 75.7773C157.577 75.6638 157.864 75.4629 158.081 75.1968C158.355 74.8578 158.51 74.4383 158.523 74.0026C158.523 73.6978 158.486 73.5236 158.523 73.5174C158.603 73.6662 158.644 73.8334 158.641 74.0026C158.668 74.4714 158.527 74.9344 158.243 75.3088C158.032 75.5904 157.753 75.814 157.432 75.9586C157.111 76.1033 156.759 76.1643 156.408 76.136C155.974 76.0991 155.562 75.9286 155.229 75.6482C154.896 75.3677 154.658 74.991 154.547 74.5697C154.437 74.1485 154.46 73.7033 154.612 73.2955C154.765 72.8877 155.04 72.5371 155.4 72.2921C155.691 72.0918 156.028 71.969 156.38 71.9353C156.732 71.9015 157.086 71.958 157.41 72.0992C157.841 72.2862 158.193 72.6186 158.405 73.0385C158.478 73.1871 158.515 73.3515 158.51 73.5174Z" fill="#E0E0E0"/>
<path d="M271.515 306.848C257.551 300.006 252.177 284.07 250.417 269.298C250.124 266.81 249.453 264.322 250.292 261.958C251.132 259.595 253.62 257.735 255.977 258.431C257.93 259.01 259.05 261.007 260.331 262.599C262.053 264.727 264.341 266.327 266.931 267.214C268.616 267.78 270.625 267.979 272.037 266.891C273.978 265.398 273.773 262.437 273.387 259.999L271.204 246.371C270.812 243.933 270.42 241.445 270.824 239.013C271.229 236.581 272.572 234.174 274.793 233.166C277.013 232.158 280.092 233.054 280.944 235.368C281.305 236.326 281.262 237.389 281.486 238.391C281.709 239.392 282.35 240.443 283.352 240.58C284.353 240.717 285.218 239.871 285.84 239.044C287.979 236.195 289.198 232.762 290.312 229.359C291.425 225.957 292.476 222.486 294.348 219.451C296.221 216.415 299.051 213.797 302.515 213.057C305.98 212.316 310.035 213.909 311.447 217.199C312.859 220.489 311.422 224.302 309.656 227.45C307.054 232.078 303.796 236.306 299.984 240.002C299.3 240.667 298.553 241.382 298.398 242.334C298.118 244.038 299.909 245.444 301.595 245.705C303.511 246.035 305.451 245.544 307.392 245.469C309.332 245.394 311.516 245.923 312.511 247.615C313.898 249.954 312.212 252.889 310.421 254.917C306.834 258.969 302.578 262.376 297.838 264.987C296.14 265.914 294.342 266.785 293.086 268.265C291.829 269.746 291.301 272.078 292.464 273.664C293.627 275.25 295.928 275.456 297.757 274.815C299.586 274.174 301.11 272.899 302.795 271.948C305.955 270.162 310.321 269.727 312.915 272.296C314.619 273.988 315.148 276.619 314.781 279.001C314.414 281.383 313.27 283.554 312.007 285.594C307.603 292.729 301.508 298.862 294.143 302.755C286.779 306.649 279.682 308.49 271.521 306.848" fill="#F5F5F5"/>
<path d="M273.891 297.051C275.098 288.668 276.787 280.361 278.947 272.171C279.507 269.99 280.061 267.838 280.608 265.715C281.156 263.6 281.703 261.504 282.362 259.495C283.639 255.62 285.128 251.818 286.822 248.106C288.414 244.555 290.056 241.264 291.611 238.154C293.166 235.044 294.69 232.22 296.183 229.683C298.512 225.666 301.158 221.841 304.095 218.244C305.127 217 305.961 216.011 306.539 215.37L307.199 214.643C307.269 214.556 307.348 214.477 307.435 214.406C307.375 214.5 307.308 214.589 307.236 214.674L306.614 215.433C306.067 216.092 305.252 217.068 304.238 218.362C301.362 221.991 298.763 225.831 296.463 229.851C294.995 232.388 293.502 235.243 291.954 238.328C290.405 241.413 288.788 244.741 287.208 248.28C285.531 251.984 284.057 255.775 282.791 259.638C282.138 261.647 281.603 263.725 281.05 265.858C280.496 267.992 279.955 270.131 279.395 272.308C277.239 280.48 275.541 288.765 274.307 297.126" fill="#E0E0E0"/>
<path d="M282.487 259.458C282.321 259.138 282.188 258.803 282.089 258.456C281.859 257.797 281.554 256.839 281.199 255.651C280.478 253.275 279.601 249.96 278.643 246.321C277.685 242.682 276.777 239.367 276.006 236.991C275.632 235.809 275.321 234.858 275.097 234.198C274.961 233.866 274.861 233.52 274.799 233.166C274.99 233.471 275.146 233.796 275.265 234.136C275.539 234.758 275.887 235.716 276.31 236.885C277.144 239.23 278.12 242.521 279.078 246.184C280.036 249.848 280.857 253.064 281.504 255.564C281.803 256.69 282.058 257.641 282.263 258.4C282.378 258.743 282.453 259.098 282.487 259.458Z" fill="#E0E0E0"/>
<path d="M312.959 248.771C312.555 248.923 312.139 249.037 311.715 249.114C310.925 249.306 309.774 249.586 308.362 249.972C305.538 250.725 301.67 251.9 297.459 253.381C293.248 254.861 289.503 256.385 286.822 257.56C285.479 258.133 284.403 258.63 283.656 258.966C283.278 259.165 282.883 259.329 282.475 259.457C282.822 259.217 283.19 259.009 283.576 258.835C284.303 258.444 285.361 257.902 286.686 257.287C289.342 256.043 293.086 254.469 297.303 252.976C300.902 251.691 304.564 250.591 308.275 249.68C309.7 249.331 310.863 249.101 311.671 248.964C312.093 248.86 312.525 248.795 312.959 248.771Z" fill="#E0E0E0"/>
<path d="M274.201 296.417C274.094 296.315 274.002 296.198 273.928 296.069L273.212 295.018C272.59 294.097 271.751 292.748 270.724 291.068C268.659 287.709 265.948 282.982 263.03 277.714C260.113 272.446 257.432 267.7 255.461 264.297L253.053 260.279C252.798 259.844 252.587 259.483 252.431 259.185C252.347 259.06 252.28 258.924 252.232 258.78C252.336 258.888 252.428 259.007 252.506 259.135C252.699 259.421 252.935 259.757 253.215 260.186C253.837 261.1 254.683 262.45 255.703 264.129C257.768 267.494 260.474 272.215 263.397 277.49C266.321 282.765 268.995 287.504 270.967 290.9L273.337 294.918L273.959 296.019C274.057 296.141 274.138 296.275 274.201 296.417Z" fill="#E0E0E0"/>
<path d="M313.805 276.588C313.689 276.686 313.559 276.766 313.419 276.824L312.268 277.415L308.026 279.549C304.45 281.352 299.53 283.903 294.1 286.714C288.67 289.525 283.725 292.038 280.105 293.768C278.295 294.632 276.827 295.316 275.8 295.77L274.612 296.287C274.478 296.354 274.336 296.404 274.189 296.436C274.308 296.341 274.437 296.262 274.575 296.2L275.726 295.609L279.962 293.475C283.544 291.678 288.464 289.121 293.894 286.31C299.324 283.498 304.269 280.985 307.883 279.256C309.693 278.392 311.167 277.707 312.194 277.253L313.375 276.743C313.511 276.672 313.655 276.62 313.805 276.588Z" fill="#E0E0E0"/>
<path d="M32.5362 81.7092C32.5362 81.7092 25.6009 83.3948 31.1056 98.4099C36.6103 113.425 40.759 121.032 40.759 121.032C40.759 121.032 41.6423 124.472 38.8122 124.646C35.9821 124.82 30.0233 123.116 28.3812 126.344C26.6769 129.696 28.8291 133.317 33.6433 136.843C38.4576 140.37 48.7206 148.487 49.6598 149.227C50.5991 149.967 51.3641 151.597 49.4608 152.026C47.5575 152.455 33.6931 152.225 33.9792 158.806C34.2653 165.387 49.2804 173.019 50.9038 173.883C52.5273 174.748 52.8507 175.519 52.6019 176.44C52.3531 177.36 47.6943 176.844 43.7508 176.937C39.8074 177.031 35.2481 177.839 35.7333 181.627C36.2184 185.415 44.5905 194.254 66.9328 199.205L77.4321 200.822L84.2741 192.606C97.7902 174.145 98.2505 161.972 96.0921 158.806C93.9338 155.64 90.0028 158.047 86.9736 160.579C83.9445 163.11 80.7909 166.569 79.9948 166.046C79.1986 165.524 78.9312 164.728 79.578 163.005C80.2249 161.282 86.4885 145.638 82.3584 140.501C78.2283 135.363 67.9653 144.687 66.2486 145.626C64.5319 146.565 64.0467 144.792 64.252 143.648C64.4572 142.503 66.8146 129.616 68.1084 123.787C69.4021 117.959 68.6184 113.835 65.129 112.43C61.764 111.08 58.4052 116.305 56.166 118.028C53.9268 119.751 52.322 116.597 52.322 116.597C52.322 116.597 50.4187 108.144 44.6465 93.2286C38.8744 78.3131 32.3993 81.7465 32.3993 81.7465" fill="#EBEBEB"/>
<path d="M77.6805 203.366C73.482 192.4 66.3477 172.776 60.1339 155.964C53.9201 139.151 48.2848 123.943 44.1423 112.952C42.071 107.472 40.4103 103 39.2223 99.9463C38.65 98.4161 38.196 97.2281 37.8912 96.4071C37.7419 96.009 37.63 95.7042 37.5491 95.4803C37.4682 95.2564 37.4434 95.1631 37.4434 95.1631C37.4434 95.1631 37.4931 95.2626 37.5802 95.4679L37.9534 96.3822L39.3467 99.8965C40.5471 102.951 42.2639 107.36 44.36 112.871C48.5585 123.837 54.2311 139.039 60.4449 155.852C66.6587 172.664 73.7557 192.295 77.8982 203.285" fill="#E0E0E0"/>
<path d="M36.6348 129.068C36.8808 129.143 37.1184 129.243 37.3438 129.367C37.7917 129.572 38.4323 129.889 39.2098 130.287C40.7773 131.09 42.9418 132.259 45.2681 133.584L51.2518 137.005L53.068 138.031C53.2891 138.141 53.4976 138.275 53.69 138.429C53.4428 138.364 53.2046 138.268 52.9809 138.143C52.5331 137.938 51.8924 137.621 51.1149 137.21C49.5475 136.389 47.4202 135.201 45.0815 133.87L39.0854 130.493L37.263 129.479C37.0363 129.37 36.8251 129.232 36.6348 129.068Z" fill="#E0E0E0"/>
<path d="M54.5354 137.844C54.4545 137.8 56.6626 133.279 59.4616 127.736C62.2606 122.194 64.6055 117.741 64.6864 117.784C64.7673 117.828 62.5592 122.35 59.7602 127.892C56.9612 133.434 54.6349 137.881 54.5354 137.844Z" fill="#E0E0E0"/>
<path d="M62.9141 164.093C63.0553 163.865 63.2246 163.656 63.4179 163.471L64.8734 161.916C66.1174 160.597 67.7905 158.806 69.5757 156.691C71.3608 154.576 72.9283 152.673 74.0416 151.261L75.3665 149.588C75.5181 149.374 75.691 149.176 75.8828 148.997C75.7696 149.233 75.632 149.456 75.4722 149.663C75.1861 150.079 74.7694 150.676 74.2282 151.404C73.1584 152.853 71.6283 154.819 69.8307 156.909C68.0331 158.999 66.3164 160.803 65.0413 162.078C64.4193 162.7 63.8844 163.222 63.5112 163.564C63.33 163.76 63.13 163.937 62.9141 164.093Z" fill="#E0E0E0"/>
<path d="M44.9707 159.72C45.2145 159.721 45.4571 159.755 45.6922 159.819L47.6266 160.211C49.2501 160.553 51.4955 161.051 53.971 161.623C56.4466 162.195 58.6858 162.724 60.2968 163.128L62.2063 163.62C62.4441 163.668 62.6757 163.743 62.8967 163.844C62.655 163.842 62.4145 163.809 62.1814 163.744L60.2346 163.383C58.6049 163.041 56.3595 162.544 53.884 161.971C51.4084 161.399 49.1754 160.87 47.5582 160.466L45.6487 159.975C45.4132 159.917 45.1856 159.832 44.9707 159.72Z" fill="#E0E0E0"/>
<path d="M49.4238 183.829C49.7317 183.851 50.0375 183.896 50.3382 183.966L52.8262 184.457C54.9161 184.887 57.8022 185.502 60.9744 186.205C64.1466 186.908 67.0326 187.555 69.1039 188.04L71.5919 188.662C71.8976 188.723 72.1973 188.81 72.4876 188.923C72.1768 188.91 71.8683 188.864 71.567 188.786L69.079 188.295C66.9891 187.866 64.103 187.25 60.9308 186.547C57.7586 185.844 54.8477 185.154 52.7702 184.687L50.2822 184.065C49.9887 184.017 49.701 183.937 49.4238 183.829Z" fill="#E0E0E0"/>
<path d="M71.9336 188.624C72.1159 188.346 72.3241 188.086 72.5556 187.847L74.3283 185.807C75.8273 184.078 77.8799 181.689 80.0818 178.965C82.2837 176.24 84.2119 173.765 85.5927 171.949L87.2348 169.796C87.4198 169.524 87.6279 169.268 87.8568 169.031C87.7074 169.326 87.5325 169.607 87.3343 169.871C86.9736 170.406 86.4449 171.165 85.7731 172.092C84.4358 173.958 82.5325 176.446 80.3306 179.176C78.1287 181.907 76.0388 184.252 74.4962 185.944C73.725 186.783 73.0905 187.461 72.6302 187.915C72.4159 188.169 72.1831 188.406 71.9336 188.624Z" fill="#E0E0E0"/>
</g>
<g filter="url(#filter1_dd_2439_14725)">
<path d="M301.658 307.986C301.658 308.079 241.74 308.148 167.847 308.148C93.9531 308.148 34.0234 308.079 34.0234 307.986C34.0234 307.893 93.9283 307.824 167.847 307.824C241.765 307.824 301.658 307.899 301.658 307.986Z" fill="#263238"/>
</g>
<g filter="url(#filter2_dd_2439_14725)">
<path d="M272.709 51.7844H254.671C253.487 51.8154 252.363 52.3147 251.547 53.173C250.731 54.0312 250.288 55.1782 250.317 56.3623V59.634C250.345 60.8181 249.903 61.9651 249.086 62.8234C248.27 63.6816 247.147 64.181 245.963 64.212H210.789C209.6 64.1826 208.472 63.6839 207.65 62.8248C206.828 61.9658 206.38 60.8164 206.403 59.6278V56.325C206.427 55.1423 205.983 53.9981 205.168 53.1409C204.352 52.2838 203.232 51.7829 202.049 51.7471H195.705H179.912C176.145 51.7471 172.532 53.2428 169.867 55.9055C167.202 58.5682 165.703 62.18 165.7 65.9473L165.656 293.705C165.656 297.47 167.151 301.081 169.813 303.744C172.475 306.407 176.085 307.904 179.85 307.905L272.74 307.961C274.605 307.963 276.452 307.597 278.175 306.884C279.899 306.172 281.465 305.127 282.785 303.808C284.104 302.49 285.15 300.925 285.865 299.202C286.579 297.479 286.946 295.632 286.946 293.767L286.99 66.0033C286.992 64.1301 286.624 62.2749 285.907 60.5446C285.189 58.8143 284.136 57.2431 282.809 55.9214C281.481 54.5998 279.905 53.5538 278.172 52.8438C276.439 52.1338 274.582 51.7737 272.709 51.7844Z" fill="white"/>
<path d="M272.709 51.7842C272.709 51.7842 272.871 51.7842 273.194 51.7842C273.675 51.7834 274.156 51.8188 274.631 51.89C276.52 52.128 278.337 52.764 279.962 53.756C281.166 54.4626 282.257 55.3475 283.196 56.3808C284.345 57.6208 285.262 59.0578 285.902 60.6228C286.64 62.4539 287.002 64.4149 286.965 66.3888C286.965 68.4849 286.965 70.7428 286.965 73.0815C286.965 92.0027 286.996 119.377 287.015 153.195C287.034 187.013 287.015 227.3 287.015 271.997V293.282C287.049 294.752 286.866 296.219 286.474 297.636C286.078 299.056 285.465 300.408 284.658 301.642C283.835 302.87 282.84 303.974 281.703 304.92C279.368 306.811 276.499 307.924 273.499 308.104C270.526 308.191 267.565 308.104 264.58 308.142H246.517H209.402H180.834C177.544 308.309 174.291 307.394 171.572 305.535C168.882 303.65 166.909 300.909 165.974 297.76C165.53 296.2 165.331 294.58 165.383 292.958V288.169C165.383 281.8 165.383 275.47 165.383 269.179C165.383 256.615 165.383 244.241 165.383 232.058C165.383 207.72 165.383 184.245 165.383 161.878C165.383 139.511 165.383 118.264 165.383 98.372C165.383 88.42 165.383 78.8288 165.383 69.5983C165.383 68.4414 165.383 67.2907 165.383 66.1524C165.383 65.5802 165.433 65.0017 165.464 64.4295C165.495 63.8572 165.607 63.2912 165.75 62.7376C166.263 60.5244 167.288 58.4622 168.742 56.7167C170.154 55.0377 171.931 53.7032 173.937 52.815C175.943 51.9268 178.125 51.5083 180.317 51.5914H192.695H201.565C202.558 51.5384 203.541 51.8115 204.364 52.3689C205.164 52.9321 205.771 53.7296 206.099 54.6516C206.372 55.56 206.469 56.5121 206.385 57.4569V58.8875C206.371 59.3399 206.386 59.7928 206.429 60.2434C206.562 61.1315 206.958 61.9593 207.567 62.6195C208.133 63.2827 208.892 63.7525 209.738 63.963C210.155 64.063 210.584 64.1069 211.013 64.0936H217.451H236.173H244.427C245.08 64.0936 245.745 64.0936 246.361 64.0936C246.978 64.0164 247.571 63.804 248.097 63.4716C248.602 63.1511 249.039 62.733 249.38 62.2417C249.722 61.7504 249.962 61.1958 250.087 60.6104C250.189 60.0401 250.227 59.46 250.199 58.8812C250.199 58.309 250.199 57.743 250.199 57.1832C250.174 56.6305 250.199 56.0768 250.274 55.5287C250.363 54.9958 250.544 54.4823 250.809 54.011C251.311 53.119 252.103 52.4255 253.054 52.0455C253.966 51.7581 254.926 51.6565 255.878 51.7469C254.97 51.7469 254.012 51.6536 253.104 52.0517C252.169 52.427 251.393 53.1151 250.908 53.9985C250.656 54.4605 250.482 54.9605 250.392 55.4789C250.325 56.0193 250.302 56.5644 250.323 57.1085C250.323 57.6683 250.323 58.2344 250.323 58.8066C250.348 59.3957 250.31 59.9856 250.211 60.5669C250.084 61.173 249.836 61.7476 249.484 62.2571C249.132 62.7665 248.681 63.2006 248.159 63.5338C247.609 63.8728 246.991 64.0853 246.349 64.1558C245.689 64.2118 245.055 64.1558 244.396 64.1558H211.013C210.563 64.1735 210.113 64.1295 209.676 64.0252C208.782 63.8062 207.981 63.3097 207.387 62.607C206.776 61.9059 206.384 61.0407 206.261 60.119C206.222 59.7097 206.208 59.2985 206.217 58.8875V57.4817C206.295 56.5662 206.2 55.6442 205.937 54.7636C205.628 53.8907 205.054 53.1362 204.295 52.6053C203.513 52.0795 202.581 51.822 201.639 51.8713H180.392C178.241 51.7903 176.1 52.2021 174.132 53.0753C172.165 53.9485 170.423 55.26 169.04 56.9095C167.62 58.6198 166.621 60.6394 166.123 62.8061C165.98 63.3472 165.937 63.907 165.837 64.4606C165.738 65.0142 165.769 65.5802 165.762 66.1524V69.5983C165.762 78.8288 165.762 88.42 165.762 98.372C165.762 118.276 165.762 139.517 165.762 161.878V232.058C165.762 244.225 165.762 256.598 165.762 269.179V292.958C165.709 294.542 165.902 296.124 166.335 297.648C167.255 300.713 169.184 303.376 171.808 305.206C174.46 307.004 177.629 307.878 180.827 307.694H190.419H209.396H246.511H264.598C267.578 307.694 270.563 307.743 273.499 307.656C276.419 307.48 279.21 306.392 281.479 304.546C282.588 303.627 283.558 302.552 284.359 301.355C285.144 300.156 285.74 298.842 286.126 297.462C286.506 296.085 286.684 294.66 286.654 293.232C286.654 291.789 286.654 290.359 286.654 288.922C286.654 283.199 286.654 277.541 286.654 271.947C286.654 227.232 286.698 186.951 286.717 153.145C286.735 119.34 286.779 91.953 286.797 73.0317C286.797 70.6681 286.797 68.4352 286.797 66.339C286.838 64.3812 286.485 62.4352 285.759 60.6166C285.128 59.0627 284.225 57.6344 283.09 56.3995C280.871 53.9542 277.864 52.365 274.594 51.9086C274.12 51.8352 273.642 51.7916 273.163 51.778C272.871 51.8029 272.709 51.7842 272.709 51.7842Z" fill="#263238"/>
<path d="M188.608 74.786C188.608 74.842 186.257 74.9166 183.365 74.9353C180.472 74.9539 178.121 74.9353 178.121 74.8731C178.121 74.8109 180.466 74.7425 183.365 74.7176C186.263 74.6927 188.608 74.7238 188.608 74.786Z" fill="#263238"/>
<path d="M188.627 77.4667C188.627 77.5289 186.282 77.5973 183.39 77.6222C180.498 77.647 178.146 77.6222 178.146 77.5537C178.146 77.4853 180.491 77.4231 183.384 77.3982C186.276 77.3734 188.627 77.4045 188.627 77.4667Z" fill="#263238"/>
<path d="M188.653 80.1473C188.653 80.2095 186.308 80.2779 183.409 80.3028C180.511 80.3277 178.166 80.3028 178.166 80.2344C178.166 80.166 180.511 80.1038 183.409 80.0789C186.308 80.054 188.653 80.0851 188.653 80.1473Z" fill="#263238"/>
<path d="M223.037 250.401H176.355V297.082H223.037V250.401Z" fill="#F5F5F5"/>
<path d="M217.525 277.11C213.724 271.804 205.657 268.172 199.101 269.148C193.789 269.938 189.087 272.407 186.512 277.682C186.339 278.026 186.252 278.407 186.258 278.792C186.264 279.177 186.363 279.555 186.546 279.894C186.729 280.233 186.991 280.522 187.31 280.738C187.629 280.954 187.995 281.09 188.378 281.134C197.228 282.191 206.175 282.161 215.018 281.047C216.38 280.873 218.004 280.493 218.097 278.808C218.106 278.193 217.904 277.594 217.525 277.11Z" fill="#BE4848"/>
<g opacity="0.5">
<path d="M217.525 277.11C213.724 271.804 205.657 268.172 199.101 269.148C193.789 269.938 189.087 272.407 186.512 277.682" fill="white"/>
</g>
<path d="M196.539 276.842C196.508 276.842 196.234 276.6 195.873 276.102C195.392 275.444 195.049 274.695 194.866 273.9C194.71 273.11 194.644 272.305 194.667 271.499C194.639 271.168 194.666 270.833 194.748 270.51C194.851 270.828 194.902 271.16 194.897 271.493C194.939 272.276 195.032 273.055 195.177 273.826C195.362 274.583 195.659 275.309 196.06 275.978C196.256 276.245 196.417 276.535 196.539 276.842Z" fill="#F5F5F5"/>
<path d="M202.168 276.588C202.074 276.588 202.211 275.082 202.012 273.254C201.813 271.425 201.39 269.988 201.471 269.957C202.385 272.041 202.629 274.359 202.168 276.588Z" fill="#F5F5F5"/>
<path d="M207.989 275.723C207.896 275.685 208.338 274.684 208.443 273.365C208.549 272.047 208.307 270.983 208.4 270.958C208.713 271.728 208.839 272.561 208.767 273.39C208.696 274.218 208.429 275.017 207.989 275.723Z" fill="#F5F5F5"/>
<path d="M223.578 99.498H176.355V170.288H223.578V99.498Z" fill="#F5F5F5"/>
<path d="M223.578 175.624H176.355V246.414H223.578V175.624Z" fill="#F5F5F5"/>
<path d="M275.296 162.258H228.074V228.351H275.296V162.258Z" fill="#F5F5F5"/>
<path d="M274.912 232.998H227.689V297.076H274.912V232.998Z" fill="#F5F5F5"/>
<path d="M275.296 99.4978H228.074V157.966H275.296V99.4978Z" fill="#F5F5F5"/>
<path d="M207.387 120.665V140.289C207.387 141.147 206.697 142.036 205.428 142.708C203.728 143.507 201.863 143.894 199.986 143.84H199.955C195.321 143.84 192.553 142.012 192.553 140.289V120.627C192.553 118.711 193.965 116.715 195.383 114.737C196.334 113.418 196.565 111.521 196.627 110.383C196.627 110.252 196.627 110.134 196.627 110.022H196.496C196.224 110.043 195.955 109.955 195.748 109.778C195.54 109.601 195.411 109.349 195.389 109.077V108.249C195.41 107.976 195.538 107.722 195.745 107.542C195.953 107.363 196.223 107.273 196.496 107.292H203.456C203.663 107.286 203.867 107.336 204.047 107.438C204.227 107.54 204.375 107.69 204.476 107.87C204.534 107.988 204.564 108.118 204.564 108.249V109.077C204.54 109.348 204.41 109.599 204.203 109.776C203.996 109.953 203.728 110.041 203.456 110.022H203.295C203.295 110.134 203.295 110.252 203.295 110.383C203.338 111.502 203.568 113.4 204.539 114.737C205.957 116.715 207.363 118.711 207.369 120.627L207.387 120.665Z" fill="#FAFAFA"/>
<path d="M207.387 120.665V120.466C207.37 120.27 207.343 120.075 207.306 119.881C207.14 119.139 206.863 118.426 206.485 117.766C205.878 116.717 205.207 115.705 204.476 114.737C203.62 113.323 203.188 111.693 203.232 110.041V109.929H203.294C203.539 109.966 203.79 109.911 203.996 109.774C204.203 109.638 204.352 109.429 204.414 109.189C204.414 108.94 204.414 108.635 204.414 108.356C204.429 108.227 204.411 108.097 204.362 107.977C204.313 107.858 204.235 107.752 204.134 107.671C203.922 107.501 203.654 107.414 203.381 107.429H200.576H196.571C196.414 107.415 196.257 107.434 196.109 107.486C195.961 107.537 195.826 107.62 195.712 107.727C195.609 107.836 195.54 107.972 195.513 108.119C195.503 108.289 195.503 108.459 195.513 108.629C195.513 108.803 195.513 109.009 195.513 109.152C195.533 109.304 195.6 109.445 195.706 109.556C195.822 109.673 195.963 109.762 196.118 109.817C196.273 109.872 196.438 109.891 196.602 109.873H196.745V110.029C196.737 110.832 196.65 111.632 196.483 112.417C196.322 113.242 196.003 114.027 195.544 114.731C194.498 116.062 193.634 117.526 192.975 119.085C192.835 119.487 192.743 119.905 192.702 120.329C192.702 120.746 192.702 121.206 192.702 121.648V124.347C192.702 126.172 192.702 128.021 192.702 129.895C192.702 133.192 192.702 136.414 192.702 139.524C192.683 139.898 192.699 140.273 192.751 140.644C192.842 140.991 193.019 141.31 193.268 141.57C193.774 142.108 194.389 142.532 195.072 142.814C196.416 143.353 197.847 143.646 199.295 143.679C200.674 143.751 202.056 143.627 203.4 143.312C204.669 143.061 205.834 142.437 206.746 141.521C206.942 141.295 207.09 141.033 207.182 140.749C207.252 140.46 207.277 140.163 207.256 139.866V138.062C207.256 136.88 207.256 135.748 207.256 134.666C207.256 130.356 207.294 126.866 207.306 124.428C207.306 123.234 207.306 122.301 207.306 121.642C207.306 120.982 207.337 120.671 207.337 120.671C207.37 120.994 207.382 121.318 207.375 121.642C207.375 122.301 207.375 123.234 207.406 124.428C207.406 126.866 207.406 130.356 207.456 134.666C207.456 135.748 207.456 136.88 207.456 138.062V139.866C207.479 140.187 207.454 140.51 207.381 140.824C207.28 141.144 207.115 141.44 206.896 141.695C205.95 142.655 204.736 143.305 203.413 143.561C202.043 143.89 200.633 144.022 199.226 143.953C197.734 143.924 196.259 143.624 194.872 143.069C194.148 142.779 193.494 142.335 192.957 141.769C192.675 141.469 192.472 141.104 192.366 140.706C192.306 140.311 192.285 139.911 192.304 139.512C192.304 136.402 192.304 133.18 192.304 129.883C192.304 128.005 192.304 126.155 192.304 124.335V121.635C192.304 121.181 192.304 120.758 192.304 120.292C192.344 119.842 192.44 119.399 192.59 118.973C193.259 117.388 194.14 115.9 195.208 114.551C196.009 113.179 196.41 111.61 196.365 110.023L196.515 110.172C196.311 110.189 196.105 110.161 195.914 110.089C195.722 110.017 195.549 109.903 195.407 109.755C195.263 109.601 195.169 109.405 195.14 109.195C195.14 108.978 195.14 108.822 195.14 108.635C195.128 108.451 195.128 108.266 195.14 108.082C195.177 107.877 195.274 107.689 195.42 107.541C195.559 107.405 195.725 107.301 195.907 107.234C196.089 107.168 196.284 107.141 196.477 107.155H200.483H203.288C203.616 107.145 203.936 107.254 204.19 107.46C204.314 107.565 204.411 107.699 204.474 107.849C204.537 107.999 204.563 108.162 204.551 108.324C204.551 108.617 204.551 108.878 204.551 109.189C204.482 109.481 204.307 109.738 204.06 109.908C203.813 110.078 203.511 110.15 203.213 110.11L203.319 110.004C203.26 111.619 203.666 113.216 204.489 114.607C205.211 115.589 205.871 116.615 206.467 117.679C206.838 118.352 207.099 119.081 207.238 119.838C207.27 120.033 207.288 120.231 207.294 120.429C207.34 120.501 207.371 120.581 207.387 120.665Z" fill="#263238"/>
<path d="M202.927 109.997C200.859 110.215 198.775 110.215 196.707 109.997C198.775 109.78 200.859 109.78 202.927 109.997Z" fill="#263238"/>
<path d="M206.765 123.283C206.431 123.12 206.063 123.044 205.692 123.06C205.322 123.076 204.961 123.185 204.644 123.376C204.008 123.763 203.321 124.058 202.603 124.253C201.727 124.334 200.85 124.115 200.115 123.631C199.382 123.153 198.61 122.737 197.808 122.387C197.011 122.116 196.154 122.075 195.335 122.267C194.515 122.46 193.767 122.878 193.174 123.476V140.27C193.174 140.27 194.101 143.137 200.607 142.689C207.113 142.242 206.597 139.368 206.597 139.368L206.765 123.283Z" fill="#BE4848"/>
<path d="M257.041 256.839V276.301C257.041 277.16 256.357 278.037 255.088 278.708C253.4 279.505 251.548 279.891 249.682 279.834C245.073 279.834 242.324 278.012 242.324 276.301V256.864C242.324 256.864 242.324 256.864 242.324 256.82C242.324 254.917 243.73 252.933 245.136 250.973C246.087 249.661 246.311 247.77 246.38 246.663C246.38 246.532 246.38 246.414 246.38 246.308H246.212C245.941 246.327 245.673 246.239 245.467 246.062C245.261 245.885 245.133 245.634 245.111 245.363V244.542C245.131 244.271 245.259 244.019 245.465 243.841C245.672 243.664 245.94 243.576 246.212 243.597H253.128C253.334 243.59 253.537 243.64 253.716 243.741C253.894 243.841 254.042 243.99 254.142 244.169C254.197 244.286 254.224 244.413 254.223 244.542V245.363C254.202 245.633 254.076 245.884 253.871 246.061C253.666 246.239 253.399 246.327 253.128 246.308H252.998C252.998 246.414 252.998 246.532 252.998 246.663C253.041 247.77 253.265 249.661 254.211 250.973C255.623 252.933 257.016 254.917 257.028 256.82C257.047 256.814 257.041 256.827 257.041 256.839Z" fill="#FAFAFA"/>
<path d="M257.04 256.839C257.044 256.773 257.044 256.707 257.04 256.64C257.027 256.444 257.002 256.249 256.966 256.056C256.799 255.321 256.525 254.614 256.151 253.96C255.548 252.914 254.879 251.909 254.148 250.949C253.296 249.545 252.864 247.926 252.904 246.284V246.166H253.01C253.253 246.203 253.502 246.147 253.707 246.01C253.911 245.873 254.058 245.665 254.117 245.426C254.117 245.183 254.117 244.878 254.117 244.598C254.128 244.471 254.109 244.343 254.06 244.225C254.012 244.107 253.935 244.002 253.837 243.921C253.625 243.753 253.36 243.667 253.091 243.678H250.304H246.323C246.168 243.664 246.012 243.684 245.865 243.735C245.718 243.787 245.584 243.869 245.471 243.976C245.367 244.084 245.297 244.221 245.272 244.368C245.262 244.536 245.262 244.704 245.272 244.872C245.272 245.04 245.272 245.245 245.272 245.388C245.292 245.54 245.359 245.682 245.465 245.793C245.579 245.907 245.718 245.995 245.871 246.049C246.024 246.103 246.187 246.121 246.348 246.104H246.497V246.259C246.49 247.056 246.403 247.85 246.236 248.629C246.077 249.447 245.76 250.227 245.303 250.924C244.261 252.254 243.403 253.719 242.753 255.278C242.611 255.68 242.521 256.098 242.485 256.522C242.485 256.933 242.485 257.393 242.485 257.828C242.485 258.712 242.485 259.607 242.485 260.515V266.014C242.485 269.292 242.485 272.495 242.485 275.587C242.467 275.956 242.483 276.327 242.535 276.694C242.627 277.041 242.805 277.36 243.051 277.62C243.555 278.156 244.165 278.58 244.843 278.864C246.172 279.387 247.583 279.669 249.01 279.698C250.381 279.769 251.755 279.646 253.091 279.331C254.352 279.086 255.509 278.466 256.412 277.552C256.607 277.329 256.755 277.069 256.847 276.787C256.915 276.5 256.938 276.204 256.916 275.91C256.916 275.288 256.916 274.703 256.916 274.119C256.916 272.943 256.916 271.823 256.916 270.747C256.916 266.462 256.953 262.991 256.966 260.571C256.966 259.383 256.966 258.457 256.997 257.81C257.028 257.163 256.997 256.846 256.997 256.846C257.034 257.166 257.046 257.488 257.034 257.81C257.034 258.432 257.034 259.383 257.034 260.571C257.034 262.991 257.065 266.462 257.09 270.747C257.09 271.823 257.09 272.943 257.09 274.119C257.09 274.703 257.09 275.3 257.09 275.91C257.114 276.229 257.087 276.551 257.009 276.862C256.909 277.179 256.746 277.473 256.53 277.726C255.592 278.683 254.387 279.334 253.072 279.592C251.711 279.921 250.309 280.053 248.911 279.984C247.435 279.953 245.977 279.656 244.606 279.107C243.92 278.812 243.301 278.378 242.79 277.832C242.511 277.533 242.311 277.17 242.206 276.775C242.145 276.384 242.125 275.988 242.143 275.593V257.816C242.143 257.368 242.143 256.945 242.143 256.485C242.185 256.035 242.281 255.593 242.429 255.166C243.094 253.594 243.969 252.119 245.029 250.781C245.822 249.418 246.22 247.861 246.18 246.284L246.323 246.427C246.122 246.444 245.919 246.416 245.73 246.345C245.54 246.274 245.369 246.162 245.228 246.017C245.083 245.863 244.991 245.667 244.967 245.457C244.967 245.245 244.967 245.09 244.967 244.903C244.955 244.719 244.955 244.534 244.967 244.35C245.007 244.148 245.104 243.962 245.247 243.815C245.385 243.68 245.55 243.576 245.731 243.51C245.913 243.443 246.106 243.416 246.298 243.429H250.279H253.066C253.391 243.418 253.71 243.527 253.961 243.734C254.085 243.838 254.182 243.971 254.245 244.12C254.307 244.269 254.334 244.431 254.322 244.592C254.322 244.885 254.322 245.146 254.322 245.451C254.247 245.738 254.071 245.988 253.827 246.157C253.583 246.326 253.286 246.402 252.991 246.371L253.097 246.265C253.039 247.866 253.44 249.451 254.254 250.831C254.976 251.804 255.633 252.824 256.219 253.885C256.59 254.554 256.85 255.279 256.99 256.031C257.024 256.224 257.041 256.42 257.04 256.616C257.059 256.771 257.053 256.839 257.04 256.839Z" fill="#263238"/>
<path d="M252.613 246.234C250.566 246.45 248.502 246.45 246.455 246.234C248.502 246.018 250.566 246.018 252.613 246.234Z" fill="#263238"/>
<path d="M256.426 259.439C256.095 259.275 255.729 259.197 255.36 259.212C254.992 259.228 254.633 259.336 254.317 259.526C253.687 259.911 253.007 260.206 252.296 260.403C251.42 260.482 250.543 260.262 249.808 259.781C249.08 259.301 248.312 258.885 247.513 258.537C246.721 258.269 245.871 258.229 245.058 258.422C244.245 258.614 243.503 259.031 242.916 259.625V276.332C242.916 276.332 243.83 279.187 250.293 278.74C256.756 278.292 256.252 275.437 256.252 275.437L256.426 259.439Z" fill="#BE4848"/>
<g opacity="0.5">
<path d="M256.426 259.439C256.095 259.275 255.729 259.197 255.36 259.212C254.992 259.228 254.633 259.336 254.317 259.526C253.687 259.911 253.007 260.206 252.296 260.403C251.42 260.482 250.543 260.262 249.808 259.781C249.08 259.301 248.312 258.885 247.513 258.537C246.721 258.269 245.871 258.229 245.058 258.422C244.245 258.614 243.503 259.031 242.916 259.625V276.332C242.916 276.332 243.83 279.187 250.293 278.74C256.756 278.292 256.252 275.437 256.252 275.437L256.426 259.439Z" fill="white"/>
</g>
<path d="M267.166 186.112C266.954 186.025 266.722 185.993 266.494 186.019C266.266 186.045 266.048 186.128 265.86 186.261C265.767 186.323 265.667 186.398 265.574 186.472C262.416 188.807 258.578 190.038 254.652 189.974C247.007 189.974 240.675 185.689 239.543 180.091V179.033C239.553 178.927 239.54 178.821 239.506 178.72C239.472 178.619 239.418 178.527 239.346 178.448C239.274 178.37 239.187 178.307 239.09 178.264C238.993 178.221 238.888 178.199 238.781 178.199C238.675 178.199 238.57 178.221 238.473 178.264C238.375 178.307 238.288 178.37 238.216 178.448C238.145 178.527 238.09 178.619 238.056 178.72C238.022 178.821 238.01 178.927 238.019 179.033V181.994C238.024 182.064 238.039 182.133 238.063 182.199C237.537 183.361 237.26 184.619 237.248 185.894C237.248 192.356 244.09 197.606 252.555 197.606C259.652 197.606 265.617 193.918 267.359 188.898C267.38 188.876 267.393 188.848 267.396 188.817C267.598 188.417 267.71 187.978 267.726 187.53C267.772 187.265 267.744 186.992 267.646 186.742C267.547 186.492 267.381 186.274 267.166 186.112Z" fill="#BE4848"/>
<g opacity="0.3">
<path d="M238.973 182.977C238.973 182.977 246.182 199.559 265.719 187.953C265.719 187.953 260.687 193.177 254.125 194.446C248.178 195.585 239.371 192.232 238.973 182.977Z" fill="black"/>
</g>
<path d="M267.703 186.945C267.585 187.231 267.118 187.312 266.664 187.119C266.21 186.927 265.936 186.535 266.042 186.249C266.148 185.963 266.627 185.888 267.081 186.081C267.535 186.273 267.827 186.659 267.703 186.945Z" fill="#263238"/>
<path d="M274.986 80.0351C274.935 80.0442 274.882 80.0442 274.831 80.0351H274.389H272.753L267.261 80.0849H267.217V80.0414C267.174 79.749 267.13 79.4194 267.081 79.1332C266.701 76.4711 266.365 74.095 266.141 72.54H266.172H264.306C264.263 72.5454 264.219 72.5454 264.176 72.54H264.306H264.698H266.16H266.191V72.5711C266.421 74.1199 266.776 76.496 267.174 79.1519C267.217 79.4629 267.261 79.7739 267.304 80.06L267.255 80.0165H272.747H274.98L274.986 80.0351Z" fill="#263238"/>
<path d="M267.024 78.4806C267.024 78.4806 267.024 78.4806 267.067 78.4806H267.179H267.621H269.275L274.973 78.4247L274.923 78.4682C275.085 77.5041 275.265 76.4654 275.446 75.3955C275.539 74.8419 275.632 74.2946 275.725 73.7783L275.775 73.8405H269.058H266.389C266.358 73.8405 266.346 73.8405 266.346 73.8405H266.532H267.067H269.058L275.775 73.7845H275.837V73.8467L275.564 75.4577C275.377 76.5338 275.197 77.5725 275.035 78.5677V78.605H274.991H269.294H267.042L267.024 78.4806Z" fill="#263238"/>
<path d="M269.226 82.1623C269.226 82.1623 269.226 82.0939 269.183 81.9757C269.135 81.8144 269.034 81.674 268.897 81.5776C268.798 81.5076 268.683 81.4625 268.563 81.4463C268.443 81.43 268.32 81.4431 268.206 81.4843C268.068 81.5365 267.948 81.6296 267.864 81.7513C267.78 81.873 267.735 82.0174 267.735 82.1654C267.735 82.3134 267.78 82.4579 267.864 82.5796C267.948 82.7013 268.068 82.7944 268.206 82.8465C268.32 82.8902 268.443 82.904 268.564 82.8866C268.685 82.8692 268.8 82.8211 268.897 82.747C269.031 82.6486 269.129 82.5087 269.177 82.3489C269.214 82.2307 269.214 82.1623 269.22 82.1623C269.236 82.2256 269.236 82.2919 269.22 82.3551C269.181 82.534 269.082 82.6942 268.94 82.8092C268.833 82.8924 268.708 82.9478 268.574 82.9706C268.441 82.9934 268.303 82.9828 268.175 82.9398C268.014 82.8849 267.874 82.7811 267.775 82.6428C267.676 82.5044 267.623 82.3386 267.623 82.1685C267.623 81.9984 267.676 81.8326 267.775 81.6943C267.874 81.556 268.014 81.4521 268.175 81.3972C268.304 81.3517 268.442 81.3392 268.577 81.361C268.711 81.3827 268.839 81.438 268.946 81.5216C269.089 81.6333 269.189 81.7919 269.226 81.9695C269.244 82.0325 269.244 82.0993 269.226 82.1623Z" fill="#263238"/>
<path d="M274.202 82.1315C274.202 82.1315 274.202 82.063 274.158 81.9511C274.112 81.7891 274.011 81.6482 273.872 81.553C273.774 81.4815 273.659 81.4355 273.539 81.4192C273.418 81.4029 273.295 81.4168 273.182 81.4597C273.079 81.4925 272.984 81.5477 272.906 81.6214C272.827 81.6951 272.765 81.7855 272.725 81.8859C272.686 81.9863 272.669 82.0943 272.676 82.202C272.683 82.3098 272.715 82.4145 272.767 82.5087C272.82 82.603 272.893 82.6843 272.981 82.7467C273.069 82.8092 273.17 82.8513 273.277 82.87C273.383 82.8886 273.492 82.8834 273.596 82.8546C273.7 82.8259 273.797 82.7743 273.878 82.7037C274.013 82.6019 274.113 82.4606 274.164 82.2994C274.195 82.1812 274.195 82.1128 274.202 82.1128C274.218 82.1761 274.218 82.2424 274.202 82.3056C274.166 82.4842 274.069 82.6447 273.928 82.7597C273.809 82.8533 273.666 82.912 273.516 82.9291C273.366 82.9462 273.213 82.921 273.076 82.8564C272.939 82.7918 272.823 82.6904 272.741 82.5634C272.658 82.4365 272.613 82.289 272.609 82.1377C272.609 81.9683 272.661 81.8029 272.758 81.6638C272.854 81.5248 272.992 81.4188 273.151 81.3602C273.278 81.3146 273.415 81.3021 273.549 81.3239C273.683 81.3456 273.809 81.4009 273.916 81.4846C274.062 81.5936 274.162 81.7534 274.195 81.9324C274.217 81.9968 274.219 82.0659 274.202 82.1315Z" fill="#263238"/>
<path d="M275.812 75.1067C277.001 74.8501 277.756 73.6785 277.5 72.4898C277.243 71.3011 276.071 70.5455 274.883 70.802C273.694 71.0586 272.938 72.2302 273.195 73.4189C273.452 74.6076 274.623 75.3632 275.812 75.1067Z" fill="#BE4848"/>
<path d="M275.62 72.1174V73.7906H275.228V72.4284H274.893V72.1174H275.62Z" fill="white"/>
<path d="M258.353 275.71H194.057C189.289 275.71 185.424 279.575 185.424 284.343V288.486C185.424 293.254 189.289 297.119 194.057 297.119H258.353C263.121 297.119 266.987 293.254 266.987 288.486V284.343C266.987 279.575 263.121 275.71 258.353 275.71Z" fill="#BE4848"/>
<g opacity="0.3">
<path d="M258.353 275.71H194.057C189.289 275.71 185.424 279.575 185.424 284.343V288.486C185.424 293.254 189.289 297.119 194.057 297.119H258.353C263.121 297.119 266.987 293.254 266.987 288.486V284.343C266.987 279.575 263.121 275.71 258.353 275.71Z" fill="black"/>
</g>
<path d="M255.187 275.71H190.891C186.123 275.71 182.258 279.575 182.258 284.343V288.486C182.258 293.254 186.123 297.119 190.891 297.119H255.187C259.955 297.119 263.821 293.254 263.821 288.486V284.343C263.821 279.575 259.955 275.71 255.187 275.71Z" fill="#BE4848"/>
<path d="M220.586 285.239C220.586 286.334 219.79 286.999 218.477 286.999H217.233V288.536H216.512V283.473H218.49C219.79 283.473 220.586 284.138 220.586 285.239ZM219.864 285.239C219.864 284.511 219.379 284.101 218.452 284.101H217.208V286.371H218.452C219.379 286.371 219.864 285.961 219.864 285.239Z" fill="white"/>
<path d="M224.623 287.267H221.954L221.401 288.511H220.654L222.949 283.448H223.665L225.96 288.511H225.201L224.623 287.267ZM224.368 286.689L223.279 284.201L222.184 286.689H224.368Z" fill="white"/>
<path d="M228.324 286.782V288.536H227.609V286.769L225.6 283.473H226.371L227.988 286.141L229.618 283.473H230.333L228.324 286.782Z" fill="white"/>
<path d="M201.539 199.714C201.724 198.521 201.67 197.304 201.382 196.132C201.094 194.96 200.577 193.857 199.861 192.885C199.144 191.914 198.243 191.094 197.208 190.473C196.174 189.851 195.027 189.441 193.833 189.265C193.701 189.213 193.557 189.202 193.419 189.233C193.281 189.264 193.155 189.336 193.058 189.439C192.961 189.542 192.897 189.671 192.874 189.811C192.852 189.951 192.871 190.094 192.931 190.222C193.148 192.548 194.098 194.745 195.642 196.497C197.187 198.25 199.247 199.467 201.527 199.975" fill="#455A64"/>
<path d="M188.72 216.602C191.028 221.361 194.318 224.564 198.454 224.719C199.275 224.719 199.897 224.209 200.681 224.16C201.139 224.264 201.581 224.431 201.993 224.657C202.212 224.75 202.446 224.802 202.684 224.813C206.926 224.582 210.546 221.597 212.984 216.602C216.374 209.605 215.329 202.091 210.645 199.808C210.029 199.501 209.386 199.251 208.723 199.062C207.967 198.851 207.182 198.758 206.397 198.788C204.57 198.904 202.773 199.309 201.073 199.989L200.843 200.076C197.036 198.39 194.001 198.384 191.046 199.808C186.363 202.091 185.324 209.605 188.72 216.602Z" fill="#BE4848"/>
<path d="M188.801 209.517C188.581 209.079 188.45 208.601 188.415 208.112C188.276 206.928 188.419 205.729 188.832 204.611C189.245 203.493 189.916 202.489 190.791 201.68C191.132 201.327 191.543 201.05 191.998 200.865C192.029 200.909 191.562 201.214 190.946 201.842C190.153 202.663 189.538 203.64 189.141 204.71C188.744 205.781 188.573 206.922 188.639 208.062C188.701 208.964 188.857 209.499 188.801 209.517Z" fill="#FAFAFA"/>
<path d="M189.659 212.839C189.572 212.839 189.423 212.528 189.323 212.105C189.224 211.682 189.217 211.315 189.323 211.29C189.429 211.265 189.559 211.601 189.659 212.031C189.758 212.46 189.746 212.82 189.659 212.839Z" fill="#FAFAFA"/>
<path d="M211.225 188.264C211.225 188.326 210.342 188.662 209.023 189.452C208.254 189.918 207.52 190.44 206.828 191.013C205.999 191.73 205.233 192.517 204.539 193.364C203.838 194.22 203.214 195.136 202.673 196.101C202.247 196.891 201.881 197.713 201.578 198.558C201.062 200.013 200.912 200.959 200.85 200.946C200.846 200.72 200.871 200.494 200.925 200.274C200.958 200.012 201.01 199.752 201.08 199.497C201.156 199.157 201.25 198.82 201.36 198.489C201.634 197.616 201.986 196.769 202.411 195.958C203.458 193.967 204.897 192.209 206.641 190.789C207.347 190.216 208.1 189.704 208.893 189.259C209.197 189.084 209.51 188.926 209.832 188.786C210.068 188.669 210.311 188.565 210.56 188.475C210.772 188.379 210.996 188.308 211.225 188.264Z" fill="#263238"/>
<path d="M268.828 123.171C265.028 117.871 256.96 114.239 250.404 115.216C245.093 116.005 240.39 118.475 237.815 123.749C237.644 124.094 237.558 124.474 237.565 124.859C237.571 125.243 237.67 125.621 237.853 125.959C238.036 126.297 238.298 126.587 238.616 126.803C238.934 127.019 239.299 127.156 239.681 127.201C248.532 128.258 257.478 128.229 266.321 127.114C267.69 126.94 269.307 126.561 269.4 124.875C269.409 124.259 269.207 123.657 268.828 123.171Z" fill="#BE4848"/>
<path d="M247.841 122.909C247.81 122.909 247.537 122.667 247.176 122.169C246.695 121.511 246.353 120.762 246.168 119.967C246.013 119.177 245.946 118.372 245.969 117.566C245.946 117.233 245.973 116.897 246.05 116.571C246.156 116.888 246.206 117.22 246.199 117.554C246.244 118.339 246.339 119.12 246.485 119.893C246.665 120.652 246.963 121.379 247.369 122.045C247.563 122.312 247.722 122.602 247.841 122.909Z" fill="#263238"/>
<path d="M253.476 122.649C253.377 122.649 253.514 121.144 253.321 119.315C253.128 117.486 252.699 116.05 252.78 116.019C253.283 117.036 253.575 118.145 253.638 119.278C253.808 120.401 253.753 121.547 253.476 122.649Z" fill="#263238"/>
<path d="M259.273 121.79C259.186 121.753 259.621 120.745 259.727 119.426C259.833 118.108 259.59 117.044 259.684 117.025C259.996 117.796 260.122 118.629 260.051 119.457C259.98 120.285 259.713 121.085 259.273 121.79Z" fill="#263238"/>
<g opacity="0.3">
<path d="M252.487 115.558C251.906 116.622 251.683 117.845 251.851 119.046C252.019 120.247 252.569 121.361 253.42 122.225C253.97 119.965 253.637 117.58 252.487 115.558Z" fill="black"/>
</g>
<g opacity="0.3">
<path d="M247.077 121.977C246.474 120.882 246.113 119.671 246.02 118.425C246.026 117.875 245.947 117.327 245.784 116.802C245.129 117.615 244.807 118.646 244.882 119.688C244.97 120.782 245.484 121.798 246.312 122.518C246.436 122.634 246.585 122.719 246.748 122.767C246.83 122.787 246.916 122.781 246.995 122.751C247.073 122.721 247.141 122.668 247.189 122.599C247.301 122.406 247.189 122.17 247.077 121.977Z" fill="black"/>
</g>
<g opacity="0.3">
<path d="M259.802 117.517C259.78 117.3 259.717 117.089 259.615 116.895C259.563 116.801 259.485 116.724 259.39 116.674C259.295 116.623 259.188 116.601 259.08 116.609C258.788 116.659 258.645 116.989 258.558 117.275C258.069 118.502 257.92 119.839 258.129 121.144C258.197 121.436 258.39 121.766 258.695 121.766C259 121.766 259.08 121.517 259.186 121.312C259.783 120.142 259.998 118.815 259.802 117.517Z" fill="black"/>
</g>
<path d="M187.421 157.344V157.929H186.992V157.35C186.532 157.339 186.087 157.187 185.717 156.915L185.947 156.392C186.253 156.617 186.614 156.752 186.992 156.784V155.745C186.413 155.602 185.791 155.416 185.791 154.688C185.791 154.159 186.177 153.693 186.992 153.618V152.996H187.421V153.575C187.794 153.593 188.157 153.702 188.478 153.892L188.261 154.42C188.004 154.269 187.718 154.174 187.421 154.141V155.192C188 155.329 188.628 155.515 188.628 156.237C188.628 156.803 188.236 157.257 187.421 157.344ZM186.992 155.111V154.184C186.625 154.24 186.463 154.433 186.463 154.657C186.463 154.881 186.687 155.024 186.992 155.111ZM187.962 156.318C187.962 156.063 187.732 155.938 187.421 155.851V156.772C187.801 156.716 187.962 156.541 187.962 156.318Z" fill="#263238"/>
<path d="M191.744 153.655V157.3H191.066V154.221H190.295V153.655H191.744Z" fill="#263238"/>
<path d="M193.298 156.902C193.289 157.06 193.249 157.214 193.18 157.356L192.912 158.09H192.489L192.701 157.288C192.625 157.257 192.561 157.203 192.518 157.134C192.474 157.064 192.453 156.983 192.458 156.902C192.451 156.842 192.456 156.782 192.474 156.725C192.492 156.668 192.522 156.615 192.561 156.57C192.601 156.525 192.65 156.49 192.704 156.465C192.759 156.44 192.818 156.428 192.878 156.428C192.938 156.428 192.997 156.44 193.052 156.465C193.106 156.49 193.155 156.525 193.195 156.57C193.234 156.615 193.264 156.668 193.282 156.725C193.3 156.782 193.305 156.842 193.298 156.902Z" fill="#263238"/>
<path d="M196.39 156.181C196.39 156.803 195.929 157.356 194.947 157.356C194.457 157.364 193.978 157.216 193.578 156.933L193.864 156.405C194.172 156.642 194.551 156.769 194.94 156.765C195.419 156.765 195.712 156.554 195.712 156.206C195.712 155.857 195.481 155.64 194.729 155.64H193.852L194.038 153.655H196.178V154.221H194.586L194.505 155.067H194.853C195.96 155.067 196.39 155.534 196.39 156.181Z" fill="#263238"/>
<path d="M196.781 155.478C196.781 154.278 197.441 153.612 198.305 153.612C199.17 153.612 199.829 154.29 199.829 155.478C199.829 156.666 199.176 157.344 198.305 157.344C197.434 157.344 196.781 156.679 196.781 155.478ZM199.151 155.478C199.151 154.595 198.803 154.191 198.305 154.191C197.808 154.191 197.465 154.595 197.465 155.478C197.465 156.362 197.808 156.766 198.305 156.766C198.803 156.766 199.151 156.355 199.151 155.478Z" fill="#263238"/>
<path d="M214.907 161.947C214.907 162.04 208.22 162.109 199.979 162.109C191.737 162.109 185.051 162.04 185.051 161.947C185.051 161.854 191.737 161.785 199.979 161.785C208.22 161.785 214.907 161.86 214.907 161.947Z" fill="#263238"/>
<path d="M198.939 164.379C198.939 164.472 195.829 164.54 192.004 164.54C188.179 164.54 185.062 164.472 185.062 164.379C185.062 164.285 188.173 164.217 192.004 164.217C195.836 164.217 198.939 164.291 198.939 164.379Z" fill="#263238"/>
<path d="M239.773 142.429V143.013H239.369V142.435C238.921 142.416 238.489 142.267 238.125 142.006L238.355 141.477C238.658 141.707 239.021 141.845 239.4 141.875V140.83C238.822 140.693 238.2 140.5 238.2 139.779C238.2 139.25 238.585 138.784 239.4 138.703V138.118H239.829V138.697C240.203 138.71 240.567 138.819 240.887 139.014L240.669 139.536C240.412 139.385 240.126 139.29 239.829 139.256V140.308C240.408 140.451 241.036 140.631 241.036 141.359C240.98 141.887 240.613 142.348 239.773 142.429ZM239.344 140.202V139.275C238.971 139.331 238.815 139.518 238.815 139.748C238.815 139.978 239.039 140.115 239.369 140.202H239.344ZM240.314 141.402C240.314 141.147 240.084 141.029 239.773 140.942V141.863C240.153 141.807 240.314 141.614 240.314 141.402Z" fill="#263238"/>
<path d="M245.479 141.819V142.391H242.785V141.937L244.235 140.562C244.589 140.22 244.651 140.009 244.651 139.804C244.651 139.474 244.421 139.281 243.973 139.281C243.811 139.273 243.65 139.303 243.502 139.368C243.354 139.434 243.223 139.535 243.121 139.661L242.648 139.294C242.814 139.089 243.025 138.926 243.265 138.818C243.505 138.71 243.766 138.66 244.029 138.672C244.825 138.672 245.335 139.07 245.335 139.717C245.328 139.943 245.268 140.166 245.16 140.365C245.052 140.565 244.899 140.737 244.713 140.867L243.737 141.8L245.479 141.819Z" fill="#263238"/>
<path d="M246.753 141.993C246.743 142.149 246.703 142.301 246.634 142.441L246.367 143.175H245.944L246.155 142.379C246.079 142.348 246.014 142.295 245.97 142.226C245.925 142.157 245.903 142.075 245.907 141.993C245.907 141.881 245.951 141.774 246.03 141.694C246.11 141.615 246.217 141.57 246.33 141.57C246.442 141.57 246.549 141.615 246.629 141.694C246.708 141.774 246.753 141.881 246.753 141.993Z" fill="#263238"/>
<path d="M249.889 141.819V142.391H247.195V141.937L248.645 140.563C248.999 140.221 249.061 140.009 249.061 139.804C249.061 139.474 248.831 139.281 248.383 139.281C248.222 139.273 248.06 139.303 247.912 139.369C247.764 139.435 247.633 139.535 247.531 139.661L247.059 139.294C247.225 139.088 247.437 138.925 247.678 138.817C247.919 138.709 248.182 138.659 248.446 138.672C249.236 138.672 249.746 139.07 249.746 139.717C249.738 139.944 249.679 140.166 249.571 140.366C249.463 140.565 249.31 140.737 249.124 140.868L248.147 141.801L249.889 141.819Z" fill="#263238"/>
<path d="M252.929 141.272C252.929 141.894 252.468 142.441 251.486 142.441C250.996 142.451 250.516 142.303 250.117 142.018L250.403 141.496C250.71 141.73 251.087 141.855 251.473 141.85C251.958 141.85 252.244 141.639 252.244 141.297C252.244 140.955 252.021 140.724 251.268 140.724H250.385L250.577 138.74H252.717V139.312H251.15L251.069 140.152H251.417C252.499 140.152 252.929 140.625 252.929 141.272Z" fill="#263238"/>
<path d="M267.26 147.038C267.26 147.125 260.574 147.199 252.332 147.199C244.091 147.199 237.404 147.125 237.404 147.038C237.404 146.951 244.097 146.876 252.332 146.876C260.568 146.876 267.26 146.951 267.26 147.038Z" fill="#263238"/>
<path d="M251.307 149.469C251.307 149.556 248.197 149.631 244.365 149.631C240.533 149.631 237.43 149.556 237.43 149.469C237.43 149.382 240.54 149.308 244.365 149.308C248.19 149.308 251.307 149.382 251.307 149.469Z" fill="#263238"/>
<path d="M186.226 233.048V233.632H185.797V233.048C185.337 233.035 184.893 232.883 184.521 232.612L184.758 232.09C185.06 232.317 185.42 232.453 185.797 232.481V231.443C185.218 231.3 184.602 231.113 184.602 230.392C184.602 229.857 184.988 229.396 185.797 229.316V228.725H186.226V229.316C186.599 229.334 186.962 229.443 187.283 229.633L187.072 230.161C186.812 230.011 186.524 229.916 186.226 229.882V230.933C186.804 231.076 187.432 231.256 187.432 231.978C187.432 232.5 187.047 232.96 186.226 233.048ZM185.797 230.815V229.888C185.43 229.95 185.274 230.137 185.274 230.367C185.274 230.597 185.498 230.721 185.797 230.808V230.815ZM186.767 232.021C186.767 231.766 186.537 231.648 186.226 231.555V232.481C186.605 232.426 186.767 232.239 186.767 232.015V232.021Z" fill="#263238"/>
<path d="M189.287 231.181C189.287 229.981 189.946 229.315 190.811 229.315C191.676 229.315 192.335 229.987 192.335 231.181C192.335 232.376 191.682 233.047 190.811 233.047C189.94 233.047 189.287 232.376 189.287 231.181ZM191.657 231.181C191.657 230.304 191.309 229.894 190.811 229.894C190.313 229.894 189.971 230.304 189.971 231.181C189.971 232.058 190.313 232.469 190.811 232.469C191.309 232.469 191.657 232.058 191.657 231.181Z" fill="#263238"/>
<path d="M193.565 232.606C193.556 232.762 193.516 232.914 193.447 233.054L193.18 233.788H192.763L192.968 232.992C192.894 232.959 192.831 232.905 192.788 232.836C192.744 232.767 192.723 232.687 192.726 232.606C192.719 232.547 192.724 232.486 192.742 232.429C192.76 232.372 192.789 232.319 192.829 232.274C192.869 232.23 192.917 232.194 192.972 232.169C193.027 232.145 193.086 232.132 193.146 232.132C193.205 232.132 193.265 232.145 193.319 232.169C193.374 232.194 193.423 232.23 193.462 232.274C193.502 232.319 193.532 232.372 193.549 232.429C193.567 232.486 193.573 232.547 193.565 232.606Z" fill="#263238"/>
<path d="M196.657 231.878C196.657 232.5 196.197 233.053 195.214 233.053C194.724 233.064 194.244 232.915 193.846 232.63L194.132 232.102C194.438 232.338 194.815 232.465 195.202 232.463C195.687 232.463 195.973 232.251 195.973 231.903C195.973 231.554 195.749 231.337 194.996 231.337H194.113L194.306 229.353H196.452V229.937H194.884L194.804 230.783H195.152C196.228 230.764 196.657 231.231 196.657 231.878Z" fill="#263238"/>
<path d="M197.074 231.181C197.074 229.981 197.734 229.315 198.598 229.315C199.463 229.315 200.122 229.987 200.122 231.181C200.122 232.376 199.469 233.047 198.598 233.047C197.727 233.047 197.074 232.376 197.074 231.181ZM199.444 231.181C199.444 230.304 199.096 229.894 198.598 229.894C198.101 229.894 197.758 230.304 197.758 231.181C197.758 232.058 198.101 232.469 198.598 232.469C199.096 232.469 199.419 232.058 199.419 231.181H199.444Z" fill="#263238"/>
<path d="M213.719 237.65C213.719 237.737 207.027 237.812 198.791 237.812C190.556 237.812 183.863 237.737 183.863 237.65C183.863 237.563 190.55 237.488 198.791 237.488C207.033 237.488 213.719 237.557 213.719 237.65Z" fill="#263238"/>
<path d="M197.757 240.083C197.757 240.17 194.647 240.244 190.822 240.244C186.997 240.244 183.887 240.17 183.887 240.083C183.887 239.996 186.997 239.921 190.822 239.921C194.647 239.921 197.757 239.989 197.757 240.083Z" fill="#263238"/>
<path d="M237.349 213.305V213.89H236.926V213.311C236.464 213.299 236.018 213.147 235.645 212.876L235.881 212.353C236.185 212.581 236.547 212.717 236.926 212.745V211.706C236.347 211.563 235.725 211.377 235.725 210.655C235.725 210.12 236.111 209.66 236.926 209.579V208.988H237.349V209.567C237.722 209.585 238.085 209.694 238.406 209.884L238.195 210.413C237.935 210.261 237.647 210.166 237.349 210.133V211.184C237.927 211.327 238.555 211.507 238.555 212.229C238.555 212.764 238.17 213.224 237.349 213.305ZM236.926 211.072V210.145C236.553 210.207 236.397 210.394 236.397 210.624C236.397 210.854 236.621 210.985 236.926 211.072ZM237.89 212.279C237.89 212.024 237.66 211.905 237.349 211.812V212.739C237.728 212.677 237.89 212.521 237.89 212.279Z" fill="#263238"/>
<path d="M241.672 209.617V213.262H240.994V210.183H240.223V209.617H241.672Z" fill="#263238"/>
<path d="M243.233 212.87C243.223 213.026 243.183 213.178 243.115 213.318L242.847 214.052H242.424L242.63 213.256C242.555 213.223 242.492 213.169 242.449 213.1C242.406 213.032 242.384 212.951 242.387 212.87C242.387 212.758 242.432 212.65 242.511 212.571C242.59 212.492 242.698 212.447 242.81 212.447C242.922 212.447 243.03 212.492 243.109 212.571C243.188 212.65 243.233 212.758 243.233 212.87Z" fill="#263238"/>
<path d="M243.605 211.439C243.605 210.239 244.265 209.573 245.129 209.573C245.994 209.573 246.653 210.245 246.653 211.439C246.653 212.633 246.031 213.305 245.129 213.305C244.227 213.305 243.605 212.64 243.605 211.439ZM245.975 211.439C245.975 210.562 245.627 210.152 245.129 210.152C244.632 210.152 244.29 210.562 244.29 211.439C244.29 212.316 244.632 212.727 245.129 212.727C245.627 212.727 245.975 212.322 245.975 211.439Z" fill="#263238"/>
<path d="M247.113 211.439C247.113 210.239 247.773 209.573 248.637 209.573C249.502 209.573 250.161 210.245 250.161 211.439C250.161 212.633 249.508 213.305 248.637 213.305C247.766 213.305 247.113 212.64 247.113 211.439ZM249.483 211.439C249.483 210.562 249.135 210.152 248.637 210.152C248.14 210.152 247.797 210.562 247.797 211.439C247.797 212.316 248.14 212.727 248.637 212.727C249.135 212.727 249.483 212.322 249.483 211.439Z" fill="#263238"/>
<path d="M264.872 217.914C264.872 218.001 258.179 218.076 249.944 218.076C241.708 218.076 235.016 218.001 235.016 217.914C235.016 217.827 241.702 217.746 249.944 217.746C258.185 217.746 264.872 217.821 264.872 217.914Z" fill="#263238"/>
<path d="M248.88 220.347C248.88 220.434 245.77 220.508 241.945 220.508C238.12 220.508 235.01 220.434 235.01 220.347C235.01 220.26 238.12 220.179 241.945 220.179C245.77 220.179 248.88 220.253 248.88 220.347Z" fill="#263238"/>
<path d="M242.33 78.4986C242.33 78.5857 235.121 78.6604 226.232 78.6604C217.344 78.6604 210.129 78.5857 210.129 78.4986C210.129 78.4116 217.338 78.3369 226.232 78.3369C235.127 78.3369 242.33 78.4053 242.33 78.4986Z" fill="#BE4848"/>
</g>
<g filter="url(#filter3_dd_2439_14725)">
<path d="M32.6174 271.642C31.6551 271.681 30.7338 272.042 30.0009 272.667C29.2679 273.292 28.7656 274.144 28.5744 275.088C28.1702 276.605 27.8525 278.144 27.6227 279.697C27.6227 279.697 23.9716 282.981 27.6227 283.858C31.2739 284.735 32.5987 279.815 32.5987 279.815L33.1585 271.617L32.6174 271.642Z" fill="#FFBE9D"/>
<path d="M69.1777 208.789C69.1777 208.789 80.5852 170.48 81.7484 168.832C83.6641 166.102 102.131 157.891 102.131 157.891L107.107 147.79L137.778 142.857L145.385 152.648L166.763 168.359L165.271 222.548L164.474 260.384L168.524 307.619L71.4294 307.439L75.8207 297.487L80.4297 211.576L69.1777 208.789Z" fill="#BE4848"/>
<path d="M82.3329 203.62C82.3047 203.519 82.2921 203.414 82.2956 203.309C82.2956 203.066 82.2956 202.774 82.2459 202.419C82.2459 201.648 82.1774 200.553 82.1526 199.154C82.1028 196.392 82.1028 192.579 82.221 188.368C82.3392 184.157 82.5631 180.351 82.7746 177.595C82.8741 176.221 82.9736 175.107 83.0545 174.342L83.1478 173.459C83.1572 173.356 83.1759 173.254 83.2037 173.154C83.2214 173.257 83.2214 173.362 83.2037 173.465C83.2037 173.702 83.2037 173.994 83.1664 174.349C83.1229 175.17 83.0607 176.271 82.986 177.614C82.8368 180.37 82.6502 184.17 82.532 188.381C82.4138 192.592 82.3765 196.392 82.3703 199.154C82.3703 200.497 82.3703 201.598 82.3703 202.419C82.3703 202.774 82.3703 203.041 82.3703 203.309C82.3727 203.414 82.3601 203.519 82.3329 203.62Z" fill="#263238"/>
<g opacity="0.3">
<path d="M104.327 192.618C104.304 192.188 104.429 191.764 104.682 191.417C105.108 190.895 105.692 190.526 106.346 190.364C107 190.203 107.688 190.258 108.308 190.521C109.932 191.299 110.74 193.165 111.07 194.938C111.424 196.878 111.375 198.881 111.742 200.822C112.109 202.762 112.986 204.74 114.696 205.742C116.805 206.986 119.573 206.426 121.787 207.471C125.084 209.02 125.849 213.305 126.017 216.95C126.328 223.848 126.017 230.752 125.73 237.65L123.827 281.7L122.092 303.8L113.16 307.594L101.342 229.938L104.327 192.618Z" fill="black"/>
</g>
<path d="M106.885 186.322C106.818 186.38 106.74 186.422 106.655 186.447C106.412 186.534 106.151 186.559 105.896 186.521C105.429 186.439 104.993 186.23 104.635 185.917C104.278 185.605 104.013 185.201 103.868 184.749C103.676 184.129 103.615 183.477 103.688 182.833C103.77 182.112 103.891 181.396 104.049 180.687C104.347 179.182 104.671 177.54 105.019 175.817C105.716 172.365 106.363 169.242 106.848 166.984L107.47 164.316C107.53 163.987 107.615 163.662 107.725 163.346C107.712 163.681 107.668 164.014 107.594 164.341C107.464 165.031 107.302 165.939 107.103 167.034C106.674 169.298 106.058 172.427 105.361 175.879C105.007 177.602 104.671 179.244 104.366 180.743C104.061 182.242 103.744 183.598 104.111 184.68C104.236 185.103 104.472 185.484 104.793 185.786C105.114 186.088 105.51 186.298 105.94 186.397C106.256 186.442 106.579 186.417 106.885 186.322Z" fill="#263238"/>
<path d="M110.032 171.91C110.032 171.941 109.777 171.941 109.354 172.072C108.761 172.268 108.239 172.636 107.855 173.129C107.567 173.479 107.373 173.898 107.292 174.344C107.212 174.791 107.247 175.251 107.395 175.68C107.558 176.212 107.877 176.683 108.31 177.031C108.744 177.38 109.273 177.59 109.827 177.634C110.382 177.679 110.937 177.555 111.421 177.28C111.905 177.004 112.294 176.59 112.539 176.09C112.753 175.691 112.861 175.243 112.852 174.79C112.844 174.337 112.719 173.893 112.489 173.503C112.191 172.953 111.733 172.507 111.177 172.221C110.779 172.022 110.555 171.985 110.555 171.954C110.555 171.923 110.617 171.954 110.735 171.954C110.911 171.977 111.083 172.026 111.245 172.097C111.858 172.355 112.371 172.804 112.707 173.378C112.945 173.774 113.091 174.218 113.136 174.678C113.185 175.212 113.077 175.748 112.825 176.221C112.558 176.78 112.128 177.244 111.592 177.554C111.055 177.863 110.438 178.002 109.82 177.953C109.203 177.904 108.615 177.669 108.134 177.278C107.654 176.888 107.303 176.361 107.128 175.767C106.953 175.26 106.931 174.712 107.065 174.193C107.209 173.65 107.496 173.156 107.895 172.761C108.294 172.366 108.791 172.085 109.336 171.948C109.508 171.902 109.686 171.881 109.864 171.885C109.921 171.884 109.978 171.892 110.032 171.91Z" fill="#263238"/>
<path d="M120.474 211.513L64.3948 201.362L38.2148 207.11L96.7948 217.652L120.474 211.513Z" fill="#BE4848"/>
<g opacity="0.6">
<path d="M120.474 211.513L64.3948 201.362L38.2148 207.11L96.7948 217.652L120.474 211.513Z" fill="black"/>
</g>
<path d="M84.6172 235.97C85.376 225.633 88.2124 199.378 90.3396 189.233C90.9616 186.198 91.708 183.094 93.4496 180.525C95.1912 177.956 98.2639 176.078 101.324 176.551C104.061 176.974 106.263 179.194 107.37 181.732C108.452 184.299 108.935 187.08 108.782 189.861C108.253 202.401 107.171 216.446 107.183 228.071" fill="#455A64"/>
<path d="M103.606 211.352C102.925 211.607 102.232 211.827 101.528 212.011C98.1807 213.045 94.977 214.498 91.993 216.334C91.3913 216.744 90.7685 217.122 90.127 217.466C90.127 217.466 90.27 217.31 90.5686 217.074C90.8671 216.838 91.3088 216.52 91.8686 216.141C93.3383 215.165 94.8837 214.308 96.49 213.578C98.0969 212.848 99.7612 212.251 101.466 211.793C102.119 211.619 102.654 211.495 103.021 211.426C103.212 211.376 103.408 211.351 103.606 211.352Z" fill="#263238"/>
<path d="M104.54 199.422C104.54 199.471 103.7 199.658 102.357 200.075C98.8496 201.152 95.5739 202.874 92.6969 205.15C91.5959 206.021 90.9553 206.618 90.918 206.581C91.0341 206.41 91.1698 206.253 91.3223 206.114C91.5959 205.828 92.0127 205.436 92.5663 204.976C93.9739 203.772 95.5115 202.729 97.1504 201.866C98.7898 201.005 100.519 200.327 102.307 199.844C102.845 199.694 103.391 199.571 103.943 199.477C104.138 199.428 104.339 199.409 104.54 199.422Z" fill="#263238"/>
<path d="M103.282 189.818C103.282 189.874 102.616 189.905 101.565 190.098C100.198 190.351 98.8734 190.793 97.6279 191.41C96.3855 192.034 95.2345 192.825 94.2069 193.761C93.417 194.483 92.9629 195.005 92.9629 194.962C92.9629 194.918 93.0375 194.806 93.2179 194.564C93.4737 194.22 93.7543 193.896 94.0576 193.594C96.0706 191.567 98.6925 190.256 101.522 189.862C101.946 189.803 102.374 189.773 102.803 189.774C103.114 189.781 103.276 189.793 103.282 189.818Z" fill="#263238"/>
<path d="M96.3099 219.724C96.3071 219.742 96.3071 219.761 96.3099 219.78V255.669C96.3099 257.243 95.066 258.866 92.7086 260.098C90.3512 261.329 86.9862 262.169 82.7566 262.175H82.7006C74.2103 262.175 69.1348 258.823 69.1348 255.669V219.78C69.1363 219.761 69.1363 219.742 69.1348 219.724C69.1348 219.724 69.1348 219.68 69.1348 219.655C69.1348 216.147 71.7285 212.484 74.3285 208.864C76.0701 206.45 76.4868 202.967 76.5677 200.927C76.5677 200.678 76.5677 200.46 76.5677 200.261H76.3313C76.0841 200.283 75.8352 200.254 75.5991 200.178C75.363 200.102 75.1445 199.98 74.9562 199.818C74.768 199.657 74.6139 199.459 74.5029 199.237C74.3919 199.015 74.3263 198.774 74.3098 198.526V197.008C74.3247 196.76 74.3892 196.517 74.4995 196.293C74.6098 196.07 74.7636 195.871 74.952 195.708C75.1404 195.545 75.3595 195.422 75.5964 195.345C75.8333 195.268 76.0832 195.239 76.3313 195.261H89.0823C89.4612 195.248 89.8362 195.341 90.1655 195.529C90.4949 195.717 90.7658 195.992 90.9483 196.324C91.0502 196.538 91.1033 196.772 91.1038 197.008V198.526C91.0874 198.774 91.0215 199.016 90.9102 199.239C90.7988 199.461 90.6441 199.659 90.4552 199.821C90.2663 199.982 90.047 200.104 89.8101 200.18C89.5733 200.256 89.3237 200.284 89.0761 200.261H88.8459C88.8459 200.46 88.8459 200.678 88.8459 200.927C88.9268 202.967 89.3435 206.45 91.0914 208.864C93.6851 212.484 96.2664 216.147 96.2851 219.655C96.31 219.68 96.3099 219.711 96.3099 219.724Z" fill="#FAFAFA"/>
<path d="M96.311 219.724C96.3193 219.601 96.3193 219.479 96.311 219.357C96.2882 218.998 96.2446 218.641 96.1804 218.287C95.8818 216.922 95.3807 215.61 94.6938 214.393C93.5896 212.462 92.3639 210.602 91.024 208.826C90.232 207.654 89.6666 206.344 89.357 204.964C88.9882 203.425 88.7962 201.85 88.7848 200.267V200.156H88.8967C89.3683 200.187 89.8384 200.077 90.2465 199.838C90.4516 199.72 90.6282 199.557 90.7636 199.363C90.8991 199.168 90.9901 198.946 91.0302 198.712C91.0302 198.234 91.0302 197.692 91.0302 197.176C91.0517 196.927 91.0126 196.676 90.9162 196.446C90.8198 196.215 90.669 196.011 90.4766 195.851C90.0701 195.522 89.5564 195.353 89.0336 195.379H83.871H76.5252C76.2236 195.352 75.9198 195.39 75.6344 195.491C75.349 195.592 75.0885 195.753 74.8706 195.963C74.6629 196.179 74.5243 196.452 74.4726 196.747C74.4564 197.064 74.4564 197.382 74.4726 197.699C74.4726 198.016 74.4726 198.377 74.4726 198.669C74.5164 198.971 74.6509 199.253 74.8582 199.478C75.0804 199.704 75.3506 199.877 75.6488 199.985C75.9471 200.092 76.2657 200.132 76.5811 200.1H76.7304V200.255C76.7202 201.719 76.5618 203.177 76.2577 204.609C75.9559 206.099 75.3733 207.517 74.541 208.789C73.664 210.033 72.7621 211.277 71.9286 212.596C71.066 213.905 70.3565 215.31 69.8138 216.782C69.5499 217.529 69.3807 218.306 69.31 219.095C69.2664 219.873 69.31 220.706 69.31 221.515V236.63C69.31 242.669 69.31 248.572 69.31 254.27C69.2762 254.966 69.3096 255.663 69.4095 256.353C69.5843 257.01 69.9199 257.613 70.386 258.107C71.3237 259.104 72.4622 259.89 73.7262 260.415C74.9671 260.934 76.2599 261.32 77.5826 261.566C78.878 261.811 80.1899 261.958 81.5074 262.007C84.0444 262.136 86.5869 261.904 89.0585 261.317C90.239 261.029 91.3842 260.612 92.4732 260.073C93.5277 259.57 94.4709 258.862 95.2474 257.989C95.6102 257.561 95.8869 257.067 96.0622 256.534C96.1928 255.995 96.2389 255.438 96.199 254.885V251.576C96.199 249.418 96.199 247.34 96.199 245.356C96.199 237.444 96.2363 231.05 96.2488 226.597C96.2612 222.143 96.3048 219.717 96.3048 219.717C96.3236 219.868 96.3236 220.021 96.3048 220.171C96.3048 220.482 96.3048 220.924 96.3048 221.496C96.3048 222.672 96.3048 224.389 96.3048 226.597C96.3048 231.038 96.3048 237.444 96.3545 245.356C96.3545 247.334 96.3545 249.412 96.3545 251.576V255.731C96.3465 256.028 96.3005 256.323 96.2177 256.608C96.0344 257.176 95.7406 257.703 95.3531 258.157C94.5576 259.063 93.5863 259.797 92.4981 260.315C91.3918 260.855 90.2302 261.272 89.0336 261.559C86.5666 262.15 84.0292 262.393 81.4949 262.281C80.1629 262.235 78.8363 262.087 77.5266 261.839C76.1808 261.589 74.8652 261.197 73.6018 260.67C72.2925 260.143 71.1128 259.338 70.1434 258.313C69.6419 257.789 69.2803 257.147 69.0923 256.447C68.9813 255.733 68.9438 255.01 68.9803 254.288V221.527C68.9803 220.706 68.9803 219.91 68.9803 219.083C69.0556 218.268 69.2311 217.466 69.5028 216.694C70.0538 215.198 70.776 213.77 71.6549 212.44C72.4884 211.115 73.4027 209.865 74.2797 208.627C75.0842 207.383 75.6475 205.999 75.9405 204.547C76.2404 203.14 76.4008 201.706 76.4194 200.267L76.5625 200.411C76.2072 200.442 75.8493 200.394 75.5148 200.271C75.1802 200.147 74.8774 199.95 74.6281 199.695C74.3797 199.429 74.2209 199.092 74.174 198.731C74.174 198.364 74.174 198.059 74.174 197.723C74.1557 197.39 74.1557 197.056 74.174 196.722C74.2385 196.373 74.4052 196.05 74.6529 195.795C74.8986 195.558 75.1921 195.375 75.5138 195.259C75.8354 195.143 76.1781 195.097 76.5189 195.124H83.8648H88.9963C89.5745 195.102 90.1406 195.292 90.5886 195.658C90.8054 195.841 90.9752 196.073 91.0834 196.335C91.1917 196.597 91.2353 196.881 91.2106 197.164C91.2106 197.699 91.2106 198.19 91.2106 198.731C91.1671 198.997 91.0653 199.249 90.9126 199.471C90.7599 199.692 90.56 199.877 90.3273 200.012C89.8831 200.27 89.3714 200.387 88.8594 200.348L88.9589 200.249C89.0149 203.527 89.6494 206.562 91.1297 208.714C92.4607 210.499 93.6741 212.369 94.7622 214.312C95.4456 215.541 95.9325 216.87 96.2052 218.249C96.2652 218.618 96.3005 218.99 96.311 219.363C96.3326 219.482 96.3326 219.604 96.311 219.724Z" fill="#263238"/>
<path d="M88.1503 200.174C86.2642 200.338 84.3701 200.392 82.4777 200.336C80.5832 200.392 78.6871 200.338 76.7988 200.174C78.6873 200.014 80.5832 199.96 82.4777 200.013C84.3701 199.96 86.264 200.014 88.1503 200.174Z" fill="#263238"/>
<path d="M95.1776 224.52C94.0331 223.773 92.5217 224.103 91.2901 224.688C90.0585 225.272 88.8954 226.087 87.5581 226.299C85.9844 226.554 84.3983 225.926 82.9988 225.136C81.5993 224.346 80.2745 223.369 78.7692 222.828C77.3093 222.335 75.7403 222.261 74.2405 222.615C72.7407 222.969 71.3703 223.737 70.2852 224.831V255.645C70.2852 255.645 71.977 260.901 83.8945 260.08C95.812 259.259 94.8728 253.99 94.8728 253.99L95.1776 224.52Z" fill="#BE4848"/>
<path d="M63.6051 203.545C63.7814 202.408 63.7305 201.247 63.4553 200.13C63.1801 199.012 62.6861 197.96 62.0018 197.035C61.3176 196.109 60.4566 195.329 59.4688 194.738C58.481 194.147 57.3859 193.758 56.2469 193.593C56.0381 193.54 55.8169 193.564 55.6249 193.662C55.3698 193.836 55.3636 194.203 55.3885 194.508C55.5969 196.731 56.5034 198.83 57.9783 200.506C59.4532 202.182 61.4207 203.348 63.5989 203.838" fill="#455A64"/>
<path d="M51.3704 219.661C53.5723 224.202 56.7383 227.262 60.6631 227.412C61.4468 227.412 62.0377 226.92 62.7841 226.877C63.2181 226.978 63.6365 227.137 64.0281 227.349C64.2248 227.436 64.4355 227.487 64.6501 227.499C68.7056 227.281 72.1577 224.432 74.484 219.661C77.7246 212.987 76.7232 205.816 72.251 203.632C71.6641 203.34 71.052 203.1 70.4223 202.917C69.6988 202.723 68.9507 202.635 68.2018 202.656C66.4727 202.779 64.7732 203.17 63.1636 203.813L62.9459 203.894C59.3072 202.289 56.4086 202.277 53.6159 203.639C49.1188 205.816 48.1236 212.987 51.3704 219.661Z" fill="#BE4848"/>
<path d="M51.4456 212.901C51.2333 212.482 51.1065 212.025 51.0724 211.557C50.9401 210.427 51.0768 209.282 51.4714 208.215C51.8659 207.149 52.5071 206.19 53.3427 205.418C53.6724 205.084 54.0658 204.82 54.4996 204.641C54.4996 204.69 54.0891 204.977 53.4982 205.58C52.7431 206.37 52.1569 207.305 51.7753 208.329C51.3966 209.355 51.2357 210.448 51.3026 211.539C51.3523 212.372 51.5265 212.882 51.4456 212.901Z" fill="#FAFAFA"/>
<path d="M52.2731 216.073C52.186 216.073 52.0367 215.78 51.9434 215.37C51.8501 214.959 51.8439 214.617 51.9434 214.598C52.0429 214.58 52.1736 214.891 52.2731 215.301C52.3726 215.712 52.3602 216.054 52.2731 216.073Z" fill="#FAFAFA"/>
<path d="M72.8491 192.617C72.8491 192.673 72.0157 192.997 70.753 193.755C70.0184 194.198 69.3196 194.697 68.6631 195.248C67.8643 195.93 67.1256 196.679 66.455 197.487C65.7978 198.307 65.211 199.181 64.7009 200.1C64.2921 200.853 63.9427 201.637 63.656 202.445C63.1646 203.826 63.034 204.734 62.9531 204.721C62.9533 204.512 62.9763 204.304 63.0215 204.099C63.052 203.849 63.1019 203.602 63.1708 203.359C63.2426 203.031 63.3319 202.707 63.4383 202.389C63.7 201.556 64.0351 200.749 64.4397 199.975C65.4339 198.073 66.8078 196.394 68.4765 195.043C69.1539 194.49 69.8805 194.001 70.6473 193.581C70.9645 193.388 71.2693 193.258 71.5429 193.127C71.7684 193.014 72.0011 192.917 72.2396 192.835C72.4334 192.738 72.638 192.665 72.8491 192.617Z" fill="#263238"/>
<path d="M38.2152 207.11L31.168 296.006L96.8512 311.886C96.8512 311.886 119.766 304.117 120.077 303.588C120.388 303.059 120.475 211.532 120.475 211.532L96.7952 217.671L38.2152 207.11Z" fill="#BE4848"/>
<g opacity="0.4">
<path d="M38.2152 207.11L31.168 296.006L96.8512 311.886C96.8512 311.886 119.766 304.117 120.077 303.588C120.388 303.059 120.475 211.532 120.475 211.532L96.7952 217.671L38.2152 207.11Z" fill="black"/>
</g>
<path d="M141.238 103.559L137.575 155.44C137.286 159.522 135.461 163.344 132.467 166.134C129.473 168.923 125.532 170.474 121.44 170.474C119.224 170.478 117.031 170.028 114.997 169.15C112.962 168.272 111.13 166.985 109.614 165.37C108.097 163.754 106.929 161.844 106.182 159.758C105.434 157.672 105.123 155.455 105.268 153.244C105.591 148.306 105.89 144.256 105.89 144.256C105.89 144.256 93.3317 142.303 93.1762 129.745C93.0891 122.493 94.3393 106.035 95.4092 93.4266C95.7603 89.3085 97.6469 85.4729 100.695 82.6811C103.742 79.8892 107.728 78.3453 111.861 78.3555H119.443C122.544 78.5377 125.577 79.3395 128.363 80.7135C131.148 82.0876 133.63 84.006 135.662 86.3555C137.694 88.705 139.234 91.4379 140.192 94.3927C141.15 97.3475 141.505 100.464 141.238 103.559Z" fill="#FFBE9D"/>
<path d="M105.913 144.257C105.913 144.257 113.831 144.723 122.266 139.424C122.266 139.424 118.223 148.561 105.689 147.429L105.913 144.257Z" fill="#EB996E"/>
<path d="M97.7907 106.377C98.0147 106.613 99.3706 105.605 101.305 105.612C103.239 105.618 104.645 106.582 104.857 106.346C104.956 106.24 104.732 105.823 104.116 105.369C103.281 104.794 102.289 104.488 101.274 104.492C100.27 104.493 99.291 104.809 98.4749 105.394C97.884 105.854 97.685 106.277 97.7907 106.377Z" fill="#263238"/>
<path d="M118.703 108.598C118.701 109.064 118.88 109.514 119.203 109.851C119.525 110.189 119.966 110.388 120.432 110.408C120.662 110.427 120.893 110.4 121.111 110.329C121.33 110.258 121.533 110.144 121.707 109.993C121.881 109.842 122.023 109.658 122.124 109.451C122.226 109.245 122.285 109.02 122.298 108.79C122.303 108.323 122.125 107.871 121.802 107.533C121.479 107.195 121.037 106.997 120.569 106.98C120.34 106.96 120.108 106.986 119.889 107.057C119.67 107.128 119.467 107.242 119.293 107.393C119.119 107.544 118.977 107.728 118.876 107.935C118.774 108.142 118.716 108.367 118.703 108.598Z" fill="#263238"/>
<path d="M99.5313 108.598C99.5277 109.065 99.7063 109.515 100.029 109.853C100.352 110.191 100.794 110.39 101.26 110.408C101.49 110.428 101.721 110.402 101.94 110.331C102.16 110.26 102.362 110.146 102.537 109.995C102.711 109.844 102.853 109.66 102.954 109.453C103.055 109.246 103.114 109.021 103.126 108.791C103.133 108.323 102.957 107.872 102.635 107.534C102.312 107.195 101.87 106.997 101.404 106.981C101.173 106.958 100.941 106.983 100.721 107.053C100.5 107.123 100.297 107.238 100.122 107.389C99.9465 107.54 99.804 107.725 99.7026 107.933C99.6011 108.141 99.5429 108.367 99.5313 108.598Z" fill="#263238"/>
<path d="M116.568 106.383C116.792 106.613 118.154 105.606 120.082 105.612C122.011 105.618 123.423 106.582 123.634 106.346C123.734 106.24 123.51 105.823 122.894 105.369C122.058 104.794 121.066 104.488 120.051 104.492C119.047 104.494 118.068 104.809 117.252 105.394C116.661 105.854 116.462 106.277 116.568 106.383Z" fill="#263238"/>
<path d="M109.566 120.689C109.566 120.583 108.378 120.378 106.456 120.129C105.964 120.073 105.498 119.98 105.417 119.644C105.372 119.135 105.485 118.625 105.74 118.182L107.202 114.45C109.224 109.107 110.692 104.716 110.474 104.635C110.256 104.554 108.44 108.821 106.418 114.164C105.9 115.462 105.434 116.712 105.019 117.915C104.713 118.511 104.623 119.194 104.764 119.849C104.836 120.023 104.947 120.179 105.088 120.304C105.229 120.429 105.397 120.52 105.579 120.571C105.85 120.645 106.131 120.685 106.412 120.689C108.347 120.794 109.56 120.801 109.566 120.689Z" fill="#263238"/>
<path d="M115.243 122.027C114.932 122.027 114.926 124.104 113.135 125.591C111.343 127.077 109.11 126.835 109.092 127.139C109.092 127.27 109.589 127.544 110.535 127.575C111.762 127.59 112.955 127.174 113.906 126.399C114.817 125.65 115.403 124.578 115.542 123.407C115.623 122.537 115.386 122.014 115.243 122.027Z" fill="#263238"/>
<path d="M116.07 100.107C116.263 100.629 118.185 100.381 120.424 100.654C122.664 100.928 124.523 101.544 124.822 101.077C124.959 100.853 124.635 100.356 123.901 99.8332C122.92 99.2018 121.803 98.8117 120.642 98.695C119.484 98.5542 118.309 98.6928 117.215 99.0993C116.406 99.4476 115.99 99.8581 116.07 100.107Z" fill="#263238"/>
<path d="M98.0571 100.854C98.3992 101.295 99.7303 100.854 101.329 100.817C102.927 100.779 104.277 101.115 104.594 100.655C104.725 100.431 104.513 99.9892 103.923 99.5787C103.129 99.0793 102.204 98.8279 101.267 98.8567C100.329 98.8855 99.422 99.1932 98.6604 99.7404C98.0944 100.188 97.9078 100.642 98.0571 100.854Z" fill="#263238"/>
<path d="M137.001 113.001C137.219 112.908 145.634 110.451 145.361 119.034C145.087 127.618 136.522 125.571 136.516 125.329C136.509 125.086 137.001 113.001 137.001 113.001Z" fill="#FFBE9D"/>
<path d="M139.229 122.138C139.266 122.138 139.378 122.25 139.627 122.374C139.976 122.537 140.376 122.557 140.74 122.43C141.661 122.126 142.469 120.714 142.556 119.165C142.606 118.43 142.486 117.694 142.208 117.013C142.136 116.742 141.999 116.492 141.81 116.285C141.62 116.078 141.383 115.92 141.119 115.825C140.949 115.774 140.765 115.784 140.601 115.855C140.438 115.925 140.304 116.051 140.224 116.21C140.099 116.447 140.149 116.621 140.106 116.633C140.062 116.646 139.925 116.484 140.006 116.13C140.063 115.919 140.188 115.734 140.361 115.601C140.602 115.43 140.902 115.361 141.194 115.408C141.544 115.49 141.868 115.66 142.135 115.901C142.401 116.143 142.602 116.448 142.718 116.789C143.057 117.546 143.209 118.374 143.16 119.202C143.048 120.931 142.108 122.518 140.858 122.841C140.625 122.9 140.382 122.906 140.146 122.859C139.91 122.811 139.688 122.712 139.496 122.567C139.229 122.331 139.229 122.157 139.229 122.138Z" fill="#EB996E"/>
<path d="M141.779 112.69C140.473 112.373 138.209 113.585 137.649 114.811C137.089 116.036 136.965 117.423 136.405 118.649C135.845 119.874 134.589 120.987 133.295 120.676C132.851 120.536 132.452 120.281 132.138 119.937C131.825 119.593 131.608 119.172 131.51 118.717C131.329 117.803 131.329 116.863 131.51 115.949C132.014 111.937 132.853 107.963 133.015 103.926C133.177 99.889 132.604 95.6905 130.483 92.2508C128.362 88.8112 124.469 86.2796 120.438 86.6031C117.77 86.8208 115.325 88.214 112.676 88.581C111.099 88.7898 109.495 88.6367 107.986 88.1334C106.478 87.6301 105.103 86.7898 103.968 85.6763C103.675 85.3902 102.338 84.5007 102.338 84.5007C102.338 84.2954 102.531 82.5041 103.24 81.851C108.496 76.9869 117.975 75.631 124.923 77.3788C131.87 79.1266 138.383 84.028 141.368 90.5403C144.354 97.0527 143.471 106.09 141.822 112.69" fill="#263238"/>
<path d="M94.0591 91.1626C95.1849 93.7688 98.0586 95.2864 100.901 95.5726C103.744 95.8587 106.549 95.1247 109.279 94.3286C112.01 93.5324 119.343 92.3382 122.186 92.4252C122.609 92.4252 123.119 92.4252 123.349 92.0707C123.648 91.5918 123.169 91.0133 122.727 90.6712C118.995 87.7354 109.933 85.9378 105.18 85.7387C100.428 85.5397 95.4462 87.6047 92.8711 91.5793" fill="#263238"/>
<path d="M95.2969 91.486C95.2969 91.486 128.263 80.912 142.494 109.393C142.494 109.393 144.621 102.259 144.621 98.4338C144.621 95.8836 143.098 80.6695 127.448 75.8863C127.448 75.8863 103.868 66.8922 95.2969 91.486Z" fill="#BE4848"/>
<g opacity="0.4">
<path d="M95.2969 91.486C98.0375 88.6001 101.795 86.8955 105.771 86.7339C115.493 86.2985 133.681 91.7659 142.469 109.393C142.469 109.393 144.597 102.259 144.597 98.4338C144.597 95.8836 143.073 80.6695 127.423 75.8863C127.448 75.8863 103.868 66.8922 95.2969 91.486Z" fill="black"/>
</g>
<path d="M141.094 106.053C136.097 98.6132 129.549 92.343 121.899 87.6732C114.348 82.9397 101.827 78.2623 93.2001 75.9671C90.6126 75.2829 87.9131 74.6796 85.2696 75.1399C82.6261 75.6001 80.0386 77.3542 79.3855 79.9542C78.5645 83.2072 84.3615 88.2267 87.0548 90.1985C89.7135 91.9706 92.4668 93.5964 95.3025 95.0687C95.3025 95.0687 95.2279 89.0353 104.888 87.7914C118.018 86.0995 141.094 106.053 141.094 106.053Z" fill="#BE4848"/>
<path d="M114.099 81.4349C114.099 81.4349 109.347 78.8101 104.582 78.2005C105.375 77.575 106.245 77.0525 107.17 76.6455C109.758 77.0744 112.261 77.9143 114.584 79.1335L114.099 81.4349Z" fill="#FAFAFA"/>
<path d="M155.487 167.016C155.487 167.016 146.48 177.31 147.475 191.635C147.612 193.619 147.712 196.387 147.954 198.365C149.472 210.655 151.823 222.063 151.823 222.063H152.681L184.086 214.307C184.086 214.307 179.353 187.044 178.264 183.424C174.787 171.836 162.864 165.461 162.864 165.461L155.487 167.016Z" fill="#BE4848"/>
<path d="M120.077 303.588C120.077 303.588 120.077 303.433 120.077 303.128C120.077 302.823 120.077 302.356 120.077 301.759C120.077 300.553 120.077 298.786 120.077 296.503C120.077 291.919 120.077 285.307 120.114 277.022C120.17 260.483 120.251 237.469 120.344 211.513L120.543 211.669L108.601 214.779L96.8698 217.82L96.988 217.665C97.1497 230.677 97.1061 242.955 97.0439 254.052C96.9817 265.148 96.9195 275.057 96.8698 283.342C96.82 291.627 96.8698 298.27 96.8698 302.873C96.8698 305.162 96.8698 306.934 96.8698 308.147V309.516C96.8698 309.211 96.8698 308.744 96.8698 308.147C96.8698 306.903 96.8262 305.162 96.7889 302.873C96.7329 298.289 96.6956 291.627 96.7018 283.342C96.7081 275.057 96.7703 265.142 96.8076 254.052C96.8449 242.962 96.8822 230.677 96.7143 217.671V217.541L96.8387 217.509L108.563 214.468L120.512 211.358L120.717 211.302V211.513C120.58 237.469 120.462 260.49 120.381 277.022C120.325 285.283 120.276 291.919 120.245 296.503C120.245 298.786 120.207 300.553 120.195 301.759C120.195 302.381 120.195 302.811 120.195 303.128C120.195 303.445 120.077 303.588 120.077 303.588Z" fill="#263238"/>
<path d="M105.534 148.505C105.534 148.505 104.29 160.453 108.308 162.313C112.843 164.403 117.365 162.357 120.126 160.584C127.534 155.857 138.544 142.726 138.544 142.726L146.008 152.417C146.008 152.417 127.211 175.008 123.435 174.859C120.947 174.766 117.122 172.371 114.727 170.685C113.417 169.77 112.249 168.665 111.263 167.407L108.01 163.271C103.948 165.274 100.664 167.843 98.3937 171.133C98.3937 171.133 97.3115 162.767 99.2583 158.973C101.205 155.179 105.086 148.629 105.086 148.629L105.534 148.505Z" fill="#BE4848"/>
<path d="M99.0287 159.296C99.0136 159.368 98.9885 159.437 98.9541 159.501C98.8981 159.651 98.8173 159.843 98.7115 160.086C98.4533 160.859 98.2679 161.655 98.1579 162.462C97.7968 165.437 97.7968 168.444 98.1579 171.419L97.934 171.375C98.9804 169.608 100.347 168.051 101.965 166.785C103.795 165.297 105.796 164.029 107.923 163.009L108.023 162.96L108.097 163.047C109.41 164.571 110.797 166.157 112.259 167.768C113.721 169.455 115.367 170.974 117.166 172.296C118.026 172.905 118.96 173.4 119.947 173.77C120.432 173.947 120.931 174.082 121.439 174.174C121.937 174.255 122.443 174.274 122.945 174.23C124.966 174.044 126.677 172.887 128.095 171.668L140.964 157.946L144.696 154.009L145.697 152.97L145.959 152.703L146.058 152.622L145.984 152.722L145.735 153.008L144.771 154.078L141.101 158.077L128.325 171.873C127.588 172.529 126.783 173.105 125.924 173.59C125.025 174.1 124.029 174.418 123.001 174.523C122.469 174.566 121.935 174.547 121.408 174.467C120.881 174.374 120.362 174.234 119.86 174.05C118.843 173.67 117.88 173.162 116.992 172.539C115.167 171.204 113.497 169.669 112.016 167.961C110.548 166.343 109.161 164.751 107.855 163.221L108.035 163.258C105.928 164.27 103.945 165.522 102.126 166.99C100.548 168.23 99.2095 169.748 98.1766 171.469L97.99 171.792L97.9527 171.425C97.6052 168.431 97.6386 165.404 98.0522 162.419C98.1798 161.61 98.3881 160.816 98.6742 160.049C98.7862 159.788 98.8857 159.601 98.9479 159.47C98.971 159.411 98.998 159.352 99.0287 159.296Z" fill="#263238"/>
<g opacity="0.3">
<path d="M99.4877 169.367C99.3621 169.68 99.339 170.025 99.4217 170.353C99.5044 170.68 99.6886 170.973 99.948 171.189C100.207 171.289 100.488 171.315 100.762 171.266C101.035 171.216 101.289 171.093 101.497 170.909C101.904 170.536 102.256 170.107 102.542 169.634C103.286 168.562 104.18 167.603 105.198 166.785C106.199 165.977 107.574 165.293 108.724 165.865C109.444 166.34 109.99 167.037 110.279 167.849C111.841 171.04 113.713 174.287 116.767 176.109C119.821 177.932 123.746 178.013 127.111 176.825C130.456 175.522 133.399 173.362 135.645 170.561C137.872 167.768 139.848 164.784 141.547 161.642C142.953 159.209 144.377 156.703 144.813 153.929C144.427 154.146 143.519 155.546 143.133 155.764C143.133 155.764 128.635 171.73 127.272 172.558C125.91 173.385 122.153 178.896 111.511 166.96L107.99 163.141C107.99 163.141 101.285 166.394 99.4877 169.367Z" fill="black"/>
</g>
<path d="M138.321 203.814L122.379 201.369L121.641 206.183L137.583 208.628L138.321 203.814Z" fill="white"/>
<path d="M181.451 214.909L156.571 220.924L159.444 244.392L111.799 280.176C109.896 280.443 107.943 280.748 106.86 281.022C104.254 281.644 99.6513 288.206 98.3513 288.859L89.0649 296.024C89.0649 296.024 88.25 299.283 92.4859 298.63C96.7217 297.977 101.443 294.724 101.934 294.724C102.425 294.724 103.906 295.713 103.178 297.834C102.556 299.7 100.006 306.119 100.006 306.119L96.8523 311.904C96.8523 311.904 110.487 312.352 114.268 307.295C116.856 303.861 124.842 294.127 124.842 294.127C124.842 294.127 180.928 266.535 184.293 260.757C188.877 252.895 181.451 214.909 181.451 214.909Z" fill="#FFBE9D"/>
<path d="M169.98 254.506C170.013 253.65 169.976 252.793 169.868 251.943C169.567 249.892 168.561 248.008 167.023 246.617C165.485 245.226 163.511 244.413 161.44 244.318C160.583 244.294 159.726 244.342 158.877 244.461C159.089 244.359 159.316 244.29 159.549 244.255C160.174 244.123 160.813 244.066 161.452 244.088C163.596 244.123 165.654 244.936 167.243 246.375C168.832 247.815 169.845 249.782 170.092 251.912C170.169 252.546 170.169 253.188 170.092 253.822C170.088 254.054 170.05 254.285 169.98 254.506Z" fill="#EB996E"/>
<path d="M108.053 303.141C108.004 303.674 107.896 304.199 107.73 304.708C107.411 305.966 106.948 307.183 106.349 308.334C105.752 309.512 104.844 310.504 103.724 311.202C103.382 311.406 103.01 311.557 102.623 311.65C102.483 311.698 102.334 311.713 102.188 311.693C102.678 311.504 103.153 311.276 103.606 311.009C104.653 310.283 105.508 309.311 106.094 308.179C106.667 307.043 107.14 305.859 107.506 304.64C107.644 304.125 107.827 303.623 108.053 303.141Z" fill="#EB996E"/>
<path d="M114.659 300.97C114.564 301.492 114.404 302 114.18 302.481C113.711 303.672 113.167 304.831 112.55 305.952C111.931 307.073 111.241 308.153 110.485 309.186C110.198 309.642 109.855 310.06 109.465 310.43C109.705 309.958 109.983 309.507 110.298 309.081C110.833 308.266 111.542 307.121 112.264 305.821C112.985 304.521 113.564 303.333 113.968 302.419C114.156 301.917 114.387 301.432 114.659 300.97Z" fill="#EB996E"/>
<path d="M114.479 260.353C114.547 260.613 114.585 260.88 114.591 261.149C114.647 261.659 114.691 262.393 114.716 263.319C114.833 268.12 114.139 272.906 112.663 277.476C112.377 278.347 112.128 279.05 111.929 279.523C111.844 279.776 111.734 280.02 111.6 280.25C111.641 279.986 111.712 279.727 111.811 279.479C111.973 278.994 112.191 278.285 112.433 277.408C113.101 275.122 113.608 272.792 113.951 270.435C114.287 268.078 114.462 265.701 114.473 263.319C114.473 262.405 114.473 261.665 114.473 261.155C114.45 260.888 114.452 260.619 114.479 260.353Z" fill="#263238"/>
<path d="M101 267.823C101.303 268.459 101.564 269.113 101.784 269.782C102.244 271.026 102.885 272.681 103.65 274.516C104.415 276.351 105.124 277.999 105.653 279.187C105.964 279.818 106.236 280.469 106.467 281.134C106.066 280.547 105.725 279.922 105.447 279.268C104.863 278.098 104.11 276.463 103.351 274.621C102.592 272.78 101.989 271.082 101.585 269.838C101.328 269.186 101.132 268.511 101 267.823Z" fill="#263238"/>
<path d="M97.3865 283.927C97.2611 283.981 97.1295 284.018 96.9947 284.039L95.8564 284.313C95.3588 284.431 94.7555 284.568 94.0402 284.686C93.3249 284.804 92.5225 284.978 91.6144 285.09C90.7063 285.202 89.7484 285.358 88.6599 285.451C87.5714 285.544 86.4456 285.625 85.2451 285.693C80.0163 285.925 74.7787 285.526 69.6453 284.505C68.4698 284.25 67.3439 284.027 66.3114 283.74C65.2789 283.454 64.3148 283.205 63.444 282.938C62.5732 282.671 61.7895 282.403 61.1053 282.173C60.4211 281.943 59.8613 281.719 59.3699 281.551L58.2814 281.116C58.153 281.067 58.0283 281.008 57.9082 280.941C58.0453 280.961 58.1792 280.998 58.3063 281.053L59.4134 281.433C59.8862 281.607 60.4771 281.818 61.1613 282.055C61.8455 282.291 62.6292 282.54 63.5062 282.77C64.3832 283 65.3349 283.293 66.3736 283.529C67.4124 283.765 68.5257 284.02 69.7013 284.263C72.259 284.74 74.8396 285.085 77.4328 285.295C80.0283 285.482 82.6319 285.532 85.2327 285.445C86.4331 285.382 87.5714 285.339 88.635 285.233C89.6986 285.127 90.6814 285.028 91.5833 284.916C92.4852 284.804 93.2938 284.667 94.0091 284.555C94.7244 284.443 95.3339 284.338 95.8315 284.238L96.9822 284.027C97.1127 283.978 97.2484 283.945 97.3865 283.927Z" fill="#263238"/>
<path d="M95.0172 273.11C93.9879 272.734 92.9983 272.257 92.0627 271.686C91.0777 271.208 90.1404 270.637 89.2637 269.981C90.2949 270.353 91.285 270.831 92.2182 271.406C93.2057 271.879 94.1433 272.45 95.0172 273.11Z" fill="#263238"/>
<path d="M184.087 214.306L183.931 214.355L183.471 214.48L181.692 214.934L174.999 216.588L151.861 222.186L151.693 222.224V222.056C151.04 217.783 150.144 213.174 149.279 208.372C148.713 205.168 148.222 202.027 147.886 198.98C147.55 195.932 147.401 192.965 147.358 190.141C147.289 187.468 147.445 184.795 147.824 182.148C148.161 179.833 148.849 177.582 149.864 175.474C150.733 173.747 151.895 172.183 153.298 170.853C154.353 169.847 155.565 169.019 156.887 168.402C157.727 168.027 158.608 167.749 159.511 167.575L160.22 167.488C160.301 167.479 160.382 167.479 160.463 167.488C160.384 167.513 160.303 167.53 160.22 167.537L159.524 167.662C158.633 167.854 157.767 168.146 156.943 168.533C155.645 169.171 154.457 170.011 153.422 171.021C152.052 172.349 150.918 173.902 150.069 175.611C149.082 177.703 148.416 179.932 148.091 182.223C147.726 184.858 147.581 187.519 147.656 190.178C147.706 192.99 147.868 195.938 148.203 198.98C148.539 202.021 149.037 205.156 149.603 208.353C150.461 213.149 151.351 217.764 152.004 222.037L151.811 221.906L174.981 216.402L181.692 214.834L183.483 214.43L183.95 214.331C183.994 214.318 184.04 214.31 184.087 214.306Z" fill="#263238"/>
</g>
</g>
<defs>
<filter id="filter0_dd_2439_14725" x="7.80273" y="29" width="327.089" height="318.449" filterUnits="userSpaceOnUse" color-interpolation-filters="sRGB">
<feFlood flood-opacity="0" result="BackgroundImageFix"/>
<feColorMatrix in="SourceAlpha" type="matrix" values="0 0 0 0 0 0 0 0 0 0 0 0 0 0 0 0 0 0 127 0" result="hardAlpha"/>
<feMorphology radius="5" operator="erode" in="SourceAlpha" result="effect1_dropShadow_2439_14725"/>
<feOffset dy="20"/>
<feGaussianBlur stdDeviation="12.5"/>
<feComposite in2="hardAlpha" operator="out"/>
<feColorMatrix type="matrix" values="0 0 0 0 0.0627451 0 0 0 0 0.0941176 0 0 0 0 0.156863 0 0 0 0.1 0"/>
<feBlend mode="normal" in2="BackgroundImageFix" result="effect1_dropShadow_2439_14725"/>
<feColorMatrix in="SourceAlpha" type="matrix" values="0 0 0 0 0 0 0 0 0 0 0 0 0 0 0 0 0 0 127 0" result="hardAlpha"/>
<feMorphology radius="6" operator="erode" in="SourceAlpha" result="effect2_dropShadow_2439_14725"/>
<feOffset dy="8"/>
<feGaussianBlur stdDeviation="5"/>
<feComposite in2="hardAlpha" operator="out"/>
<feColorMatrix type="matrix" values="0 0 0 0 0.0627451 0 0 0 0 0.0941176 0 0 0 0 0.156863 0 0 0 0.1 0"/>
<feBlend mode="normal" in2="effect1_dropShadow_2439_14725" result="effect2_dropShadow_2439_14725"/>
<feBlend mode="normal" in="SourceGraphic" in2="effect2_dropShadow_2439_14725" result="shape"/>
</filter>
<filter id="filter1_dd_2439_14725" x="14.0234" y="307.824" width="307.634" height="40.3235" filterUnits="userSpaceOnUse" color-interpolation-filters="sRGB">
<feFlood flood-opacity="0" result="BackgroundImageFix"/>
<feColorMatrix in="SourceAlpha" type="matrix" values="0 0 0 0 0 0 0 0 0 0 0 0 0 0 0 0 0 0 127 0" result="hardAlpha"/>
<feMorphology radius="5" operator="erode" in="SourceAlpha" result="effect1_dropShadow_2439_14725"/>
<feOffset dy="20"/>
<feGaussianBlur stdDeviation="12.5"/>
<feComposite in2="hardAlpha" operator="out"/>
<feColorMatrix type="matrix" values="0 0 0 0 0.0627451 0 0 0 0 0.0941176 0 0 0 0 0.156863 0 0 0 0.1 0"/>
<feBlend mode="normal" in2="BackgroundImageFix" result="effect1_dropShadow_2439_14725"/>
<feColorMatrix in="SourceAlpha" type="matrix" values="0 0 0 0 0 0 0 0 0 0 0 0 0 0 0 0 0 0 127 0" result="hardAlpha"/>
<feMorphology radius="6" operator="erode" in="SourceAlpha" result="effect2_dropShadow_2439_14725"/>
<feOffset dy="8"/>
<feGaussianBlur stdDeviation="5"/>
<feComposite in2="hardAlpha" operator="out"/>
<feColorMatrix type="matrix" values="0 0 0 0 0.0627451 0 0 0 0 0.0941176 0 0 0 0 0.156863 0 0 0 0.1 0"/>
<feBlend mode="normal" in2="effect1_dropShadow_2439_14725" result="effect2_dropShadow_2439_14725"/>
<feBlend mode="normal" in="SourceGraphic" in2="effect2_dropShadow_2439_14725" result="shape"/>
</filter>
<filter id="filter2_dd_2439_14725" x="145.375" y="51.5811" width="161.648" height="296.58" filterUnits="userSpaceOnUse" color-interpolation-filters="sRGB">
<feFlood flood-opacity="0" result="BackgroundImageFix"/>
<feColorMatrix in="SourceAlpha" type="matrix" values="0 0 0 0 0 0 0 0 0 0 0 0 0 0 0 0 0 0 127 0" result="hardAlpha"/>
<feMorphology radius="5" operator="erode" in="SourceAlpha" result="effect1_dropShadow_2439_14725"/>
<feOffset dy="20"/>
<feGaussianBlur stdDeviation="12.5"/>
<feComposite in2="hardAlpha" operator="out"/>
<feColorMatrix type="matrix" values="0 0 0 0 0.0627451 0 0 0 0 0.0941176 0 0 0 0 0.156863 0 0 0 0.1 0"/>
<feBlend mode="normal" in2="BackgroundImageFix" result="effect1_dropShadow_2439_14725"/>
<feColorMatrix in="SourceAlpha" type="matrix" values="0 0 0 0 0 0 0 0 0 0 0 0 0 0 0 0 0 0 127 0" result="hardAlpha"/>
<feMorphology radius="6" operator="erode" in="SourceAlpha" result="effect2_dropShadow_2439_14725"/>
<feOffset dy="8"/>
<feGaussianBlur stdDeviation="5"/>
<feComposite in2="hardAlpha" operator="out"/>
<feColorMatrix type="matrix" values="0 0 0 0 0.0627451 0 0 0 0 0.0941176 0 0 0 0 0.156863 0 0 0 0.1 0"/>
<feBlend mode="normal" in2="effect1_dropShadow_2439_14725" result="effect2_dropShadow_2439_14725"/>
<feBlend mode="normal" in="SourceGraphic" in2="effect2_dropShadow_2439_14725" result="shape"/>
</filter>
<filter id="filter3_dd_2439_14725" x="6" y="74.2812" width="199.787" height="277.633" filterUnits="userSpaceOnUse" color-interpolation-filters="sRGB">
<feFlood flood-opacity="0" result="BackgroundImageFix"/>
<feColorMatrix in="SourceAlpha" type="matrix" values="0 0 0 0 0 0 0 0 0 0 0 0 0 0 0 0 0 0 127 0" result="hardAlpha"/>
<feMorphology radius="5" operator="erode" in="SourceAlpha" result="effect1_dropShadow_2439_14725"/>
<feOffset dy="20"/>
<feGaussianBlur stdDeviation="12.5"/>
<feComposite in2="hardAlpha" operator="out"/>
<feColorMatrix type="matrix" values="0 0 0 0 0.0627451 0 0 0 0 0.0941176 0 0 0 0 0.156863 0 0 0 0.1 0"/>
<feBlend mode="normal" in2="BackgroundImageFix" result="effect1_dropShadow_2439_14725"/>
<feColorMatrix in="SourceAlpha" type="matrix" values="0 0 0 0 0 0 0 0 0 0 0 0 0 0 0 0 0 0 127 0" result="hardAlpha"/>
<feMorphology radius="6" operator="erode" in="SourceAlpha" result="effect2_dropShadow_2439_14725"/>
<feOffset dy="8"/>
<feGaussianBlur stdDeviation="5"/>
<feComposite in2="hardAlpha" operator="out"/>
<feColorMatrix type="matrix" values="0 0 0 0 0.0627451 0 0 0 0 0.0941176 0 0 0 0 0.156863 0 0 0 0.1 0"/>
<feBlend mode="normal" in2="effect1_dropShadow_2439_14725" result="effect2_dropShadow_2439_14725"/>
<feBlend mode="normal" in="SourceGraphic" in2="effect2_dropShadow_2439_14725" result="shape"/>
</filter>
<clipPath id="clip0_2439_14725">
<rect width="340" height="339" fill="white"/>
</clipPath>
</defs>
</svg>
