<svg width="12" height="12" viewBox="0 0 12 12" fill="none" xmlns="http://www.w3.org/2000/svg">
<g clip-path="url(#clip0_981_22616)">
<path d="M6.99877 12C6.89058 12 6.78532 11.9649 6.69877 11.9L4.69877 10.4C4.63667 10.3534 4.58627 10.293 4.55156 10.2236C4.51684 10.1542 4.49877 10.0776 4.49877 10V7.19L0.99077 3.2435C0.74163 2.96244 0.578959 2.61541 0.52231 2.24412C0.46566 1.87283 0.517442 1.49308 0.671431 1.15051C0.825421 0.807938 1.07507 0.517129 1.39036 0.313033C1.70565 0.108936 2.07318 0.000237209 2.44877 0L9.54877 0C9.92432 0.000440525 10.2918 0.10932 10.6069 0.313553C10.9221 0.517787 11.1716 0.808686 11.3254 1.15129C11.4792 1.4939 11.5308 1.87364 11.4741 2.24487C11.4173 2.61611 11.2545 2.96305 11.0053 3.244L7.49877 7.19V11.5C7.49877 11.6326 7.44609 11.7598 7.35232 11.8536C7.25855 11.9473 7.13138 12 6.99877 12Z" fill="black"/>
</g>
<defs>
<clipPath id="clip0_981_22616">
<rect width="12" height="12" fill="white"/>
</clipPath>
</defs>
</svg>
