<svg width="18" height="18" viewBox="0 0 18 18" fill="none" xmlns="http://www.w3.org/2000/svg">
<path d="M3.06652 8.64641L2.71297 8.99997L3.06652 9.35352L7.22153 13.5085C7.23097 13.518 7.2382 13.5327 7.2382 13.5525C7.2382 13.5723 7.23097 13.587 7.22152 13.5964L7.21543 13.6025L7.2106 13.6077C7.20987 13.6081 7.20835 13.609 7.2058 13.61C7.1988 13.6128 7.18858 13.615 7.17758 13.615C7.16781 13.615 7.1602 13.6132 7.15438 13.6109C7.14903 13.6087 7.14206 13.6048 7.13363 13.5964L2.58113 9.04391C2.57169 9.03447 2.56445 9.01977 2.56445 8.99997C2.56445 8.98016 2.57169 8.96546 2.58113 8.95602L7.13363 4.40352C7.14307 4.39408 7.15777 4.38684 7.17758 4.38684C7.19739 4.38684 7.21208 4.39408 7.22153 4.40352C7.23097 4.41296 7.2382 4.42766 7.2382 4.44747C7.2382 4.46728 7.23097 4.48197 7.22152 4.49141L3.06652 8.64641Z" fill="white" stroke="white"/>
<path d="M15.3749 9.0625H2.75244C2.73938 9.0625 2.72372 9.0573 2.70943 9.04301C2.69514 9.02872 2.68994 9.01306 2.68994 9C2.68994 8.98694 2.69514 8.97128 2.70943 8.95699C2.72372 8.9427 2.73938 8.9375 2.75244 8.9375H15.3749C15.388 8.9375 15.4037 8.9427 15.4179 8.95699C15.4322 8.97128 15.4374 8.98694 15.4374 9C15.4374 9.01306 15.4322 9.02872 15.4179 9.04301C15.4037 9.0573 15.388 9.0625 15.3749 9.0625Z" fill="white" stroke="white"/>
</svg>
