<svg width="20" height="20" viewBox="0 0 20 20" fill="none" xmlns="http://www.w3.org/2000/svg">
<path d="M12.2495 18.9583H7.74948C3.63281 18.9583 1.88281 17.2 1.88281 13.0916V9.34998C1.88281 9.00831 2.16615 8.72498 2.50781 8.72498C2.84948 8.72498 3.13281 9.00831 3.13281 9.34998V13.0916C3.13281 16.5 4.34115 17.7083 7.74948 17.7083H12.2411C15.6495 17.7083 16.8578 16.5 16.8578 13.0916V9.34998C16.8578 9.00831 17.1411 8.72498 17.4828 8.72498C17.8245 8.72498 18.1078 9.00831 18.1078 9.34998V13.0916C18.1161 17.2 16.3578 18.9583 12.2495 18.9583Z" fill="#A3A3A3"/>
<path d="M9.99919 10.625C9.08252 10.625 8.24919 10.2666 7.65752 9.60829C7.06585 8.94996 6.79085 8.09163 6.88252 7.17496L7.44085 1.60829C7.47419 1.29163 7.74085 1.04163 8.06585 1.04163H11.9575C12.2825 1.04163 12.5492 1.28329 12.5825 1.60829L13.1409 7.17496C13.2325 8.09163 12.9575 8.94996 12.3659 9.60829C11.7492 10.2666 10.9159 10.625 9.99919 10.625ZM8.62419 2.29163L8.12419 7.29996C8.06585 7.85829 8.23252 8.38329 8.58252 8.76663C9.29085 9.54996 10.7075 9.54996 11.4159 8.76663C11.7659 8.37496 11.9325 7.84996 11.8742 7.29996L11.3742 2.29163H8.62419Z" fill="#A3A3A3"/>
<path d="M15.258 10.625C13.5663 10.625 12.058 9.25829 11.883 7.57496L11.2997 1.73329C11.283 1.55829 11.3413 1.38329 11.458 1.24996C11.5747 1.11663 11.7413 1.04163 11.9247 1.04163H14.4663C16.9163 1.04163 18.058 2.06663 18.3997 4.58329L18.633 6.89996C18.733 7.88329 18.433 8.81663 17.7913 9.52496C17.1497 10.2333 16.2497 10.625 15.258 10.625ZM12.6163 2.29163L13.133 7.44996C13.2413 8.49163 14.208 9.37496 15.258 9.37496C15.8913 9.37496 16.458 9.13329 16.8663 8.69163C17.2663 8.24996 17.4497 7.65829 17.3913 7.02496L17.158 4.73329C16.8997 2.84996 16.2913 2.29163 14.4663 2.29163H12.6163Z" fill="#A3A3A3"/>
<path d="M4.70051 10.625C3.70884 10.625 2.80884 10.2333 2.16717 9.52496C1.52551 8.81663 1.22551 7.88329 1.32551 6.89996L1.55051 4.60829C1.90051 2.06663 3.04217 1.04163 5.49217 1.04163H8.03384C8.20884 1.04163 8.37551 1.11663 8.50051 1.24996C8.62551 1.38329 8.67551 1.55829 8.65884 1.73329L8.07551 7.57496C7.90051 9.25829 6.39217 10.625 4.70051 10.625ZM5.49217 2.29163C3.66717 2.29163 3.05884 2.84163 2.79217 4.74996L2.56717 7.02496C2.50051 7.65829 2.69217 8.24996 3.09217 8.69163C3.49217 9.13329 4.05884 9.37496 4.70051 9.37496C5.75051 9.37496 6.72551 8.49163 6.82551 7.44996L7.34217 2.29163H5.49217Z" fill="#A3A3A3"/>
<path d="M12.0827 18.9583H7.91602C7.57435 18.9583 7.29102 18.675 7.29102 18.3333V16.25C7.29102 14.5 8.24935 13.5416 9.99935 13.5416C11.7493 13.5416 12.7077 14.5 12.7077 16.25V18.3333C12.7077 18.675 12.4243 18.9583 12.0827 18.9583ZM8.54102 17.7083H11.4577V16.25C11.4577 15.2 11.0493 14.7916 9.99935 14.7916C8.94935 14.7916 8.54102 15.2 8.54102 16.25V17.7083Z" fill="#A3A3A3"/>
</svg>
