<svg width="12" height="13" viewBox="0 0 12 13" fill="none" xmlns="http://www.w3.org/2000/svg">
<path d="M7.38083 6.23777L7.38173 6.23867L8.98673 7.84367C8.99337 7.85031 8.99609 7.85493 8.99717 7.85702C8.99831 7.85923 8.99892 7.86114 8.99927 7.86317C9.00006 7.86772 8.99998 7.87626 8.9957 7.88662C8.99141 7.89699 8.98549 7.90297 8.98192 7.90549C8.98035 7.9066 8.97871 7.90745 8.97651 7.90815C8.97445 7.90881 8.96946 7.91012 8.96028 7.91012H5.84528H3.04028C3.03227 7.91012 3.02805 7.90897 3.0264 7.90844C3.02458 7.90786 3.02301 7.90709 3.02128 7.90586C3.0173 7.90305 3.01083 7.89644 3.00619 7.88531C3.00158 7.87424 3.0016 7.86549 3.00231 7.86134C3.00262 7.85953 3.00312 7.85794 3.00407 7.8561C3.00495 7.85438 3.00742 7.85008 3.01383 7.84367L5.60383 5.25367C5.82344 5.03406 6.18157 5.03393 6.40134 5.25329C6.40147 5.25342 6.4016 5.25354 6.40173 5.25367L7.38083 6.23777Z" fill="#EF4444" stroke="#EF4444"/>
</svg>
