<svg width="12" height="13" viewBox="0 0 12 13" fill="none" xmlns="http://www.w3.org/2000/svg">
<path d="M5.84536 5.09009H8.96036C8.96954 5.09009 8.97454 5.0914 8.97663 5.09206C8.97886 5.09278 8.98057 5.09366 8.98226 5.09484C8.98606 5.09752 8.99235 5.10387 8.99695 5.1149C9.00156 5.12595 9.00175 5.13524 9.0009 5.14033C9.00052 5.1426 8.99989 5.14456 8.99881 5.14667C8.99785 5.14857 8.99553 5.1526 8.98993 5.15842L7.38681 6.76153L6.40181 7.74653C6.18207 7.96627 5.82365 7.96627 5.60392 7.74653L3.01392 5.15653C3.00728 5.1499 3.00456 5.14528 3.00347 5.14319C3.00233 5.14097 3.00173 5.13906 3.00137 5.13704C3.00058 5.13249 3.00066 5.12394 3.00495 5.11358C3.00923 5.10321 3.01515 5.09723 3.01872 5.09472C3.0203 5.09361 3.02193 5.09276 3.02413 5.09206C3.02619 5.0914 3.03118 5.09009 3.04036 5.09009H5.84536Z" fill="#1244DA" stroke="#1244DA"/>
</svg>
