<svg width="16" height="16" viewBox="0 0 16 16" fill="none" xmlns="http://www.w3.org/2000/svg">
<path d="M9.61943 12.5467C9.49276 12.5467 9.36609 12.5 9.26609 12.4C9.07276 12.2067 9.07276 11.8867 9.26609 11.6933L12.9594 7.99999L9.26609 4.30665C9.07276 4.11332 9.07276 3.79332 9.26609 3.59999C9.45943 3.40665 9.77943 3.40665 9.97276 3.59999L14.0194 7.64665C14.2128 7.83999 14.2128 8.15999 14.0194 8.35332L9.97276 12.4C9.87276 12.5 9.74609 12.5467 9.61943 12.5467Z" fill="#BE4848"/>
<path d="M13.554 8.5H2.33398C2.06065 8.5 1.83398 8.27333 1.83398 8C1.83398 7.72667 2.06065 7.5 2.33398 7.5H13.554C13.8273 7.5 14.054 7.72667 14.054 8C14.054 8.27333 13.8273 8.5 13.554 8.5Z" fill="#BE4848"/>
</svg>
