<svg width="19" height="28" viewBox="0 0 19 28" fill="none" xmlns="http://www.w3.org/2000/svg">
<path d="M6.7202 7.44702C6.7202 7.44702 0.0110348 16.817 0 21.4239C0 24.4874 0.827611 27.0954 5.11188 27.1865C9.39615 27.2776 14.9798 27.2437 14.9798 27.2437C14.9798 27.2437 21.0186 25.9423 18.1606 18.9305C15.6363 12.7385 11.7659 7.47825 11.7659 7.47825L6.7202 7.44702Z" fill="#22C55E"/>
<path d="M14.506 1.40091C14.4342 0.942825 13.8439 0.742411 13.3528 0.750219C11.6314 0.776247 10.15 2.16092 8.42853 2.07764C7.34712 2.02818 6.4064 1.40352 5.41327 0.997486C5.17667 0.888711 4.91998 0.824186 4.65738 0.807481C4.5257 0.800498 4.39415 0.823312 4.2737 0.874019C4.15325 0.924727 4.04739 1.00186 3.96495 1.09899C3.72218 1.42174 3.87391 1.86681 4.03391 2.2338C4.83118 4.02972 6.1526 5.81262 7.10987 7.54086L12.0893 7.73346C12.0744 5.7619 12.7753 3.84494 14.0756 2.30147C14.3018 2.03599 14.5584 1.73667 14.506 1.40091Z" fill="#22C55E"/>
<g opacity="0.3">
<path d="M9.78257 21.9395V22.8973H8.87495V21.9655C8.06932 21.9364 7.28849 21.6947 6.62109 21.268L7.12593 20.2269C7.64397 20.5729 8.24872 20.7856 8.88047 20.8437V19.4148C7.8763 19.1806 6.75626 18.8578 6.76178 17.6345C6.76178 16.7261 7.47077 15.9531 8.9053 15.8126V14.8625H9.81291V15.7943C10.4601 15.8297 11.0894 16.008 11.6502 16.3149L11.1895 17.356C10.7658 17.1208 10.2971 16.9669 9.81016 16.9031V18.3581C10.8171 18.5845 11.9206 18.9073 11.9123 20.1123C11.9095 21.0181 11.2143 21.7833 9.78257 21.9395ZM8.89978 18.1551V16.9396C8.41976 17.0385 8.22665 17.2857 8.22665 17.5694C8.22665 17.8531 8.5108 18.0327 8.90805 18.1551H8.89978ZM10.4474 20.2243C10.4474 19.9249 10.1881 19.761 9.79912 19.6308V20.8099C10.2515 20.7188 10.4529 20.4976 10.4557 20.2243H10.4474Z" fill="black"/>
</g>
<path d="M6.83691 10.0813C6.85364 9.70311 6.91847 9.32822 7.03002 8.96467C7.09558 8.5909 7.20763 8.22573 7.36383 7.87671C7.3471 8.25486 7.28226 8.62975 7.17072 8.9933C7.10568 9.36718 6.99363 9.73241 6.83691 10.0813Z" fill="#263238"/>
<path d="M7.23879 13.0196C7.22939 12.7531 7.24694 12.4864 7.29121 12.2231C7.34638 11.7338 7.43742 11.0597 7.56708 10.3179C7.69674 9.57612 7.84295 8.9072 7.95606 8.42829C8.00387 8.16214 8.07775 7.90074 8.17675 7.64746C8.15866 7.9104 8.11807 8.17153 8.05536 8.42829C7.95881 8.94885 7.84019 9.60215 7.71053 10.3205C7.58087 11.0389 7.47879 11.6896 7.39052 12.2179C7.36338 12.4886 7.31264 12.7568 7.23879 13.0196Z" fill="#263238"/>
<path d="M10.7783 10.5109C10.6324 10.0815 10.5325 9.63943 10.4803 9.19126C10.3804 8.7505 10.3268 8.30152 10.3203 7.85083C10.4646 8.28016 10.5617 8.72236 10.61 9.17044C10.7136 9.61079 10.7699 10.0599 10.7783 10.5109Z" fill="#263238"/>
<path d="M6.74812 4.07422C7.20678 4.47988 7.61662 4.93203 7.97023 5.42246C8.36071 5.88787 8.69735 6.39133 8.9744 6.92426C8.93854 6.94508 8.46956 6.28918 7.85437 5.50314C7.23917 4.71711 6.72054 4.10025 6.74812 4.07422Z" fill="#263238"/>
<path d="M8.28711 2.78345C8.36887 2.98102 8.42896 3.18597 8.46643 3.3951C8.57678 3.82455 8.70367 4.32429 8.84713 4.87868C8.99058 5.43307 9.13955 5.91979 9.25818 6.35445C9.33043 6.55567 9.38126 6.76318 9.4099 6.97391C9.30318 6.7867 9.21987 6.58843 9.16162 6.38308C9.0292 6.01088 8.86368 5.49293 8.70644 4.91251C8.54919 4.3321 8.43056 3.80113 8.36711 3.41332C8.31399 3.20711 8.28713 2.99566 8.28711 2.78345Z" fill="#263238"/>
<path d="M14.428 23.0741C14.4114 23.0584 14.5659 22.9361 14.7507 22.6941C14.9926 22.386 15.1568 22.0299 15.2308 21.653C15.2953 21.2711 15.267 20.8804 15.148 20.5103C15.0542 20.2266 14.9549 20.0627 14.9742 20.0522C15.1015 20.1713 15.1962 20.3178 15.2501 20.4791C15.4077 20.8589 15.4527 21.2721 15.3803 21.6742C15.3079 22.0764 15.1208 22.4523 14.839 22.7617C14.7308 22.8957 14.5898 23.0029 14.428 23.0741Z" fill="#263238"/>
<path d="M3.48962 20.1644C3.47582 20.1644 3.35996 20.0681 3.24133 19.8495C3.08967 19.5623 3.01844 19.2433 3.03443 18.9229C3.04421 18.6022 3.13906 18.289 3.3103 18.0119C3.44548 17.8037 3.57238 17.7074 3.58617 17.7178C3.59997 17.7282 3.50893 17.8505 3.40134 18.0588C3.26308 18.3305 3.18516 18.6261 3.17235 18.9273C3.15954 19.2286 3.21212 19.5291 3.32685 19.8104C3.39174 19.9238 3.4462 20.0422 3.48962 20.1644Z" fill="#263238"/>
<g opacity="0.3">
<path d="M6.58833 7.95723L6.40625 8.07696C6.86511 8.25001 7.35489 8.33836 7.84905 8.33724C7.79631 9.31941 7.68394 10.2979 7.51249 11.268C7.94836 10.3119 8.3355 9.33757 8.67391 8.34505C9.72331 8.47808 10.7913 8.34976 11.7719 7.97285C10.0456 7.87915 8.31522 7.87394 6.58833 7.95723Z" fill="black"/>
</g>
<path d="M11.9185 6.79308L6.36537 6.76199C6.00124 6.75995 5.7043 7.0368 5.70214 7.38035L5.70145 7.48967C5.69929 7.83322 5.99272 8.11337 6.35686 8.11541L11.91 8.1465C12.2742 8.14854 12.5711 7.87169 12.5733 7.52814L12.5739 7.41883C12.5761 7.07528 12.2827 6.79512 11.9185 6.79308Z" fill="#263238"/>
</svg>
