<svg width="18" height="18" viewBox="0 0 18 18" fill="none" xmlns="http://www.w3.org/2000/svg">
<path d="M14.9698 6.7198C14.4673 6.1648 13.7098 5.8423 12.6598 5.7298V5.1598C12.6598 4.1323 12.2248 3.1423 11.4598 2.4523C10.6873 1.7473 9.68231 1.4173 8.63981 1.5148C6.84731 1.6873 5.33981 3.4198 5.33981 5.2948V5.7298C4.28981 5.8423 3.53231 6.1648 3.02981 6.7198C2.30231 7.5298 2.32481 8.6098 2.40731 9.3598L2.93231 13.5373C3.08981 14.9998 3.68231 16.4998 6.90731 16.4998H11.0923C14.3173 16.4998 14.9098 14.9998 15.0673 13.5448L15.5923 9.3523C15.6748 8.6098 15.6898 7.5298 14.9698 6.7198ZM8.74481 2.5573C9.49481 2.4898 10.2073 2.7223 10.7623 3.2248C11.3098 3.7198 11.6173 4.4248 11.6173 5.1598V5.6848H6.38231V5.2948C6.38231 3.9598 7.48481 2.6773 8.74481 2.5573ZM6.31481 9.8623H6.30731C5.89481 9.8623 5.55731 9.5248 5.55731 9.1123C5.55731 8.6998 5.89481 8.3623 6.30731 8.3623C6.72731 8.3623 7.06481 8.6998 7.06481 9.1123C7.06481 9.5248 6.72731 9.8623 6.31481 9.8623ZM11.5648 9.8623H11.5573C11.1448 9.8623 10.8073 9.5248 10.8073 9.1123C10.8073 8.6998 11.1448 8.3623 11.5573 8.3623C11.9773 8.3623 12.3148 8.6998 12.3148 9.1123C12.3148 9.5248 11.9773 9.8623 11.5648 9.8623Z" fill="#525252"/>
</svg>
