<svg width="17" height="16" viewBox="0 0 17 16" fill="none" xmlns="http://www.w3.org/2000/svg">
<path d="M11.9933 15.1668H5.00662C3.13995 15.1668 1.95329 14.0535 1.84662 12.1935L1.49995 6.6935C1.44662 5.86016 1.73329 5.06016 2.30662 4.4535C2.87329 3.84683 3.67329 3.50016 4.49995 3.50016C4.71329 3.50016 4.91995 3.3735 5.01995 3.1735L5.49995 2.22016C5.89329 1.44016 6.87995 0.833496 7.73995 0.833496H9.26662C10.1266 0.833496 11.1066 1.44016 11.5 2.2135L11.98 3.18683C12.08 3.3735 12.28 3.50016 12.5 3.50016C13.3266 3.50016 14.1266 3.84683 14.6933 4.4535C15.2666 5.06683 15.5533 5.86016 15.5 6.6935L15.1533 12.2002C15.0333 14.0868 13.88 15.1668 11.9933 15.1668ZM7.73995 1.8335C7.24662 1.8335 6.61995 2.22016 6.39329 2.66683L5.91329 3.62683C5.63329 4.16683 5.09329 4.50016 4.49995 4.50016C3.93995 4.50016 3.41995 4.72683 3.03329 5.1335C2.65329 5.54016 2.45995 6.0735 2.49995 6.62683L2.84662 12.1335C2.92662 13.4802 3.65329 14.1668 5.00662 14.1668H11.9933C13.34 14.1668 14.0666 13.4802 14.1533 12.1335L14.5 6.62683C14.5333 6.0735 14.3466 5.54016 13.9666 5.1335C13.58 4.72683 13.06 4.50016 12.5 4.50016C11.9066 4.50016 11.3666 4.16683 11.0866 3.64016L10.6 2.66683C10.38 2.22683 9.75329 1.84016 9.25995 1.84016H7.73995V1.8335Z" fill="#404040"/>
<path d="M9.5 5.8335H7.5C7.22667 5.8335 7 5.60683 7 5.3335C7 5.06016 7.22667 4.8335 7.5 4.8335H9.5C9.77333 4.8335 10 5.06016 10 5.3335C10 5.60683 9.77333 5.8335 9.5 5.8335Z" fill="#404040"/>
<path d="M8.49992 12.4998C7.02659 12.4998 5.83325 11.3065 5.83325 9.83317C5.83325 8.35984 7.02659 7.1665 8.49992 7.1665C9.97325 7.1665 11.1666 8.35984 11.1666 9.83317C11.1666 11.3065 9.97325 12.4998 8.49992 12.4998ZM8.49992 8.1665C7.57992 8.1665 6.83325 8.91317 6.83325 9.83317C6.83325 10.7532 7.57992 11.4998 8.49992 11.4998C9.41992 11.4998 10.1666 10.7532 10.1666 9.83317C10.1666 8.91317 9.41992 8.1665 8.49992 8.1665Z" fill="#404040"/>
</svg>
