<svg width="512" height="512" viewBox="0 0 512 512" fill="none" xmlns="http://www.w3.org/2000/svg">
<g clip-path="url(#clip0_5609_3576)">
<path d="M149.333 512C172.897 512 192 492.898 192 469.333C192 445.769 172.897 426.667 149.333 426.667C125.769 426.667 106.667 445.769 106.667 469.333C106.667 492.898 125.769 512 149.333 512Z" fill="white"/>
<path d="M362.667 512C386.231 512 405.333 492.898 405.333 469.333C405.333 445.769 386.231 426.667 362.667 426.667C339.103 426.667 320 445.769 320 469.333C320 492.898 339.103 512 362.667 512Z" fill="white"/>
<path d="M490.667 64H448V21.3333C448 15.6754 445.752 10.2492 441.752 6.24839C437.751 2.24761 432.325 0 426.667 0C421.009 0 415.582 2.24761 411.582 6.24839C407.581 10.2492 405.333 15.6754 405.333 21.3333V64H362.667C357.009 64 351.582 66.2476 347.582 70.2484C343.581 74.2492 341.333 79.6754 341.333 85.3333C341.333 90.9913 343.581 96.4175 347.582 100.418C351.582 104.419 357.009 106.667 362.667 106.667H405.333V149.333C405.333 154.991 407.581 160.417 411.582 164.418C415.582 168.419 421.009 170.667 426.667 170.667C432.325 170.667 437.751 168.419 441.752 164.418C445.752 160.417 448 154.991 448 149.333V106.667H490.667C496.325 106.667 501.751 104.419 505.752 100.418C509.752 96.4175 512 90.9913 512 85.3333C512 79.6754 509.752 74.2492 505.752 70.2484C501.751 66.2476 496.325 64 490.667 64Z" fill="white"/>
<path d="M464.448 207.488C461.69 206.972 458.856 207.008 456.112 207.595C453.368 208.182 450.768 209.308 448.462 210.908C446.156 212.507 444.191 214.548 442.679 216.913C441.168 219.277 440.142 221.918 439.659 224.683C436.998 239.449 429.234 252.81 417.723 262.434C406.212 272.058 391.686 277.331 376.683 277.333H115.584L95.5307 106.667H277.333C282.991 106.667 288.418 104.419 292.418 100.418C296.419 96.4175 298.667 90.9913 298.667 85.3333C298.667 79.6754 296.419 74.2492 292.418 70.2484C288.418 66.2476 282.991 64 277.333 64H90.496L89.6 56.4907C87.7615 40.9301 80.2786 26.5846 68.5693 16.1729C56.8601 5.76116 41.7381 0.00667384 26.0693 0L21.3333 0C15.6754 0 10.2492 2.24761 6.24839 6.24839C2.24761 10.2492 0 15.6754 0 21.3333C0 26.9913 2.24761 32.4175 6.24839 36.4183C10.2492 40.4191 15.6754 42.6667 21.3333 42.6667H26.0693C31.2946 42.6674 36.3379 44.5857 40.2426 48.0579C44.1474 51.5301 46.642 56.3146 47.2533 61.504L76.608 311.104C79.6555 337.062 92.1275 360.998 111.657 378.368C131.186 395.738 156.413 405.334 182.549 405.333H405.333C410.991 405.333 416.418 403.086 420.418 399.085C424.419 395.084 426.667 389.658 426.667 384C426.667 378.342 424.419 372.916 420.418 368.915C416.418 364.914 410.991 362.667 405.333 362.667H182.549C169.312 362.669 156.4 358.567 145.592 350.926C134.783 343.285 126.61 332.48 122.197 320H376.683C401.688 320.002 425.9 311.22 445.089 295.186C464.278 279.152 477.223 256.886 481.664 232.277C482.162 229.519 482.112 226.69 481.517 223.951C480.921 221.212 479.792 218.617 478.193 216.315C476.594 214.013 474.557 212.049 472.199 210.534C469.84 209.019 467.207 207.984 464.448 207.488Z" fill="white"/>
</g>
<defs>
<clipPath id="clip0_5609_3576">
<rect width="512" height="512" fill="white"/>
</clipPath>
</defs>
</svg>
