<svg width="512" height="512" viewBox="0 0 512 512" fill="none" xmlns="http://www.w3.org/2000/svg">
<g clip-path="url(#clip0_5609_3581)">
<path d="M149.333 512C172.898 512 192 492.898 192 469.333C192 445.769 172.898 426.667 149.333 426.667C125.769 426.667 106.667 445.769 106.667 469.333C106.667 492.898 125.769 512 149.333 512Z" fill="white"/>
<path d="M362.667 512C386.231 512 405.333 492.898 405.333 469.333C405.333 445.769 386.231 426.667 362.667 426.667C339.103 426.667 320 445.769 320 469.333C320 492.898 339.103 512 362.667 512Z" fill="white"/>
<path d="M505.28 28.5013C501.279 24.5019 495.854 22.2552 490.197 22.2552C484.541 22.2552 479.115 24.5019 475.115 28.5013L365.056 138.667L331.968 104.128C330.027 102.108 327.706 100.49 325.14 99.3672C322.573 98.244 319.81 97.6374 317.009 97.5819C314.208 97.5264 311.423 98.0232 308.814 99.0439C306.205 100.065 303.823 101.589 301.803 103.531C299.783 105.472 298.165 107.792 297.042 110.359C295.919 112.926 295.312 115.689 295.257 118.49C295.145 124.147 297.284 129.617 301.205 133.696L335.637 169.515C339.306 173.477 343.741 176.655 348.672 178.855C353.604 181.055 358.931 182.232 364.331 182.315H365.035C370.327 182.332 375.569 181.298 380.458 179.273C385.347 177.248 389.785 174.272 393.515 170.517L505.28 58.6667C509.279 54.6661 511.526 49.2408 511.526 43.584C511.526 37.9272 509.279 32.5019 505.28 28.5013Z" fill="white"/>
<path d="M467.2 192.341C464.442 191.843 461.612 191.893 458.874 192.489C456.135 193.084 453.54 194.214 451.238 195.813C448.936 197.411 446.971 199.448 445.457 201.807C443.942 204.165 442.907 206.799 442.411 209.557L439.68 224.683C437.019 239.452 429.252 252.817 417.736 262.441C406.221 272.065 391.69 277.336 376.683 277.333H115.584L95.5307 106.667H234.667C240.325 106.667 245.751 104.419 249.752 100.418C253.752 96.4175 256 90.9913 256 85.3333C256 79.6754 253.752 74.2492 249.752 70.2484C245.751 66.2476 240.325 64 234.667 64H90.496L89.6 56.4907C87.7615 40.9301 80.2786 26.5846 68.5693 16.1729C56.8601 5.76116 41.7381 0.00667384 26.0693 0L21.3333 0C15.6754 0 10.2492 2.24761 6.24839 6.24839C2.24761 10.2492 0 15.6754 0 21.3333C0 26.9913 2.24761 32.4175 6.24839 36.4183C10.2492 40.4191 15.6754 42.6667 21.3333 42.6667H26.0693C31.2946 42.6674 36.3379 44.5857 40.2426 48.0579C44.1474 51.5301 46.642 56.3146 47.2533 61.504L76.608 311.104C79.6555 337.062 92.1275 360.998 111.657 378.368C131.186 395.738 156.413 405.334 182.549 405.333H405.333C410.991 405.333 416.418 403.086 420.418 399.085C424.419 395.084 426.667 389.658 426.667 384C426.667 378.342 424.419 372.916 420.418 368.915C416.418 364.914 410.991 362.667 405.333 362.667H182.549C169.312 362.669 156.4 358.567 145.592 350.926C134.783 343.285 126.61 332.48 122.197 320H376.683C401.692 320.002 425.906 311.216 445.095 295.177C464.284 279.139 477.227 256.868 481.664 232.256L484.395 217.109C485.395 211.545 484.147 205.811 480.923 201.167C477.699 196.523 472.763 193.349 467.2 192.341Z" fill="white"/>
</g>
<defs>
<clipPath id="clip0_5609_3581">
<rect width="512" height="512" fill="white"/>
</clipPath>
</defs>
</svg>
