<svg width="25" height="28" viewBox="0 0 25 28" fill="none" xmlns="http://www.w3.org/2000/svg">
<path d="M24.8697 13.1612C25.8573 20.0081 21.1234 26.3683 14.2935 27.3674C7.46355 28.3666 1.12418 23.6206 0.130273 16.7736C-0.857267 9.92673 3.87655 3.56657 10.7065 2.5674C17.5364 1.56822 23.8758 6.31431 24.8697 13.1612Z" fill="#EF4444"/>
<g opacity="0.3">
<path d="M24.8697 13.1544C25.8573 20.0013 21.1234 26.3614 14.2935 27.3606C7.46355 28.3598 1.12418 23.6137 0.130273 16.7668C-0.857267 9.91987 3.87655 3.55974 10.7065 2.56056C17.5364 1.56139 23.8758 6.30746 24.8697 13.1544Z" fill="black"/>
</g>
<path d="M24.8697 11.2267C25.8573 18.0736 21.1234 24.4337 14.2935 25.4329C7.46355 26.4321 1.12418 21.686 0.130273 14.839C-0.857267 7.99214 3.87655 1.632 10.7065 0.632828C17.5364 -0.366347 23.8758 4.37974 24.8697 11.2267Z" fill="#EF4444"/>
<path d="M21.9252 11.655C22.677 16.8751 19.0709 21.7172 13.8656 22.4794C8.66031 23.2416 3.83093 19.6228 3.07275 14.4092C2.32095 9.18911 5.92706 4.34696 11.1323 3.58477C16.3376 2.82257 21.167 6.44137 21.9252 11.655Z" fill="#EF4444"/>
<g opacity="0.2">
<path d="M21.9262 11.656C22.678 16.876 19.0719 21.7182 13.8666 22.4804C8.66129 23.2426 3.83191 19.6238 3.07373 14.4101C2.32193 9.19009 5.92804 4.34793 11.1333 3.58574C16.3386 2.82355 21.168 6.44234 21.9262 11.656Z" fill="black"/>
</g>
<path d="M21.7418 10.1756C21.557 9.43262 21.1811 8.35018 20.3784 7.21009C19.977 6.64005 19.4737 6.0572 18.8557 5.51278C18.2376 4.97476 17.505 4.46877 16.6703 4.07166C16.2498 3.87311 15.8102 3.69377 15.3451 3.55286C14.88 3.41195 14.3958 3.29025 13.8988 3.2262C13.4019 3.15575 12.8858 3.11733 12.3634 3.12374C11.8409 3.13655 11.3121 3.18137 10.7833 3.27104C10.2545 3.36711 9.7448 3.50162 9.24785 3.67456C8.75089 3.84749 8.28579 4.06527 7.83981 4.30225C7.39382 4.53923 6.97969 4.82104 6.59105 5.10926C6.20241 5.40389 5.85199 5.72415 5.52706 6.05721C4.87719 6.72332 4.36749 7.44709 3.96611 8.16445C3.57109 8.88821 3.29713 9.60556 3.11873 10.2845C2.75557 11.6359 2.77469 12.7824 2.85751 13.5446C2.94671 14.3132 3.08688 14.7167 3.13148 14.7103C3.18882 14.7039 3.14422 14.2812 3.14422 13.5318C3.14422 12.7888 3.2143 11.6936 3.61569 10.4382C3.81957 9.81052 4.0999 9.1444 4.49492 8.47828C4.88993 7.81857 5.38689 7.15246 6.0049 6.54399C6.31072 6.24296 6.64839 5.94832 7.01155 5.67932C7.37471 5.41031 7.76335 5.16052 8.17748 4.94275C8.59161 4.72498 9.02486 4.52641 9.48996 4.3727C9.94869 4.21898 10.4265 4.09089 10.9107 4.00122C11.4013 3.91795 11.8919 3.87312 12.3761 3.86031C12.8603 3.8475 13.3382 3.88593 13.8033 3.94357C14.2684 4.00122 14.7207 4.10369 15.154 4.23179C15.5872 4.35348 16.0013 4.51361 16.3964 4.69294C17.1864 5.04522 17.8809 5.49998 18.4797 5.98676C19.0786 6.47994 19.5692 7.00515 19.977 7.52395C20.7861 8.56796 21.2257 9.56714 21.487 10.2653C21.7418 10.9698 21.8438 11.3797 21.9011 11.3669C21.9457 11.3605 21.9393 10.9314 21.7609 10.182L21.7418 10.1756Z" fill="#EF4444"/>
<path d="M14.3893 18.5278L14.6505 20.1739L13.1852 20.4109L12.9303 18.8097C11.4713 18.957 10.0059 18.72 9.10121 18.2204L9.61728 16.2989C10.4328 16.728 11.5541 16.9522 12.6245 16.8882L12.2359 14.4351C10.5475 14.3006 8.64885 14.0508 8.31118 11.9435C8.0627 10.3871 8.97379 8.86916 11.2419 8.22866L10.9807 6.59538L12.4461 6.3584L12.7009 7.95964C13.8095 7.86997 14.9245 7.99166 15.8101 8.37596L15.3641 10.3039C14.5486 9.99642 13.7522 9.86832 13.0068 9.90035L13.4082 12.3983C15.0902 12.52 16.9633 12.7762 17.2946 14.845C17.5367 16.3758 16.6384 17.8745 14.3829 18.5214L14.3893 18.5278ZM11.8918 12.2702L11.5605 10.1822C10.8151 10.4832 10.573 10.9572 10.6494 11.4439C10.7322 11.9563 11.2165 12.1677 11.8918 12.2702ZM14.9691 15.4086C14.8863 14.8962 14.4212 14.6849 13.7522 14.5632L14.0771 16.5935C14.7843 16.3117 15.0456 15.8826 14.9691 15.4086Z" fill="#EF4444"/>
<path opacity="0.3" d="M21.7418 10.1756C21.557 9.43262 21.1811 8.35018 20.3784 7.21009C19.977 6.64005 19.4737 6.0572 18.8557 5.51278C18.2376 4.97476 17.505 4.46877 16.6703 4.07166C16.2498 3.87311 15.8102 3.69377 15.3451 3.55286C14.88 3.41195 14.3958 3.29025 13.8988 3.2262C13.4019 3.15575 12.8858 3.11733 12.3634 3.12374C11.8409 3.13655 11.3121 3.18137 10.7833 3.27104C10.2545 3.36711 9.7448 3.50162 9.24785 3.67456C8.75089 3.84749 8.28579 4.06527 7.83981 4.30225C7.39382 4.53923 6.97969 4.82104 6.59105 5.10926C6.20241 5.40389 5.85199 5.72415 5.52706 6.05721C4.87719 6.72332 4.36749 7.44709 3.96611 8.16445C3.57109 8.88821 3.29713 9.60556 3.11873 10.2845C2.75557 11.6359 2.77469 12.7824 2.85751 13.5446C2.94671 14.3132 3.08688 14.7167 3.13148 14.7103C3.18882 14.7039 3.14422 14.2812 3.14422 13.5318C3.14422 12.7888 3.2143 11.6936 3.61569 10.4382C3.81957 9.81052 4.0999 9.1444 4.49492 8.47828C4.88993 7.81857 5.38689 7.15246 6.0049 6.54399C6.31072 6.24296 6.64839 5.94832 7.01155 5.67932C7.37471 5.41031 7.76335 5.16052 8.17748 4.94275C8.59161 4.72498 9.02486 4.52641 9.48996 4.3727C9.94869 4.21898 10.4265 4.09089 10.9107 4.00122C11.4013 3.91795 11.8919 3.87312 12.3761 3.86031C12.8603 3.8475 13.3382 3.88593 13.8033 3.94357C14.2684 4.00122 14.7207 4.10369 15.154 4.23179C15.5872 4.35348 16.0013 4.51361 16.3964 4.69294C17.1864 5.04522 17.8809 5.49998 18.4797 5.98676C19.0786 6.47994 19.5692 7.00515 19.977 7.52395C20.7861 8.56796 21.2257 9.56714 21.487 10.2653C21.7418 10.9698 21.8438 11.3797 21.9011 11.3669C21.9457 11.3605 21.9393 10.9314 21.7609 10.182L21.7418 10.1756Z" fill="black"/>
</svg>
