<svg width="27" height="23" viewBox="0 0 27 23" fill="none" xmlns="http://www.w3.org/2000/svg">
<path d="M0 22.5L27 22.5L27 0.502281L0 0.502281L0 22.5Z" fill="#BE4848"/>
<g opacity="0.3">
<path fill-rule="evenodd" clip-rule="evenodd" d="M10.1734 3.08448V2.05957H8.54297V3.08448C8.54336 3.29476 8.61611 3.49771 8.74766 3.65553C8.87921 3.81334 9.06058 3.91526 9.25799 3.94229V4.83351H8.8931C8.76655 4.83351 8.66108 4.91149 8.66108 5.00507H10.0595C10.0595 4.91149 9.95614 4.83351 9.82959 4.83351H9.46469V3.94229C9.66077 3.91333 9.84038 3.81064 9.97056 3.65307C10.1007 3.4955 10.1728 3.29362 10.1734 3.08448Z" fill="black"/>
<path fill-rule="evenodd" clip-rule="evenodd" d="M13.3063 3.01541C13.2424 2.74304 13.0941 2.50105 12.8851 2.32787C12.6761 2.15469 12.4183 2.06026 12.1526 2.05957C11.8873 2.06076 11.63 2.15541 11.4214 2.32855C11.2128 2.50169 11.0648 2.74341 11.001 3.01541H12.0429V4.62408C12.0429 4.68849 12.0187 4.75026 11.9756 4.7958C11.9325 4.84135 11.874 4.86693 11.813 4.86693C11.752 4.86693 11.6936 4.84135 11.6505 4.7958C11.6073 4.75026 11.5831 4.68849 11.5831 4.62408H11.3595C11.3595 4.75112 11.4073 4.87297 11.4924 4.96281C11.5774 5.05264 11.6928 5.10311 11.813 5.10311C11.9333 5.10311 12.0486 5.05264 12.1337 4.96281C12.2187 4.87297 12.2665 4.75112 12.2665 4.62408V3.01764L13.3063 3.01541Z" fill="black"/>
</g>
<g opacity="0.3">
<path d="M6.69674 0.5H0V22.4977H6.69674V0.5Z" fill="black"/>
</g>
<path d="M2.29122 19.8994H4.36035V17.4285H2.29122L2.29122 19.8994Z" fill="#BE4848"/>
<g opacity="0.3">
<path d="M18.7631 0.558594H15.6963V5.25314H18.7631V0.558594Z" fill="black"/>
</g>
<g opacity="0.3">
<path d="M18.7631 17.7393H15.6963V22.4338H18.7631V17.7393Z" fill="black"/>
</g>
<path d="M17.8862 12.085H16.874V13.1542H17.8862V12.085Z" fill="#F5F5F5"/>
<path d="M14.3438 11.2532L20.317 11.359L17.407 7.4082L14.3438 11.2532Z" fill="#F5F5F5"/>
<path d="M18.6864 10.7373L15.8367 10.773L15.6533 14.6257H18.7672L18.6864 10.7373ZM17.6838 13.9426H17.1276V13.3601H17.6838V13.9426Z" fill="#F5F5F5"/>
<path d="M18.0982 12.9775H17.0859V14.0468H18.0982V12.9775Z" fill="#F5F5F5"/>
</svg>
