<svg width="14" height="14" viewBox="0 0 14 14" fill="none" xmlns="http://www.w3.org/2000/svg">
<path d="M7.00008 1.16663C3.78591 1.16663 1.16675 3.78579 1.16675 6.99996C1.16675 10.2141 3.78591 12.8333 7.00008 12.8333C10.2142 12.8333 12.8334 10.2141 12.8334 6.99996C12.8334 3.78579 10.2142 1.16663 7.00008 1.16663ZM9.78841 5.65829L6.48091 8.96579C6.39925 9.04746 6.28841 9.09413 6.17175 9.09413C6.05508 9.09413 5.94425 9.04746 5.86258 8.96579L4.21175 7.31496C4.04258 7.14579 4.04258 6.86579 4.21175 6.69663C4.38091 6.52746 4.66091 6.52746 4.83008 6.69663L6.17175 8.03829L9.17008 5.03996C9.33925 4.87079 9.61925 4.87079 9.78841 5.03996C9.95758 5.20913 9.95758 5.48329 9.78841 5.65829Z" fill="#EF4444"/>
</svg>
