<svg width="24" height="24" viewBox="0 0 24 24" fill="none" xmlns="http://www.w3.org/2000/svg">
<g clip-path="url(#clip0_20_4149)">
<path d="M24 19C24 20.654 22.654 22 21 22V23C21 23.553 20.553 24 20 24C19.447 24 19 23.553 19 23V22H18.732C17.665 22 16.669 21.426 16.134 20.501C15.857 20.022 16.021 19.411 16.498 19.135C16.977 18.856 17.589 19.022 17.864 19.499C18.043 19.809 18.375 20 18.731 20H20.999C21.551 20 21.999 19.552 21.999 19C21.999 18.621 21.728 18.302 21.354 18.239L18.314 17.733C16.972 17.509 15.999 16.359 15.999 15C15.999 13.346 17.345 12 18.999 12V11C18.999 10.447 19.446 10 19.999 10C20.552 10 20.999 10.447 20.999 11V12H21.267C22.334 12 23.33 12.574 23.865 13.499C24.142 13.978 23.978 14.589 23.501 14.865C23.021 15.143 22.41 14.977 22.135 14.501C21.956 14.191 21.624 14 21.268 14H19C18.448 14 18 14.448 18 15C18 15.379 18.271 15.698 18.645 15.761L21.685 16.267C23.027 16.491 24 17.641 24 19ZM19 2H18V1C18 0.447 17.553 0 17 0C16.447 0 16 0.447 16 1V2H8V1C8 0.447 7.553 0 7 0C6.447 0 6 0.447 6 1V2H5C2.243 2 0 4.243 0 7V19C0 21.757 2.243 24 5 24H14C14.553 24 15 23.553 15 23C15 22.447 14.553 22 14 22H5C3.346 22 2 20.654 2 19V10H17C17.553 10 18 9.553 18 9C18 8.447 17.553 8 17 8H2V7C2 5.346 3.346 4 5 4H19C20.654 4 22 5.346 22 7V9C22 9.553 22.447 10 23 10C23.553 10 24 9.553 24 9V7C24 4.243 21.757 2 19 2Z" fill="#EF4444"/>
</g>
<defs>
<clipPath id="clip0_20_4149">
<rect width="24" height="24" fill="white"/>
</clipPath>
</defs>
</svg>
