<svg width="18" height="18" viewBox="0 0 18 18" fill="none" xmlns="http://www.w3.org/2000/svg">
<path d="M11.25 17.0625H6.75C2.6775 17.0625 0.9375 15.3225 0.9375 11.25V6.75C0.9375 2.6775 2.6775 0.9375 6.75 0.9375H8.25C8.5575 0.9375 8.8125 1.1925 8.8125 1.5C8.8125 1.8075 8.5575 2.0625 8.25 2.0625H6.75C3.2925 2.0625 2.0625 3.2925 2.0625 6.75V11.25C2.0625 14.7075 3.2925 15.9375 6.75 15.9375H11.25C14.7075 15.9375 15.9375 14.7075 15.9375 11.25V9.75C15.9375 9.4425 16.1925 9.1875 16.5 9.1875C16.8075 9.1875 17.0625 9.4425 17.0625 9.75V11.25C17.0625 15.3225 15.3225 17.0625 11.25 17.0625Z" fill="#404040"/>
<path d="M6.375 13.2675C5.9175 13.2675 5.4975 13.1025 5.19 12.8025C4.8225 12.435 4.665 11.9025 4.7475 11.34L5.07 9.08254C5.13 8.64754 5.415 8.08504 5.7225 7.77754L11.6325 1.86754C13.125 0.375044 14.64 0.375044 16.1325 1.86754C16.95 2.68504 17.3175 3.51754 17.2425 4.35004C17.175 5.02504 16.815 5.68504 16.1325 6.36004L10.2225 12.27C9.915 12.5775 9.3525 12.8625 8.9175 12.9225L6.66 13.245C6.5625 13.2675 6.465 13.2675 6.375 13.2675ZM12.4275 2.66254L6.5175 8.57254C6.375 8.71504 6.21 9.04504 6.18 9.24004L5.8575 11.4975C5.8275 11.715 5.8725 11.895 5.985 12.0075C6.0975 12.12 6.2775 12.165 6.495 12.135L8.7525 11.8125C8.9475 11.7825 9.285 11.6175 9.42 11.475L15.33 5.56504C15.8175 5.07754 16.0725 4.64254 16.11 4.23754C16.155 3.75004 15.9 3.23254 15.33 2.65504C14.13 1.45504 13.305 1.79254 12.4275 2.66254Z" fill="#404040"/>
<path d="M14.8874 7.37246C14.8349 7.37246 14.7824 7.36496 14.7374 7.34996C12.7649 6.79496 11.1974 5.22746 10.6424 3.25496C10.5599 2.95496 10.7324 2.64746 11.0324 2.55746C11.3324 2.47496 11.6399 2.64746 11.7224 2.94746C12.1724 4.54496 13.4399 5.81246 15.0374 6.26246C15.3374 6.34496 15.5099 6.65996 15.4274 6.95996C15.3599 7.21496 15.1349 7.37246 14.8874 7.37246Z" fill="#404040"/>
</svg>
