<svg width="12" height="13" viewBox="0 0 12 13" fill="none" xmlns="http://www.w3.org/2000/svg">
<g clip-path="url(#clip0_2946_16231)">
<path d="M11.6353 5.20964C10.8598 3.94664 9.09578 1.82764 5.99978 1.82764C2.90378 1.82764 1.13978 3.94664 0.364281 5.20964C0.124545 5.59739 -0.00244141 6.04426 -0.00244141 6.50014C-0.00244141 6.95602 0.124545 7.40288 0.364281 7.79064C1.13978 9.05364 2.90378 11.1726 5.99978 11.1726C9.09578 11.1726 10.8598 9.05364 11.6353 7.79064C11.875 7.40288 12.002 6.95602 12.002 6.50014C12.002 6.04426 11.875 5.59739 11.6353 5.20964V5.20964ZM10.7828 7.26714C10.1168 8.35014 8.60928 10.1726 5.99978 10.1726C3.39028 10.1726 1.88278 8.35014 1.21678 7.26714C1.07435 7.03666 0.998907 6.77107 0.998907 6.50014C0.998907 6.2292 1.07435 5.96361 1.21678 5.73314C1.88278 4.65014 3.39028 2.82764 5.99978 2.82764C8.60928 2.82764 10.1168 4.64814 10.7828 5.73314C10.9252 5.96361 11.0007 6.2292 11.0007 6.50014C11.0007 6.77107 10.9252 7.03666 10.7828 7.26714V7.26714Z" fill="#1A1A1A"/>
<path d="M6 4C5.50555 4 5.0222 4.14662 4.61108 4.42133C4.19995 4.69603 3.87952 5.08648 3.6903 5.54329C3.50108 6.00011 3.45157 6.50277 3.54804 6.98773C3.6445 7.47268 3.8826 7.91814 4.23223 8.26777C4.58187 8.6174 5.02732 8.8555 5.51228 8.95196C5.99723 9.04843 6.49989 8.99892 6.95671 8.8097C7.41352 8.62048 7.80397 8.30005 8.07868 7.88893C8.35338 7.4778 8.5 6.99445 8.5 6.5C8.49921 5.8372 8.23556 5.20178 7.76689 4.73311C7.29822 4.26444 6.6628 4.00079 6 4V4ZM6 8C5.70333 8 5.41332 7.91203 5.16665 7.7472C4.91997 7.58238 4.72771 7.34811 4.61418 7.07403C4.50065 6.79994 4.47095 6.49834 4.52882 6.20736C4.5867 5.91639 4.72956 5.64912 4.93934 5.43934C5.14912 5.22956 5.41639 5.0867 5.70737 5.02882C5.99834 4.97094 6.29994 5.00065 6.57403 5.11418C6.84812 5.22771 7.08238 5.41997 7.24721 5.66664C7.41203 5.91332 7.5 6.20333 7.5 6.5C7.5 6.89783 7.34197 7.27936 7.06066 7.56066C6.77936 7.84197 6.39783 8 6 8Z" fill="#1A1A1A"/>
</g>
<defs>
<clipPath id="clip0_2946_16231">
<rect width="12" height="12" fill="white" transform="translate(0 0.5)"/>
</clipPath>
</defs>
</svg>
