<svg width="10" height="10" viewBox="0 0 10 10" fill="none" xmlns="http://www.w3.org/2000/svg">
<path d="M3.88335 5.53332H5.17085V8.53332C5.17085 8.97499 5.72085 9.18332 6.01252 8.84999L9.16668 5.26665C9.44168 4.95415 9.22085 4.46665 8.80418 4.46665H7.51668V1.46665C7.51668 1.02499 6.96668 0.816654 6.67502 1.14999L3.52085 4.73332C3.25002 5.04582 3.47085 5.53332 3.88335 5.53332Z" fill="#404040"/>
<path d="M3.54167 1.97916H0.625C0.454167 1.97916 0.3125 1.83749 0.3125 1.66666C0.3125 1.49582 0.454167 1.35416 0.625 1.35416H3.54167C3.7125 1.35416 3.85417 1.49582 3.85417 1.66666C3.85417 1.83749 3.7125 1.97916 3.54167 1.97916Z" fill="#404040"/>
<path d="M3.125 8.64584H0.625C0.454167 8.64584 0.3125 8.50418 0.3125 8.33334C0.3125 8.16251 0.454167 8.02084 0.625 8.02084H3.125C3.29583 8.02084 3.4375 8.16251 3.4375 8.33334C3.4375 8.50418 3.29583 8.64584 3.125 8.64584Z" fill="#404040"/>
<path d="M1.875 5.3125H0.625C0.454167 5.3125 0.3125 5.17083 0.3125 5C0.3125 4.82917 0.454167 4.6875 0.625 4.6875H1.875C2.04583 4.6875 2.1875 4.82917 2.1875 5C2.1875 5.17083 2.04583 5.3125 1.875 5.3125Z" fill="#404040"/>
</svg>
