<svg width="20" height="20" viewBox="0 0 20 20" fill="none" xmlns="http://www.w3.org/2000/svg">
<path d="M18.333 4.99991V7.01657C18.333 8.33324 17.4997 9.16657 16.183 9.16657H13.333V3.34157C13.333 2.41657 14.0913 1.65824 15.0163 1.66657C15.9247 1.67491 16.758 2.04157 17.358 2.64157C17.958 3.24991 18.333 4.08324 18.333 4.99991Z" fill="#525252"/>
<path opacity="0.4" d="M1.66699 5.83342V17.5001C1.66699 18.1917 2.45033 18.5834 3.00033 18.1667L4.42533 17.1001C4.75866 16.8501 5.22533 16.8834 5.52533 17.1834L6.90866 18.5751C7.23366 18.9001 7.76699 18.9001 8.09199 18.5751L9.49199 17.1751C9.78366 16.8834 10.2503 16.8501 10.5753 17.1001L12.0003 18.1667C12.5503 18.5751 13.3337 18.1834 13.3337 17.5001V3.33341C13.3337 2.41675 14.0837 1.66675 15.0003 1.66675H5.83366H5.00033C2.50033 1.66675 1.66699 3.15841 1.66699 5.00008V5.83342Z" fill="#525252"/>
<path d="M10 10.2168H7.5C7.15833 10.2168 6.875 10.5001 6.875 10.8418C6.875 11.1835 7.15833 11.4668 7.5 11.4668H10C10.3417 11.4668 10.625 11.1835 10.625 10.8418C10.625 10.5001 10.3417 10.2168 10 10.2168Z" fill="#525252"/>
<path d="M7.5 8.1333H10C10.3417 8.1333 10.625 7.84997 10.625 7.5083C10.625 7.16663 10.3417 6.8833 10 6.8833H7.5C7.15833 6.8833 6.875 7.16663 6.875 7.5083C6.875 7.84997 7.15833 8.1333 7.5 8.1333Z" fill="#525252"/>
<path d="M4.97494 6.67505C4.50827 6.67505 4.1416 7.05005 4.1416 7.50838C4.1416 7.96672 4.5166 8.34172 4.97494 8.34172C5.43327 8.34172 5.80827 7.96672 5.80827 7.50838C5.80827 7.05005 5.43327 6.67505 4.97494 6.67505Z" fill="#525252"/>
<path d="M4.97494 10.0083C4.50827 10.0083 4.1416 10.3833 4.1416 10.8416C4.1416 11.3 4.5166 11.675 4.97494 11.675C5.43327 11.675 5.80827 11.3 5.80827 10.8416C5.80827 10.3833 5.43327 10.0083 4.97494 10.0083Z" fill="#525252"/>
</svg>
