<svg width="32" height="32" viewBox="0 0 32 32" fill="none" xmlns="http://www.w3.org/2000/svg">
<path d="M24.6086 5.19847L15.9262 2L7.32668 5.15633C6.2286 5.6875 5.26587 6.0067 5.26587 7.05498V12.2823C5.24796 15.9408 6.22749 19.5349 8.09916 22.6783C9.70286 25.3482 12.185 28.0972 16.0155 29.8452C19.5306 28.6743 22.1545 25.5525 23.7582 22.8813C25.63 19.7384 26.6096 16.1447 26.5915 12.4866V7.78533C26.5852 6.28888 25.8127 5.55854 24.6086 5.19847Z" fill="#BE4848"/>
<g opacity="0.8">
<path d="M24.6086 5.19847L15.9262 2L7.32668 5.15633C6.2286 5.6875 5.26587 6.0067 5.26587 7.05498V12.2823C5.24796 15.9408 6.22749 19.5349 8.09916 22.6783C9.70286 25.3482 12.185 28.0972 16.0155 29.8452C19.5306 28.6743 22.1545 25.5525 23.7582 22.8813C25.63 19.7384 26.6096 16.1447 26.5915 12.4866V7.78533C26.5852 6.28888 25.8127 5.55854 24.6086 5.19847Z" fill="white"/>
</g>
<path d="M21.2274 18.4222H19.6314V9.73977C19.6314 8.75654 19.2408 7.81358 18.5455 7.11832C17.8503 6.42307 16.9073 6.03249 15.9241 6.03249C14.9409 6.03249 13.9979 6.42307 13.3026 7.11832C12.6074 7.81358 12.2168 8.75654 12.2168 9.73977V18.4222H10.6208V9.73977C10.6098 9.03641 10.739 8.33789 11.0006 7.6849C11.2622 7.03191 11.6511 6.43748 12.1446 5.93622C12.6382 5.43496 13.2265 5.03688 13.8754 4.76517C14.5242 4.49345 15.2206 4.35352 15.9241 4.35352C16.6275 4.35352 17.324 4.49345 17.9728 4.76517C18.6217 5.03688 19.21 5.43496 19.7035 5.93622C20.1971 6.43748 20.586 7.03191 20.8476 7.6849C21.1092 8.33789 21.2383 9.03641 21.2274 9.73977V18.4222Z" fill="#BE4848"/>
<g opacity="0.4">
<path d="M21.2274 18.4203H19.6314V9.73782C19.6314 8.75459 19.2408 7.81162 18.5455 7.11637C17.8503 6.42112 16.9073 6.03053 15.9241 6.03053C14.9409 6.03053 13.9979 6.42112 13.3026 7.11637C12.6074 7.81162 12.2168 8.75459 12.2168 9.73782V18.4203H10.6208V9.73782C10.6098 9.03445 10.739 8.33594 11.0006 7.68295C11.2622 7.02995 11.6511 6.43553 12.1446 5.93427C12.6382 5.43301 13.2265 5.03493 13.8754 4.76321C14.5242 4.49149 15.2206 4.35156 15.9241 4.35156C16.6275 4.35156 17.324 4.49149 17.9728 4.76321C18.6217 5.03493 19.21 5.43301 19.7035 5.93427C20.1971 6.43553 20.586 7.02995 20.8476 7.68295C21.1092 8.33594 21.2383 9.03445 21.2274 9.73782V18.4203Z" fill="#061749"/>
</g>
<path d="M22.3297 14.5566H9.51918C9.10948 14.5566 8.77734 14.8888 8.77734 15.2985V22.985C8.77734 23.3947 9.10948 23.7269 9.51918 23.7269H22.3297C22.7394 23.7269 23.0715 23.3947 23.0715 22.985V15.2985C23.0715 14.8888 22.7394 14.5566 22.3297 14.5566Z" fill="#BE4848"/>
<g opacity="0.5">
<path d="M17.1188 17.9498C17.1189 17.7274 17.057 17.5094 16.94 17.3202C16.823 17.1311 16.6556 16.9784 16.4565 16.8793C16.2575 16.7801 16.0347 16.7384 15.8133 16.759C15.5918 16.7795 15.3805 16.8614 15.2031 16.9955C15.0257 17.1296 14.8892 17.3105 14.809 17.5179C14.7288 17.7253 14.708 17.951 14.749 18.1695C14.7901 18.3881 14.8913 18.5909 15.0413 18.7551C15.1913 18.9192 15.3841 19.0383 15.598 19.0989V20.8865H16.2505V19.0989C16.5008 19.0284 16.7212 18.8779 16.878 18.6704C17.0347 18.4629 17.1193 18.2098 17.1188 17.9498Z" fill="#061749"/>
</g>
<path d="M9.5392 22.8583C9.506 22.8583 9.48047 21.3261 9.48047 19.4428C9.48047 17.5594 9.506 16.0272 9.5392 16.0272C9.5724 16.0272 9.59921 17.5594 9.59921 19.4428C9.59921 21.3261 9.5724 22.8583 9.5392 22.8583Z" fill="#FAFAFA"/>
<path d="M14.9891 19.4794C14.9891 19.4794 14.9329 19.4615 14.8486 19.4002C14.7305 19.312 14.6267 19.206 14.5409 19.0861C14.3919 18.8894 14.2882 18.6622 14.2372 18.4208C14.1863 18.1793 14.1894 17.9296 14.2462 17.6895C14.3031 17.4494 14.4123 17.2248 14.5661 17.0318C14.7199 16.8389 14.9145 16.6823 15.1359 16.5733C15.2684 16.505 15.4104 16.4572 15.5573 16.4316C15.6097 16.4172 15.6645 16.4142 15.7182 16.4226C15.7182 16.4456 15.4922 16.4673 15.1819 16.6474C14.9794 16.7593 14.8025 16.9124 14.6626 17.0968C14.5228 17.2812 14.423 17.4927 14.3698 17.7179C14.3165 17.9431 14.3109 18.177 14.3534 18.4045C14.3958 18.6319 14.4854 18.848 14.6162 19.0389C14.7283 19.1956 14.853 19.343 14.9891 19.4794V19.4794Z" fill="#FAFAFA"/>
<path d="M26.6659 27.8162C26.6659 27.8162 26.7003 27.7677 26.7693 27.6771L26.8267 27.6005C26.8472 27.5711 26.865 27.5366 26.8855 27.4996C26.9364 27.4167 26.9791 27.329 27.0132 27.2378C27.0336 27.1855 27.0578 27.1319 27.0783 27.0731C27.0987 27.0144 27.1127 26.9454 27.1306 26.8842C27.1515 26.8154 27.166 26.7449 27.174 26.6735C27.1893 26.5967 27.2004 26.5191 27.2072 26.4411C27.2374 26.0672 27.2202 25.6909 27.1562 25.3213C27.0285 24.4824 26.671 23.4967 26.127 22.4242C25.496 21.2149 24.7567 20.0653 23.9181 18.9895C22.9085 17.6793 21.8077 16.4419 20.6239 15.2867C19.2716 13.9558 17.8269 12.7223 16.3005 11.5953C15.4923 11.0029 14.6406 10.427 13.7469 9.88439C12.8333 9.3276 11.8848 8.8303 10.9072 8.3956C9.89961 7.93529 8.8384 7.60286 7.74829 7.40606C7.19182 7.30714 6.62359 7.29293 6.06287 7.36392C5.78243 7.40602 5.50889 7.48546 5.24952 7.60014C4.98841 7.7163 4.7548 7.88635 4.56402 8.09914C4.37324 8.31193 4.2296 8.56264 4.14251 8.83483C4.05782 9.10552 4.01014 9.38641 4.00078 9.66988C3.99286 10.2351 4.07078 10.7982 4.23189 11.34C4.55132 12.4009 5.00259 13.4175 5.57512 14.3661C6.11818 15.2885 6.7204 16.1748 7.37801 17.0193C8.01642 17.8493 8.68804 18.6294 9.36859 19.3636C10.6621 20.7527 12.0522 22.0485 13.5285 23.2413C14.8106 24.2853 16.1644 25.238 17.5799 26.0925C18.744 26.8029 19.9701 27.4063 21.2431 27.8954C22.3706 28.3142 23.3908 28.5543 24.2386 28.5875C24.6132 28.6102 24.9891 28.5845 25.3571 28.5108C25.4334 28.4956 25.5088 28.4764 25.5831 28.4534C25.6532 28.4358 25.7219 28.4132 25.7887 28.3857L25.97 28.3117C26.0262 28.2848 26.0772 28.2542 26.1258 28.2287C26.2125 28.1825 26.295 28.1286 26.3722 28.0678C26.4054 28.0422 26.4386 28.0218 26.4654 27.9988L26.5343 27.9324L26.662 27.8137L26.5407 27.9414L26.4718 28.0103C26.445 28.0333 26.413 28.055 26.3786 28.0818C26.3019 28.1435 26.2198 28.1982 26.1334 28.2453C26.0849 28.2721 26.0338 28.3027 25.9776 28.3308L25.7951 28.4061C25.7286 28.4348 25.6598 28.4579 25.5895 28.4751C25.5148 28.4994 25.439 28.5199 25.3622 28.5364C24.9927 28.6118 24.6151 28.6397 24.2386 28.6194C23.3869 28.59 22.3629 28.3512 21.2317 27.9363C19.9547 27.4494 18.7247 26.8472 17.5569 26.1372C16.137 25.2855 14.7797 24.3335 13.4953 23.2886C12.0153 22.0963 10.6217 20.8004 9.32518 19.4108C8.64207 18.6754 7.97173 17.894 7.32949 17.0627C6.66991 16.2164 6.06557 15.3285 5.52022 14.4044C4.94496 13.4508 4.49115 12.4291 4.16932 11.363C4.00701 10.8136 3.92909 10.2427 3.93822 9.66988C3.9473 9.37982 3.99628 9.09239 4.08378 8.81568C4.17245 8.53457 4.31968 8.27543 4.51577 8.05535C4.71186 7.83526 4.95237 7.65923 5.22143 7.53885C5.48621 7.42089 5.76588 7.3397 6.05265 7.29753C6.6201 7.22463 7.19535 7.23884 7.75851 7.33966C8.85418 7.53712 9.92063 7.87173 10.9327 8.33559C11.9101 8.77228 12.8579 9.2726 13.7698 9.83332C14.6636 10.3773 15.5217 10.9544 16.3235 11.5481C17.8513 12.6789 19.2973 13.9163 20.6507 15.2509C21.8338 16.4088 22.9338 17.6487 23.9424 18.9614C24.7803 20.0414 25.5184 21.1953 26.1475 22.4089C26.6888 23.4852 27.0412 24.476 27.1689 25.3175C27.2318 25.6894 27.2468 26.0679 27.2136 26.4436C27.2068 26.5221 27.1958 26.6001 27.1804 26.6773C27.1703 26.749 27.155 26.8198 27.1345 26.8893C27.1153 26.9557 27.0974 27.0169 27.0808 27.0795C27.0642 27.1421 27.0336 27.1919 27.0132 27.2442C26.977 27.3358 26.9316 27.4235 26.8778 27.506C26.8561 27.543 26.8382 27.5775 26.8178 27.6068L26.7578 27.6822C26.6978 27.7716 26.6659 27.8162 26.6659 27.8162Z" fill="#BE4848"/>
<path d="M30.7516 17.9506C30.7516 17.9506 30.7452 17.8919 30.7363 17.7782C30.7363 17.7493 30.7337 17.7174 30.7286 17.6825C30.7286 17.6467 30.7133 17.6097 30.7056 17.5676C30.6889 17.4709 30.6633 17.376 30.629 17.2841C30.6099 17.2318 30.592 17.1756 30.569 17.1181C30.546 17.0607 30.5115 17.0045 30.4809 16.9419C30.4487 16.8755 30.4112 16.8119 30.3685 16.7517C30.3264 16.6904 30.2906 16.624 30.2408 16.5576C30.0147 16.2581 29.7512 15.9886 29.4569 15.7557C28.8019 15.2169 27.88 14.7164 26.7615 14.2784C25.4854 13.7963 24.1683 13.4305 22.8263 13.1855C21.2014 12.8806 19.557 12.6908 17.9054 12.6173C16.0099 12.5261 14.1104 12.5688 12.2209 12.745C11.2237 12.8394 10.2048 12.9773 9.17437 13.1701C8.12186 13.3624 7.08289 13.6225 6.06401 13.949C5.00454 14.276 3.99011 14.7341 3.04429 15.3127C2.56646 15.6101 2.13605 15.9777 1.76746 16.4031C1.58577 16.6208 1.43456 16.8622 1.31802 17.1207C1.20084 17.3817 1.14026 17.6645 1.14026 17.9506C1.14026 18.2367 1.20084 18.5196 1.31802 18.7806C1.43503 19.0388 1.5862 19.2801 1.76746 19.4981C2.13615 19.9216 2.5666 20.2871 3.04429 20.5822C3.98952 21.1614 5.00356 21.6199 6.06273 21.9471C7.08154 22.2739 8.12052 22.5341 9.1731 22.726C10.2035 22.92 11.2224 23.0567 12.2196 23.1512C14.109 23.328 16.0086 23.3707 17.9041 23.2788C19.5557 23.2054 21.2001 23.0156 22.825 22.7106C24.1671 22.466 25.4842 22.1002 26.7602 21.6177C27.88 21.1797 28.8031 20.6792 29.4556 20.1404C29.7503 19.9079 30.0138 19.6384 30.2396 19.3385C30.2856 19.2762 30.3282 19.2114 30.3673 19.1445C30.4082 19.0855 30.4441 19.0231 30.4745 18.958L30.5626 18.7818C30.5856 18.7244 30.6035 18.6682 30.6226 18.6158C30.6569 18.5239 30.6825 18.429 30.6992 18.3324C30.7069 18.2915 30.7171 18.2532 30.7222 18.2187C30.7273 18.1843 30.7222 18.1511 30.7299 18.123C30.7388 18.0081 30.7452 17.9506 30.7452 17.9506C30.7452 17.9506 30.7452 18.0093 30.7363 18.123C30.7363 18.1524 30.7363 18.1843 30.7363 18.22C30.7363 18.2558 30.7222 18.2928 30.7146 18.3349C30.6987 18.4319 30.6739 18.5272 30.6405 18.6197C30.6213 18.6733 30.6047 18.7295 30.5805 18.7882L30.4949 18.9657C30.4643 19.0311 30.4285 19.0938 30.3877 19.1534C30.3455 19.216 30.3098 19.2875 30.26 19.3513C30.0342 19.6538 29.7703 19.9259 29.4747 20.1608C28.8197 20.7047 27.8966 21.2104 26.7768 21.6522C25.4989 22.1374 24.1796 22.5057 22.8352 22.7528C21.2084 23.0613 19.5619 23.2546 17.9079 23.3312C16.0097 23.4261 14.1071 23.3864 12.2145 23.2124C11.216 23.118 10.1958 22.9813 9.1616 22.7885C8.10657 22.5963 7.06506 22.3362 6.04358 22.0097C4.97903 21.681 3.95985 21.2203 3.00982 20.6383C2.52362 20.3375 2.08544 19.9651 1.71 19.5339C1.52404 19.3108 1.36939 19.0634 1.25035 18.7984C1.13037 18.5299 1.06836 18.239 1.06836 17.9449C1.06836 17.6507 1.13037 17.3599 1.25035 17.0913C1.36988 16.827 1.52449 16.5801 1.71 16.3571C2.08529 15.9256 2.524 15.5536 3.0111 15.2539C3.96048 14.6719 4.9793 14.2116 6.04358 13.8839C7.06486 13.5564 8.10642 13.2958 9.1616 13.1038C10.1946 12.911 11.2148 12.7743 12.2132 12.6798C14.1059 12.5063 16.0084 12.467 17.9066 12.5624C19.5612 12.6391 21.2082 12.8333 22.8352 13.1433C24.1789 13.3915 25.4974 13.7612 26.7742 14.2478C27.8953 14.6909 28.8172 15.1952 29.4735 15.7391C29.7679 15.9749 30.0309 16.2474 30.2562 16.5499C30.3022 16.6131 30.3449 16.6788 30.3839 16.7466C30.4241 16.8064 30.4599 16.8692 30.4911 16.9343L30.5767 17.113C30.6009 17.1705 30.6175 17.2279 30.6367 17.2803C30.6702 17.3731 30.695 17.4688 30.7107 17.5663C30.7184 17.6071 30.7273 17.6454 30.7324 17.6812C30.7375 17.717 30.7324 17.7489 30.7324 17.777C30.7516 17.8919 30.7516 17.9506 30.7516 17.9506Z" fill="#BE4848"/>
<path d="M25.332 5.66884C25.332 5.66884 25.2809 5.6382 25.1865 5.57564L25.106 5.52328C25.0754 5.50541 25.0383 5.49009 25.0013 5.47093C24.9147 5.42537 24.8241 5.38777 24.7306 5.35857C24.677 5.34197 24.6221 5.32027 24.5621 5.30367L24.3667 5.26026C24.2965 5.24487 24.2252 5.23505 24.1535 5.23089C24.0782 5.23089 24.0016 5.21174 23.9198 5.21429C23.5444 5.20986 23.1699 5.25276 22.8052 5.34197C21.9791 5.52839 21.0176 5.95102 19.9872 6.56774C18.8239 7.28028 17.7277 8.09697 16.7121 9.00776C15.4756 10.105 14.318 11.2882 13.2481 12.5484C12.0137 13.9897 10.8826 15.5163 9.86318 17.1169C9.32691 17.9635 8.81107 18.8521 8.33098 19.7855C7.83851 20.7357 7.40775 21.7167 7.04138 22.7222C6.65257 23.7594 6.3952 24.8412 6.27528 25.9424C6.21479 26.5044 6.24019 27.0722 6.35061 27.6266C6.41098 27.9037 6.50893 28.1713 6.64173 28.422C6.77581 28.6738 6.96161 28.8944 7.18694 29.0693C7.41227 29.2443 7.67204 29.3696 7.94921 29.4371C8.22498 29.5034 8.50849 29.5317 8.79192 29.5214C9.35615 29.4902 9.91238 29.3735 10.4416 29.1753C11.4783 28.7833 12.4619 28.263 13.3694 27.6266C14.252 27.0213 15.0943 26.3593 15.8911 25.6449C16.6751 24.949 17.408 24.2276 18.0936 23.4973C19.3881 22.1113 20.5828 20.6354 21.6688 19.0807C22.6241 17.7316 23.483 16.3168 24.239 14.8467C24.8672 13.636 25.3847 12.3711 25.7853 11.0673C26.1249 9.91814 26.296 8.88008 26.2692 8.03226C26.2661 7.65694 26.2146 7.28358 26.116 6.92142C26.0954 6.84607 26.0706 6.77191 26.0419 6.69925C26.0205 6.63082 25.9936 6.56422 25.9615 6.50006C25.9309 6.43878 25.9028 6.37238 25.8759 6.32386C25.8491 6.27534 25.8108 6.22044 25.7815 6.17447C25.7297 6.09081 25.6703 6.01216 25.604 5.93953C25.5772 5.90761 25.5529 5.87697 25.5287 5.85143L25.4571 5.78631C25.3729 5.7097 25.3295 5.66884 25.3295 5.66884L25.4571 5.78121L25.5287 5.84505C25.5542 5.87058 25.5784 5.90123 25.6065 5.93315C25.6744 6.00462 25.7348 6.08292 25.7866 6.16681C25.8172 6.21405 25.8517 6.26257 25.8836 6.3162L25.9704 6.4924C26.0041 6.55674 26.0323 6.6238 26.0547 6.69286C26.0777 6.76437 26.1122 6.83587 26.13 6.91631C26.2308 7.27952 26.2849 7.6541 26.2909 8.03099C26.3203 8.88263 26.153 9.9207 25.8159 11.0775C25.4185 12.3852 24.9031 13.654 24.2761 14.8684C23.523 16.343 22.6666 17.7625 21.7135 19.1165C20.6277 20.6745 19.433 22.1538 18.1383 23.5432C17.4514 24.2761 16.7185 24.9988 15.9332 25.6973C15.1345 26.4136 14.29 27.0773 13.4051 27.684C12.4954 28.324 11.5087 28.8469 10.4684 29.2405C9.93007 29.443 9.36375 29.5615 8.78936 29.5916C8.49948 29.6016 8.20957 29.5724 7.9275 29.5048C7.6415 29.4351 7.37344 29.3059 7.14086 29.1254C6.90829 28.945 6.71644 28.7175 6.57789 28.4578C6.44206 28.2015 6.34196 27.9278 6.28039 27.6444C6.16901 27.0838 6.14318 26.5095 6.20378 25.9411C6.3259 24.8341 6.58627 23.7467 6.97881 22.7044C7.34672 21.6986 7.77919 20.7177 8.27352 19.7676C8.75361 18.833 9.27073 17.943 9.80572 17.0952C10.8278 15.4934 11.9619 13.9659 13.1995 12.5242C14.2733 11.2636 15.4347 10.0804 16.6751 8.9835C17.6967 8.06922 18.7998 7.25033 19.9706 6.53709C21.0074 5.92166 21.9714 5.50158 22.8026 5.31771C23.1688 5.22681 23.5452 5.18388 23.9224 5.19003C24.001 5.19188 24.0794 5.19785 24.1573 5.20791C24.2295 5.21247 24.3013 5.22272 24.3718 5.23855L24.5659 5.27941C24.6259 5.29728 24.6808 5.31771 24.7345 5.33559C24.8282 5.36547 24.9189 5.40438 25.0051 5.45178C25.0435 5.47093 25.0792 5.48753 25.1098 5.50541L25.189 5.55904C25.2848 5.63437 25.332 5.66884 25.332 5.66884Z" fill="#BE4848"/>
<path d="M0.550315 25.0069C0.854246 25.0069 1.10063 24.7605 1.10063 24.4566C1.10063 24.1526 0.854246 23.9062 0.550315 23.9062C0.246384 23.9062 0 24.1526 0 24.4566C0 24.7605 0.246384 25.0069 0.550315 25.0069Z" fill="#BE4848"/>
<path d="M32 7.00862C31.9998 7.11741 31.9673 7.22368 31.9067 7.31401C31.8461 7.40434 31.76 7.47468 31.6594 7.51614C31.5589 7.55759 31.4483 7.56831 31.3416 7.54693C31.2349 7.52555 31.137 7.47304 31.0601 7.39603C30.9833 7.31901 30.931 7.22095 30.9099 7.11424C30.8888 7.00752 30.8997 6.89694 30.9414 6.79646C30.9831 6.69597 31.0537 6.6101 31.1441 6.54969C31.2346 6.48928 31.3409 6.45703 31.4497 6.45703C31.5221 6.45703 31.5938 6.47131 31.6606 6.49904C31.7275 6.52678 31.7882 6.56743 31.8393 6.61867C31.8904 6.6699 31.9309 6.73072 31.9585 6.79763C31.9861 6.86455 32.0002 6.93625 32 7.00862V7.00862Z" fill="#BE4848"/>
<path d="M4.41567 25.8787C4.41567 25.9066 4.4074 25.9338 4.39191 25.9569C4.37642 25.98 4.35441 25.998 4.32867 26.0086C4.30293 26.0192 4.27462 26.0219 4.24734 26.0164C4.22006 26.0109 4.19504 25.9974 4.17545 25.9776C4.15586 25.9578 4.14259 25.9327 4.13731 25.9053C4.13204 25.878 4.135 25.8497 4.14583 25.8241C4.15665 25.7985 4.17485 25.7766 4.19812 25.7613C4.22138 25.7461 4.24866 25.738 4.27649 25.7383C4.31352 25.7386 4.34892 25.7536 4.37498 25.7799C4.40105 25.8062 4.41567 25.8417 4.41567 25.8787V25.8787Z" fill="#BE4848"/>
<path d="M7.402 10.451C7.402 10.4788 7.39376 10.5059 7.37833 10.529C7.36289 10.5521 7.34096 10.5701 7.31529 10.5808C7.28963 10.5914 7.26139 10.5942 7.23414 10.5888C7.2069 10.5833 7.18188 10.57 7.16223 10.5503C7.14259 10.5307 7.12921 10.5056 7.12379 10.4784C7.11837 10.4512 7.12115 10.4229 7.13178 10.3972C7.14242 10.3716 7.16042 10.3496 7.18352 10.3342C7.20661 10.3188 7.23377 10.3105 7.26154 10.3105C7.29879 10.3105 7.33452 10.3253 7.36086 10.3517C7.3872 10.378 7.402 10.4137 7.402 10.451Z" fill="#BE4848"/>
<path d="M29.234 17.951C29.234 17.9788 29.2258 18.006 29.2103 18.0292C29.1948 18.0523 29.1728 18.0703 29.147 18.0809C29.1213 18.0915 29.093 18.0942 29.0657 18.0887C29.0384 18.0831 29.0134 18.0696 28.9938 18.0499C28.9742 18.0301 28.9609 18.0049 28.9557 17.9776C28.9504 17.9503 28.9534 17.922 28.9642 17.8964C28.975 17.8707 28.9932 17.8489 29.0165 17.8336C29.0397 17.8183 29.067 17.8103 29.0949 17.8106C29.1132 17.8106 29.1314 17.8142 29.1484 17.8213C29.1654 17.8283 29.1808 17.8387 29.1937 17.8518C29.2067 17.8648 29.2169 17.8803 29.2238 17.8974C29.2307 17.9144 29.2342 17.9326 29.234 17.951V17.951Z" fill="#BE4848"/>
<path d="M31.1793 11.4263C31.1796 11.4542 31.1715 11.4815 31.1562 11.5048C31.1409 11.5281 31.1189 11.5463 31.0932 11.5571C31.0675 11.5679 31.0392 11.5708 31.0118 11.5654C30.9844 11.56 30.9593 11.5466 30.9396 11.5269C30.9199 11.5072 30.9065 11.482 30.9011 11.4546C30.8957 11.4273 30.8986 11.3989 30.9094 11.3732C30.9202 11.3475 30.9384 11.3256 30.9617 11.3103C30.9849 11.2949 31.0123 11.2869 31.0402 11.2871C31.0771 11.2871 31.1125 11.3018 31.1386 11.3279C31.1647 11.354 31.1793 11.3894 31.1793 11.4263V11.4263Z" fill="#BE4848"/>
</svg>
