<svg width="32" height="32" viewBox="0 0 32 32" fill="none" xmlns="http://www.w3.org/2000/svg">
<path d="M29.2369 21.5427C28.3453 24.365 26.6369 26.8595 24.3276 28.7109C22.0184 30.5623 19.2121 31.6875 16.2634 31.944C13.3148 32.2006 10.3563 31.5771 7.76196 30.1524C5.16765 28.7277 3.05405 26.5657 1.68838 23.9398C0.322707 21.3139 -0.233702 18.3421 0.0895155 15.4C0.412733 12.4579 1.60105 9.67772 3.50423 7.41096C5.4074 5.14419 7.93997 3.49264 10.7817 2.66512C13.6235 1.8376 16.6468 1.87126 19.4694 2.76186C21.3441 3.35338 23.0839 4.30844 24.5894 5.57249C26.095 6.83653 27.3367 8.3848 28.2438 10.1288C29.1508 11.8729 29.7054 13.7785 29.8758 15.737C30.0462 17.6954 29.8291 19.6682 29.2369 21.5427Z" fill="#BE4848"/>
<g opacity="0.1">
<path d="M19.4798 2.76082C17.6053 2.1679 15.6323 1.95025 13.6737 2.12032C11.7151 2.29039 9.80914 2.84484 8.06491 3.75198C6.32068 4.65912 4.77236 5.90116 3.50846 7.40707C2.24456 8.91298 1.28987 10.6532 0.698975 12.5284C0.698975 12.5284 10.5859 16.1478 14.265 12.8702C17.9441 9.59268 19.4798 2.76082 19.4798 2.76082Z" fill="white"/>
</g>
<path d="M25.6611 20.164C24.9847 22.3156 23.6851 24.2181 21.9268 25.6306C20.1685 27.0432 18.0305 27.9021 15.7837 28.0988C13.5369 28.2955 11.2822 27.821 9.30525 26.7355C7.32827 25.6499 5.71787 24.0021 4.678 22.0007C3.63813 19.9993 3.21554 17.7344 3.46376 15.4926C3.71198 13.2509 4.61985 11.1333 6.07237 9.40787C7.5249 7.68245 9.45677 6.42687 11.6234 5.80012C13.7899 5.17337 16.0938 5.20363 18.2431 5.88708C21.1171 6.80092 23.5116 8.81674 24.902 11.4928C26.2925 14.1689 26.5654 17.287 25.6611 20.164Z" fill="#BE4848"/>
<g opacity="0.2">
<path d="M25.662 20.162C24.9857 22.3136 23.6861 24.2162 21.9278 25.6287C20.1694 27.0412 18.0315 27.9002 15.7847 28.0969C13.5379 28.2935 11.2832 27.8191 9.30623 26.7335C7.32925 25.6479 5.71884 24.0001 4.67897 21.9988C3.6391 19.9974 3.21652 17.7324 3.46474 15.4907C3.71295 13.249 4.62082 11.1313 6.07335 9.40592C7.52588 7.6805 9.45775 6.42492 11.6243 5.79817C13.7909 5.17141 16.0947 5.20167 18.2441 5.88512C21.1181 6.79897 23.5126 8.81478 24.903 11.4909C26.2934 14.167 26.5664 17.2851 25.662 20.162Z" fill="#061749"/>
</g>
<path d="M25.8236 20.7107C25.1501 22.8241 23.8655 24.6906 22.1318 26.0743C20.3982 27.458 18.2934 28.2969 16.0832 28.485C13.8731 28.6731 11.6568 28.202 9.71421 27.1312C7.77165 26.0604 6.18999 24.4379 5.16904 22.4687C4.14808 20.4995 3.73362 18.2719 3.97798 16.0673C4.22235 13.8627 5.1146 11.7799 6.54202 10.0821C7.96944 8.38425 9.86801 7.14755 11.9979 6.52815C14.1278 5.90876 16.3935 5.93446 18.5088 6.60203C19.9167 7.04633 21.223 7.76406 22.353 8.7141C23.483 9.66414 24.4144 10.8278 25.094 12.1384C25.7735 13.4491 26.1877 14.8809 26.3129 16.3519C26.4381 17.8229 26.2718 19.3041 25.8236 20.7107Z" fill="#BE4848"/>
<g opacity="0.2">
<path d="M25.8236 20.7127C25.1501 22.8261 23.8655 24.6925 22.1318 26.0762C20.3982 27.4599 18.2934 28.2988 16.0832 28.4869C13.8731 28.6751 11.6568 28.204 9.71421 27.1332C7.77165 26.0624 6.18999 24.4399 5.16904 22.4707C4.14808 20.5015 3.73362 18.2739 3.97798 16.0692C4.22235 13.8646 5.1146 11.7818 6.54202 10.084C7.96944 8.38621 9.86801 7.1495 11.9979 6.5301C14.1278 5.91071 16.3935 5.93642 18.5088 6.60398C19.9167 7.04828 21.223 7.76602 22.353 8.71605C23.483 9.66609 24.4144 10.8298 25.094 12.1404C25.7735 13.451 26.1877 14.8828 26.3129 16.3538C26.4381 17.8248 26.2718 19.306 25.8236 20.7127Z" fill="white"/>
</g>
<path d="M15.2957 15.739L13.9872 13.2104C14.4826 13.027 14.9999 12.9096 15.5259 12.8612C15.8076 12.8606 16.0888 12.885 16.3662 12.9341L16.3585 12.8344L16.2741 11.714L16.2549 11.4569L15.5528 11.2151L15.3878 11.4262C14.659 11.4242 13.9374 11.5691 13.2659 11.8521L12.5368 10.4554L11.9076 10.3173L12.0879 10.6664L11.4893 10.9811L12.2299 12.4046C10.3651 13.6095 10.0082 15.2249 10.6759 16.5141C11.5891 18.2715 13.3273 17.9453 14.9081 17.554L16.2166 20.0826C15.2638 20.4843 14.2161 20.6054 13.1968 20.4317L13.2889 22.0049C14.5293 22.1851 15.7952 21.9886 16.9226 21.4409L17.4751 22.4999L16.9763 22.7685L17.6516 22.8606L18.6838 22.3196L17.9509 20.9037C19.8311 19.6758 20.1994 18.072 19.5318 16.7827C18.6454 14.9831 16.8881 15.3361 15.2957 15.739ZM14.1215 16.0153C13.2774 16.1765 12.5906 16.1803 12.2644 15.5702C11.9383 14.9601 12.1224 14.3615 12.9474 13.7591L14.1215 16.0153ZM17.2487 19.5032L16.0861 17.2662C16.9533 17.0897 17.6631 17.0935 17.9663 17.6882C18.2694 18.283 18.1121 18.8701 17.2641 19.4878L17.2487 19.5032Z" fill="#BE4848"/>
<g opacity="0.3">
<path d="M15.2959 15.7371L13.9875 13.2085C14.4828 13.0251 15.0002 12.9077 15.5261 12.8593C15.8079 12.8587 16.0891 12.8831 16.3665 12.9322L16.3588 12.8325L16.2744 11.7121L16.2552 11.455L15.553 11.2132L15.388 11.4243C14.6593 11.4223 13.9377 11.5672 13.2661 11.8502L12.5371 10.4535L11.9078 10.3154L12.0881 10.6645L11.4896 10.9792L12.2301 12.4027C10.3653 13.6076 10.0085 15.223 10.6761 16.5122C11.5893 18.2696 13.3275 17.9434 14.9084 17.5521L16.2168 20.0807C15.2641 20.4824 14.2163 20.6035 13.1971 20.4299L13.2891 22.003C14.5295 22.1832 15.7954 21.9867 16.9228 21.439L17.4754 22.498L16.9766 22.7666L17.6519 22.8587L18.684 22.3177L17.9512 20.9018C19.8313 19.6739 20.1997 18.0701 19.532 16.7808C18.6457 14.9812 16.8883 15.3342 15.2959 15.7371ZM14.1218 16.0134C13.2776 16.1746 12.5908 16.1784 12.2646 15.5683C11.9385 14.9582 12.1227 14.3596 12.9476 13.7572L14.1218 16.0134ZM17.249 19.5013L16.0864 17.2643C16.9535 17.0878 17.6634 17.0916 17.9665 17.6864C18.2696 18.2811 18.1123 18.8682 17.2643 19.4859L17.249 19.5013Z" fill="#061749"/>
</g>
<path d="M17.3716 20.7384L18.1045 22.1543L17.0685 22.6915L16.3433 21.2909C15.2163 21.84 13.95 22.0365 12.7096 21.855L12.6175 20.2895C13.6385 20.457 14.6861 20.3347 15.6411 19.9365L14.3288 17.4117C12.7479 17.7954 11.0098 18.1215 10.1004 16.368C9.43272 15.0787 9.7819 13.471 11.6544 12.2585L10.91 10.8311L11.946 10.2939L12.675 11.6906C13.6001 11.2594 14.6186 11.0668 15.6372 11.1304L15.7754 12.6652C14.9557 12.6221 14.1361 12.7516 13.3695 13.0451L14.678 15.5737C16.2588 15.19 18.0162 14.837 18.9256 16.5905C19.6201 17.9067 19.2479 19.5067 17.3716 20.7384ZM13.5269 15.873L12.3604 13.6245C11.5354 14.2269 11.3935 14.8831 11.6812 15.4394C11.969 15.9958 12.6865 16.038 13.5269 15.873ZM17.3908 17.5728C17.0685 16.9512 16.3624 16.9512 15.4953 17.1277L16.6579 19.3647C17.5212 18.7316 17.6709 18.1139 17.3908 17.5728Z" fill="#BE4848"/>
<path d="M11.5093 28.0689H11.6015L11.862 28.134L12.2907 28.2425C12.4836 28.2949 12.6792 28.3366 12.8767 28.3673L13.6202 28.4759C13.7618 28.4999 13.9052 28.5126 14.0489 28.5139H14.5155C14.6817 28.525 14.8485 28.525 15.0148 28.5139H15.5574C15.7419 28.5139 15.9264 28.5139 16.1 28.4759L16.6861 28.3945C17.5555 28.2569 18.4072 28.024 19.2256 27.6999L19.8877 27.396C19.9962 27.3472 20.1102 27.2983 20.2187 27.2386L20.5443 27.0541C20.7613 26.9239 20.9892 26.8045 21.2063 26.658L21.8466 26.1968L22.0094 26.0828L22.1668 25.9526L22.4706 25.6813L22.78 25.4154C22.8885 25.3231 22.9753 25.2146 23.073 25.1169C23.2629 24.9107 23.4637 24.7154 23.6482 24.4983L24.1908 23.8146C24.8881 22.8353 25.4366 21.7582 25.8187 20.6184C26.1703 19.4717 26.3531 18.2798 26.3614 17.0804C26.3614 16.7928 26.3342 16.5052 26.318 16.2176C26.3017 15.93 26.242 15.6749 26.204 15.3819C26.1903 15.2433 26.1685 15.1056 26.1389 14.9695L26.0412 14.5734L25.9435 14.1773L25.8947 13.9819L25.8296 13.792L25.5637 13.0431C25.4715 12.8044 25.3521 12.5765 25.249 12.3431C25.2001 12.2292 25.1459 12.1152 25.0916 12.0013C25.0373 11.8873 24.9722 11.7896 24.9071 11.6811C24.7877 11.4695 24.6629 11.2633 24.5435 11.0571C24.0615 10.3206 23.4991 9.6399 22.8668 9.0276L22.4327 8.62062C22.2916 8.49038 22.1396 8.38728 21.9985 8.27332L21.5753 7.94774C21.4429 7.84979 21.3052 7.75921 21.1629 7.67642L20.7667 7.42681C20.6486 7.34644 20.5254 7.27392 20.3977 7.20974L19.7249 6.87331C19.5501 6.78213 19.3687 6.70413 19.1822 6.63997L18.7698 6.47718L18.5202 6.3795L18.4334 6.34152L18.5256 6.36865L18.7807 6.45547L19.1931 6.60741C19.3798 6.66877 19.5612 6.74498 19.7357 6.83532L20.4195 7.16633C20.5493 7.22766 20.6744 7.29839 20.7939 7.37796L21.19 7.62216C21.3359 7.70483 21.4772 7.79541 21.6133 7.89348L22.0365 8.21906C22.1776 8.33301 22.335 8.43611 22.4761 8.56635L22.9156 8.97333C23.5582 9.58547 24.1298 10.2681 24.6195 11.0082L24.9885 11.6323L25.173 11.9579L25.3358 12.2997C25.4389 12.5331 25.5583 12.7664 25.6559 13.0106L25.9218 13.7594L25.987 13.9494C25.987 14.0145 26.0195 14.0796 26.0358 14.1501L26.1389 14.5463L26.2366 14.9478C26.2746 15.0835 26.28 15.2246 26.3071 15.3656C26.3451 15.6424 26.3939 15.9083 26.4211 16.2122C26.4482 16.516 26.4482 16.7874 26.4645 17.0804C26.4638 18.2929 26.2808 19.4983 25.9218 20.6564C25.5416 21.8054 24.993 22.8917 24.2939 23.8797L23.7513 24.5688C23.5668 24.7859 23.3606 24.9867 23.1707 25.1929C23.073 25.2906 22.9862 25.3991 22.8776 25.4913L22.5629 25.7627L22.2536 26.034L22.0962 26.1642L21.9334 26.2836C21.7109 26.4355 21.4993 26.5929 21.2823 26.7448C21.0652 26.8968 20.8319 27.0053 20.6148 27.1355L20.2892 27.3255C20.1753 27.3852 20.0613 27.434 19.9474 27.4828L19.2853 27.7867C18.4577 28.109 17.5969 28.3383 16.7186 28.4704L16.1326 28.5518C15.9372 28.5518 15.7473 28.5518 15.59 28.5844H15.0473C14.8793 28.5954 14.7107 28.5954 14.5427 28.5844L14.0814 28.5573C13.936 28.5517 13.791 28.5372 13.6473 28.5139L12.9039 28.3945C12.706 28.3611 12.5103 28.3158 12.3178 28.2588L11.8891 28.1394L11.6287 28.0689C11.5364 28.0797 11.5093 28.0743 11.5093 28.0689Z" fill="#061749"/>
<path d="M0.699378 19.8804C0.682733 19.8368 0.671791 19.7912 0.666821 19.7448C0.666821 19.6471 0.628833 19.5223 0.596275 19.3649C0.563716 19.2075 0.536588 18.9959 0.514882 18.7571C0.493176 18.5184 0.449762 18.2525 0.444336 17.9486C0.444336 17.8021 0.444336 17.6447 0.444336 17.4765C0.444336 17.3083 0.444336 17.1455 0.444336 16.9664C0.444336 16.6137 0.47146 16.2339 0.504019 15.8377C0.587183 14.9781 0.741463 14.1269 0.965267 13.2928C1.19853 12.4599 1.49793 11.6469 1.86062 10.8617C2.03969 10.509 2.20249 10.1671 2.40326 9.86325C2.49009 9.71131 2.57148 9.55938 2.65831 9.41829C2.74513 9.27721 2.83738 9.15239 2.91878 9.02216C3.07615 8.76712 3.24978 8.55549 3.38544 8.36014C3.5211 8.16479 3.65678 8.00742 3.77073 7.88262L4.02034 7.58958L4.11801 7.49191L4.04205 7.60586C3.97693 7.68183 3.90096 7.78494 3.80329 7.90975C3.70561 8.03456 3.56995 8.20277 3.43971 8.39812C3.30948 8.59347 3.13583 8.81053 2.98389 9.06557L2.73428 9.4617C2.64746 9.60279 2.5715 9.75473 2.48467 9.90667C2.3056 10.2105 2.1428 10.5524 1.96916 10.9051C1.25 12.4674 0.793486 14.1377 0.617985 15.8486C0.590853 16.2447 0.552854 16.6191 0.552854 16.9664C0.552854 17.1455 0.552854 17.3137 0.552854 17.4765V17.9486C0.552854 18.2471 0.585427 18.4913 0.601707 18.7517C0.617986 19.0122 0.645115 19.1967 0.666821 19.3595C0.688527 19.5223 0.704804 19.6417 0.715657 19.7448C0.716339 19.7905 0.710864 19.8361 0.699378 19.8804Z" fill="white"/>
<path d="M11.4901 16.9492C11.3328 16.9398 11.1801 16.8924 11.045 16.8111C10.7041 16.633 10.4305 16.3486 10.2657 16.001C10.1009 15.6534 10.0539 15.2616 10.1318 14.8849C10.1533 14.7285 10.2125 14.5796 10.3045 14.4513C10.3045 14.4513 10.2469 14.624 10.2085 14.9002C10.1578 15.2598 10.2125 15.6263 10.3659 15.9554C10.5274 16.288 10.782 16.5666 11.0987 16.7574C11.3366 16.9032 11.5016 16.9377 11.4901 16.9492Z" fill="white"/>
<path d="M11.7498 11.9317C11.5452 11.6898 11.3971 11.4053 11.3162 11.099C11.3392 11.076 11.4697 11.2525 11.5848 11.4904C11.6999 11.7283 11.7767 11.9125 11.7498 11.9317Z" fill="white"/>
<path d="M19.3119 5.9123C19.1954 5.87824 19.0812 5.83655 18.9701 5.78749C18.8615 5.74408 18.7259 5.68982 18.5685 5.64098C18.4112 5.59214 18.2321 5.51617 18.0259 5.46191C17.8197 5.40764 17.6026 5.3371 17.3639 5.28283C17.1251 5.22857 16.8646 5.17431 16.5933 5.12005C16.0007 5.02472 15.4025 4.96852 14.8026 4.95182C14.2022 4.94559 13.6021 4.98004 13.0064 5.05492C12.7297 5.09834 12.4638 5.13632 12.2305 5.19058C11.9971 5.24485 11.7638 5.29369 11.563 5.34796C11.3622 5.40222 11.1777 5.45648 11.0204 5.50532C10.8821 5.54229 10.7462 5.58759 10.6134 5.64098C10.5 5.68421 10.384 5.72045 10.2661 5.74951C10.3725 5.69062 10.4831 5.63983 10.5971 5.59757C10.7278 5.53884 10.8619 5.4881 10.9987 5.44563C11.1615 5.39136 11.3351 5.32082 11.5413 5.27199C11.7475 5.22315 11.97 5.14717 12.2142 5.09834C12.4584 5.0495 12.7134 5.00066 12.9902 4.95725C13.5906 4.87391 14.1964 4.83401 14.8026 4.83787C15.4087 4.85401 16.0127 4.91568 16.6096 5.02237C16.8863 5.07663 17.1522 5.12547 17.3856 5.19602C17.6189 5.26656 17.8468 5.32082 18.0476 5.38594C18.2484 5.45105 18.4274 5.5216 18.5902 5.58129C18.753 5.64098 18.8778 5.70067 18.9863 5.74951C19.099 5.79517 19.2078 5.8496 19.3119 5.9123Z" fill="white"/>
<path d="M12.426 31.1076C12.334 31.1172 12.2413 31.1172 12.1493 31.1076C11.9757 31.1076 11.7152 31.0588 11.4059 31.0045C10.5886 30.8583 9.79106 30.618 9.02912 30.2882C8.26139 29.9565 7.53331 29.5397 6.85855 29.0456C6.60351 28.8502 6.40816 28.6874 6.27792 28.5681C6.20363 28.511 6.13625 28.4454 6.07715 28.3727C6.15814 28.4196 6.23445 28.4741 6.30505 28.5355C6.44071 28.644 6.64692 28.796 6.90739 28.9805C7.58889 29.4535 8.31604 29.857 9.07796 30.1851C9.83346 30.5082 10.6186 30.7572 11.4222 30.9286C11.7315 30.9937 11.9648 31.0371 12.1602 31.0642C12.2499 31.071 12.3388 31.0855 12.426 31.1076Z" fill="white"/>
<path d="M17.5483 13.6895L19.0272 10.9989C18.1113 9.46576 17.7849 7.63498 18.1122 5.86642C18.4395 4.09786 19.3968 2.51942 20.796 1.44136C22.1952 0.363293 23.935 -0.136429 25.6735 0.0404142C27.412 0.217258 29.0235 1.05788 30.1911 2.39704C31.3588 3.73621 31.9983 5.47707 31.9838 7.27745C31.9693 9.07784 31.3019 10.8075 30.1129 12.1266C28.9238 13.4456 27.2991 14.2586 25.5579 14.4057C23.8168 14.5528 22.0853 14.0234 20.7037 12.9216L17.5483 13.6895Z" fill="#FAFAFA"/>
<path d="M17.5483 13.6892L20.7065 12.9038L20.6966 12.9329L20.6119 12.8195L20.722 12.9067C21.1656 13.2537 21.6467 13.5465 22.1557 13.7793C22.762 14.0559 23.4035 14.242 24.0608 14.332C24.4245 14.3832 24.7918 14.4012 25.1586 14.3858C25.3463 14.3742 25.5396 14.3684 25.733 14.3509L26.3186 14.2578C28.0603 13.9009 29.6051 12.8746 30.6395 11.3869C31.2142 10.5649 31.6116 9.62574 31.8051 8.63239C32.0035 7.58208 31.9751 6.49962 31.7218 5.46191C31.4603 4.378 30.9519 3.37392 30.2387 2.53285L29.9565 2.2129C29.8648 2.10527 29.7533 2.01656 29.6531 1.92203C29.5529 1.82749 29.4527 1.72278 29.3398 1.63988L29.0082 1.38537C28.8996 1.29818 28.7844 1.21989 28.6639 1.15122L28.3139 0.931615L27.947 0.746913C27.8269 0.682221 27.703 0.625388 27.5759 0.576753C26.5902 0.174079 25.529 0.00556187 24.4714 0.0837285C23.4727 0.15339 22.5011 0.448301 21.6251 0.947612C20.0524 1.8503 18.8744 3.33908 18.3329 5.10851C18.117 5.8637 18.0133 6.64825 18.0253 7.43547C18.0425 8.11829 18.1541 8.79509 18.3569 9.44538C18.528 9.98606 18.7596 10.5044 19.047 10.9899V10.9986V11.0088C18.086 12.7293 17.6161 13.5801 17.5483 13.6892L19.0159 10.987V11.0059C18.7227 10.5193 18.4859 9.99901 18.3104 9.45556C18.1032 8.80203 17.9882 8.12123 17.9689 7.43401C17.9541 6.64159 18.0569 5.85149 18.2737 5.09105C18.8175 3.30388 20.0067 1.80029 21.5955 0.890893C22.4799 0.386177 23.4613 0.0882606 24.47 0.0182832C25.5366 -0.0600461 26.6067 0.109433 27.6013 0.514217C27.729 0.564227 27.8538 0.621519 27.9753 0.685829L28.3464 0.871987L28.7006 1.0945C28.821 1.16364 28.9365 1.24139 29.0463 1.3272L29.3808 1.58607C29.4916 1.67708 29.5976 1.77417 29.6983 1.87694C29.7999 1.97584 29.9114 2.06601 30.0059 2.16781L30.2881 2.49068C31.008 3.34138 31.5211 4.35632 31.7853 5.45173C32.0406 6.49908 32.0685 7.59155 31.8672 8.6513C31.6713 9.65445 31.269 10.6027 30.6875 11.432C29.6414 12.9316 28.081 13.9647 26.3228 14.3218L25.7316 14.4134C25.5368 14.4309 25.3421 14.4353 25.153 14.4469C24.7833 14.4609 24.4131 14.4414 24.0466 14.3887C23.3861 14.2985 22.7413 14.1119 22.1317 13.8346C21.6202 13.5959 21.1376 13.2962 20.6938 12.9416L20.7206 12.9155L20.7375 12.9402H20.7107L17.5483 13.6892Z" fill="#061749"/>
<path d="M22.6528 7.33241L23.3598 6.60379L24.723 7.85307L27.3999 5.19888L28.0561 5.92751L24.6228 9.25797L22.6528 7.33241Z" fill="#BE4848"/>
</svg>
