<svg width="20" height="20" viewBox="0 0 20 20" fill="none" xmlns="http://www.w3.org/2000/svg">
<path d="M14.5331 12.8083C14.3747 12.8083 14.2164 12.75 14.0914 12.625C13.8497 12.3833 13.8497 11.9833 14.0914 11.7416L15.7831 10.05L14.0914 8.35828C13.8497 8.11662 13.8497 7.71662 14.0914 7.47495C14.3331 7.23328 14.7331 7.23328 14.9747 7.47495L17.1081 9.60828C17.3497 9.84995 17.3497 10.25 17.1081 10.4916L14.9747 12.625C14.8497 12.75 14.6914 12.8083 14.5331 12.8083Z" fill="#A3A3A3"/>
<path d="M16.6078 10.675H8.13281C7.79115 10.675 7.50781 10.3917 7.50781 10.05C7.50781 9.70838 7.79115 9.42505 8.13281 9.42505H16.6078C16.9495 9.42505 17.2328 9.70838 17.2328 10.05C17.2328 10.3917 16.9495 10.675 16.6078 10.675Z" fill="#A3A3A3"/>
<path d="M9.79948 17.2917C5.50781 17.2917 2.50781 14.2917 2.50781 10C2.50781 5.70837 5.50781 2.70837 9.79948 2.70837C10.1411 2.70837 10.4245 2.99171 10.4245 3.33337C10.4245 3.67504 10.1411 3.95837 9.79948 3.95837C6.24115 3.95837 3.75781 6.44171 3.75781 10C3.75781 13.5584 6.24115 16.0417 9.79948 16.0417C10.1411 16.0417 10.4245 16.325 10.4245 16.6667C10.4245 17.0084 10.1411 17.2917 9.79948 17.2917Z" fill="#A3A3A3"/>
</svg>
