<svg width="16" height="16" viewBox="0 0 16 16" fill="none" xmlns="http://www.w3.org/2000/svg">
<path d="M13.7466 5.79998C13.0533 2.71331 10.36 1.33331 7.99996 1.33331C7.99996 1.33331 7.99996 1.33331 7.99329 1.33331C5.63996 1.33331 2.95329 2.71331 2.25329 5.79331C1.46662 9.23331 3.57329 12.1466 5.47996 13.9866C6.18662 14.6666 7.09329 15.0066 7.99996 15.0066C8.90662 15.0066 9.81329 14.6666 10.5133 13.9866C12.42 12.1466 14.5266 9.23998 13.7466 5.79998ZM10.1866 6.35331L7.51996 9.01998C7.41995 9.11998 7.29329 9.16665 7.16662 9.16665C7.03996 9.16665 6.91329 9.11998 6.81329 9.01998L5.81329 8.01998C5.61996 7.82665 5.61996 7.50665 5.81329 7.31331C6.00662 7.11998 6.32662 7.11998 6.51996 7.31331L7.16662 7.95998L9.47996 5.64665C9.67329 5.45331 9.99329 5.45331 10.1866 5.64665C10.38 5.83998 10.38 6.15998 10.1866 6.35331Z" fill="#404040"/>
</svg>
