<svg width="24" height="24" viewBox="0 0 24 24" fill="none" xmlns="http://www.w3.org/2000/svg">
<g clip-path="url(#clip0_906_19615)">
<path d="M13 -0.00390625H5C2.243 -0.00390625 0 2.23909 0 4.99609V17.8501C0 18.6431 0.435 19.3691 1.134 19.7441C1.452 19.9151 1.801 19.9991 2.149 19.9991C2.565 19.9991 2.98 19.8781 3.34 19.6391L7.303 16.9961H13C15.757 16.9961 18 14.7531 18 11.9961V4.99609C18 2.23909 15.757 -0.00390625 13 -0.00390625ZM24 8.99609V21.8501C24 22.6431 23.565 23.3691 22.866 23.7441C22.548 23.9151 22.199 23.9991 21.851 24.0001C21.435 24.0001 21.02 23.8791 20.661 23.6401L16.697 20.9961H11C9.55 20.9961 8.253 20.3651 7.339 19.3761L7.908 18.9961H13C16.859 18.9961 20 15.8551 20 11.9961V4.99609C20 4.68809 19.973 4.38809 19.935 4.09009C22.246 4.53009 24 6.55909 24 8.99609Z" fill="white"/>
</g>
<defs>
<clipPath id="clip0_906_19615">
<rect width="24" height="24" fill="white"/>
</clipPath>
</defs>
</svg>
