<svg width="16" height="16" viewBox="0 0 16 16" fill="none" xmlns="http://www.w3.org/2000/svg">
<path d="M3.33333 9.83335C2.32 9.83335 1.5 9.01335 1.5 8.00002C1.5 6.98669 2.32 6.16669 3.33333 6.16669C4.34667 6.16669 5.16667 6.98669 5.16667 8.00002C5.16667 9.01335 4.34667 9.83335 3.33333 9.83335ZM3.33333 7.16669C2.87333 7.16669 2.5 7.54002 2.5 8.00002C2.5 8.46002 2.87333 8.83335 3.33333 8.83335C3.79333 8.83335 4.16667 8.46002 4.16667 8.00002C4.16667 7.54002 3.79333 7.16669 3.33333 7.16669Z" fill="#404040"/>
<path d="M12.6666 9.83335C11.6533 9.83335 10.8333 9.01335 10.8333 8.00002C10.8333 6.98669 11.6533 6.16669 12.6666 6.16669C13.6799 6.16669 14.4999 6.98669 14.4999 8.00002C14.4999 9.01335 13.6799 9.83335 12.6666 9.83335ZM12.6666 7.16669C12.2066 7.16669 11.8333 7.54002 11.8333 8.00002C11.8333 8.46002 12.2066 8.83335 12.6666 8.83335C13.1266 8.83335 13.4999 8.46002 13.4999 8.00002C13.4999 7.54002 13.1266 7.16669 12.6666 7.16669Z" fill="#404040"/>
<path d="M8.00008 9.83335C6.98675 9.83335 6.16675 9.01335 6.16675 8.00002C6.16675 6.98669 6.98675 6.16669 8.00008 6.16669C9.01341 6.16669 9.83341 6.98669 9.83341 8.00002C9.83341 9.01335 9.01341 9.83335 8.00008 9.83335ZM8.00008 7.16669C7.54008 7.16669 7.16675 7.54002 7.16675 8.00002C7.16675 8.46002 7.54008 8.83335 8.00008 8.83335C8.46008 8.83335 8.83341 8.46002 8.83341 8.00002C8.83341 7.54002 8.46008 7.16669 8.00008 7.16669Z" fill="#404040"/>
</svg>
