<svg width="24" height="24" viewBox="0 0 24 24" fill="none" xmlns="http://www.w3.org/2000/svg">
<path fill-rule="evenodd" clip-rule="evenodd" d="M0 12.018C0 5.69654 5.052 0 12.024 0C18.84 0 24 5.58838 24 11.982C24 19.3971 17.952 24 12 24C10.032 24 7.848 23.4712 6.096 22.4377C5.484 22.0651 4.968 21.7887 4.308 22.005L1.884 22.7261C1.272 22.9184 0.72 22.4377 0.9 21.7887L1.704 19.0966C1.836 18.7241 1.812 18.3275 1.62 18.015C0.588 16.1162 0 14.0371 0 12.018ZM10.4399 12.018C10.4399 12.8713 11.1239 13.5563 11.9759 13.5683C12.8279 13.5683 13.5119 12.8713 13.5119 12.03C13.5119 11.1768 12.8279 10.4917 11.9759 10.4917C11.1359 10.4797 10.4399 11.1768 10.4399 12.018ZM15.9721 12.03C15.9721 12.8713 16.6561 13.5683 17.5081 13.5683C18.3601 13.5683 19.0441 12.8713 19.0441 12.03C19.0441 11.1768 18.3601 10.4917 17.5081 10.4917C16.6561 10.4917 15.9721 11.1768 15.9721 12.03ZM6.44411 13.5683C5.60411 13.5683 4.90811 12.8713 4.90811 12.03C4.90811 11.1768 5.59211 10.4917 6.44411 10.4917C7.29611 10.4917 7.9801 11.1768 7.9801 12.03C7.9801 12.8713 7.29611 13.5563 6.44411 13.5683Z" fill="white"/>
</svg>
