<svg width="16" height="16" viewBox="0 0 16 16" fill="none" xmlns="http://www.w3.org/2000/svg">
<path d="M6.37329 12.5C6.09996 12.5 5.87329 12.2733 5.87329 12V8.66663C5.87329 8.39329 6.09996 8.16663 6.37329 8.16663C6.64662 8.16663 6.87329 8.39329 6.87329 8.66663V12C6.87329 12.2733 6.64662 12.5 6.37329 12.5Z" fill="#404040"/>
<path d="M7.99996 10.8334H4.66663C4.39329 10.8334 4.16663 10.6067 4.16663 10.3334C4.16663 10.06 4.39329 9.83337 4.66663 9.83337H7.99996C8.27329 9.83337 8.49996 10.06 8.49996 10.3334C8.49996 10.6067 8.27329 10.8334 7.99996 10.8334Z" fill="#404040"/>
<path d="M5.33337 3.83337C5.06004 3.83337 4.83337 3.60671 4.83337 3.33337V1.33337C4.83337 1.06004 5.06004 0.833374 5.33337 0.833374C5.60671 0.833374 5.83337 1.06004 5.83337 1.33337V3.33337C5.83337 3.60671 5.60671 3.83337 5.33337 3.83337Z" fill="#404040"/>
<path d="M10.6666 3.83337C10.3933 3.83337 10.1666 3.60671 10.1666 3.33337V1.33337C10.1666 1.06004 10.3933 0.833374 10.6666 0.833374C10.94 0.833374 11.1666 1.06004 11.1666 1.33337V3.33337C11.1666 3.60671 10.94 3.83337 10.6666 3.83337Z" fill="#292D32"/>
<path d="M5.90001 15.2066C4.25334 15.2066 3.16668 14.8466 2.48668 14.0733C1.70001 13.1866 1.57334 11.86 1.54668 10.68L1.46001 6.56662C1.39334 3.41329 2.44001 2.09995 5.17334 1.89329L10.5333 1.78662C10.5467 1.78662 10.5533 1.78662 10.56 1.78662C13.3 1.87995 14.3933 3.14662 14.46 6.30662L14.54 10.42C14.5667 11.6 14.4867 12.9333 13.74 13.8466C13.06 14.68 11.9133 15.0866 10.1333 15.1266L6.13334 15.2066C6.05334 15.2066 5.97334 15.2066 5.90001 15.2066ZM10.5333 2.77995L5.22001 2.88662C3.35334 3.03329 2.40001 3.63329 2.46001 6.54662L2.54668 10.66C2.57334 12.0733 2.78001 12.9 3.23334 13.4133C3.74001 13.9866 4.65334 14.24 6.12001 14.2066L10.12 14.1266C11.58 14.1 12.4867 13.8066 12.9733 13.2133C13.4067 12.6866 13.58 11.8533 13.5467 10.44L13.4667 6.32662C13.4 3.41995 12.4267 2.84662 10.5333 2.77995Z" fill="#292D32"/>
</svg>
