<svg width="512" height="512" viewBox="0 0 512 512" fill="none" xmlns="http://www.w3.org/2000/svg">
<g clip-path="url(#clip0_5612_3611)">
<path d="M86.7842 384H420.779C431.058 384 441.186 381.525 450.306 376.783C459.426 372.041 467.269 365.171 473.173 356.757C479.076 348.342 482.866 338.629 484.222 328.44C485.577 318.25 484.459 307.884 480.96 298.219L420.118 130.005C409.727 92.6231 387.377 59.6734 356.487 36.1956C325.597 12.7179 287.866 0.00452434 249.067 2.17026e-08C208.677 -0.000631302 169.495 13.7725 137.989 39.0455C106.483 64.3184 84.5376 99.5799 75.7762 139.008L25.6429 301.141C22.6912 310.714 22.0276 320.845 23.7056 330.721C25.3835 340.596 29.3561 349.94 35.3037 358C41.2513 366.06 49.0079 372.612 57.9492 377.128C66.8906 381.643 76.7672 383.997 86.7842 384Z" fill="white"/>
<path d="M151.467 426.667C156.363 450.78 169.445 472.458 188.496 488.029C207.547 503.601 231.395 512.107 256 512.107C280.605 512.107 304.453 503.601 323.504 488.029C342.555 472.458 355.637 450.78 360.533 426.667H151.467Z" fill="white"/>
</g>
<defs>
<clipPath id="clip0_5612_3611">
<rect width="512" height="512" fill="white"/>
</clipPath>
</defs>
</svg>
