<svg width="20" height="21" viewBox="0 0 20 21" fill="none" xmlns="http://www.w3.org/2000/svg">
<path d="M7.9668 16.1252C7.62513 16.1252 7.3418 15.8418 7.3418 15.5002V11.3335C7.3418 10.9918 7.62513 10.7085 7.9668 10.7085C8.30846 10.7085 8.5918 10.9918 8.5918 11.3335V15.5002C8.5918 15.8418 8.30846 16.1252 7.9668 16.1252Z" fill="#A3A3A3"/>
<path d="M9.99967 14.0415H5.83301C5.49134 14.0415 5.20801 13.7582 5.20801 13.4165C5.20801 13.0748 5.49134 12.7915 5.83301 12.7915H9.99967C10.3413 12.7915 10.6247 13.0748 10.6247 13.4165C10.6247 13.7582 10.3413 14.0415 9.99967 14.0415Z" fill="#A3A3A3"/>
<path d="M6.66699 5.2915C6.32533 5.2915 6.04199 5.00817 6.04199 4.6665V2.1665C6.04199 1.82484 6.32533 1.5415 6.66699 1.5415C7.00866 1.5415 7.29199 1.82484 7.29199 2.1665V4.6665C7.29199 5.00817 7.00866 5.2915 6.66699 5.2915Z" fill="#A3A3A3"/>
<path d="M13.333 5.2915C12.9913 5.2915 12.708 5.00817 12.708 4.6665V2.1665C12.708 1.82484 12.9913 1.5415 13.333 1.5415C13.6747 1.5415 13.958 1.82484 13.958 2.1665V4.6665C13.958 5.00817 13.6747 5.2915 13.333 5.2915Z" fill="#A3A3A3"/>
<path d="M7.37501 19.5084C5.31668 19.5084 3.95835 19.0584 3.10835 18.0917C2.12501 16.9834 1.96668 15.3251 1.93335 13.8501L1.82501 8.7084C1.74168 4.76673 3.05001 3.12506 6.46668 2.86673L13.1667 2.7334C13.1833 2.7334 13.1917 2.7334 13.2 2.7334C16.625 2.85007 17.9917 4.4334 18.075 8.3834L18.175 13.5251C18.2083 15.0001 18.1083 16.6667 17.175 17.8084C16.325 18.8501 14.8917 19.3584 12.6667 19.4084L7.66668 19.5084C7.56668 19.5084 7.46668 19.5084 7.37501 19.5084ZM13.1667 3.97507L6.52501 4.1084C4.19168 4.29173 3.00001 5.04173 3.07501 8.6834L3.18335 13.8251C3.21668 15.5917 3.47501 16.6251 4.04168 17.2667C4.67501 17.9834 5.81668 18.3001 7.65001 18.2584L12.65 18.1584C14.475 18.1251 15.6083 17.7584 16.2167 17.0167C16.7583 16.3584 16.975 15.3167 16.9333 13.5501L16.8333 8.4084C16.75 4.77506 15.5333 4.0584 13.1667 3.97507Z" fill="#A3A3A3"/>
</svg>
