<svg width="40" height="40" viewBox="0 0 40 40" fill="none" xmlns="http://www.w3.org/2000/svg">
<path d="M16.1406 31.2945C16.1678 31.3022 16.1917 31.3187 16.2088 31.3413C16.2258 31.3639 16.2351 31.3914 16.2351 31.4197C16.2351 31.448 16.2258 31.4756 16.2088 31.4982C16.1917 31.5208 16.1678 31.5372 16.1406 31.545C16.0741 31.5796 16.0002 31.5978 15.9251 31.5978C15.8501 31.5978 15.7762 31.5796 15.7097 31.545C15.6825 31.5372 15.6585 31.5208 15.6415 31.4982C15.6245 31.4756 15.6152 31.448 15.6152 31.4197C15.6152 31.3914 15.6245 31.3639 15.6415 31.3413C15.6585 31.3187 15.6825 31.3022 15.7097 31.2945C15.777 31.2624 15.8506 31.2458 15.9251 31.2458C15.9997 31.2458 16.0733 31.2624 16.1406 31.2945Z" fill="#0E3151"/>
<path d="M17.2617 30.6432C17.2889 30.6509 17.3128 30.6674 17.3299 30.69C17.3469 30.7126 17.3561 30.7401 17.3561 30.7684C17.3561 30.7967 17.3469 30.8243 17.3299 30.8469C17.3128 30.8695 17.2889 30.8859 17.2617 30.8937C17.1951 30.9283 17.1212 30.9465 17.0462 30.9465C16.9712 30.9465 16.8973 30.9283 16.8308 30.8937C16.8036 30.8859 16.7796 30.8695 16.7626 30.8469C16.7455 30.8243 16.7363 30.7967 16.7363 30.7684C16.7363 30.7401 16.7455 30.7126 16.7626 30.69C16.7796 30.6674 16.8036 30.6509 16.8308 30.6432C16.8981 30.6111 16.9717 30.5945 17.0462 30.5945C17.1208 30.5945 17.1944 30.6111 17.2617 30.6432Z" fill="#0E3151"/>
<path d="M18.1747 30.2925C18.3435 30.2925 18.4803 30.214 18.4803 30.1171C18.4803 30.0203 18.3435 29.9418 18.1747 29.9418C18.006 29.9418 17.8691 30.0203 17.8691 30.1171C17.8691 30.214 18.006 30.2925 18.1747 30.2925Z" fill="#0E3151"/>
<path d="M19.5175 29.3456C19.5429 29.3546 19.5648 29.3712 19.5803 29.3932C19.5958 29.4152 19.6042 29.4414 19.6042 29.4683C19.6042 29.4953 19.5958 29.5215 19.5803 29.5435C19.5648 29.5655 19.5429 29.5821 19.5175 29.5911C19.451 29.6258 19.3771 29.6439 19.3021 29.6439C19.2271 29.6439 19.1532 29.6258 19.0867 29.5911C19.0613 29.5821 19.0394 29.5655 19.0239 29.5435C19.0083 29.5215 19 29.4953 19 29.4683C19 29.4414 19.0083 29.4152 19.0239 29.3932C19.0394 29.3712 19.0613 29.3546 19.0867 29.3456C19.1532 29.3109 19.2271 29.2928 19.3021 29.2928C19.3771 29.2928 19.451 29.3109 19.5175 29.3456Z" fill="#0E3151"/>
<path d="M20.6484 28.7194C20.6733 28.7295 20.6946 28.7469 20.7095 28.7692C20.7245 28.7915 20.7326 28.8178 20.7326 28.8446C20.7326 28.8715 20.7245 28.8978 20.7095 28.9201C20.6946 28.9424 20.6733 28.9597 20.6484 28.9699C20.5811 29.0019 20.5075 29.0186 20.433 29.0186C20.3584 29.0186 20.2848 29.0019 20.2175 28.9699C20.1903 28.9621 20.1664 28.9457 20.1493 28.9231C20.1323 28.9005 20.123 28.8729 20.123 28.8446C20.123 28.8163 20.1323 28.7888 20.1493 28.7662C20.1664 28.7436 20.1903 28.7272 20.2175 28.7194C20.284 28.6847 20.3579 28.6666 20.433 28.6666C20.508 28.6666 20.5819 28.6847 20.6484 28.7194Z" fill="#0E3151"/>
<path d="M21.77 28.043C21.7949 28.0532 21.8162 28.0705 21.8312 28.0928C21.8462 28.1151 21.8542 28.1414 21.8542 28.1683C21.8542 28.1951 21.8462 28.2214 21.8312 28.2437C21.8162 28.266 21.7949 28.2834 21.77 28.2935C21.7021 28.3263 21.6276 28.3434 21.5521 28.3434C21.4766 28.3434 21.4021 28.3263 21.3342 28.2935C21.3093 28.2834 21.288 28.266 21.273 28.2437C21.258 28.2214 21.25 28.1951 21.25 28.1683C21.25 28.1414 21.258 28.1151 21.273 28.0928C21.288 28.0705 21.3093 28.0532 21.3342 28.043C21.4021 28.0102 21.4766 27.9931 21.5521 27.9931C21.6276 27.9931 21.7021 28.0102 21.77 28.043Z" fill="#0E3151"/>
<path d="M22.8939 27.3917C22.9212 27.3995 22.9451 27.4159 22.9622 27.4385C22.9792 27.4611 22.9884 27.4887 22.9884 27.517C22.9884 27.5453 22.9792 27.5728 22.9622 27.5954C22.9451 27.618 22.9212 27.6344 22.8939 27.6422C22.8274 27.6769 22.7535 27.695 22.6785 27.695C22.6035 27.695 22.5296 27.6769 22.4631 27.6422C22.4382 27.6321 22.4169 27.6147 22.4019 27.5924C22.3869 27.5701 22.3789 27.5439 22.3789 27.517C22.3789 27.4901 22.3869 27.4638 22.4019 27.4415C22.4169 27.4192 22.4382 27.4019 22.4631 27.3917C22.5296 27.357 22.6035 27.3389 22.6785 27.3389C22.7535 27.3389 22.8274 27.357 22.8939 27.3917Z" fill="#0E3151"/>
<path d="M24.0209 26.7405C24.0481 26.7483 24.0721 26.7647 24.0891 26.7873C24.1062 26.8099 24.1154 26.8374 24.1154 26.8657C24.1154 26.894 24.1062 26.9216 24.0891 26.9442C24.0721 26.9668 24.0481 26.9832 24.0209 26.991C23.9544 27.0257 23.8805 27.0438 23.8055 27.0438C23.7305 27.0438 23.6566 27.0257 23.59 26.991C23.5652 26.9808 23.5439 26.9635 23.5289 26.9412C23.5139 26.9189 23.5059 26.8926 23.5059 26.8657C23.5059 26.8389 23.5139 26.8126 23.5289 26.7903C23.5439 26.768 23.5652 26.7506 23.59 26.7405C23.6573 26.7084 23.7309 26.6918 23.8055 26.6918C23.88 26.6918 23.9536 26.7084 24.0209 26.7405Z" fill="#0E3151"/>
<path d="M25.1596 26.0892C25.1868 26.097 25.2107 26.1134 25.2278 26.136C25.2448 26.1586 25.254 26.1861 25.254 26.2144C25.254 26.2427 25.2448 26.2703 25.2278 26.2929C25.2107 26.3155 25.1868 26.3319 25.1596 26.3397C25.093 26.3744 25.0191 26.3925 24.9441 26.3925C24.8691 26.3925 24.7952 26.3744 24.7287 26.3397C24.7038 26.3295 24.6825 26.3122 24.6675 26.2899C24.6525 26.2676 24.6445 26.2413 24.6445 26.2144C24.6445 26.1875 24.6525 26.1613 24.6675 26.139C24.6825 26.1167 24.7038 26.0993 24.7287 26.0892C24.796 26.0571 24.8696 26.0405 24.9441 26.0405C25.0187 26.0405 25.0923 26.0571 25.1596 26.0892Z" fill="#0E3151"/>
<path d="M26.2749 25.4429C26.3952 25.508 26.3952 25.6182 26.2749 25.6884C26.2084 25.7231 26.1345 25.7412 26.0595 25.7412C25.9845 25.7412 25.9106 25.7231 25.8441 25.6884C25.7238 25.6182 25.7238 25.508 25.8441 25.4429C25.9106 25.4082 25.9845 25.3901 26.0595 25.3901C26.1345 25.3901 26.2084 25.4082 26.2749 25.4429Z" fill="#0E3151"/>
<path d="M13.871 31.2895C13.8983 31.2972 13.9222 31.3137 13.9392 31.3363C13.9563 31.3589 13.9655 31.3864 13.9655 31.4147C13.9655 31.443 13.9563 31.4705 13.9392 31.4931C13.9222 31.5157 13.8983 31.5322 13.871 31.54C13.8037 31.572 13.7301 31.5886 13.6556 31.5886C13.5811 31.5886 13.5075 31.572 13.4402 31.54C13.413 31.5322 13.389 31.5157 13.372 31.4931C13.3549 31.4705 13.3457 31.443 13.3457 31.4147C13.3457 31.3864 13.3549 31.3589 13.372 31.3363C13.389 31.3137 13.413 31.2972 13.4402 31.2895C13.5067 31.2548 13.5806 31.2367 13.6556 31.2367C13.7306 31.2367 13.8045 31.2548 13.871 31.2895Z" fill="#0E3151"/>
<path d="M14.998 30.6382C15.0252 30.646 15.0491 30.6624 15.0662 30.685C15.0832 30.7076 15.0925 30.7351 15.0925 30.7634C15.0925 30.7917 15.0832 30.8193 15.0662 30.8419C15.0491 30.8645 15.0252 30.8809 14.998 30.8887C14.9307 30.9207 14.8571 30.9374 14.7826 30.9374C14.708 30.9374 14.6344 30.9207 14.5671 30.8887C14.5399 30.8809 14.516 30.8645 14.4989 30.8419C14.4819 30.8193 14.4727 30.7917 14.4727 30.7634C14.4727 30.7351 14.4819 30.7076 14.4989 30.685C14.516 30.6624 14.5399 30.646 14.5671 30.6382C14.6336 30.6035 14.7076 30.5854 14.7826 30.5854C14.8576 30.5854 14.9315 30.6035 14.998 30.6382Z" fill="#0E3151"/>
<path d="M15.9111 30.2875C16.0799 30.2875 16.2167 30.209 16.2167 30.1121C16.2167 30.0153 16.0799 29.9368 15.9111 29.9368C15.7423 29.9368 15.6055 30.0153 15.6055 30.1121C15.6055 30.209 15.7423 30.2875 15.9111 30.2875Z" fill="#0E3151"/>
<path d="M17.2519 29.3356C17.2791 29.3434 17.303 29.3598 17.3201 29.3824C17.3371 29.405 17.3464 29.4325 17.3464 29.4608C17.3464 29.4891 17.3371 29.5167 17.3201 29.5393C17.303 29.5619 17.2791 29.5783 17.2519 29.5861C17.1854 29.6208 17.1115 29.6389 17.0365 29.6389C16.9615 29.6389 16.8875 29.6208 16.821 29.5861C16.7938 29.5783 16.7699 29.5619 16.7528 29.5393C16.7358 29.5167 16.7266 29.4891 16.7266 29.4608C16.7266 29.4325 16.7358 29.405 16.7528 29.3824C16.7699 29.3598 16.7938 29.3434 16.821 29.3356C16.8883 29.3035 16.9619 29.2869 17.0365 29.2869C17.111 29.2869 17.1846 29.3035 17.2519 29.3356Z" fill="#0E3151"/>
<path d="M18.3788 28.6843C18.4061 28.6921 18.43 28.7085 18.447 28.7311C18.4641 28.7537 18.4733 28.7812 18.4733 28.8095C18.4733 28.8379 18.4641 28.8654 18.447 28.888C18.43 28.9106 18.4061 28.927 18.3788 28.9348C18.3123 28.9695 18.2384 28.9876 18.1634 28.9876C18.0884 28.9876 18.0145 28.9695 17.948 28.9348C17.9208 28.927 17.8968 28.9106 17.8798 28.888C17.8627 28.8654 17.8535 28.8379 17.8535 28.8095C17.8535 28.7812 17.8627 28.7537 17.8798 28.7311C17.8968 28.7085 17.9208 28.6921 17.948 28.6843C18.0153 28.6522 18.0889 28.6356 18.1634 28.6356C18.238 28.6356 18.3116 28.6522 18.3788 28.6843Z" fill="#0E3151"/>
<path d="M19.5077 28.0381C19.5331 28.0471 19.555 28.0637 19.5705 28.0857C19.5861 28.1076 19.5944 28.1339 19.5944 28.1608C19.5944 28.1877 19.5861 28.2139 19.5705 28.2359C19.555 28.2579 19.5331 28.2745 19.5077 28.2835C19.4412 28.3182 19.3673 28.3363 19.2923 28.3363C19.2173 28.3363 19.1434 28.3182 19.0769 28.2835C19.0515 28.2745 19.0296 28.2579 19.0141 28.2359C18.9986 28.2139 18.9902 28.1877 18.9902 28.1608C18.9902 28.1339 18.9986 28.1076 19.0141 28.0857C19.0296 28.0637 19.0515 28.0471 19.0769 28.0381C19.1434 28.0034 19.2173 27.9853 19.2923 27.9853C19.3673 27.9853 19.4412 28.0034 19.5077 28.0381Z" fill="#0E3151"/>
<path d="M20.6484 27.3867C20.6737 27.3958 20.6957 27.4124 20.7112 27.4344C20.7267 27.4563 20.735 27.4826 20.735 27.5095C20.735 27.5364 20.7267 27.5626 20.7112 27.5846C20.6957 27.6066 20.6737 27.6232 20.6484 27.6322C20.5818 27.6669 20.508 27.685 20.4329 27.685C20.3579 27.685 20.284 27.6669 20.2175 27.6322C20.1922 27.6232 20.1702 27.6066 20.1547 27.5846C20.1392 27.5626 20.1309 27.5364 20.1309 27.5095C20.1309 27.4826 20.1392 27.4563 20.1547 27.4344C20.1702 27.4124 20.1922 27.3958 20.2175 27.3867C20.284 27.3521 20.3579 27.334 20.4329 27.334C20.508 27.334 20.5818 27.3521 20.6484 27.3867Z" fill="#0E3151"/>
<path d="M21.7617 26.7155C21.7865 26.7256 21.8078 26.7429 21.8228 26.7652C21.8378 26.7876 21.8458 26.8138 21.8458 26.8407C21.8458 26.8676 21.8378 26.8938 21.8228 26.9162C21.8078 26.9385 21.7865 26.9558 21.7617 26.9659C21.6944 26.998 21.6208 27.0146 21.5462 27.0146C21.4717 27.0146 21.3981 26.998 21.3308 26.9659C21.3036 26.9582 21.2796 26.9417 21.2626 26.9191C21.2455 26.8965 21.2363 26.869 21.2363 26.8407C21.2363 26.8124 21.2455 26.7849 21.2626 26.7623C21.2796 26.7397 21.3036 26.7232 21.3308 26.7155C21.3973 26.6808 21.4712 26.6627 21.5462 26.6627C21.6212 26.6627 21.6951 26.6808 21.7617 26.7155Z" fill="#0E3151"/>
<path d="M22.8872 26.0842C22.9121 26.0943 22.9334 26.1116 22.9484 26.1339C22.9634 26.1563 22.9714 26.1825 22.9714 26.2094C22.9714 26.2363 22.9634 26.2626 22.9484 26.2849C22.9334 26.3072 22.9121 26.3245 22.8872 26.3347C22.8193 26.3675 22.7448 26.3845 22.6693 26.3845C22.5938 26.3845 22.5193 26.3675 22.4514 26.3347C22.4265 26.3245 22.4052 26.3072 22.3902 26.2849C22.3752 26.2626 22.3672 26.2363 22.3672 26.2094C22.3672 26.1825 22.3752 26.1563 22.3902 26.1339C22.4052 26.1116 22.4265 26.0943 22.4514 26.0842C22.5193 26.0513 22.5938 26.0343 22.6693 26.0343C22.7448 26.0343 22.8193 26.0513 22.8872 26.0842Z" fill="#0E3151"/>
<path d="M24.0111 25.4329C24.0383 25.4407 24.0623 25.4571 24.0793 25.4797C24.0964 25.5023 24.1056 25.5298 24.1056 25.5581C24.1056 25.5864 24.0964 25.614 24.0793 25.6366C24.0623 25.6592 24.0383 25.6756 24.0111 25.6834C23.9446 25.7181 23.8707 25.7362 23.7957 25.7362C23.7207 25.7362 23.6468 25.7181 23.5803 25.6834C23.5554 25.6732 23.5341 25.6559 23.5191 25.6336C23.5041 25.6113 23.4961 25.585 23.4961 25.5581C23.4961 25.5313 23.5041 25.505 23.5191 25.4827C23.5341 25.4604 23.5554 25.443 23.5803 25.4329C23.6468 25.3982 23.7207 25.3801 23.7957 25.3801C23.8707 25.3801 23.9446 25.3982 24.0111 25.4329Z" fill="#0E3151"/>
<path d="M25.1596 24.7816C25.1868 24.7894 25.2107 24.8058 25.2278 24.8284C25.2448 24.851 25.254 24.8786 25.254 24.9069C25.254 24.9352 25.2448 24.9627 25.2278 24.9853C25.2107 25.0079 25.1868 25.0243 25.1596 25.0321C25.093 25.0668 25.0191 25.0849 24.9441 25.0849C24.8691 25.0849 24.7952 25.0668 24.7287 25.0321C24.7038 25.022 24.6825 25.0046 24.6675 24.9823C24.6525 24.96 24.6445 24.9337 24.6445 24.9069C24.6445 24.88 24.6525 24.8537 24.6675 24.8314C24.6825 24.8091 24.7038 24.7918 24.7287 24.7816C24.796 24.7496 24.8696 24.7329 24.9441 24.7329C25.0187 24.7329 25.0923 24.7496 25.1596 24.7816Z" fill="#0E3151"/>
<path d="M12.7441 30.6382C12.7713 30.646 12.7952 30.6624 12.8123 30.685C12.8293 30.7076 12.8386 30.7351 12.8386 30.7634C12.8386 30.7917 12.8293 30.8193 12.8123 30.8419C12.7952 30.8645 12.7713 30.8809 12.7441 30.8887C12.6768 30.9207 12.6032 30.9374 12.5287 30.9374C12.4541 30.9374 12.3805 30.9207 12.3132 30.8887C12.286 30.8809 12.2621 30.8645 12.245 30.8419C12.228 30.8193 12.2188 30.7917 12.2188 30.7634C12.2188 30.7351 12.228 30.7076 12.245 30.685C12.2621 30.6624 12.286 30.646 12.3132 30.6382C12.3797 30.6035 12.4536 30.5854 12.5287 30.5854C12.6037 30.5854 12.6776 30.6035 12.7441 30.6382Z" fill="#0E3151"/>
<path d="M13.871 29.9869C13.8983 29.9947 13.9222 30.0111 13.9392 30.0337C13.9563 30.0563 13.9655 30.0838 13.9655 30.1121C13.9655 30.1404 13.9563 30.168 13.9392 30.1906C13.9222 30.2132 13.8983 30.2296 13.871 30.2374C13.8045 30.2721 13.7306 30.2902 13.6556 30.2902C13.5806 30.2902 13.5067 30.2721 13.4402 30.2374C13.413 30.2296 13.389 30.2132 13.372 30.1906C13.3549 30.168 13.3457 30.1404 13.3457 30.1121C13.3457 30.0838 13.3549 30.0563 13.372 30.0337C13.389 30.0111 13.413 29.9947 13.4402 29.9869C13.5075 29.9548 13.5811 29.9382 13.6556 29.9382C13.7301 29.9382 13.8037 29.9548 13.871 29.9869Z" fill="#0E3151"/>
<path d="M14.998 29.3356C15.0252 29.3434 15.0491 29.3598 15.0662 29.3824C15.0832 29.405 15.0925 29.4325 15.0925 29.4609C15.0925 29.4892 15.0832 29.5167 15.0662 29.5393C15.0491 29.5619 15.0252 29.5783 14.998 29.5861C14.9315 29.6208 14.8576 29.6389 14.7826 29.6389C14.7076 29.6389 14.6336 29.6208 14.5671 29.5861C14.5399 29.5783 14.516 29.5619 14.4989 29.5393C14.4819 29.5167 14.4727 29.4892 14.4727 29.4609C14.4727 29.4325 14.4819 29.405 14.4989 29.3824C14.516 29.3598 14.5399 29.3434 14.5671 29.3356C14.6344 29.3036 14.708 29.2869 14.7826 29.2869C14.8571 29.2869 14.9307 29.3036 14.998 29.3356Z" fill="#0E3151"/>
<path d="M16.1406 28.6843C16.1678 28.6921 16.1917 28.7085 16.2088 28.7311C16.2258 28.7537 16.2351 28.7812 16.2351 28.8095C16.2351 28.8379 16.2258 28.8654 16.2088 28.888C16.1917 28.9106 16.1678 28.927 16.1406 28.9348C16.0741 28.9695 16.0002 28.9876 15.9251 28.9876C15.8501 28.9876 15.7762 28.9695 15.7097 28.9348C15.6825 28.927 15.6585 28.9106 15.6415 28.888C15.6245 28.8654 15.6152 28.8379 15.6152 28.8095C15.6152 28.7812 15.6245 28.7537 15.6415 28.7311C15.6585 28.7085 15.6825 28.6921 15.7097 28.6843C15.777 28.6522 15.8506 28.6356 15.9251 28.6356C15.9997 28.6356 16.0733 28.6522 16.1406 28.6843Z" fill="#0E3151"/>
<path d="M17.2519 28.0381C17.2772 28.0471 17.2992 28.0637 17.3147 28.0857C17.3302 28.1076 17.3385 28.1339 17.3385 28.1608C17.3385 28.1877 17.3302 28.2139 17.3147 28.2359C17.2992 28.2579 17.2772 28.2745 17.2519 28.2835C17.1854 28.3182 17.1115 28.3363 17.0365 28.3363C16.9614 28.3363 16.8875 28.3182 16.821 28.2835C16.7957 28.2745 16.7737 28.2579 16.7582 28.2359C16.7427 28.2139 16.7344 28.1877 16.7344 28.1608C16.7344 28.1339 16.7427 28.1076 16.7582 28.0857C16.7737 28.0637 16.7957 28.0471 16.821 28.0381C16.8875 28.0034 16.9614 27.9853 17.0365 27.9853C17.1115 27.9853 17.1854 28.0034 17.2519 28.0381Z" fill="#0E3151"/>
<path d="M18.3808 27.3867C18.4061 27.3958 18.4281 27.4124 18.4436 27.4344C18.4591 27.4563 18.4674 27.4826 18.4674 27.5095C18.4674 27.5364 18.4591 27.5626 18.4436 27.5846C18.4281 27.6066 18.4061 27.6232 18.3808 27.6322C18.3143 27.6669 18.2404 27.685 18.1654 27.685C18.0903 27.685 18.0164 27.6669 17.9499 27.6322C17.9246 27.6232 17.9026 27.6066 17.8871 27.5846C17.8716 27.5626 17.8633 27.5364 17.8633 27.5095C17.8633 27.4826 17.8716 27.4563 17.8871 27.4344C17.9026 27.4124 17.9246 27.3958 17.9499 27.3867C18.0164 27.3521 18.0903 27.334 18.1654 27.334C18.2404 27.334 18.3143 27.3521 18.3808 27.3867Z" fill="#0E3151"/>
<path d="M19.5058 26.7154C19.5307 26.7256 19.552 26.7429 19.567 26.7652C19.582 26.7875 19.59 26.8138 19.59 26.8407C19.59 26.8675 19.582 26.8938 19.567 26.9161C19.552 26.9384 19.5307 26.9558 19.5058 26.9659C19.4385 26.998 19.3649 27.0146 19.2904 27.0146C19.2158 27.0146 19.1422 26.998 19.0749 26.9659C19.0477 26.9581 19.0238 26.9417 19.0067 26.9191C18.9897 26.8965 18.9805 26.869 18.9805 26.8407C18.9805 26.8124 18.9897 26.7848 19.0067 26.7622C19.0238 26.7396 19.0477 26.7232 19.0749 26.7154C19.1415 26.6807 19.2154 26.6626 19.2904 26.6626C19.3654 26.6626 19.4393 26.6807 19.5058 26.7154Z" fill="#0E3151"/>
<path d="M20.6484 26.0842C20.6733 26.0943 20.6946 26.1116 20.7095 26.134C20.7245 26.1563 20.7326 26.1825 20.7326 26.2094C20.7326 26.2363 20.7245 26.2626 20.7095 26.2849C20.6946 26.3072 20.6733 26.3245 20.6484 26.3347C20.5811 26.3667 20.5075 26.3833 20.433 26.3833C20.3584 26.3833 20.2848 26.3667 20.2175 26.3347C20.1903 26.3269 20.1664 26.3105 20.1493 26.2879C20.1323 26.2653 20.123 26.2377 20.123 26.2094C20.123 26.1811 20.1323 26.1536 20.1493 26.131C20.1664 26.1084 20.1903 26.0919 20.2175 26.0842C20.284 26.0495 20.3579 26.0314 20.433 26.0314C20.508 26.0314 20.5819 26.0495 20.6484 26.0842Z" fill="#0E3151"/>
<path d="M21.7617 25.4329C21.7865 25.443 21.8078 25.4604 21.8228 25.4827C21.8378 25.505 21.8458 25.5313 21.8458 25.5581C21.8458 25.585 21.8378 25.6113 21.8228 25.6336C21.8078 25.6559 21.7865 25.6732 21.7617 25.6834C21.6951 25.7181 21.6212 25.7362 21.5462 25.7362C21.4712 25.7362 21.3973 25.7181 21.3308 25.6834C21.3036 25.6756 21.2796 25.6592 21.2626 25.6366C21.2455 25.614 21.2363 25.5864 21.2363 25.5581C21.2363 25.5298 21.2455 25.5023 21.2626 25.4797C21.2796 25.4571 21.3036 25.4407 21.3308 25.4329C21.3973 25.3982 21.4712 25.3801 21.5462 25.3801C21.6212 25.3801 21.6951 25.3982 21.7617 25.4329Z" fill="#0E3151"/>
<path d="M22.6689 25.0822C22.8377 25.0822 22.9745 25.0037 22.9745 24.9068C22.9745 24.81 22.8377 24.7315 22.6689 24.7315C22.5001 24.7315 22.3633 24.81 22.3633 24.9068C22.3633 25.0037 22.5001 25.0822 22.6689 25.0822Z" fill="#0E3151"/>
<path d="M24.0111 24.1303C24.0383 24.1381 24.0623 24.1545 24.0793 24.1771C24.0964 24.1997 24.1056 24.2273 24.1056 24.2556C24.1056 24.2839 24.0964 24.3114 24.0793 24.334C24.0623 24.3566 24.0383 24.373 24.0111 24.3808C23.9446 24.4155 23.8707 24.4336 23.7957 24.4336C23.7207 24.4336 23.6468 24.4155 23.5803 24.3808C23.5554 24.3707 23.5341 24.3533 23.5191 24.331C23.5041 24.3087 23.4961 24.2824 23.4961 24.2556C23.4961 24.2287 23.5041 24.2024 23.5191 24.1801C23.5341 24.1578 23.5554 24.1405 23.5803 24.1303C23.6476 24.0983 23.7212 24.0816 23.7957 24.0816C23.8702 24.0816 23.9438 24.0983 24.0111 24.1303Z" fill="#0E3151"/>
<path d="M11.6308 29.9869C11.658 29.9947 11.682 30.0111 11.699 30.0337C11.7161 30.0563 11.7253 30.0838 11.7253 30.1121C11.7253 30.1404 11.7161 30.168 11.699 30.1906C11.682 30.2132 11.658 30.2296 11.6308 30.2374C11.5643 30.2721 11.4904 30.2902 11.4154 30.2902C11.3404 30.2902 11.2665 30.2721 11.2 30.2374C11.1727 30.2296 11.1488 30.2132 11.1317 30.1906C11.1147 30.168 11.1055 30.1404 11.1055 30.1121C11.1055 30.0838 11.1147 30.0563 11.1317 30.0337C11.1488 30.0111 11.1727 29.9947 11.2 29.9869C11.2672 29.9548 11.3408 29.9382 11.4154 29.9382C11.4899 29.9382 11.5635 29.9548 11.6308 29.9869Z" fill="#0E3151"/>
<path d="M12.7441 29.3356C12.7713 29.3434 12.7952 29.3598 12.8123 29.3824C12.8293 29.405 12.8386 29.4325 12.8386 29.4609C12.8386 29.4892 12.8293 29.5167 12.8123 29.5393C12.7952 29.5619 12.7713 29.5783 12.7441 29.5861C12.6776 29.6208 12.6037 29.6389 12.5287 29.6389C12.4536 29.6389 12.3797 29.6208 12.3132 29.5861C12.286 29.5783 12.2621 29.5619 12.245 29.5393C12.228 29.5167 12.2188 29.4892 12.2188 29.4609C12.2188 29.4325 12.228 29.405 12.245 29.3824C12.2621 29.3598 12.286 29.3434 12.3132 29.3356C12.3805 29.3036 12.4541 29.2869 12.5287 29.2869C12.6032 29.2869 12.6768 29.3036 12.7441 29.3356Z" fill="#0E3151"/>
<path d="M18.3801 26.0842C18.4073 26.0919 18.4312 26.1084 18.4483 26.131C18.4653 26.1536 18.4746 26.1811 18.4746 26.2094C18.4746 26.2377 18.4653 26.2653 18.4483 26.2879C18.4312 26.3105 18.4073 26.3269 18.3801 26.3347C18.3128 26.3667 18.2392 26.3833 18.1647 26.3833C18.0901 26.3833 18.0165 26.3667 17.9492 26.3347L18.3801 26.0842Z" fill="#0E3151"/>
<path d="M19.5058 25.4329C19.5307 25.443 19.552 25.4604 19.567 25.4827C19.582 25.505 19.59 25.5313 19.59 25.5581C19.59 25.585 19.582 25.6113 19.567 25.6336C19.552 25.6559 19.5307 25.6732 19.5058 25.6834C19.4393 25.7181 19.3654 25.7362 19.2904 25.7362C19.2154 25.7362 19.1415 25.7181 19.0749 25.6834C19.0477 25.6756 19.0238 25.6592 19.0067 25.6366C18.9897 25.614 18.9805 25.5864 18.9805 25.5581C18.9805 25.5298 18.9897 25.5023 19.0067 25.4797C19.0238 25.4571 19.0477 25.4407 19.0749 25.4329C19.1415 25.3982 19.2154 25.3801 19.2904 25.3801C19.3654 25.3801 19.4393 25.3982 19.5058 25.4329Z" fill="#0E3151"/>
<path d="M10.4882 29.3356C10.5154 29.3434 10.5394 29.3598 10.5564 29.3824C10.5735 29.405 10.5827 29.4325 10.5827 29.4609C10.5827 29.4892 10.5735 29.5167 10.5564 29.5393C10.5394 29.5619 10.5154 29.5783 10.4882 29.5861C10.4217 29.6208 10.3478 29.6389 10.2728 29.6389C10.1978 29.6389 10.1239 29.6208 10.0574 29.5861C10.0301 29.5783 10.0062 29.5619 9.98916 29.5393C9.97211 29.5167 9.96289 29.4892 9.96289 29.4609C9.96289 29.4325 9.97211 29.405 9.98916 29.3824C10.0062 29.3598 10.0301 29.3434 10.0574 29.3356C10.1247 29.3036 10.1983 29.2869 10.2728 29.2869C10.3473 29.2869 10.4209 29.3036 10.4882 29.3356Z" fill="#0E3151"/>
<path d="M11.6308 28.6843C11.658 28.6921 11.682 28.7085 11.699 28.7311C11.7161 28.7537 11.7253 28.7812 11.7253 28.8095C11.7253 28.8379 11.7161 28.8654 11.699 28.888C11.682 28.9106 11.658 28.927 11.6308 28.9348C11.5643 28.9695 11.4904 28.9876 11.4154 28.9876C11.3404 28.9876 11.2665 28.9695 11.2 28.9348C11.1727 28.927 11.1488 28.9106 11.1317 28.888C11.1147 28.8654 11.1055 28.8379 11.1055 28.8095C11.1055 28.7812 11.1147 28.7537 11.1317 28.7311C11.1488 28.7085 11.1727 28.6921 11.2 28.6843C11.2672 28.6522 11.3408 28.6356 11.4154 28.6356C11.4899 28.6356 11.5635 28.6522 11.6308 28.6843Z" fill="#0E3151"/>
<path d="M9.36268 28.6843C9.3899 28.6921 9.41384 28.7085 9.43089 28.7311C9.44793 28.7537 9.45717 28.7813 9.45717 28.8096C9.45717 28.8379 9.44793 28.8654 9.43089 28.888C9.41384 28.9106 9.3899 28.9271 9.36268 28.9348C9.29617 28.9695 9.22227 28.9876 9.14726 28.9876C9.07225 28.9876 8.99833 28.9695 8.93182 28.9348C8.90694 28.9247 8.88564 28.9073 8.87065 28.885C8.85566 28.8627 8.84766 28.8365 8.84766 28.8096C8.84766 28.7827 8.85566 28.7564 8.87065 28.7341C8.88564 28.7118 8.90694 28.6945 8.93182 28.6843C8.99912 28.6523 9.07272 28.6357 9.14726 28.6357C9.2218 28.6357 9.29539 28.6523 9.36268 28.6843Z" fill="#0E3151"/>
<path d="M10.4882 28.038C10.5136 28.047 10.5355 28.0637 10.551 28.0856C10.5665 28.1076 10.5749 28.1339 10.5749 28.1608C10.5749 28.1877 10.5665 28.2139 10.551 28.2359C10.5355 28.2579 10.5136 28.2745 10.4882 28.2835C10.4217 28.3182 10.3478 28.3363 10.2728 28.3363C10.1978 28.3363 10.1239 28.3182 10.0573 28.2835C10.032 28.2745 10.0101 28.2579 9.99454 28.2359C9.97902 28.2139 9.9707 28.1877 9.9707 28.1608C9.9707 28.1339 9.97902 28.1076 9.99454 28.0856C10.0101 28.0637 10.032 28.047 10.0573 28.038C10.1239 28.0033 10.1978 27.9852 10.2728 27.9852C10.3478 27.9852 10.4217 28.0033 10.4882 28.038Z" fill="#0E3151"/>
<path d="M9.14741 27.6873C9.31619 27.6873 9.45301 27.6088 9.45301 27.512C9.45301 27.4151 9.31619 27.3366 9.14741 27.3366C8.97863 27.3366 8.8418 27.4151 8.8418 27.512C8.8418 27.6088 8.97863 27.6873 9.14741 27.6873Z" fill="#0E3151"/>
<path d="M26.9769 24.8016C27.0442 24.7696 27.1178 24.7529 27.1923 24.7529C27.2669 24.7529 27.3404 24.7696 27.4077 24.8016C27.4326 24.8118 27.4539 24.8291 27.4689 24.8514C27.4839 24.8737 27.4919 24.9 27.4919 24.9269C27.4919 24.9537 27.4839 24.98 27.4689 25.0023C27.4539 25.0246 27.4326 25.042 27.4077 25.0521C27.3412 25.0868 27.2673 25.1049 27.1923 25.1049C27.1173 25.1049 27.0434 25.0868 26.9769 25.0521C26.8567 24.977 26.8567 24.8667 26.9769 24.8016Z" fill="#0E3151"/>
<path d="M28.3193 24.4459C28.488 24.4459 28.6249 24.3674 28.6249 24.2706C28.6249 24.1737 28.488 24.0952 28.3193 24.0952C28.1505 24.0952 28.0137 24.1737 28.0137 24.2706C28.0137 24.3674 28.1505 24.4459 28.3193 24.4459Z" fill="#0E3151"/>
<path d="M29.6679 23.4991C29.6932 23.5081 29.7152 23.5247 29.7307 23.5467C29.7462 23.5686 29.7546 23.5949 29.7546 23.6218C29.7546 23.6487 29.7462 23.6749 29.7307 23.6969C29.7152 23.7189 29.6932 23.7355 29.6679 23.7445C29.6014 23.7792 29.5275 23.7973 29.4525 23.7973C29.3775 23.7973 29.3036 23.7792 29.237 23.7445C29.2117 23.7355 29.1897 23.7189 29.1742 23.6969C29.1587 23.6749 29.1504 23.6487 29.1504 23.6218C29.1504 23.5949 29.1587 23.5686 29.1742 23.5467C29.1897 23.5247 29.2117 23.5081 29.237 23.4991C29.3036 23.4644 29.3775 23.4463 29.4525 23.4463C29.5275 23.4463 29.6014 23.4644 29.6679 23.4991Z" fill="#0E3151"/>
<path d="M30.789 22.8477C30.8143 22.8568 30.8363 22.8734 30.8518 22.8954C30.8673 22.9173 30.8756 22.9436 30.8756 22.9705C30.8756 22.9974 30.8673 23.0236 30.8518 23.0456C30.8363 23.0676 30.8143 23.0842 30.789 23.0932C30.7225 23.1279 30.6486 23.146 30.5736 23.146C30.4986 23.146 30.4247 23.1279 30.3581 23.0932C30.3328 23.0842 30.3109 23.0676 30.2953 23.0456C30.2798 23.0236 30.2715 22.9974 30.2715 22.9705C30.2715 22.9436 30.2798 22.9173 30.2953 22.8954C30.3109 22.8734 30.3328 22.8568 30.3581 22.8477C30.4247 22.8131 30.4986 22.795 30.5736 22.795C30.6486 22.795 30.7225 22.8131 30.789 22.8477Z" fill="#0E3151"/>
<path d="M31.916 22.2065C31.9408 22.2167 31.9621 22.234 31.9771 22.2563C31.9921 22.2786 32.0001 22.3049 32.0001 22.3318C32.0001 22.3586 31.9921 22.3849 31.9771 22.4072C31.9621 22.4295 31.9408 22.4469 31.916 22.457C31.8487 22.4891 31.7751 22.5057 31.7005 22.5057C31.626 22.5057 31.5524 22.4891 31.4851 22.457C31.4579 22.4492 31.4339 22.4328 31.4169 22.4102C31.3998 22.3876 31.3906 22.3601 31.3906 22.3318C31.3906 22.3035 31.3998 22.2759 31.4169 22.2533C31.4339 22.2307 31.4579 22.2143 31.4851 22.2065C31.5516 22.1718 31.6255 22.1537 31.7005 22.1537C31.7755 22.1537 31.8494 22.1718 31.916 22.2065Z" fill="#0E3151"/>
<path d="M25.8406 24.1403C25.9079 24.1083 25.9815 24.0916 26.056 24.0916C26.1305 24.0916 26.2041 24.1083 26.2714 24.1403C26.2986 24.1481 26.3226 24.1645 26.3396 24.1871C26.3567 24.2097 26.3659 24.2373 26.3659 24.2656C26.3659 24.2939 26.3567 24.3214 26.3396 24.344C26.3226 24.3666 26.2986 24.383 26.2714 24.3908C26.2049 24.4255 26.131 24.4436 26.056 24.4436C25.981 24.4436 25.9071 24.4255 25.8406 24.3908C25.8133 24.383 25.7894 24.3666 25.7724 24.344C25.7553 24.3214 25.7461 24.2939 25.7461 24.2656C25.7461 24.2373 25.7553 24.2097 25.7724 24.1871C25.7894 24.1645 25.8133 24.1481 25.8406 24.1403Z" fill="#0E3151"/>
<path d="M27.3984 23.489C27.4256 23.4968 27.4495 23.5133 27.4666 23.5359C27.4836 23.5585 27.4929 23.586 27.4929 23.6143C27.4929 23.6426 27.4836 23.6701 27.4666 23.6927C27.4495 23.7153 27.4256 23.7318 27.3984 23.7395C27.3319 23.7742 27.258 23.7923 27.183 23.7923C27.1079 23.7923 27.034 23.7742 26.9675 23.7395C26.9403 23.7318 26.9164 23.7153 26.8993 23.6927C26.8823 23.6701 26.873 23.6426 26.873 23.6143C26.873 23.586 26.8823 23.5585 26.8993 23.5359C26.9164 23.5133 26.9403 23.4968 26.9675 23.489C27.0348 23.457 27.1084 23.4404 27.183 23.4404C27.2575 23.4404 27.3311 23.457 27.3984 23.489Z" fill="#0E3151"/>
<path d="M28.5253 22.8378C28.5525 22.8455 28.5765 22.862 28.5935 22.8846C28.6106 22.9072 28.6198 22.9347 28.6198 22.963C28.6198 22.9913 28.6106 23.0189 28.5935 23.0415C28.5765 23.0641 28.5525 23.0805 28.5253 23.0883C28.4588 23.123 28.3849 23.1411 28.3099 23.1411C28.2349 23.1411 28.161 23.123 28.0945 23.0883C28.0673 23.0805 28.0433 23.0641 28.0263 23.0415C28.0092 23.0189 28 22.9913 28 22.963C28 22.9347 28.0092 22.9072 28.0263 22.8846C28.0433 22.862 28.0673 22.8455 28.0945 22.8378C28.1618 22.8057 28.2354 22.7891 28.3099 22.7891C28.3844 22.7891 28.458 22.8057 28.5253 22.8378Z" fill="#0E3151"/>
<path d="M29.6675 22.2065C29.7877 22.2716 29.7877 22.3819 29.6675 22.452C29.601 22.4867 29.5271 22.5048 29.4521 22.5048C29.3771 22.5048 29.3032 22.4867 29.2367 22.452C29.1164 22.3819 29.1164 22.2716 29.2367 22.2065C29.3032 22.1718 29.3771 22.1537 29.4521 22.1537C29.5271 22.1537 29.601 22.1718 29.6675 22.2065Z" fill="#0E3151"/>
<path d="M30.7792 21.5402C30.8046 21.5492 30.8265 21.5658 30.842 21.5878C30.8575 21.6098 30.8659 21.636 30.8659 21.6629C30.8659 21.6898 30.8575 21.7161 30.842 21.7381C30.8265 21.76 30.8046 21.7767 30.7792 21.7857C30.7127 21.8204 30.6388 21.8385 30.5638 21.8385C30.4888 21.8385 30.4149 21.8204 30.3484 21.7857C30.323 21.7767 30.3011 21.76 30.2856 21.7381C30.27 21.7161 30.2617 21.6898 30.2617 21.6629C30.2617 21.636 30.27 21.6098 30.2856 21.5878C30.3011 21.5658 30.323 21.5492 30.3484 21.5402C30.4149 21.5055 30.4888 21.4874 30.5638 21.4874C30.6388 21.4874 30.7127 21.5055 30.7792 21.5402Z" fill="#0E3151"/>
<path d="M31.9058 20.8889C32.021 20.9591 32.021 21.0693 31.9058 21.1344C31.8393 21.1691 31.7654 21.1872 31.6904 21.1872C31.6154 21.1872 31.5415 21.1691 31.4749 21.1344C31.3547 21.0693 31.3547 20.9591 31.4749 20.8889C31.5415 20.8542 31.6154 20.8361 31.6904 20.8361C31.7654 20.8361 31.8393 20.8542 31.9058 20.8889Z" fill="#0E3151"/>
<path d="M24.7117 23.489C24.779 23.457 24.8526 23.4403 24.9271 23.4403C25.0016 23.4403 25.0752 23.457 25.1425 23.489C25.1697 23.4968 25.1937 23.5132 25.2107 23.5358C25.2278 23.5584 25.237 23.586 25.237 23.6143C25.237 23.6426 25.2278 23.6701 25.2107 23.6927C25.1937 23.7153 25.1697 23.7317 25.1425 23.7395C25.076 23.7742 25.0021 23.7923 24.9271 23.7923C24.8521 23.7923 24.7782 23.7742 24.7117 23.7395C24.6844 23.7317 24.6605 23.7153 24.6435 23.6927C24.6264 23.6701 24.6172 23.6426 24.6172 23.6143C24.6172 23.586 24.6264 23.5584 24.6435 23.5358C24.6605 23.5132 24.6844 23.4968 24.7117 23.489Z" fill="#0E3151"/>
<path d="M26.2714 22.8377C26.2986 22.8455 26.3226 22.862 26.3396 22.8845C26.3567 22.9071 26.3659 22.9347 26.3659 22.963C26.3659 22.9913 26.3567 23.0188 26.3396 23.0414C26.3226 23.064 26.2986 23.0805 26.2714 23.0882C26.2049 23.1229 26.131 23.141 26.056 23.141C25.981 23.141 25.9071 23.1229 25.8406 23.0882C25.8133 23.0805 25.7894 23.064 25.7724 23.0414C25.7553 23.0188 25.7461 22.9913 25.7461 22.963C25.7461 22.9347 25.7553 22.9071 25.7724 22.8845C25.7894 22.862 25.8133 22.8455 25.8406 22.8377C25.9079 22.8057 25.9815 22.7891 26.056 22.7891C26.1305 22.7891 26.2041 22.8057 26.2714 22.8377Z" fill="#0E3151"/>
<path d="M27.398 22.2065C27.5182 22.2716 27.5182 22.3819 27.398 22.452C27.3315 22.4867 27.2576 22.5048 27.1826 22.5048C27.1076 22.5048 27.0336 22.4867 26.9671 22.452C26.8469 22.3819 26.8469 22.2716 26.9671 22.2065C27.0336 22.1718 27.1076 22.1537 27.1826 22.1537C27.2576 22.1537 27.3315 22.1718 27.398 22.2065Z" fill="#0E3151"/>
<path d="M28.5253 21.5402C28.5507 21.5492 28.5726 21.5658 28.5881 21.5878C28.6036 21.6098 28.612 21.636 28.612 21.6629C28.612 21.6898 28.6036 21.7161 28.5881 21.7381C28.5726 21.76 28.5507 21.7767 28.5253 21.7857C28.4588 21.8204 28.3849 21.8385 28.3099 21.8385C28.2349 21.8385 28.161 21.8204 28.0945 21.7857C28.0691 21.7767 28.0472 21.76 28.0316 21.7381C28.0161 21.7161 28.0078 21.6898 28.0078 21.6629C28.0078 21.636 28.0161 21.6098 28.0316 21.5878C28.0472 21.5658 28.0691 21.5492 28.0945 21.5402C28.161 21.5055 28.2349 21.4874 28.3099 21.4874C28.3849 21.4874 28.4588 21.5055 28.5253 21.5402Z" fill="#0E3151"/>
<path d="M29.6675 20.8889C29.7877 20.9591 29.7877 21.0693 29.6675 21.1344C29.601 21.1691 29.5271 21.1872 29.4521 21.1872C29.3771 21.1872 29.3032 21.1691 29.2367 21.1344C29.1164 21.0693 29.1164 20.9591 29.2367 20.8889C29.3032 20.8543 29.3771 20.8362 29.4521 20.8362C29.5271 20.8362 29.601 20.8543 29.6675 20.8889Z" fill="#0E3151"/>
<path d="M30.7792 20.2376C30.8065 20.2454 30.8304 20.2618 30.8474 20.2844C30.8645 20.307 30.8737 20.3346 30.8737 20.3629C30.8737 20.3912 30.8645 20.4187 30.8474 20.4413C30.8304 20.4639 30.8065 20.4803 30.7792 20.4881C30.7119 20.5202 30.6384 20.5368 30.5638 20.5368C30.4893 20.5368 30.4157 20.5202 30.3484 20.4881C30.3212 20.4803 30.2972 20.4639 30.2802 20.4413C30.2631 20.4187 30.2539 20.3912 30.2539 20.3629C30.2539 20.3346 30.2631 20.307 30.2802 20.2844C30.2972 20.2618 30.3212 20.2454 30.3484 20.2376C30.4149 20.2029 30.4888 20.1848 30.5638 20.1848C30.6388 20.1848 30.7127 20.2029 30.7792 20.2376Z" fill="#0E3151"/>
<path d="M31.9062 19.5863C31.9311 19.5965 31.9524 19.6138 31.9674 19.6361C31.9824 19.6584 31.9904 19.6847 31.9904 19.7116C31.9904 19.7385 31.9824 19.7647 31.9674 19.787C31.9524 19.8093 31.9311 19.8267 31.9062 19.8368C31.8389 19.8689 31.7653 19.8855 31.6908 19.8855C31.6162 19.8855 31.5426 19.8689 31.4753 19.8368C31.4481 19.8291 31.4242 19.8126 31.4071 19.79C31.3901 19.7674 31.3809 19.7399 31.3809 19.7116C31.3809 19.6833 31.3901 19.6557 31.4071 19.6331C31.4242 19.6105 31.4481 19.5941 31.4753 19.5863C31.5418 19.5516 31.6158 19.5335 31.6908 19.5335C31.7658 19.5335 31.8397 19.5516 31.9062 19.5863Z" fill="#0E3151"/>
<path d="M26.2714 21.5402C26.2968 21.5492 26.3187 21.5658 26.3342 21.5878C26.3497 21.6098 26.3581 21.636 26.3581 21.6629C26.3581 21.6898 26.3497 21.7161 26.3342 21.7381C26.3187 21.76 26.2968 21.7767 26.2714 21.7857C26.2049 21.8204 26.131 21.8385 26.056 21.8385C25.981 21.8385 25.9071 21.8204 25.8405 21.7857C25.8152 21.7767 25.7933 21.76 25.7777 21.7381C25.7622 21.7161 25.7539 21.6898 25.7539 21.6629C25.7539 21.636 25.7622 21.6098 25.7777 21.5878C25.7933 21.5658 25.8152 21.5492 25.8405 21.5402C25.9071 21.5055 25.981 21.4874 26.056 21.4874C26.131 21.4874 26.2049 21.5055 26.2714 21.5402Z" fill="#0E3151"/>
<path d="M21.6504 18.93V10.2429L26.6002 13.1035V21.7907L21.6504 18.93Z" fill="#1C63A3"/>
<path d="M21.6602 10.2429L26.1841 7.64273L31.1389 10.5034L26.6099 13.1035L21.6602 10.2429Z" fill="#1C63A3"/>
<path d="M21.7305 11.4602L26.1843 8.90018L31.1391 11.7608L26.57 14.2407L21.7305 11.4602Z" fill="white"/>
<path d="M26.1855 7.40225L21.4512 10.1226V19.0503L26.6114 22.0562L31.3457 19.3358V10.3831L26.1855 7.40225ZM26.406 21.43L21.867 18.8148V10.6086L26.406 13.2238V21.43ZM22.0774 10.2529L26.1855 7.89322L30.7195 10.5084L26.6114 12.8681L22.0774 10.2529Z" fill="#0E3151"/>
<path d="M15.1836 22.5422V17.377L20.1384 20.2376V25.4028L15.1836 22.5422Z" fill="#1C63A3"/>
<path d="M15.1836 17.377L19.7075 14.7768L24.6623 17.6375L20.1384 20.2376L15.1836 17.377Z" fill="#1C63A3"/>
<path d="M15.2539 18.5894L19.7077 16.0343L24.6625 18.89L20.0935 21.3749L15.2539 18.5894Z" fill="white"/>
<path d="M19.707 14.5363L14.9727 17.2567V22.6624L20.1379 25.6683L24.8722 22.948V17.5373L19.707 14.5363ZM19.9274 25.0571L15.3935 22.437V17.7527L19.9274 20.3729V25.0571ZM15.6039 17.392L19.707 15.0323L24.241 17.6525L20.1379 20.0072L15.6039 17.392Z" fill="#0E3151"/>
<path d="M8.65625 26.2144V23.9149L13.611 26.7755V29.0701L8.65625 26.2144Z" fill="#1C63A3"/>
<path d="M8.65625 23.9249L13.1802 21.3248L18.135 24.1854L13.611 26.7856L8.65625 23.9249Z" fill="#1C63A3"/>
<path d="M8.72656 25.1423L13.1804 22.5822L18.1352 25.4429L13.5661 27.9228L8.72656 25.1423Z" fill="white"/>
<path d="M13.1797 21.0843L8.44531 23.8047V26.3447L13.6055 29.3506L18.3449 26.6252V24.0902L13.1797 21.0843ZM13.4001 28.7194L8.89119 26.0992V24.2906L13.4001 26.9058V28.7194ZM9.07655 23.9249L13.1797 21.5652L17.7136 24.1854L13.6356 26.5451L9.07655 23.9249Z" fill="#0E3151"/>
</svg>
