<svg width="20" height="21" viewBox="0 0 20 21" fill="none" xmlns="http://www.w3.org/2000/svg">
<path d="M11.6667 19.4587H8.33333C3.80833 19.4587 1.875 17.5253 1.875 13.0003V8.00033C1.875 3.47533 3.80833 1.54199 8.33333 1.54199H11.6667C16.1917 1.54199 18.125 3.47533 18.125 8.00033V13.0003C18.125 17.5253 16.1917 19.4587 11.6667 19.4587ZM8.33333 2.79199C4.49167 2.79199 3.125 4.15866 3.125 8.00033V13.0003C3.125 16.842 4.49167 18.2087 8.33333 18.2087H11.6667C15.5083 18.2087 16.875 16.842 16.875 13.0003V8.00033C16.875 4.15866 15.5083 2.79199 11.6667 2.79199H8.33333Z" fill="#A3A3A3"/>
<path d="M12.5 9.52474H7.5C6.46667 9.52474 5.625 8.68307 5.625 7.64974V6.81641C5.625 5.78307 6.46667 4.94141 7.5 4.94141H12.5C13.5333 4.94141 14.375 5.78307 14.375 6.81641V7.64974C14.375 8.68307 13.5333 9.52474 12.5 9.52474ZM7.5 6.19141C7.15833 6.19141 6.875 6.47474 6.875 6.81641V7.64974C6.875 7.99141 7.15833 8.27474 7.5 8.27474H12.5C12.8417 8.27474 13.125 7.99141 13.125 7.64974V6.81641C13.125 6.47474 12.8417 6.19141 12.5 6.19141H7.5Z" fill="#A3A3A3"/>
<path d="M6.7918 12.933C6.68346 12.933 6.57513 12.908 6.47513 12.8664C6.37513 12.8247 6.28346 12.7664 6.20846 12.6914C6.05013 12.533 5.9668 12.3247 5.9668 12.0997C5.9668 11.9914 5.98346 11.883 6.02513 11.783C6.0668 11.6747 6.12513 11.5914 6.20846 11.508C6.2418 11.4747 6.28346 11.433 6.33346 11.408C6.37513 11.3747 6.42513 11.3497 6.47513 11.333C6.52513 11.308 6.58346 11.2914 6.63346 11.283C6.90013 11.2247 7.1918 11.3164 7.38346 11.508C7.45846 11.583 7.52513 11.6747 7.5668 11.783C7.60846 11.883 7.63346 11.9914 7.63346 12.0997C7.63346 12.3247 7.5418 12.533 7.38346 12.6914C7.22513 12.8497 7.0168 12.933 6.7918 12.933Z" fill="#A3A3A3"/>
<path d="M10.1331 12.9333C9.90814 12.9333 9.6998 12.8499 9.54147 12.6916C9.38314 12.5333 9.2998 12.3249 9.2998 12.0999C9.2998 11.9916 9.31647 11.8833 9.35814 11.7833C9.3998 11.6749 9.45814 11.5916 9.54147 11.5083C9.5748 11.4749 9.61647 11.4333 9.66647 11.4083C9.70814 11.3749 9.75814 11.3499 9.80814 11.3333C9.85814 11.3083 9.91647 11.2916 9.96647 11.2833C10.1248 11.2499 10.2915 11.2666 10.4498 11.3333C10.5498 11.3749 10.6415 11.4333 10.7165 11.5083C10.7915 11.5916 10.8581 11.6749 10.8998 11.7833C10.9415 11.8833 10.9665 11.9916 10.9665 12.0999C10.9665 12.3249 10.8748 12.5333 10.7165 12.6916C10.5581 12.8499 10.3498 12.9333 10.1331 12.9333Z" fill="#A3A3A3"/>
<path d="M13.4588 12.9336C13.3505 12.9336 13.2421 12.9086 13.1421 12.8669C13.0421 12.8253 12.9505 12.7669 12.8755 12.6919C12.7921 12.6086 12.7338 12.5169 12.6921 12.4169C12.6505 12.3169 12.6338 12.2086 12.6338 12.1003C12.6338 11.9919 12.6505 11.8836 12.6921 11.7836C12.7338 11.6753 12.7921 11.5919 12.8755 11.5086C13.1838 11.2003 13.7421 11.2003 14.0505 11.5086C14.2088 11.6669 14.3005 11.8836 14.3005 12.1003C14.3005 12.3253 14.2088 12.5336 14.0505 12.6919C13.9005 12.8419 13.6921 12.9336 13.4588 12.9336Z" fill="#A3A3A3"/>
<path d="M6.80065 16.2668C6.57565 16.2668 6.36732 16.1834 6.20898 16.0251C6.05065 15.8668 5.95898 15.6584 5.95898 15.4334C5.95898 15.2168 6.05065 15.0001 6.20898 14.8418C6.24232 14.8084 6.29232 14.7668 6.33398 14.7418C6.37565 14.7084 6.42565 14.6834 6.47565 14.6668C6.52565 14.6418 6.58398 14.6251 6.63398 14.6168C6.90898 14.5668 7.19232 14.6501 7.38398 14.8418C7.42565 14.8834 7.45898 14.9251 7.49232 14.9668C7.51732 15.0168 7.54232 15.0668 7.56732 15.1168C7.58398 15.1668 7.60065 15.2168 7.61732 15.2668C7.62565 15.3251 7.63398 15.3751 7.63398 15.4334C7.63398 15.6584 7.54232 15.8668 7.38398 16.0251C7.22565 16.1834 7.01732 16.2668 6.80065 16.2668Z" fill="#A3A3A3"/>
<path d="M10.1327 16.2668C9.90768 16.2668 9.69935 16.1834 9.54102 16.0251C9.38268 15.8668 9.29102 15.6584 9.29102 15.4334C9.29102 15.2168 9.38268 15.0001 9.54102 14.8418C9.73268 14.6501 10.0243 14.5668 10.291 14.6168C10.341 14.6251 10.3993 14.6418 10.4493 14.6668C10.4993 14.6834 10.5493 14.7084 10.591 14.7418C10.6327 14.7668 10.6743 14.8084 10.716 14.8418C10.8743 15.0001 10.9577 15.2168 10.9577 15.4334C10.9577 15.6584 10.8743 15.8668 10.716 16.0251C10.5577 16.1834 10.3493 16.2668 10.1327 16.2668Z" fill="#A3A3A3"/>
<path d="M13.4588 16.2665C13.2421 16.2665 13.0338 16.1832 12.8755 16.0249C12.7171 15.8665 12.6338 15.6582 12.6338 15.4332C12.6338 15.2165 12.7171 14.9999 12.8755 14.8415C12.9505 14.7665 13.0421 14.7082 13.1421 14.6665C13.4505 14.5415 13.8255 14.6082 14.0505 14.8415C14.2088 14.9999 14.2921 15.2165 14.2921 15.4332C14.2921 15.6582 14.2088 15.8665 14.0505 16.0249C13.9755 16.0999 13.8838 16.1582 13.7838 16.1999C13.6838 16.2415 13.5755 16.2665 13.4588 16.2665Z" fill="#A3A3A3"/>
</svg>
