<svg width="512" height="512" viewBox="0 0 512 512" fill="none" xmlns="http://www.w3.org/2000/svg">
<g clip-path="url(#clip0_5653_96502)">
<path d="M451.627 421.547C462.72 404.693 469.333 384.427 469.333 362.667C469.333 303.787 421.547 256 362.667 256C303.787 256 256 303.787 256 362.667C256 421.547 303.787 469.333 362.667 469.333C384.427 469.333 404.693 462.72 421.547 451.627L475.733 505.813C480 510.08 485.333 512 490.88 512C496.427 512 501.76 509.867 506.027 505.813C514.347 497.493 514.347 484.053 506.027 475.733L451.84 421.547H451.627ZM298.667 362.667C298.667 327.467 327.467 298.667 362.667 298.667C397.867 298.667 426.667 327.467 426.667 362.667C426.667 397.867 397.867 426.667 362.667 426.667C327.467 426.667 298.667 397.867 298.667 362.667ZM405.333 128V85.3333C405.333 38.1867 367.147 0 320 0H192C144.853 0 106.667 38.1867 106.667 85.3333V128C47.7867 128 0 175.787 0 234.667V341.333C0 400.213 47.7867 448 106.667 448C106.667 483.2 135.467 512 170.667 512H277.333C289.067 512 298.667 502.4 298.667 490.667C298.667 478.933 289.067 469.333 277.333 469.333H170.667C158.933 469.333 149.333 459.733 149.333 448V362.667C149.333 350.933 158.933 341.333 170.667 341.333H192C203.733 341.333 213.333 331.733 213.333 320C213.333 308.267 203.733 298.667 192 298.667H170.667C135.467 298.667 106.667 327.467 106.667 362.667V405.333C71.4667 405.333 42.6667 376.533 42.6667 341.333V234.667C42.6667 199.467 71.4667 170.667 106.667 170.667H405.333C440.533 170.667 469.333 199.467 469.333 234.667V256C469.333 267.733 478.933 277.333 490.667 277.333C502.4 277.333 512 267.733 512 256V234.667C512 175.787 464.213 128 405.333 128ZM149.333 85.3333C149.333 61.8667 168.533 42.6667 192 42.6667H320C343.467 42.6667 362.667 61.8667 362.667 85.3333V128H149.333V85.3333Z" fill="white"/>
</g>
<defs>
<clipPath id="clip0_5653_96502">
<rect width="512" height="512" fill="white"/>
</clipPath>
</defs>
</svg>
