<svg width="20" height="20" viewBox="0 0 20 20" fill="none" xmlns="http://www.w3.org/2000/svg">
<path d="M14.542 18.9584C13.6003 18.9584 12.6087 18.7334 11.5837 18.3001C10.5837 17.8751 9.57533 17.2917 8.59199 16.5834C7.61699 15.8667 6.67533 15.0667 5.78366 14.1917C4.90033 13.3001 4.10033 12.3584 3.39199 11.3917C2.67533 10.3917 2.10033 9.39175 1.69199 8.42508C1.25866 7.39175 1.04199 6.39175 1.04199 5.45008C1.04199 4.80008 1.15866 4.18341 1.38366 3.60841C1.61699 3.01675 1.99199 2.46675 2.50033 1.99175C3.14199 1.35841 3.87533 1.04175 4.65866 1.04175C4.98366 1.04175 5.31699 1.11675 5.60033 1.25008C5.92533 1.40008 6.20033 1.62508 6.40033 1.92508L8.33366 4.65008C8.50866 4.89175 8.64199 5.12508 8.73366 5.35841C8.84199 5.60841 8.90033 5.85842 8.90033 6.10008C8.90033 6.41675 8.80866 6.72508 8.63366 7.01675C8.50866 7.24175 8.31699 7.48342 8.07533 7.72508L7.50866 8.31675C7.51699 8.34175 7.52533 8.35842 7.53366 8.37508C7.63366 8.55008 7.83366 8.85008 8.21699 9.30008C8.62533 9.76675 9.00866 10.1917 9.39199 10.5834C9.88366 11.0667 10.292 11.4501 10.6753 11.7667C11.1503 12.1667 11.4587 12.3667 11.642 12.4584L11.6253 12.5001L12.2337 11.9001C12.492 11.6417 12.742 11.4501 12.9837 11.3251C13.442 11.0417 14.0253 10.9917 14.6087 11.2334C14.8253 11.3251 15.0587 11.4501 15.3087 11.6251L18.0753 13.5917C18.3837 13.8001 18.6087 14.0667 18.742 14.3834C18.867 14.7001 18.9253 14.9917 18.9253 15.2834C18.9253 15.6834 18.8337 16.0834 18.6587 16.4584C18.4837 16.8334 18.267 17.1584 17.992 17.4584C17.517 17.9834 17.0003 18.3584 16.4003 18.6001C15.8253 18.8334 15.2003 18.9584 14.542 18.9584ZM4.65866 2.29175C4.20033 2.29175 3.77533 2.49175 3.36699 2.89175C2.98366 3.25008 2.71699 3.64175 2.55033 4.06675C2.37533 4.50008 2.29199 4.95841 2.29199 5.45008C2.29199 6.22508 2.47533 7.06675 2.84199 7.93342C3.21699 8.81675 3.74199 9.73341 4.40866 10.6501C5.07533 11.5667 5.83366 12.4584 6.66699 13.3001C7.50033 14.1251 8.40033 14.8917 9.32533 15.5667C10.2253 16.2251 11.1503 16.7584 12.067 17.1417C13.492 17.7501 14.8253 17.8917 15.9253 17.4334C16.3503 17.2584 16.7253 16.9917 17.067 16.6084C17.2587 16.4001 17.4087 16.1751 17.5337 15.9084C17.6337 15.7001 17.6837 15.4834 17.6837 15.2667C17.6837 15.1334 17.6587 15.0001 17.592 14.8501C17.567 14.8001 17.517 14.7084 17.3587 14.6001L14.592 12.6334C14.4253 12.5167 14.2753 12.4334 14.1337 12.3751C13.9503 12.3001 13.8753 12.2251 13.592 12.4001C13.4253 12.4834 13.2753 12.6084 13.1087 12.7751L12.4753 13.4001C12.1503 13.7167 11.6503 13.7917 11.267 13.6501L11.042 13.5501C10.7003 13.3667 10.3003 13.0834 9.85866 12.7084C9.45866 12.3667 9.02533 11.9667 8.50033 11.4501C8.09199 11.0334 7.68366 10.5917 7.25866 10.1001C6.86699 9.64175 6.58366 9.25008 6.40866 8.92508L6.30866 8.67508C6.25866 8.48342 6.24199 8.37508 6.24199 8.25841C6.24199 7.95842 6.35033 7.69175 6.55866 7.48341L7.18366 6.83342C7.35033 6.66675 7.47533 6.50841 7.55866 6.36675C7.62533 6.25841 7.65033 6.16675 7.65033 6.08342C7.65033 6.01675 7.62533 5.91675 7.58366 5.81675C7.52533 5.68341 7.43366 5.53341 7.31699 5.37508L5.38366 2.64175C5.30033 2.52508 5.20033 2.44175 5.07533 2.38341C4.94199 2.32508 4.80033 2.29175 4.65866 2.29175ZM11.6253 12.5084L11.492 13.0751L11.717 12.4917C11.6753 12.4834 11.642 12.4917 11.6253 12.5084Z" fill="#404040"/>
</svg>
