<svg width="20" height="21" viewBox="0 0 20 21" fill="none" xmlns="http://www.w3.org/2000/svg">
<path d="M15.833 7.7915C14.108 7.7915 12.708 6.3915 12.708 4.6665C12.708 2.9415 14.108 1.5415 15.833 1.5415C17.558 1.5415 18.958 2.9415 18.958 4.6665C18.958 6.3915 17.558 7.7915 15.833 7.7915ZM15.833 2.7915C14.7997 2.7915 13.958 3.63317 13.958 4.6665C13.958 5.69984 14.7997 6.5415 15.833 6.5415C16.8663 6.5415 17.708 5.69984 17.708 4.6665C17.708 3.63317 16.8663 2.7915 15.833 2.7915Z" fill="#A3A3A3"/>
<path d="M9.99967 11.9585H5.83301C5.49134 11.9585 5.20801 11.6752 5.20801 11.3335C5.20801 10.9918 5.49134 10.7085 5.83301 10.7085H9.99967C10.3413 10.7085 10.6247 10.9918 10.6247 11.3335C10.6247 11.6752 10.3413 11.9585 9.99967 11.9585Z" fill="#A3A3A3"/>
<path d="M13.333 15.2915H5.83301C5.49134 15.2915 5.20801 15.0082 5.20801 14.6665C5.20801 14.3248 5.49134 14.0415 5.83301 14.0415H13.333C13.6747 14.0415 13.958 14.3248 13.958 14.6665C13.958 15.0082 13.6747 15.2915 13.333 15.2915Z" fill="#A3A3A3"/>
<path d="M12.5003 19.4582H7.50033C2.97533 19.4582 1.04199 17.5248 1.04199 12.9998V7.99984C1.04199 3.47484 2.97533 1.5415 7.50033 1.5415H11.667C12.0087 1.5415 12.292 1.82484 12.292 2.1665C12.292 2.50817 12.0087 2.7915 11.667 2.7915H7.50033C3.65866 2.7915 2.29199 4.15817 2.29199 7.99984V12.9998C2.29199 16.8415 3.65866 18.2082 7.50033 18.2082H12.5003C16.342 18.2082 17.7087 16.8415 17.7087 12.9998V8.83317C17.7087 8.4915 17.992 8.20817 18.3337 8.20817C18.6753 8.20817 18.9587 8.4915 18.9587 8.83317V12.9998C18.9587 17.5248 17.0253 19.4582 12.5003 19.4582Z" fill="#A3A3A3"/>
</svg>
