<svg width="14" height="14" viewBox="0 0 14 14" fill="none" xmlns="http://www.w3.org/2000/svg">
<path d="M4.66663 13.0199C4.50329 13.0199 4.33412 12.9791 4.18245 12.8974C3.84995 12.7224 3.64579 12.3724 3.64579 11.9991V11.1708C1.88413 10.99 0.729126 9.69491 0.729126 7.83991V4.33995C0.729126 2.33328 2.07663 0.985779 4.08329 0.985779H9.91663C11.9233 0.985779 13.2708 2.33328 13.2708 4.33995V7.83991C13.2708 9.84658 11.9233 11.1941 9.91663 11.1941H7.71745L5.23244 12.8508C5.06328 12.9616 4.86496 13.0199 4.66663 13.0199ZM4.08329 1.85494C2.57829 1.85494 1.60413 2.82911 1.60413 4.33411V7.83414C1.60413 9.33914 2.57829 10.3133 4.08329 10.3133C4.32246 10.3133 4.52079 10.5116 4.52079 10.7508V11.9933C4.52079 12.0691 4.56746 12.1041 4.59663 12.1216C4.6258 12.1391 4.68413 12.1566 4.7483 12.1158L7.34414 10.3891C7.41414 10.3425 7.50163 10.3133 7.58913 10.3133H9.92246C11.4275 10.3133 12.4016 9.33914 12.4016 7.83414V4.33411C12.4016 2.82911 11.4275 1.85494 9.92246 1.85494H4.08329Z" fill="#A3A3A3"/>
<path d="M6.99993 7.06415C6.76077 7.06415 6.56243 6.86581 6.56243 6.62665V6.50417C6.56243 5.8275 7.05826 5.495 7.24492 5.36666C7.46076 5.22083 7.53075 5.12167 7.53075 4.97C7.53075 4.67833 7.2916 4.43915 6.99993 4.43915C6.70827 4.43915 6.46912 4.67833 6.46912 4.97C6.46912 5.20917 6.27078 5.4075 6.03162 5.4075C5.79245 5.4075 5.59412 5.20917 5.59412 4.97C5.59412 4.19417 6.2241 3.56415 6.99993 3.56415C7.77577 3.56415 8.40575 4.19417 8.40575 4.97C8.40575 5.635 7.91577 5.96749 7.73494 6.08999C7.50744 6.24166 7.43743 6.34084 7.43743 6.50417V6.62665C7.43743 6.87165 7.2391 7.06415 6.99993 7.06415Z" fill="#A3A3A3"/>
<path d="M7 8.51666C6.755 8.51666 6.5625 8.31833 6.5625 8.07916C6.5625 7.84 6.76083 7.64166 7 7.64166C7.23917 7.64166 7.4375 7.84 7.4375 8.07916C7.4375 8.31833 7.245 8.51666 7 8.51666Z" fill="#A3A3A3"/>
</svg>
