<svg width="12" height="12" viewBox="0 0 12 12" fill="none" xmlns="http://www.w3.org/2000/svg">
<path d="M2.73483 5.375C2.37983 5.375 2.01983 5.245 1.74483 4.98C0.824833 4.105 0.454833 3.15 0.669833 2.215C0.924833 1.115 1.88983 0.625 2.73483 0.625C3.57983 0.625 4.54983 1.12 4.79983 2.215C5.01483 3.15 4.63983 4.105 3.72483 4.98C3.44983 5.245 3.09483 5.375 2.73483 5.375ZM1.39983 2.385C1.20983 3.22 1.76483 3.96 2.26483 4.435C2.52983 4.69 2.94483 4.685 3.20983 4.435C3.70983 3.96 4.26483 3.22 4.06983 2.38C3.89983 1.64 3.24483 1.375 2.73983 1.375C2.22983 1.375 1.57483 1.64 1.39983 2.385Z" fill="#6182E6"/>
<path d="M2.75488 3.09998C2.47988 3.09998 2.25488 2.87498 2.25488 2.59998C2.25488 2.32498 2.47488 2.09998 2.75488 2.09998H2.75988C3.03488 2.09998 3.25988 2.32498 3.25988 2.59998C3.25988 2.87498 3.03488 3.09998 2.75488 3.09998Z" fill="#6182E6"/>
<path d="M9.24518 11.375C8.89018 11.375 8.53018 11.245 8.25018 10.98C7.32518 10.105 6.95018 9.15 7.17018 8.21C7.42518 7.115 8.39518 6.62 9.24518 6.62C10.0952 6.62 11.0652 7.115 11.3202 8.21C11.5352 9.145 11.1602 10.105 10.2352 10.975C9.96018 11.245 9.60518 11.375 9.24518 11.375ZM9.24518 7.375C8.73518 7.375 8.07518 7.64 7.90018 8.385C7.70518 9.22 8.26518 9.96499 8.76518 10.44C9.03018 10.695 9.45018 10.695 9.72018 10.44C10.2202 9.96499 10.7802 9.225 10.5852 8.39C10.4202 7.64 9.76018 7.375 9.24518 7.375Z" fill="#6182E6"/>
<path d="M9.26514 9.09998C8.99014 9.09998 8.76514 8.87498 8.76514 8.59998C8.76514 8.32498 8.98514 8.09998 9.26514 8.09998H9.27014C9.54514 8.09998 9.77014 8.32498 9.77014 8.59998C9.77014 8.87498 9.54014 9.09998 9.26514 9.09998Z" fill="#6182E6"/>
<path d="M6.00021 9.875H4.66021C4.08021 9.875 3.57521 9.525 3.37521 8.985C3.17021 8.445 3.32021 7.85 3.75521 7.465L7.75022 3.97C7.99022 3.76 7.99522 3.475 7.92522 3.28C7.85022 3.085 7.66022 2.875 7.34022 2.875H6.00021C5.79521 2.875 5.62521 2.705 5.62521 2.5C5.62521 2.295 5.79521 2.125 6.00021 2.125H7.34022C7.92022 2.125 8.42522 2.475 8.62522 3.015C8.83022 3.555 8.68021 4.15 8.24521 4.535L4.25021 8.03C4.01021 8.24 4.00521 8.525 4.07521 8.72C4.15021 8.915 4.34021 9.125 4.66021 9.125H6.00021C6.20521 9.125 6.37521 9.295 6.37521 9.5C6.37521 9.705 6.20521 9.875 6.00021 9.875Z" fill="#6182E6"/>
<path d="M6.00021 9.875H4.66021C4.08021 9.875 3.57521 9.525 3.37521 8.985C3.17021 8.445 3.32021 7.85 3.75521 7.465L7.75022 3.97C7.99022 3.76 7.99522 3.475 7.92522 3.28C7.85022 3.085 7.66022 2.875 7.34022 2.875H6.00021C5.79521 2.875 5.62521 2.705 5.62521 2.5C5.62521 2.295 5.79521 2.125 6.00021 2.125H7.34022C7.92022 2.125 8.42522 2.475 8.62522 3.015C8.83022 3.555 8.68021 4.15 8.24521 4.535L4.25021 8.03C4.01021 8.24 4.00521 8.525 4.07521 8.72C4.15021 8.915 4.34021 9.125 4.66021 9.125H6.00021C6.20521 9.125 6.37521 9.295 6.37521 9.5C6.37521 9.705 6.20521 9.875 6.00021 9.875Z" fill="#6182E6"/>
</svg>
