<svg width="20" height="20" viewBox="0 0 20 20" fill="none" xmlns="http://www.w3.org/2000/svg">
<path d="M2.29249 15.5417C1.95083 15.5417 1.66749 15.2583 1.66749 14.9167V10.1667C1.62583 7.90833 2.46749 5.775 4.03416 4.175C5.60083 2.58333 7.70082 1.70833 9.95916 1.70833C14.5758 1.70833 18.3342 5.46667 18.3342 10.0833V14.8333C18.3342 15.175 18.0508 15.4583 17.7092 15.4583C17.3675 15.4583 17.0842 15.175 17.0842 14.8333V10.0833C17.0842 6.15833 13.8925 2.95833 9.95916 2.95833C8.03416 2.95833 6.25083 3.7 4.92583 5.05C3.59249 6.40833 2.88416 8.21667 2.91749 10.15V14.9083C2.91749 15.2583 2.64249 15.5417 2.29249 15.5417Z" fill="#404040"/>
<path d="M4.94935 10.375H4.84102C3.09102 10.375 1.66602 11.8 1.66602 13.55V15.1167C1.66602 16.8667 3.09102 18.2917 4.84102 18.2917H4.94935C6.69935 18.2917 8.12435 16.8667 8.12435 15.1167V13.55C8.12435 11.8 6.69935 10.375 4.94935 10.375Z" fill="#404040"/>
<path d="M15.1583 10.375H15.05C13.3 10.375 11.875 11.8 11.875 13.55V15.1167C11.875 16.8667 13.3 18.2917 15.05 18.2917H15.1583C16.9083 18.2917 18.3333 16.8667 18.3333 15.1167V13.55C18.3333 11.8 16.9083 10.375 15.1583 10.375Z" fill="#404040"/>
</svg>
