<svg width="24" height="24" viewBox="0 0 24 24" fill="none" xmlns="http://www.w3.org/2000/svg">
<g clip-path="url(#clip0_5780_56190)">
<path d="M16.0001 8.66667H17.7775C16.4821 6.40733 13.9795 5.08333 11.2601 5.37267C8.21348 5.69733 5.73215 8.16467 5.37948 11.208C4.91281 15.236 8.06348 18.6667 12.0001 18.6667C15.6761 18.6667 18.6668 15.676 18.6668 12C18.6668 11.6313 18.9648 11.3333 19.3335 11.3333C19.7021 11.3333 20.0001 11.6313 20.0001 12C20.0001 16.516 16.2395 20.17 11.6848 19.994C7.57015 19.8347 4.16548 16.4307 4.00615 12.3167C3.82948 7.76133 7.48415 4 12.0001 4C14.7361 4 17.2035 5.356 18.6635 7.56333L18.6668 6C18.6668 5.63133 18.9648 5.33333 19.3335 5.33333C19.7021 5.33333 20.0001 5.63133 20.0001 6V8.66067C20.0001 9.4 19.4008 10 18.6608 10H16.0001C15.6315 10 15.3335 9.702 15.3335 9.33333C15.3335 8.96467 15.6315 8.66667 16.0001 8.66667ZM12.0001 16.6667C12.3681 16.6667 12.6668 16.3687 12.6668 16V15.3333C13.7695 15.3333 14.6668 14.436 14.6668 13.3333C14.6668 12.4273 14.0175 11.66 13.1235 11.5113L11.0961 11.174C10.8475 11.1327 10.6668 10.9193 10.6668 10.6667C10.6668 10.2987 10.9661 10 11.3335 10H12.8455C13.0828 10 13.3041 10.1273 13.4235 10.334C13.6061 10.6527 14.0141 10.762 14.3341 10.5767C14.6528 10.3927 14.7621 9.98467 14.5768 9.666C14.2208 9.04933 13.5568 8.66667 12.8448 8.66667H12.6661V8C12.6661 7.63133 12.3675 7.33333 11.9995 7.33333C11.6315 7.33333 11.3328 7.63133 11.3328 8V8.66667C10.2301 8.66667 9.33281 9.564 9.33281 10.6667C9.33281 11.5727 9.98215 12.34 10.8761 12.4887L12.9028 12.826C13.1521 12.8673 13.3328 13.0807 13.3328 13.3333C13.3328 13.7013 13.0341 14 12.6661 14H11.1541C10.9168 14 10.6955 13.8727 10.5761 13.666C10.3915 13.3467 9.98348 13.2373 9.66548 13.4233C9.34615 13.6073 9.23748 14.0153 9.42215 14.334C9.77881 14.9507 10.4428 15.3333 11.1541 15.3333H11.3328V16C11.3328 16.3687 11.6315 16.6667 11.9995 16.6667H12.0001Z" fill="#BE4848"/>
</g>
<defs>
<clipPath id="clip0_5780_56190">
<rect width="16" height="16" fill="white" transform="translate(4 4)"/>
</clipPath>
</defs>
</svg>
