<svg width="16" height="16" viewBox="0 0 16 16" fill="none" xmlns="http://www.w3.org/2000/svg">
<path fill-rule="evenodd" clip-rule="evenodd" d="M6.74959 3.03345C6.94161 2.41237 7.51956 1.9918 8.16959 2.00012C8.82329 1.99355 9.40242 2.42042 9.58959 3.04679L10.0296 4.38012C10.2272 4.99721 10.8017 5.41526 11.4496 5.41345H12.8363C13.4994 5.38832 14.0996 5.80388 14.3095 6.43348C14.5194 7.06309 14.2886 7.75565 13.7429 8.13345L12.6029 8.96679C12.0775 9.34421 11.8564 10.0181 12.0563 10.6335L12.4963 11.9668C12.6475 12.4284 12.5658 12.9346 12.2771 13.3252C11.9885 13.7158 11.5285 13.9425 11.0429 13.9335C10.728 13.9311 10.4221 13.8283 10.1696 13.6401L9.07626 12.8068C8.55192 12.4243 7.8406 12.4243 7.31626 12.8068L6.16959 13.6401C5.91407 13.8457 5.5975 13.9606 5.26959 13.9668C4.78044 13.9709 4.32004 13.7362 4.03597 13.3379C3.7519 12.9397 3.67985 12.428 3.84293 11.9668L4.28293 10.6335C4.49491 10.02 4.28441 9.3399 3.76293 8.95345L2.62293 8.12012C2.0945 7.74101 1.8722 7.06351 2.07328 6.44503C2.27436 5.82655 2.85259 5.40932 3.50293 5.41345H4.88959C5.54114 5.41343 6.11676 4.98915 6.30959 4.36679L6.74959 3.03345ZM8.52293 3.38012C8.48193 3.22048 8.3342 3.11177 8.16959 3.12012C7.99681 3.11421 7.84608 3.2365 7.81626 3.40679L7.37626 4.74012C7.02657 5.81766 6.02245 6.5472 4.88959 6.54679H3.47626C3.31916 6.55131 3.18172 6.65373 3.13247 6.80297C3.08322 6.95221 3.13271 7.11632 3.25626 7.21345L4.39626 8.04679C5.31578 8.71187 5.70097 9.89439 5.34959 10.9735L4.90959 12.3068C4.86638 12.4163 4.88412 12.5404 4.95626 12.6335C5.03107 12.7412 5.15191 12.8077 5.28293 12.8135C5.36294 12.8111 5.44007 12.783 5.50293 12.7335L6.62959 11.9001C7.54787 11.233 8.79131 11.233 9.70959 11.9001L10.8229 12.6935C10.8858 12.743 10.9629 12.7711 11.0429 12.7735C11.168 12.7653 11.2829 12.7018 11.3563 12.6001C11.4284 12.5071 11.4461 12.3829 11.4029 12.2735L10.9629 10.9401C10.6115 9.86105 10.9967 8.67854 11.9163 8.01345L13.0563 7.18679C13.1798 7.08965 13.2293 6.92555 13.18 6.77631C13.1308 6.62706 12.9934 6.52464 12.8363 6.52012H11.4496C10.3167 6.52053 9.31261 5.791 8.96292 4.71345L8.52293 3.38012Z" fill="#A3A3A3"/>
</svg>
