<svg width="20" height="20" viewBox="0 0 20 20" fill="none" xmlns="http://www.w3.org/2000/svg">
<path d="M15.06 7.09154L7.92668 3.52487C3.13502 1.12487 1.16835 3.09153 3.56835 7.8832L4.29335 9.3332C4.50168 9.7582 4.50168 10.2499 4.29335 10.6749L3.56835 12.1165C1.16835 16.9082 3.12668 18.8749 7.92668 16.4749L15.06 12.9082C18.26 11.3082 18.26 8.69153 15.06 7.09154ZM12.3684 10.6249H7.86835C7.52668 10.6249 7.24335 10.3415 7.24335 9.99987C7.24335 9.6582 7.52668 9.37487 7.86835 9.37487H12.3684C12.71 9.37487 12.9934 9.6582 12.9934 9.99987C12.9934 10.3415 12.71 10.6249 12.3684 10.6249Z" fill="white"/>
</svg>
