<svg width="40" height="40" viewBox="0 0 40 40" fill="none" xmlns="http://www.w3.org/2000/svg">
<path d="M7.78492 4.54424L11.2326 9.75712H7.78492L6.04728 7.11619H2.1583C1.99168 7.123 1.82545 7.0952 1.67011 7.03454C1.51477 6.97388 1.37369 6.88168 1.25577 6.76376C1.13785 6.64584 1.04565 6.50477 0.984997 6.34943C0.924339 6.19409 0.896541 6.0279 0.90335 5.86127C0.905173 5.51135 1.04546 5.17637 1.29354 4.92957C1.54163 4.68278 1.87733 4.54423 2.22726 4.54424H7.78492Z" fill="#FCA5A5"/>
<path d="M28.6429 1.97229C28.9866 1.97229 29.3225 2.07419 29.6083 2.26512C29.894 2.45606 30.1167 2.72742 30.2483 3.04493C30.3798 3.36244 30.4142 3.71183 30.3471 4.04889C30.2801 4.38596 30.1146 4.69558 29.8716 4.93859C29.6286 5.1816 29.319 5.34711 28.9819 5.41416C28.6448 5.48121 28.2955 5.44677 27.9779 5.31526C27.6604 5.18374 27.3891 4.96105 27.1981 4.6753C27.0072 4.38955 26.9053 4.05356 26.9053 3.70989C26.9053 3.24904 27.0883 2.8071 27.4142 2.48123C27.7401 2.15537 28.1821 1.97229 28.6429 1.97229Z" fill="#FCA5A5"/>
<path d="M3.40657 25.3957C4.36624 25.3957 5.1442 24.6178 5.1442 23.6581C5.1442 22.6985 4.36624 21.9205 3.40657 21.9205C2.44691 21.9205 1.66895 22.6985 1.66895 23.6581C1.66895 24.6178 2.44691 25.3957 3.40657 25.3957Z" fill="white"/>
<path d="M14.7352 34.1598C14.9001 34.164 15.0601 34.2169 15.195 34.312C15.3298 34.407 15.4335 34.54 15.4928 34.6939C15.5521 34.8479 15.5644 35.016 15.5282 35.177C15.492 35.3379 15.4089 35.4846 15.2894 35.5983C15.1699 35.7121 15.0193 35.7878 14.8567 35.816C14.6942 35.8442 14.5269 35.8235 14.376 35.7566C14.2252 35.6897 14.0976 35.5796 14.0093 35.4402C13.9211 35.3008 13.8761 35.1384 13.8801 34.9735C13.8828 34.8639 13.9071 34.7559 13.9515 34.6557C13.9959 34.5555 14.0597 34.465 14.1391 34.3895C14.2185 34.3139 14.312 34.2547 14.4143 34.2153C14.5165 34.1759 14.6256 34.1571 14.7352 34.1598Z" fill="white"/>
<path d="M31.2152 34.1598C31.3802 34.1598 31.5415 34.2087 31.6787 34.3004C31.8159 34.3921 31.9229 34.5224 31.986 34.6748C32.0492 34.8273 32.0657 34.995 32.0335 35.1569C32.0013 35.3187 31.9218 35.4674 31.8052 35.5841C31.6885 35.7008 31.5398 35.7802 31.378 35.8124C31.2161 35.8446 31.0484 35.8281 30.8959 35.7649C30.7435 35.7018 30.6131 35.5948 30.5215 35.4576C30.4298 35.3204 30.3809 35.1592 30.3809 34.9941C30.3809 34.7729 30.4688 34.5606 30.6252 34.4041C30.7817 34.2477 30.9939 34.1598 31.2152 34.1598Z" fill="white"/>
<path d="M14.7358 31.5257C15.4176 31.5257 16.0842 31.7279 16.6512 32.1068C17.2182 32.4856 17.6601 33.0241 17.921 33.6541C18.182 34.284 18.2502 34.9773 18.1172 35.646C17.9842 36.3148 17.6558 36.9291 17.1736 37.4113C16.6915 37.8935 16.0772 38.2218 15.4084 38.3549C14.7396 38.4879 14.0464 38.4196 13.4164 38.1586C12.7864 37.8977 12.248 37.4558 11.8691 36.8888C11.4903 36.3219 11.2881 35.6553 11.2881 34.9734C11.2881 34.059 11.6513 33.1821 12.2979 32.5356C12.9445 31.889 13.8214 31.5257 14.7358 31.5257ZM15.5701 34.9734C15.5701 34.7339 15.4749 34.5041 15.3055 34.3347C15.1361 34.1653 14.9064 34.0701 14.6668 34.0701C14.4272 34.0701 14.1975 34.1653 14.0281 34.3347C13.8587 34.5041 13.7635 34.7339 13.7635 34.9734C13.7688 35.2113 13.8656 35.438 14.0339 35.6063C14.2022 35.7746 14.4289 35.8714 14.6668 35.8767C14.9016 35.862 15.1229 35.7622 15.2892 35.5958C15.4556 35.4295 15.5554 35.2082 15.5701 34.9734Z" fill="#FCA5A5"/>
<path d="M31.2153 31.5257C31.8971 31.5257 32.5637 31.7279 33.1307 32.1068C33.6977 32.4856 34.1395 33.0241 34.4005 33.6541C34.6614 34.284 34.7297 34.9773 34.5967 35.646C34.4637 36.3148 34.1353 36.9291 33.6531 37.4113C33.171 37.8935 32.5566 38.2218 31.8879 38.3549C31.2191 38.4879 30.5259 38.4196 29.8959 38.1586C29.2659 37.8977 28.7275 37.4558 28.3486 36.8888C27.9698 36.3219 27.7676 35.6553 27.7676 34.9734C27.7783 34.0624 28.145 33.1917 28.7893 32.5474C29.4335 31.9032 30.3042 31.5365 31.2153 31.5257ZM32.1185 34.9734C32.1185 34.7948 32.0656 34.6201 31.9663 34.4716C31.8671 34.323 31.726 34.2073 31.5609 34.1389C31.3959 34.0705 31.2143 34.0526 31.039 34.0875C30.8638 34.1223 30.7029 34.2084 30.5765 34.3347C30.4502 34.461 30.3642 34.622 30.3293 34.7972C30.2945 34.9724 30.3124 35.1541 30.3807 35.3191C30.4491 35.4842 30.5649 35.6252 30.7134 35.7245C30.862 35.8237 31.0366 35.8767 31.2153 35.8767C31.449 35.8592 31.6687 35.7584 31.8345 35.5927C32.0003 35.4269 32.101 35.2072 32.1185 34.9734Z" fill="#FCA5A5"/>
<path d="M39.9036 35.5457C39.9036 35.6216 39.9726 35.7594 39.9726 35.8284C39.9719 36.0155 39.9112 36.1975 39.7995 36.3477C39.6879 36.4978 39.531 36.6082 39.352 36.6628C39.2762 36.6628 39.1383 36.7317 39.0693 36.7317C38.8813 36.7305 38.6987 36.6689 38.5484 36.5559C38.3982 36.4429 38.2883 36.2845 38.235 36.1042C38.235 36.0353 38.166 35.8974 38.166 35.8284C38.1661 35.6401 38.2273 35.457 38.3405 35.3065C38.4536 35.156 38.6126 35.0464 38.7935 34.9941C39.014 34.9288 39.251 34.9493 39.457 35.0517C39.6629 35.154 39.8225 35.3305 39.9036 35.5457Z" fill="#BE4848"/>
<path d="M36.4281 6.01296C36.4281 6.08192 36.497 6.21984 36.497 6.28879C36.4958 6.4768 36.4342 6.65944 36.3212 6.80969C36.2082 6.95995 36.0498 7.06982 35.8695 7.12311C35.8006 7.12311 35.6627 7.19208 35.5937 7.19208C35.4057 7.19091 35.2231 7.12925 35.0728 7.01625C34.9226 6.90325 34.8127 6.74488 34.7594 6.56458C34.7594 6.49563 34.6904 6.35775 34.6904 6.28879C34.6905 6.10051 34.7517 5.91732 34.8649 5.76685C34.978 5.61637 35.137 5.50674 35.3179 5.45444C35.5393 5.38951 35.777 5.41107 35.9831 5.51475C36.1892 5.61843 36.3482 5.79651 36.4281 6.01296Z" fill="#BE4848"/>
<path d="M13.8324 2.52392C13.8324 2.59977 13.9013 2.73766 13.9013 2.80661C13.9006 2.99374 13.8399 3.17572 13.7283 3.32587C13.6166 3.47602 13.4597 3.58645 13.2807 3.64097C13.2118 3.64097 13.067 3.7099 12.998 3.7099C12.81 3.70873 12.6274 3.64711 12.4771 3.53411C12.3269 3.42111 12.217 3.26274 12.1637 3.08244C12.1637 3.01349 12.0947 2.87557 12.0947 2.80661C12.0959 2.61861 12.1575 2.43597 12.2705 2.28572C12.3835 2.13546 12.5419 2.02559 12.7222 1.9723C12.9427 1.90699 13.1798 1.92758 13.3857 2.02992C13.5916 2.13225 13.7512 2.30874 13.8324 2.52392Z" fill="#BE4848"/>
<path d="M6.88216 33.8081C6.88216 33.8771 6.95111 34.0218 6.95111 34.0908C6.94994 34.2788 6.88829 34.4614 6.77529 34.6117C6.66229 34.7619 6.50393 34.8719 6.32364 34.9251C6.25468 34.9251 6.11677 34.9941 6.04782 34.9941C5.85982 34.993 5.67719 34.9313 5.52693 34.8183C5.37667 34.7053 5.26677 34.5469 5.21348 34.3666C5.21348 34.2977 5.14453 34.1597 5.14453 34.0908C5.14459 33.9025 5.20582 33.7194 5.31898 33.5689C5.43215 33.4184 5.59113 33.3088 5.77201 33.2565C5.99251 33.1912 6.22956 33.2118 6.43551 33.3141C6.64146 33.4164 6.80103 33.5929 6.88216 33.8081Z" fill="#BE4848"/>
<path d="M5.14388 14.6941C5.14388 14.7631 5.21284 14.901 5.21284 14.9699C5.21277 15.1582 5.15155 15.3414 5.03838 15.4919C4.92522 15.6424 4.76623 15.752 4.58536 15.8043C4.5164 15.8043 4.3785 15.8732 4.30955 15.8732C4.12242 15.8725 3.94044 15.8118 3.79029 15.7002C3.64015 15.5885 3.52972 15.4317 3.47521 15.2527C3.47521 15.1768 3.40625 15.0389 3.40625 14.9699C3.40742 14.7819 3.46907 14.5993 3.58207 14.449C3.69507 14.2988 3.85343 14.1889 4.03373 14.1356C4.2551 14.0707 4.49287 14.0923 4.69896 14.1959C4.90505 14.2996 5.06407 14.4777 5.14388 14.6941Z" fill="#BE4848"/>
<path d="M36.4286 27.1403H34.9668C34.74 27.1205 34.5288 27.0163 34.3749 26.8485C34.2211 26.6806 34.1357 26.4612 34.1357 26.2335C34.1357 26.0058 34.2211 25.7864 34.3749 25.6185C34.5288 25.4507 34.74 25.3466 34.9668 25.3268H36.4286C36.6554 25.3466 36.8666 25.4507 37.0205 25.6185C37.1743 25.7864 37.2596 26.0058 37.2596 26.2335C37.2596 26.4612 37.1743 26.6806 37.0205 26.8485C36.8666 27.0163 36.6554 27.1205 36.4286 27.1403Z" fill="#BE4848"/>
<path d="M39.0696 32.3532H9.52304C8.60866 32.3532 7.73172 31.99 7.08516 31.3434C6.43859 30.6968 6.07536 29.8199 6.07536 28.9055C6.07081 28.4498 6.16101 27.9981 6.34025 27.5791C6.51949 27.1601 6.78385 26.7829 7.11656 26.4714C7.76256 25.8224 8.63508 25.4492 9.55062 25.4302H9.83333C10.0718 25.4338 10.2995 25.5301 10.4681 25.6987C10.6367 25.8674 10.7331 26.0951 10.7366 26.3335C10.7322 26.4476 10.7053 26.5598 10.6575 26.6635C10.6097 26.7672 10.5419 26.8605 10.458 26.938C10.3741 27.0155 10.2757 27.0757 10.1685 27.1151C10.0613 27.1546 9.94744 27.1725 9.83333 27.1679H9.55062C9.09151 27.1807 8.65081 27.3511 8.30256 27.6506C8.13822 27.8142 8.00981 28.0103 7.92551 28.2264C7.84122 28.4425 7.80289 28.6738 7.81299 28.9055C7.81115 29.1342 7.85484 29.361 7.94152 29.5726C8.02819 29.7843 8.15611 29.9766 8.31783 30.1383C8.47955 30.3 8.67184 30.428 8.88349 30.5146C9.09514 30.6013 9.32192 30.645 9.55062 30.6431H39.0972C39.3357 30.6467 39.5634 30.743 39.732 30.9116C39.9006 31.0803 39.997 31.308 40.0005 31.5465C39.9636 31.7683 39.8504 31.9703 39.6805 32.1176C39.5105 32.2649 39.2945 32.3482 39.0696 32.3532Z" fill="#BE4848"/>
<path d="M37.3245 17.611H8.61912C8.37955 17.611 8.14979 17.5158 7.98039 17.3464C7.81099 17.177 7.71582 16.9472 7.71582 16.7077C7.71582 16.4681 7.81099 16.2383 7.98039 16.0689C8.14979 15.8995 8.37955 15.8044 8.61912 15.8044H37.3245C37.564 15.8044 37.7938 15.8995 37.9632 16.0689C38.1326 16.2383 38.2278 16.4681 38.2278 16.7077C38.2278 16.9472 38.1326 17.177 37.9632 17.3464C37.7938 17.5158 37.564 17.611 37.3245 17.611Z" fill="#BE4848"/>
<path d="M38.2351 14.1357H8.20583C8.09112 14.1331 7.9781 14.1074 7.87351 14.0602C7.76893 14.013 7.67491 13.9453 7.59705 13.861C7.5192 13.7767 7.45911 13.6776 7.42035 13.5696C7.3816 13.4616 7.36499 13.3469 7.37149 13.2323C7.37243 13.0047 7.45861 12.7857 7.61306 12.6185C7.76751 12.4513 7.979 12.348 8.20583 12.329H38.2351C38.4736 12.3326 38.7013 12.4289 38.8699 12.5975C39.0385 12.7662 39.1348 12.9939 39.1384 13.2323C39.1237 13.4671 39.0239 13.6885 38.8575 13.8548C38.6912 14.0211 38.4699 14.121 38.2351 14.1357Z" fill="#BE4848"/>
<path d="M35.6633 24.5683H9.46092C9.23409 24.5485 9.02292 24.4444 8.86907 24.2765C8.71523 24.1087 8.62988 23.8892 8.62988 23.6615C8.62988 23.4338 8.71523 23.2144 8.86907 23.0466C9.02292 22.8787 9.23409 22.7746 9.46092 22.7548H35.6633C35.8901 22.7746 36.1013 22.8787 36.2551 23.0466C36.409 23.2144 36.4943 23.4338 36.4943 23.6615C36.4943 23.8892 36.409 24.1087 36.2551 24.2765C36.1013 24.4444 35.8901 24.5485 35.6633 24.5683Z" fill="#BE4848"/>
<path d="M36.4972 21.0862H9.05368C8.81411 21.0862 8.58436 20.9911 8.41496 20.8217C8.24556 20.6523 8.15039 20.4225 8.15039 20.1829C8.15039 19.9434 8.24556 19.7136 8.41496 19.5442C8.58436 19.3748 8.81411 19.2796 9.05368 19.2796H36.4972C36.7368 19.2796 36.9665 19.3748 37.1359 19.5442C37.3053 19.7136 37.4005 19.9434 37.4005 20.1829C37.4005 20.4225 37.3053 20.6523 37.1359 20.8217C36.9665 20.9911 36.7368 21.0862 36.4972 21.0862Z" fill="#BE4848"/>
<path d="M14.7353 27.1403C14.4974 27.135 14.2707 27.0381 14.1024 26.8699C13.9342 26.7016 13.8373 26.4749 13.832 26.237V9.75705C13.8518 9.53022 13.9559 9.31905 14.1238 9.1652C14.2917 9.01135 14.5111 8.92603 14.7388 8.92603C14.9665 8.92603 15.1859 9.01135 15.3538 9.1652C15.5216 9.31905 15.6257 9.53022 15.6455 9.75705V26.3059C15.6127 26.5283 15.5043 26.7327 15.3385 26.8846C15.1728 27.0366 14.9598 27.1268 14.7353 27.1403Z" fill="#BE4848"/>
<path d="M19.955 27.1403C19.7166 27.1367 19.4889 27.0404 19.3203 26.8718C19.1516 26.7031 19.0553 26.4754 19.0518 26.237V9.75706C19.0518 9.5175 19.1469 9.28773 19.3163 9.11833C19.4857 8.94893 19.7155 8.85378 19.955 8.85378C20.1946 8.85378 20.4244 8.94893 20.5938 9.11833C20.7632 9.28773 20.8583 9.5175 20.8583 9.75706V26.3059C20.827 26.5278 20.7199 26.732 20.5554 26.884C20.3908 27.036 20.1787 27.1266 19.955 27.1403Z" fill="#BE4848"/>
<path d="M25.1679 27.1403C24.9295 27.1367 24.7018 27.0404 24.5332 26.8718C24.3645 26.7031 24.2682 26.4754 24.2646 26.237V9.75706C24.2646 9.5175 24.3598 9.28773 24.5292 9.11833C24.6986 8.94893 24.9284 8.85378 25.1679 8.85378C25.4075 8.85378 25.6373 8.94893 25.8067 9.11833C25.9761 9.28773 26.0712 9.5175 26.0712 9.75706V26.3059C26.0399 26.5278 25.9328 26.732 25.7682 26.884C25.6036 27.036 25.3916 27.1266 25.1679 27.1403Z" fill="#BE4848"/>
<path d="M30.3808 27.1403C30.1424 27.1367 29.9147 27.0404 29.746 26.8718C29.5774 26.7031 29.4811 26.4754 29.4775 26.237V9.75706C29.4775 9.5175 29.5727 9.28773 29.7421 9.11833C29.9115 8.94893 30.1413 8.85378 30.3808 8.85378C30.6204 8.85378 30.8502 8.94893 31.0196 9.11833C31.189 9.28773 31.2841 9.5175 31.2841 9.75706V26.3059C31.254 26.5283 31.1474 26.7333 30.9825 26.8855C30.8177 27.0378 30.6049 27.1279 30.3808 27.1403Z" fill="#BE4848"/>
<path d="M11.2602 10.6604C11.118 10.663 10.978 10.6256 10.8561 10.5524C10.7341 10.4793 10.6352 10.3733 10.5706 10.2467L7.37118 5.41994H2.15829C2.04998 5.4263 1.94766 5.47175 1.87031 5.54783C1.79296 5.62392 1.74583 5.72545 1.73767 5.83364C1.73767 5.97844 1.80662 6.11637 1.87558 6.11637C1.90912 6.15934 1.95202 6.19407 2.001 6.21797C2.04999 6.24186 2.10378 6.25426 2.15829 6.25425H6.04727C6.18927 6.25245 6.32897 6.29023 6.45075 6.36329C6.57252 6.43636 6.67157 6.54185 6.7368 6.66799L8.47444 9.23995C8.58452 9.42316 8.62138 9.64119 8.57762 9.8504C8.53387 10.0596 8.41273 10.2446 8.23845 10.3683C8.06417 10.4921 7.8496 10.5454 7.63765 10.5178C7.42571 10.4901 7.23204 10.3834 7.09537 10.2191L5.60597 8.01946H2.15829C1.87435 8.02129 1.59288 7.96671 1.3302 7.8589C1.06752 7.75108 0.82887 7.59219 0.628093 7.39141C0.427315 7.19063 0.26841 6.95201 0.160597 6.68933C0.0527839 6.42665 -0.00178727 6.14518 4.46372e-05 5.86125C0.00367654 5.2906 0.232444 4.74444 0.636605 4.34157C1.04077 3.9387 1.58763 3.71166 2.15829 3.70986H7.7849C7.92706 3.70726 8.06709 3.7447 8.18901 3.81785C8.31093 3.891 8.40983 3.99695 8.47444 4.12361L11.9221 9.34339C12.0488 9.5279 12.0981 9.75473 12.0595 9.97519C12.0208 10.1956 11.8972 10.3921 11.7153 10.5225C11.5732 10.5958 11.419 10.6426 11.2602 10.6604Z" fill="#BE4848"/>
<path d="M14.7349 39.3037C13.8692 39.3023 13.0234 39.0443 12.3042 38.5624C11.5851 38.0805 11.025 37.3961 10.6946 36.5959C10.3643 35.7957 10.2785 34.9156 10.4483 34.0667C10.618 33.2178 11.0355 32.4383 11.6482 31.8266C12.2608 31.2149 13.041 30.7986 13.8902 30.6302C14.7393 30.4618 15.6193 30.5489 16.419 30.8805C17.2187 31.2121 17.9021 31.7734 18.3829 32.4933C18.8638 33.2132 19.1204 34.0594 19.1204 34.9251C19.1131 36.0853 18.6486 37.1959 17.8275 38.0157C17.0064 38.8354 15.8952 39.2983 14.7349 39.3037ZM14.7349 32.3532C14.212 32.3546 13.7013 32.5111 13.2675 32.8031C12.8337 33.095 12.4963 33.5092 12.2981 33.993C12.0999 34.4769 12.0498 35.0088 12.1541 35.5212C12.2585 36.0336 12.5126 36.5034 12.8843 36.8712C13.256 37.239 13.7285 37.4882 14.2419 37.5872C14.7554 37.6862 15.2867 37.6306 15.7685 37.4273C16.2503 37.224 16.6609 36.8823 16.9482 36.4455C17.2356 36.0086 17.3869 35.4963 17.3828 34.9734C17.365 34.2793 17.0795 33.619 16.586 33.1306C16.0925 32.6422 15.4292 32.3636 14.7349 32.3532Z" fill="#BE4848"/>
<path d="M31.2155 39.3037C30.3495 39.3037 29.5029 39.0469 28.7829 38.5658C28.0628 38.0846 27.5016 37.4008 27.1702 36.6007C26.8388 35.8007 26.7521 34.9203 26.921 34.0709C27.09 33.2216 27.507 32.4414 28.1194 31.829C28.7317 31.2167 29.5119 30.7997 30.3613 30.6307C31.2106 30.4618 32.091 30.5485 32.8911 30.8799C33.6911 31.2113 34.375 31.7725 34.8561 32.4925C35.3372 33.2126 35.594 34.0591 35.594 34.9251C35.5968 35.5009 35.4854 36.0715 35.2663 36.604C35.0472 37.1364 34.7248 37.6202 34.3177 38.0274C33.9105 38.4345 33.4268 38.7569 32.8943 38.976C32.3618 39.1951 31.7912 39.3064 31.2155 39.3037ZM31.2155 32.3532C30.6932 32.3573 30.1838 32.5162 29.7518 32.8098C29.3198 33.1034 28.9846 33.5184 28.7885 34.0026C28.5924 34.4867 28.5443 35.0181 28.6502 35.5295C28.7561 36.041 29.0113 36.5095 29.3835 36.876C29.7557 37.2424 30.2282 37.4902 30.7413 37.5881C31.2544 37.686 31.7849 37.6296 32.2659 37.4259C32.7469 37.2223 33.1567 36.8806 33.4435 36.444C33.7303 36.0075 33.8812 35.4957 33.8771 34.9734C33.8753 34.6263 33.8049 34.283 33.67 33.9633C33.5351 33.6435 33.3383 33.3535 33.091 33.11C32.8436 32.8665 32.5506 32.6743 32.2288 32.5444C31.9069 32.4145 31.5625 32.3495 31.2155 32.3532Z" fill="#BE4848"/>
<path d="M31.2152 36.7317C32.1748 36.7317 32.9528 35.9538 32.9528 34.9941C32.9528 34.0344 32.1748 33.2565 31.2152 33.2565C30.2555 33.2565 29.4775 34.0344 29.4775 34.9941C29.4775 35.9538 30.2555 36.7317 31.2152 36.7317Z" fill="#BE4848"/>
<path d="M14.7358 33.2565C15.0803 33.2565 15.4171 33.359 15.7033 33.5508C15.9895 33.7427 16.2122 34.0153 16.343 34.334C16.4739 34.6527 16.5071 35.0032 16.4384 35.3408C16.3696 35.6784 16.2021 35.988 15.957 36.2301C15.7119 36.4723 15.4004 36.6361 15.0619 36.7008C14.7235 36.7655 14.3735 36.7281 14.0564 36.5934C13.7393 36.4587 13.4693 36.2328 13.2809 35.9444C13.0925 35.6559 12.9941 35.3179 12.9982 34.9734C13.0036 34.5162 13.1891 34.0795 13.5144 33.758C13.8396 33.4366 14.2785 33.2564 14.7358 33.2565Z" fill="#BE4848"/>
<path d="M28.6429 6.28185C28.1206 6.28185 27.61 6.12694 27.1757 5.83675C26.7414 5.54657 26.4029 5.13414 26.203 4.65157C26.0031 4.16901 25.9508 3.63799 26.0527 3.12571C26.1546 2.61342 26.4061 2.14287 26.7755 1.77353C27.1448 1.40419 27.6154 1.15264 28.1277 1.05074C28.6399 0.948844 29.1709 1.00115 29.6535 1.20103C30.1361 1.40092 30.5485 1.73943 30.8387 2.17372C31.1289 2.60802 31.2838 3.1186 31.2838 3.64092C31.2714 4.33746 30.9892 5.00203 30.4966 5.49464C30.004 5.98725 29.3394 6.26946 28.6429 6.28185ZM28.6429 2.83418C28.4033 2.83418 28.1735 2.92933 28.0041 3.09873C27.8347 3.26813 27.7396 3.4979 27.7396 3.73747C27.7396 3.97703 27.8347 4.20676 28.0041 4.37616C28.1735 4.54556 28.4033 4.64076 28.6429 4.64076C28.8808 4.63549 29.1075 4.53863 29.2758 4.37035C29.444 4.20208 29.5409 3.97538 29.5462 3.73747C29.5366 3.49833 29.4391 3.27112 29.2724 3.09936C29.1058 2.9276 28.8816 2.82335 28.6429 2.80657V2.83418Z" fill="#BE4848"/>
<path d="M3.40666 26.306C2.88268 26.3074 2.37008 26.1532 1.93374 25.8631C1.4974 25.573 1.15696 25.16 0.955491 24.6763C0.754027 24.1926 0.700607 23.6599 0.801994 23.1458C0.90338 22.6318 1.15501 22.1594 1.52504 21.7884C1.89507 21.4174 2.36685 21.1645 2.88066 21.0618C3.39448 20.959 3.92722 21.0111 4.41145 21.2113C4.89568 21.4115 5.30961 21.7508 5.60087 22.1864C5.89212 22.622 6.04758 23.1342 6.04759 23.6582C6.04849 24.0056 5.98085 24.3498 5.84854 24.671C5.71623 24.9922 5.52184 25.2841 5.27652 25.5301C5.0312 25.776 4.73976 25.9712 4.4189 26.1043C4.09804 26.2375 3.75406 26.306 3.40666 26.306ZM3.40666 22.8583C3.22636 22.857 3.04971 22.9092 2.89913 23.0084C2.74855 23.1075 2.63081 23.2492 2.56086 23.4154C2.49092 23.5816 2.4719 23.7648 2.50624 23.9418C2.54058 24.1188 2.62671 24.2817 2.75373 24.4096C2.88074 24.5376 3.04291 24.625 3.21965 24.6607C3.39639 24.6964 3.57975 24.6787 3.74647 24.6101C3.91319 24.5414 4.05575 24.4247 4.15607 24.2749C4.25639 24.1251 4.30995 23.9488 4.30996 23.7685C4.31271 23.6472 4.29152 23.5265 4.2476 23.4133C4.20369 23.3002 4.13791 23.1968 4.05403 23.109C3.97015 23.0213 3.86979 22.951 3.75872 22.902C3.64764 22.8531 3.52801 22.8265 3.40666 22.8238V22.8583Z" fill="#BE4848"/>
<path d="M35.0351 27.1403H9.80498C9.59514 27.141 9.39274 27.0626 9.23811 26.9208C9.08348 26.7789 8.98798 26.584 8.97064 26.3749L6.9503 9.82605C6.94705 9.58045 7.01925 9.33977 7.15716 9.13651C7.23347 9.04534 7.32979 8.973 7.43863 8.92516C7.54747 8.87732 7.66588 8.85526 7.78464 8.86068H39.0689C39.2014 8.86728 39.3311 8.90133 39.4498 8.96068C39.5685 9.02003 39.6736 9.10338 39.7584 9.20545C39.8324 9.31684 39.8829 9.44223 39.9066 9.57387C39.9303 9.70551 39.9268 9.84059 39.8963 9.97083L35.8625 26.4507C35.8113 26.6363 35.7046 26.8017 35.5567 26.925C35.4088 27.0482 35.2268 27.1233 35.0351 27.1403ZM10.5704 25.4026H34.3455L37.9587 10.5914H8.75689L10.5704 25.4026Z" fill="#BE4848"/>
</svg>
