<svg width="512" height="512" viewBox="0 0 512 512" fill="none" xmlns="http://www.w3.org/2000/svg">
<g clip-path="url(#clip0_5632_73900)">
<path d="M213.333 490.667C213.333 502.464 203.776 512 192 512H106.667C59.6053 512 21.3333 473.728 21.3333 426.667V226.517C8.21333 211.52 0 192.128 0 170.667C0 168.683 0.277333 166.699 0.832 164.8L25.792 77.3547C38.8267 31.808 81.0027 0 128.363 0H383.637C430.997 0 473.173 31.808 486.208 77.3547L511.189 164.8C511.723 166.699 512.021 168.683 512.021 170.667C512.021 180.437 510.379 190.016 507.136 199.125C503.189 210.219 491.029 216.064 479.893 212.096C468.779 208.149 462.997 195.968 466.923 184.853C468.224 181.163 469.013 177.301 469.248 173.355L445.184 89.0667C437.376 61.7387 412.075 42.6453 383.637 42.6453H362.667V85.312C362.667 97.088 353.109 106.645 341.333 106.645C329.557 106.645 320 97.088 320 85.312V42.6453H192V85.312C192 97.088 182.443 106.645 170.667 106.645C158.891 106.645 149.333 97.088 149.333 85.312V42.6453H128.363C99.9253 42.6453 74.624 61.7387 66.816 89.0667L42.752 173.355C44.1387 195.627 62.72 213.333 85.3333 213.333H106.667C130.197 213.333 149.333 194.197 149.333 170.667C149.333 158.891 158.891 149.333 170.667 149.333C182.443 149.333 192 158.891 192 170.667C192 185.856 200.171 200.021 213.355 207.637C223.552 213.547 227.029 226.603 221.141 236.8C217.173 243.627 210.027 247.445 202.645 247.445C199.019 247.445 195.349 246.528 191.979 244.587C183.744 239.829 176.64 233.664 170.539 226.667C154.88 244.501 132.203 256.021 106.667 256.021H85.3333C77.9307 256.021 70.8693 254.784 64 252.992V426.688C64 450.219 83.136 469.355 106.667 469.355H192C203.776 469.355 213.333 478.869 213.333 490.667ZM512 362.667C512 444.992 445.013 512 362.667 512C280.32 512 213.333 444.992 213.333 362.667C213.333 280.341 280.32 213.333 362.667 213.333C445.013 213.333 512 280.341 512 362.667ZM469.333 362.667C469.333 303.851 421.483 256 362.667 256C303.851 256 256 303.851 256 362.667C256 421.483 303.851 469.333 362.667 469.333C421.483 469.333 469.333 421.483 469.333 362.667ZM401.237 336.192L353.813 381.717C350.763 384.768 345.749 384.747 342.677 381.717L318.528 358.08C310.123 349.845 296.619 349.995 288.363 358.421C280.107 366.848 280.256 380.331 288.683 388.587L312.832 412.224C322.624 421.803 335.488 426.603 348.331 426.603C361.173 426.603 373.952 421.803 383.595 412.288L430.784 366.976C439.275 358.805 439.573 345.301 431.403 336.811C423.232 328.299 409.749 328.064 401.237 336.192Z" fill="#BE4848"/>
</g>
<defs>
<clipPath id="clip0_5632_73900">
<rect width="512" height="512" fill="white"/>
</clipPath>
</defs>
</svg>
