<svg width="40" height="40" viewBox="0 0 40 40" fill="none" xmlns="http://www.w3.org/2000/svg">
<path d="M22.7455 34.7281C22.8485 34.7882 22.8485 34.8827 22.7455 34.9399C22.6891 34.9681 22.6268 34.9828 22.5637 34.9828C22.5006 34.9828 22.4384 34.9681 22.382 34.9399C22.2789 34.8827 22.2789 34.7882 22.382 34.7281C22.4384 34.6999 22.5006 34.6852 22.5637 34.6852C22.6268 34.6852 22.6891 34.6999 22.7455 34.7281Z" fill="#0E3151"/>
<path d="M20.8321 34.728C20.9323 34.7881 20.9323 34.8826 20.8321 34.9398C20.7752 34.9681 20.7125 34.9828 20.649 34.9828C20.5854 34.9828 20.5227 34.9681 20.4658 34.9398C20.3656 34.8826 20.3656 34.7881 20.4658 34.728C20.5227 34.6998 20.5854 34.6851 20.649 34.6851C20.7125 34.6851 20.7752 34.6998 20.8321 34.728Z" fill="#0E3151"/>
<path d="M21.7892 34.1756C21.8922 34.2357 21.8922 34.3302 21.7892 34.3874C21.7322 34.4157 21.6695 34.4304 21.606 34.4304C21.5424 34.4304 21.4797 34.4157 21.4228 34.3874C21.3226 34.3302 21.3226 34.2357 21.4228 34.1756C21.4797 34.1474 21.5424 34.1327 21.606 34.1327C21.6695 34.1327 21.7322 34.1474 21.7892 34.1756Z" fill="#0E3151"/>
<path d="M19.6931 34.4304C19.8354 34.4304 19.9508 34.3637 19.9508 34.2815C19.9508 34.1993 19.8354 34.1327 19.6931 34.1327C19.5509 34.1327 19.4355 34.1993 19.4355 34.2815C19.4355 34.3637 19.5509 34.4304 19.6931 34.4304Z" fill="#0E3151"/>
<path d="M20.8321 33.6231C20.9323 33.6833 20.9323 33.7777 20.8321 33.835C20.7756 33.8646 20.7128 33.88 20.649 33.88C20.5851 33.88 20.5223 33.8646 20.4658 33.835C20.3656 33.7777 20.3656 33.6833 20.4658 33.6231C20.5227 33.5949 20.5854 33.5802 20.649 33.5802C20.7125 33.5802 20.7752 33.5949 20.8321 33.6231Z" fill="#0E3151"/>
<path d="M18.9122 33.6174C19.0124 33.6775 19.0124 33.772 18.9122 33.8292C18.8557 33.8588 18.7928 33.8743 18.729 33.8743C18.6652 33.8743 18.6024 33.8588 18.5458 33.8292C18.4457 33.772 18.4457 33.6775 18.5458 33.6174C18.6028 33.5892 18.6655 33.5745 18.729 33.5745C18.7926 33.5745 18.8553 33.5892 18.9122 33.6174Z" fill="#0E3151"/>
<path d="M19.8684 33.0679C19.9714 33.1251 19.9714 33.2196 19.8684 33.2768C19.8119 33.3064 19.749 33.3219 19.6852 33.3219C19.6214 33.3219 19.5585 33.3064 19.502 33.2768C19.4808 33.2688 19.4625 33.2545 19.4495 33.2359C19.4366 33.2172 19.4297 33.1951 19.4297 33.1724C19.4297 33.1496 19.4366 33.1275 19.4495 33.1088C19.4625 33.0902 19.4808 33.0759 19.502 33.0679C19.5585 33.0383 19.6214 33.0228 19.6852 33.0228C19.749 33.0228 19.8119 33.0383 19.8684 33.0679Z" fill="#0E3151"/>
<path d="M17.7732 33.3198C17.9155 33.3198 18.0308 33.2531 18.0308 33.1709C18.0308 33.0887 17.9155 33.0221 17.7732 33.0221C17.631 33.0221 17.5156 33.0887 17.5156 33.1709C17.5156 33.2531 17.631 33.3198 17.7732 33.3198Z" fill="#0E3151"/>
<path d="M18.9113 32.5155C18.9326 32.5235 18.9509 32.5378 18.9638 32.5565C18.9767 32.5751 18.9836 32.5973 18.9836 32.62C18.9836 32.6427 18.9767 32.6648 18.9638 32.6835C18.9509 32.7022 18.9326 32.7165 18.9113 32.7245C18.8548 32.754 18.7919 32.7695 18.7281 32.7695C18.6643 32.7695 18.6015 32.754 18.5449 32.7245C18.5237 32.7165 18.5054 32.7022 18.4925 32.6835C18.4796 32.6648 18.4727 32.6427 18.4727 32.62C18.4727 32.5973 18.4796 32.5751 18.4925 32.5565C18.5054 32.5378 18.5237 32.5235 18.5449 32.5155C18.6015 32.4859 18.6643 32.4705 18.7281 32.4705C18.7919 32.4705 18.8548 32.4859 18.9113 32.5155Z" fill="#0E3151"/>
<path d="M17.0012 32.5155C17.0224 32.5235 17.0407 32.5378 17.0536 32.5565C17.0666 32.5751 17.0735 32.5973 17.0735 32.62C17.0735 32.6427 17.0666 32.6648 17.0536 32.6835C17.0407 32.7022 17.0224 32.7165 17.0012 32.7245C16.9446 32.754 16.8818 32.7695 16.818 32.7695C16.7542 32.7695 16.6913 32.754 16.6348 32.7245C16.6135 32.7165 16.5952 32.7022 16.5823 32.6835C16.5694 32.6648 16.5625 32.6427 16.5625 32.62C16.5625 32.5973 16.5694 32.5751 16.5823 32.5565C16.5952 32.5378 16.6135 32.5235 16.6348 32.5155C16.6913 32.4859 16.7542 32.4705 16.818 32.4705C16.8818 32.4705 16.9446 32.4859 17.0012 32.5155Z" fill="#0E3151"/>
<path d="M17.9571 31.9745C18.0573 32.0317 18.0573 32.1262 17.9571 32.1863C17.9002 32.2146 17.8375 32.2293 17.774 32.2293C17.7104 32.2293 17.6477 32.2146 17.5908 32.1863C17.4906 32.1262 17.4906 32.0317 17.5908 31.9745C17.6473 31.9449 17.7101 31.9294 17.774 31.9294C17.8378 31.9294 17.9006 31.9449 17.9571 31.9745Z" fill="#0E3151"/>
<path d="M16.0489 31.9745C16.1491 32.0317 16.1491 32.1262 16.0489 32.1863C15.992 32.2146 15.9293 32.2293 15.8658 32.2293C15.8022 32.2293 15.7395 32.2146 15.6826 32.1863C15.5824 32.1262 15.5824 32.0317 15.6826 31.9745C15.7391 31.9449 15.8019 31.9294 15.8658 31.9294C15.9296 31.9294 15.9924 31.9449 16.0489 31.9745Z" fill="#0E3151"/>
<path d="M16.8181 31.6654C16.9604 31.6654 17.0758 31.5987 17.0758 31.5165C17.0758 31.4343 16.9604 31.3677 16.8181 31.3677C16.6759 31.3677 16.5605 31.4343 16.5605 31.5165C16.5605 31.5987 16.6759 31.6654 16.8181 31.6654Z" fill="#0E3151"/>
<path d="M15.088 31.4021C15.1882 31.4593 15.1882 31.5538 15.088 31.6139C15.0311 31.6421 14.9684 31.6568 14.9048 31.6568C14.8413 31.6568 14.7786 31.6421 14.7216 31.6139C14.6214 31.5538 14.6214 31.4593 14.7216 31.4021C14.7786 31.3738 14.8413 31.3591 14.9048 31.3591C14.9684 31.3591 15.0311 31.3738 15.088 31.4021Z" fill="#0E3151"/>
<path d="M16.0501 30.8581C16.0724 30.8655 16.0917 30.8798 16.1054 30.8988C16.1191 30.9178 16.1265 30.9406 16.1265 30.964C16.1265 30.9875 16.1191 31.0103 16.1054 31.0293C16.0917 31.0483 16.0724 31.0625 16.0501 31.0699C15.9932 31.0982 15.9305 31.1129 15.8669 31.1129C15.8034 31.1129 15.7407 31.0982 15.6837 31.0699C15.6615 31.0625 15.6422 31.0483 15.6285 31.0293C15.6148 31.0103 15.6074 30.9875 15.6074 30.964C15.6074 30.9406 15.6148 30.9178 15.6285 30.8988C15.6422 30.8798 15.6615 30.8655 15.6837 30.8581C15.7407 30.8299 15.8034 30.8152 15.8669 30.8152C15.9305 30.8152 15.9932 30.8299 16.0501 30.8581Z" fill="#0E3151"/>
<path d="M13.949 31.1129C14.0913 31.1129 14.2066 31.0462 14.2066 30.964C14.2066 30.8818 14.0913 30.8152 13.949 30.8152C13.8067 30.8152 13.6914 30.8818 13.6914 30.964C13.6914 31.0462 13.8067 31.1129 13.949 31.1129Z" fill="#0E3151"/>
<path d="M15.088 30.3058C15.1882 30.3659 15.1882 30.4603 15.088 30.5176C15.0311 30.5458 14.9684 30.5605 14.9048 30.5605C14.8413 30.5605 14.7786 30.5458 14.7216 30.5176C14.6214 30.4603 14.6214 30.3659 14.7216 30.3058C14.7786 30.2775 14.8413 30.2628 14.9048 30.2628C14.9684 30.2628 15.0311 30.2775 15.088 30.3058Z" fill="#0E3151"/>
<path d="M13.1876 30.3058C13.2878 30.3659 13.2878 30.4603 13.1876 30.5176C13.1307 30.5458 13.068 30.5605 13.0044 30.5605C12.9409 30.5605 12.8782 30.5458 12.8212 30.5176C12.721 30.4603 12.721 30.3659 12.8212 30.3058C12.8782 30.2775 12.9409 30.2628 13.0044 30.2628C13.068 30.2628 13.1307 30.2775 13.1876 30.3058Z" fill="#0E3151"/>
<path d="M14.1329 29.7533C14.2331 29.8134 14.2331 29.9078 14.1329 29.9651C14.076 29.9933 14.0133 30.008 13.9497 30.008C13.8862 30.008 13.8235 29.9933 13.7665 29.9651C13.6664 29.9078 13.6664 29.8134 13.7665 29.7533C13.8235 29.725 13.8862 29.7103 13.9497 29.7103C14.0133 29.7103 14.076 29.725 14.1329 29.7533Z" fill="#0E3151"/>
<path d="M12.2208 29.7533C12.321 29.8134 12.321 29.9078 12.2208 29.9651C12.1639 29.9933 12.1012 30.008 12.0376 30.008C11.9741 30.008 11.9114 29.9933 11.8544 29.9651C11.7543 29.9078 11.7543 29.8134 11.8544 29.7533C11.9114 29.725 11.9741 29.7103 12.0376 29.7103C12.1012 29.7103 12.1639 29.725 12.2208 29.7533Z" fill="#0E3151"/>
<path d="M13.1887 29.2037C13.2099 29.2117 13.2282 29.226 13.2411 29.2447C13.2541 29.2634 13.261 29.2855 13.261 29.3082C13.261 29.3309 13.2541 29.3531 13.2411 29.3717C13.2282 29.3904 13.2099 29.4047 13.1887 29.4127C13.1321 29.4423 13.0693 29.4577 13.0055 29.4577C12.9417 29.4577 12.8788 29.4423 12.8223 29.4127C12.801 29.4047 12.7827 29.3904 12.7698 29.3717C12.7569 29.3531 12.75 29.3309 12.75 29.3082C12.75 29.2855 12.7569 29.2634 12.7698 29.2447C12.7827 29.226 12.801 29.2117 12.8223 29.2037C12.8788 29.1742 12.9417 29.1587 13.0055 29.1587C13.0693 29.1587 13.1321 29.1742 13.1887 29.2037Z" fill="#0E3151"/>
<path d="M12.2121 28.6456C12.2334 28.6536 12.2517 28.6679 12.2646 28.6866C12.2775 28.7052 12.2844 28.7274 12.2844 28.7501C12.2844 28.7728 12.2775 28.795 12.2646 28.8136C12.2517 28.8323 12.2334 28.8466 12.2121 28.8546C12.1556 28.8842 12.0927 28.8996 12.0289 28.8996C11.9651 28.8996 11.9023 28.8842 11.8457 28.8546C11.8245 28.8466 11.8062 28.8323 11.7933 28.8136C11.7804 28.795 11.7734 28.7728 11.7734 28.7501C11.7734 28.7274 11.7804 28.7052 11.7933 28.6866C11.8062 28.6679 11.8245 28.6536 11.8457 28.6456C11.9023 28.616 11.9651 28.6006 12.0289 28.6006C12.0927 28.6006 12.1556 28.616 12.2121 28.6456Z" fill="#0E3151"/>
<path d="M23.3381 34.1842C23.395 34.1559 23.4577 34.1412 23.5212 34.1412C23.5848 34.1412 23.6475 34.1559 23.7044 34.1842C23.8046 34.2414 23.8046 34.3359 23.7044 34.396C23.6475 34.4242 23.5848 34.4389 23.5212 34.4389C23.4577 34.4389 23.395 34.4242 23.3381 34.396C23.3158 34.3886 23.2965 34.3744 23.2828 34.3554C23.2691 34.3364 23.2617 34.3135 23.2617 34.2901C23.2617 34.2667 23.2691 34.2438 23.2828 34.2248C23.2965 34.2058 23.3158 34.1916 23.3381 34.1842Z" fill="#0E3151"/>
<path d="M24.6596 33.6318C24.7626 33.689 24.7626 33.7835 24.6596 33.8436C24.6031 33.8718 24.5409 33.8865 24.4778 33.8865C24.4147 33.8865 24.3525 33.8718 24.296 33.8436C24.193 33.7835 24.193 33.689 24.296 33.6318C24.3525 33.6036 24.4147 33.5889 24.4778 33.5889C24.5409 33.5889 24.6031 33.6036 24.6596 33.6318Z" fill="#0E3151"/>
<path d="M25.6175 33.2911C25.5605 33.3194 25.4978 33.3341 25.4343 33.3341C25.3707 33.3341 25.308 33.3194 25.2511 33.2911C25.1481 33.231 25.1481 33.1366 25.2511 33.0793C25.308 33.0511 25.3707 33.0364 25.4343 33.0364C25.4978 33.0364 25.5605 33.0511 25.6175 33.0793C25.7177 33.1366 25.7177 33.231 25.6175 33.2911Z" fill="#0E3151"/>
<path d="M26.5743 32.5268C26.6745 32.5869 26.6745 32.6814 26.5743 32.7386C26.5174 32.7669 26.4547 32.7816 26.3911 32.7816C26.3276 32.7816 26.2649 32.7669 26.2079 32.7386C26.1078 32.6814 26.1078 32.5869 26.2079 32.5268C26.2649 32.4986 26.3276 32.4839 26.3911 32.4839C26.4547 32.4839 26.5174 32.4986 26.5743 32.5268Z" fill="#0E3151"/>
<path d="M27.5313 31.9745C27.6315 32.0346 27.6315 32.129 27.5313 32.1863C27.4744 32.2145 27.4117 32.2292 27.3482 32.2292C27.2846 32.2292 27.2219 32.2145 27.165 32.1863C27.0648 32.129 27.0648 32.0346 27.165 31.9745C27.2219 31.9462 27.2846 31.9315 27.3482 31.9315C27.4117 31.9315 27.4744 31.9462 27.5313 31.9745Z" fill="#0E3151"/>
<path d="M28.4864 31.422C28.5866 31.4821 28.5866 31.5765 28.4864 31.6338C28.4299 31.6634 28.3671 31.6788 28.3033 31.6788C28.2394 31.6788 28.1766 31.6634 28.1201 31.6338C28.0199 31.5765 28.0199 31.4821 28.1201 31.422C28.177 31.3937 28.2397 31.379 28.3033 31.379C28.3668 31.379 28.4295 31.3937 28.4864 31.422Z" fill="#0E3151"/>
<path d="M29.4426 30.8724C29.4638 30.8804 29.4821 30.8947 29.4951 30.9134C29.508 30.9321 29.5149 30.9542 29.5149 30.9769C29.5149 30.9996 29.508 31.0218 29.4951 31.0404C29.4821 31.0591 29.4638 31.0734 29.4426 31.0814C29.3861 31.111 29.3232 31.1264 29.2594 31.1264C29.1956 31.1264 29.1327 31.111 29.0762 31.0814C29.055 31.0734 29.0367 31.0591 29.0238 31.0404C29.0108 31.0218 29.0039 30.9996 29.0039 30.9769C29.0039 30.9542 29.0108 30.9321 29.0238 30.9134C29.0367 30.8947 29.055 30.8804 29.0762 30.8724C29.1327 30.8428 29.1956 30.8274 29.2594 30.8274C29.3232 30.8274 29.3861 30.8428 29.4426 30.8724Z" fill="#0E3151"/>
<path d="M30.3996 30.3201C30.4209 30.3281 30.4392 30.3424 30.4521 30.361C30.465 30.3797 30.4719 30.4018 30.4719 30.4245C30.4719 30.4472 30.465 30.4694 30.4521 30.4881C30.4392 30.5067 30.4209 30.521 30.3996 30.529C30.3431 30.5586 30.2802 30.5741 30.2164 30.5741C30.1526 30.5741 30.0898 30.5586 30.0332 30.529C30.012 30.521 29.9937 30.5067 29.9808 30.4881C29.9678 30.4694 29.9609 30.4472 29.9609 30.4245C29.9609 30.4018 29.9678 30.3797 29.9808 30.361C29.9937 30.3424 30.012 30.3281 30.0332 30.3201C30.0898 30.2905 30.1526 30.275 30.2164 30.275C30.2802 30.275 30.3431 30.2905 30.3996 30.3201Z" fill="#0E3151"/>
<path d="M22.3798 33.6317C22.4368 33.6034 22.4995 33.5887 22.563 33.5887C22.6266 33.5887 22.6893 33.6034 22.7462 33.6317C22.8464 33.6889 22.8464 33.7834 22.7462 33.8435C22.6893 33.8718 22.6266 33.8865 22.563 33.8865C22.4995 33.8865 22.4368 33.8718 22.3798 33.8435C22.2796 33.7863 22.2796 33.6918 22.3798 33.6317Z" fill="#0E3151"/>
<path d="M23.7045 33.0793C23.8075 33.1365 23.8075 33.231 23.7045 33.2911C23.648 33.3193 23.5858 33.334 23.5227 33.334C23.4596 33.334 23.3974 33.3193 23.341 33.2911C23.2379 33.231 23.2379 33.1365 23.341 33.0793C23.3974 33.0511 23.4596 33.0364 23.5227 33.0364C23.5858 33.0364 23.648 33.0511 23.7045 33.0793Z" fill="#0E3151"/>
<path d="M24.6596 32.5269C24.7626 32.587 24.7626 32.6815 24.6596 32.7387C24.6031 32.7669 24.5409 32.7816 24.4778 32.7816C24.4147 32.7816 24.3525 32.7669 24.296 32.7387C24.193 32.6815 24.193 32.587 24.296 32.5269C24.3525 32.4987 24.4147 32.484 24.4778 32.484C24.5409 32.484 24.6031 32.4987 24.6596 32.5269Z" fill="#0E3151"/>
<path d="M25.6175 31.9745C25.7177 32.0346 25.7177 32.129 25.6175 32.1863C25.5605 32.2145 25.4978 32.2292 25.4343 32.2292C25.3707 32.2292 25.308 32.2145 25.2511 32.1863C25.1481 32.129 25.1481 32.0346 25.2511 31.9745C25.308 31.9462 25.3707 31.9315 25.4343 31.9315C25.4978 31.9315 25.5605 31.9462 25.6175 31.9745Z" fill="#0E3151"/>
<path d="M26.5743 31.422C26.6745 31.4821 26.6745 31.5765 26.5743 31.6338C26.5178 31.6634 26.4549 31.6788 26.3911 31.6788C26.3273 31.6788 26.2645 31.6634 26.2079 31.6338C26.1078 31.5765 26.1078 31.4821 26.2079 31.422C26.2649 31.3937 26.3276 31.379 26.3911 31.379C26.4547 31.379 26.5174 31.3937 26.5743 31.422Z" fill="#0E3151"/>
<path d="M27.5305 30.8724C27.5517 30.8804 27.57 30.8947 27.5829 30.9134C27.5959 30.9321 27.6028 30.9542 27.6028 30.9769C27.6028 30.9996 27.5959 31.0218 27.5829 31.0404C27.57 31.0591 27.5517 31.0734 27.5305 31.0814C27.4739 31.111 27.4111 31.1264 27.3473 31.1264C27.2835 31.1264 27.2206 31.111 27.1641 31.0814C27.1429 31.0734 27.1246 31.0591 27.1116 31.0404C27.0987 31.0218 27.0918 30.9996 27.0918 30.9769C27.0918 30.9542 27.0987 30.9321 27.1116 30.9134C27.1246 30.8947 27.1429 30.8804 27.1641 30.8724C27.2206 30.8428 27.2835 30.8274 27.3473 30.8274C27.4111 30.8274 27.4739 30.8428 27.5305 30.8724Z" fill="#0E3151"/>
<path d="M28.4864 30.3201C28.5866 30.3773 28.5866 30.4718 28.4864 30.5319C28.4295 30.5601 28.3668 30.5748 28.3033 30.5748C28.2397 30.5748 28.177 30.5601 28.1201 30.5319C28.0199 30.4718 28.0199 30.3773 28.1201 30.3201C28.1766 30.2905 28.2394 30.275 28.3033 30.275C28.3671 30.275 28.4299 30.2905 28.4864 30.3201Z" fill="#0E3151"/>
<path d="M29.4435 29.7677C29.5436 29.8249 29.5436 29.9194 29.4435 29.9795C29.3865 30.0077 29.3238 30.0224 29.2603 30.0224C29.1967 30.0224 29.134 30.0077 29.0771 29.9795C28.9769 29.9194 28.9769 29.8249 29.0771 29.7677C29.134 29.7394 29.1967 29.7247 29.2603 29.7247C29.3238 29.7247 29.3865 29.7394 29.4435 29.7677Z" fill="#0E3151"/>
<path d="M30.2146 29.4699C30.3569 29.4699 30.4722 29.4033 30.4722 29.3211C30.4722 29.2389 30.3569 29.1722 30.2146 29.1722C30.0724 29.1722 29.957 29.2389 29.957 29.3211C29.957 29.4033 30.0724 29.4699 30.2146 29.4699Z" fill="#0E3151"/>
<path d="M21.4267 33.0793C21.4836 33.0511 21.5463 33.0364 21.6099 33.0364C21.6734 33.0364 21.7361 33.0511 21.7931 33.0793C21.8932 33.1394 21.8932 33.2339 21.7931 33.2911C21.7361 33.3194 21.6734 33.3341 21.6099 33.3341C21.5463 33.3341 21.4836 33.3194 21.4267 33.2911C21.3265 33.2339 21.3265 33.1394 21.4267 33.0793Z" fill="#0E3151"/>
<path d="M22.7474 32.5269C22.8505 32.587 22.8505 32.6815 22.7474 32.7387C22.691 32.7669 22.6288 32.7816 22.5657 32.7816C22.5026 32.7816 22.4404 32.7669 22.3839 32.7387C22.2809 32.6815 22.2809 32.587 22.3839 32.5269C22.4404 32.4987 22.5026 32.484 22.5657 32.484C22.6288 32.484 22.691 32.4987 22.7474 32.5269Z" fill="#0E3151"/>
<path d="M23.7045 31.9745C23.8075 32.0347 23.8075 32.1291 23.7045 32.1864C23.648 32.2146 23.5858 32.2293 23.5227 32.2293C23.4596 32.2293 23.3974 32.2146 23.341 32.1864C23.2379 32.1291 23.2379 32.0347 23.341 31.9745C23.3974 31.9463 23.4596 31.9316 23.5227 31.9316C23.5858 31.9316 23.648 31.9463 23.7045 31.9745Z" fill="#0E3151"/>
<path d="M24.6596 31.4221C24.7626 31.4822 24.7626 31.5766 24.6596 31.6339C24.6035 31.6634 24.5411 31.6789 24.4778 31.6789C24.4144 31.6789 24.3521 31.6634 24.296 31.6339C24.193 31.5766 24.193 31.4822 24.296 31.4221C24.3525 31.3938 24.4147 31.3792 24.4778 31.3792C24.5409 31.3792 24.6031 31.3938 24.6596 31.4221Z" fill="#0E3151"/>
<path d="M25.6175 30.8724C25.6387 30.8804 25.657 30.8947 25.6699 30.9134C25.6829 30.9321 25.6898 30.9542 25.6898 30.9769C25.6898 30.9996 25.6829 31.0218 25.6699 31.0404C25.657 31.0591 25.6387 31.0734 25.6175 31.0814C25.561 31.111 25.4981 31.1264 25.4343 31.1264C25.3705 31.1264 25.3076 31.111 25.2511 31.0814C25.1481 31.0241 25.1481 30.9297 25.2511 30.8724C25.3076 30.8428 25.3705 30.8274 25.4343 30.8274C25.4981 30.8274 25.561 30.8428 25.6175 30.8724Z" fill="#0E3151"/>
<path d="M26.5743 30.3201C26.6745 30.3773 26.6745 30.4718 26.5743 30.5319C26.5174 30.5601 26.4547 30.5748 26.3911 30.5748C26.3276 30.5748 26.2649 30.5601 26.2079 30.5319C26.1078 30.4718 26.1078 30.3773 26.2079 30.3201C26.2645 30.2905 26.3273 30.275 26.3911 30.275C26.4549 30.275 26.5178 30.2905 26.5743 30.3201Z" fill="#0E3151"/>
<path d="M27.5313 29.7677C27.6315 29.8249 27.6315 29.9194 27.5313 29.9795C27.4744 30.0077 27.4117 30.0224 27.3482 30.0224C27.2846 30.0224 27.2219 30.0077 27.165 29.9795C27.0648 29.9194 27.0648 29.8249 27.165 29.7677C27.2219 29.7394 27.2846 29.7247 27.3482 29.7247C27.4117 29.7247 27.4744 29.7394 27.5313 29.7677Z" fill="#0E3151"/>
<path d="M28.4864 29.2152C28.5866 29.2724 28.5866 29.3669 28.4864 29.427C28.4295 29.4552 28.3668 29.4699 28.3033 29.4699C28.2397 29.4699 28.177 29.4552 28.1201 29.427C28.0199 29.3669 28.0199 29.2724 28.1201 29.2152C28.177 29.1869 28.2397 29.1722 28.3033 29.1722C28.3668 29.1722 28.4295 29.1869 28.4864 29.2152Z" fill="#0E3151"/>
<path d="M29.4435 28.6628C29.5436 28.7229 29.5436 28.8174 29.4435 28.8746C29.3865 28.9029 29.3238 28.9176 29.2603 28.9176C29.1967 28.9176 29.134 28.9029 29.0771 28.8746C28.9769 28.8174 28.9769 28.7229 29.0771 28.6628C29.134 28.6346 29.1967 28.6199 29.2603 28.6199C29.3238 28.6199 29.3865 28.6346 29.4435 28.6628Z" fill="#0E3151"/>
<path d="M20.4619 32.5212C20.5188 32.493 20.5815 32.4783 20.645 32.4783C20.7086 32.4783 20.7713 32.493 20.8282 32.5212C20.9284 32.5813 20.9284 32.6758 20.8282 32.733C20.7715 32.7619 20.7087 32.777 20.645 32.777C20.5814 32.777 20.5186 32.7619 20.4619 32.733C20.3617 32.6758 20.3617 32.5813 20.4619 32.5212Z" fill="#0E3151"/>
<path d="M29.5207 13.8731C29.5207 13.5468 29.1229 12.8484 28.0724 12.2416L22.4336 8.98715C21.4776 8.43472 20.0321 8.37461 19.2049 8.85262L16.9809 10.1349C16.9809 10.1349 15.8359 10.8162 13.735 12.0098C12.5013 12.7082 11.8945 13.3865 11.8945 13.9647V26.0781C11.9272 26.5666 12.0763 27.0403 12.3292 27.4595C12.5822 27.8787 12.9317 28.2314 13.3486 28.4882L18.9702 31.734C19.9262 32.2865 21.3717 32.3466 22.1989 31.8686L28.0323 28.4996L28.0838 28.4681C28.5189 28.2019 28.8787 27.8289 29.1292 27.3846C29.3797 26.9403 29.5125 26.4393 29.515 25.9292V13.9647L29.5207 13.8731Z" fill="#2A94F4"/>
<path d="M20.7978 32.3352C20.1345 32.341 19.4806 32.1785 18.8972 31.8629L13.2785 28.617C12.8393 28.3503 12.471 27.9815 12.2049 27.542C11.9388 27.1025 11.7827 26.6052 11.75 26.0924V13.9676C11.75 13.315 12.4112 12.5937 13.6649 11.8838C15.7487 10.7046 16.8993 10.0176 16.9108 10.0119L19.1348 8.7267C19.9935 8.2258 21.5163 8.28591 22.5124 8.86123L28.1483 12.1157C29.1758 12.7082 29.6567 13.441 29.671 13.8703V25.935C29.6679 26.4693 29.5288 26.9939 29.2669 27.4596C29.005 27.9253 28.6289 28.3167 28.174 28.597L22.2862 31.9974C21.8272 32.2357 21.3147 32.352 20.7978 32.3352ZM20.606 8.67518C20.1438 8.662 19.6859 8.7664 19.2751 8.97859L17.0539 10.2609C17.0539 10.2609 15.8918 10.9565 13.8051 12.1386C12.6602 12.7855 12.0362 13.4324 12.0362 13.9676V26.081C12.0688 26.5445 12.2109 26.9938 12.4507 27.3918C12.6905 27.7899 13.0213 28.1254 13.4159 28.3708L19.0375 31.6196C19.9534 32.1462 21.3273 32.2064 22.1231 31.7512L28.008 28.3537C28.4187 28.0983 28.758 27.7431 28.9942 27.3212C29.2305 26.8992 29.356 26.4243 29.359 25.9407V13.8846C29.359 13.5984 28.9669 12.9458 27.9822 12.3762L22.3463 9.12171C21.8129 8.82925 21.2144 8.6757 20.606 8.67518Z" fill="#0E3151"/>
<path d="M20.8506 20.6683H20.5586V30.1369H20.8506V20.6683Z" fill="#0E3151"/>
<path d="M19.1977 8.84115L16.9736 10.1235C16.9736 10.1235 15.8287 10.8047 13.7249 12.0012C13.3998 12.2038 13.089 12.4286 12.7946 12.6738C12.7288 12.7368 11.498 13.9389 14.1886 15.4588L19.0345 18.2611C19.0345 18.2611 20.5487 19.3716 22.5637 18.1866C24.221 17.2106 26.9946 15.6105 27.9335 15.0553C28.205 14.9012 28.4357 14.6843 28.6061 14.4227C28.9582 13.8731 29.2816 12.9285 28.0651 12.2301L22.4264 8.97568C21.4646 8.42325 20.0191 8.36314 19.1977 8.84115Z" fill="#2A94F4"/>
<path d="M19.1147 10.0863L16.8907 11.3657C16.8907 11.3657 15.7458 12.047 13.6448 13.2405C13.3197 13.4432 13.0089 13.668 12.7146 13.9132C12.6487 13.979 11.4179 15.1812 14.1085 16.7011L18.9544 19.5033C18.9544 19.5033 20.4686 20.6139 22.4837 19.426C24.141 18.4528 26.9146 16.8499 27.8534 16.2975C28.1259 16.1425 28.3575 15.9246 28.5289 15.6621C28.8781 15.1125 29.2016 14.1708 27.9851 13.4695L22.3463 10.2208C21.3874 9.66836 19.9419 9.60825 19.1147 10.0863Z" fill="white"/>
<path d="M20.689 18.8793C20.0703 18.8847 19.4631 18.7118 18.9401 18.3812L14.1085 15.5876C13.0065 14.9636 12.3911 14.3081 12.3138 13.6412C12.2905 13.4458 12.3119 13.2477 12.3764 13.0617C12.4408 12.8758 12.5467 12.7069 12.6859 12.5679L12.8634 12.4276C13.1091 12.2226 13.3704 12.0369 13.6448 11.8723C15.7314 10.6902 16.8821 10.0032 16.8907 9.99748L19.1176 8.7123C19.9763 8.21139 21.499 8.2715 22.4951 8.84683L28.1339 12.1013C28.3471 12.2055 28.5368 12.3522 28.6914 12.5323C28.8459 12.7125 28.9621 12.9223 29.0327 13.1489C29.0735 13.3832 29.0675 13.6232 29.0149 13.8551C28.9623 14.087 28.8643 14.3062 28.7264 14.4999C28.5439 14.7832 28.2954 15.018 28.0022 15.184C26.6541 15.9654 24.1638 17.4138 22.6325 18.3154C22.0474 18.6753 21.3758 18.8701 20.689 18.8793ZM19.2578 8.96991L17.0338 10.2522C17.0338 10.2522 15.8717 10.9478 13.7851 12.1299C13.524 12.2887 13.2743 12.4657 13.038 12.6594C12.9807 12.7081 12.9235 12.751 12.872 12.7911C12.7696 12.8976 12.6921 13.0255 12.645 13.1656C12.598 13.3057 12.5827 13.4544 12.6001 13.6012C12.6745 14.1736 13.2441 14.7633 14.2488 15.3185L19.0947 18.1208C19.1662 18.1723 20.5716 19.1684 22.4751 18.0463C24.0036 17.1447 26.4823 15.6992 27.8448 14.915C28.0953 14.7764 28.3092 14.5801 28.4688 14.3425C28.7026 14.0185 28.7984 13.615 28.735 13.2205C28.673 13.0336 28.5738 12.8612 28.4435 12.7136C28.3131 12.566 28.1543 12.4463 27.9765 12.3618L22.3463 9.10444C21.4332 8.57777 20.0564 8.53198 19.2664 8.96991H19.2578Z" fill="#0E3151"/>
<path d="M26.014 12.9858V10.049H23.9045C21.8789 9.23715 19.6202 9.22691 17.5873 10.0204H15.4062V13.0115V13.0488C15.432 13.813 15.9444 14.5715 16.9548 15.1554C19.0271 16.3519 22.3932 16.3519 24.4569 15.1554C25.4645 14.583 25.9854 13.8473 26.0112 13.0831V13.0087L26.014 12.9858Z" fill="#2A94F4"/>
<path d="M20.7098 16.1715C19.3781 16.198 18.0617 15.8837 16.8857 15.2584C15.8696 14.686 15.2942 13.8816 15.2656 13.0315V12.9457V9.8515H17.5555C19.6101 9.06351 21.8853 9.07372 23.9327 9.88012H26.1568V13.0287C26.1281 13.8874 25.5643 14.6344 24.5281 15.2327C23.3563 15.8663 22.0418 16.1895 20.7098 16.1715ZM15.5576 10.1435V13.0058C15.5833 13.7586 16.1071 14.4627 17.0345 15.0094C19.0639 16.1801 22.3642 16.1801 24.3907 15.0094C25.3353 14.4627 25.8476 13.7901 25.8734 13.0602V10.1978L23.8526 10.1749C21.863 9.38142 19.6467 9.37119 17.6499 10.1463H17.6213L15.5576 10.1435Z" fill="#0E3151"/>
<path d="M24.4614 7.83363C26.5337 9.02722 26.5337 10.9822 24.4614 12.1643C22.3891 13.3465 19.023 13.3608 16.9592 12.1643C14.8955 10.9679 14.8869 9.01577 16.9592 7.83363C19.0315 6.65149 22.3891 6.63718 24.4614 7.83363Z" fill="#2A94F4"/>
<path d="M24.479 8.21716C26.5484 9.41361 26.5484 11.3514 24.479 12.5479C22.4095 13.7443 19.0405 13.7443 16.9768 12.5479C14.9131 11.3514 14.9045 9.41361 16.9768 8.21716C19.0491 7.02071 22.4066 7.02071 24.479 8.21716Z" fill="white"/>
<path d="M20.7096 13.2034C19.378 13.2299 18.0616 12.9156 16.8856 12.2903C15.838 11.6835 15.2598 10.8591 15.2598 10.0004C15.2598 9.14175 15.8322 8.31453 16.8856 7.71058C18.9951 6.4941 22.427 6.4941 24.5337 7.71058C25.5842 8.3174 26.1624 9.14175 26.1624 10.0004C26.1624 10.8591 25.5899 11.6864 24.5337 12.2903C23.3578 12.916 22.0414 13.2303 20.7096 13.2034ZM20.7096 7.08087C19.4287 7.05516 18.1625 7.35767 17.0315 7.95961C16.0784 8.50917 15.5517 9.23334 15.5517 9.99758C15.5517 10.7618 16.0784 11.486 17.0315 12.0384C19.0609 13.2091 22.3612 13.2091 24.3877 12.0384C25.3437 11.486 25.8704 10.7618 25.8704 9.99758C25.8704 9.23334 25.3437 8.50917 24.3877 7.95961C23.2577 7.35433 21.9914 7.04883 20.7096 7.07229V7.08087Z" fill="#0E3151"/>
<path d="M23.8543 8.26865C25.5889 9.2218 25.5889 10.7732 23.8543 11.7292C22.1197 12.6852 19.3003 12.6852 17.5572 11.7292C15.814 10.7732 15.8197 9.22466 17.5572 8.26865C19.2946 7.31263 22.1169 7.31263 23.8543 8.26865Z" fill="#2A94F4"/>
<path d="M20.711 12.585C19.5909 12.6094 18.482 12.3578 17.4822 11.8523C16.5949 11.3628 16.1055 10.7073 16.1055 9.99749C16.1055 9.28763 16.5949 8.63216 17.4822 8.14556C19.2569 7.16665 22.145 7.16665 23.9196 8.14556C24.8069 8.63216 25.2964 9.29049 25.2964 9.99749C25.2964 10.7045 24.8069 11.3628 23.9196 11.8523C22.9258 12.3544 21.8243 12.606 20.711 12.585ZM20.711 7.69045C19.6466 7.67052 18.5934 7.91024 17.6425 8.38886C16.8497 8.8268 16.4146 9.3964 16.4146 9.99749C16.4146 10.5986 16.8497 11.171 17.6425 11.6061C19.3342 12.5392 22.0877 12.5392 23.7822 11.6061C24.5722 11.171 25.0102 10.5986 25.0102 9.99749C25.0102 9.3964 24.5722 8.8268 23.7822 8.38886C22.8304 7.9099 21.7763 7.67017 20.711 7.69045Z" fill="#0E3151"/>
<path d="M17.4803 10.9249C17.2879 11.03 17.1049 11.1516 16.9336 11.2884C17.0052 11.3514 17.0824 11.4144 17.1654 11.4745C17.3125 11.3622 17.4674 11.2608 17.6291 11.1711C18.5872 10.7113 19.6363 10.4726 20.699 10.4726C21.7616 10.4726 22.8107 10.7113 23.7688 11.1711C23.9342 11.2614 24.0921 11.3648 24.2411 11.4802C24.3241 11.4201 24.4014 11.36 24.4758 11.297C24.2968 11.1557 24.1052 11.0311 23.9033 10.9249C22.1487 9.93454 19.2607 9.93454 17.4803 10.9249Z" fill="#0E3151"/>
<path d="M17.0413 11.3743L18.9906 10.4383H19.8464L19.8578 7.77637L18.2607 7.97673L17.0156 8.63506L16.2656 9.85727L16.4145 10.716L17.0413 11.3743Z" fill="#0E3151"/>
<path d="M21.248 13.0459V16.0284L23.2259 15.6649L24.8861 14.8864L25.7362 13.9647L26.0997 13.2033L26.0167 10.6187L25.0864 11.7979L24.0961 12.4448L21.9092 12.9944L21.248 13.0459Z" fill="#0E3151"/>
<path d="M20.1346 13.0431V16.0113L19.2129 15.9397V12.9171L20.1346 13.0431Z" fill="#0E3151"/>
<path d="M22.1024 31.6424C21.8008 31.6514 21.5028 31.5739 21.2437 31.4192C20.7915 31.133 20.5625 30.5834 20.5625 29.7934L20.5797 20.6683C20.5797 20.634 20.3764 19.2543 22.1625 18.2353L27.8872 14.9236C28.328 14.6631 28.7087 14.6116 29.0121 14.7776C29.5674 15.081 29.6446 16.017 29.6561 16.2975V25.935C29.6513 26.4689 29.5116 26.993 29.2498 27.4584C28.9881 27.9238 28.6129 28.3155 28.1591 28.5969L23.276 31.4163V31.3992C22.9024 31.5495 22.505 31.6319 22.1024 31.6424Z" fill="#0E3151"/>
<path d="M19.3037 31.6395C18.8562 31.6284 18.415 31.5312 18.0042 31.3533L13.2756 28.6226C12.8367 28.356 12.4687 27.9872 12.203 27.5476C11.9374 27.108 11.782 26.6107 11.75 26.0981V16.3204C11.75 16.0341 11.8359 15.0953 12.394 14.789C12.6974 14.623 13.0781 14.6717 13.5218 14.935L19.2636 18.2353C21.0497 19.2543 20.8551 20.6339 20.8436 20.6911V29.7933C20.8436 30.5833 20.6146 31.13 20.1652 31.4163C19.9054 31.5717 19.6063 31.6492 19.3037 31.6395ZM18.1387 31.0842C18.1387 31.0842 19.3094 31.6166 20.0107 31.1673C20.3713 30.9383 20.5545 30.4746 20.5545 29.7905V20.6654C20.5545 20.5938 20.7234 19.4002 19.1233 18.4872L13.3758 15.1812C13.0237 14.9751 12.7404 14.9264 12.5343 15.0409C12.1021 15.2756 12.0477 16.1458 12.042 16.3204V26.0809C12.0733 26.5444 12.2145 26.9939 12.4539 27.392C12.6933 27.7902 13.0241 28.1257 13.4187 28.3708L18.1387 31.0957V31.0842Z" fill="#0E3151"/>
<path d="M24.1864 26.8394C23.9388 26.8417 23.6949 26.7786 23.4795 26.6563C22.97 26.37 22.6895 25.7518 22.6895 24.9389C22.6895 23.3102 23.8344 21.3209 25.2512 20.5051C25.9554 20.0987 26.6223 20.0357 27.1318 20.3277C27.6413 20.6196 27.9189 21.2321 27.9189 22.045C27.9189 23.6766 26.774 25.6659 25.36 26.4816C25.0066 26.7009 24.6021 26.8242 24.1864 26.8394ZM26.4248 20.3649C26.0471 20.3792 25.6799 20.4927 25.36 20.694C24.009 21.4726 22.907 23.3789 22.907 24.9389C22.907 25.6716 23.1503 26.2155 23.5882 26.4673C24.0262 26.7192 24.6158 26.6591 25.2512 26.2927C26.6023 25.5113 27.7014 23.605 27.7014 22.045C27.7014 21.3123 27.461 20.7713 27.023 20.5166C26.8401 20.4151 26.634 20.3628 26.4248 20.3649Z" fill="#2A94F4"/>
<path d="M25.4135 25.0477V25.1536C25.4165 25.1936 25.4084 25.2337 25.3903 25.2695C25.3721 25.3053 25.3445 25.3355 25.3104 25.3568C25.2446 25.394 25.2103 25.3568 25.2103 25.2709V25.165C24.8468 25.331 24.5519 25.228 24.4489 24.9074C24.4404 24.8631 24.4471 24.8173 24.4679 24.7773C24.4886 24.7373 24.5223 24.7055 24.5634 24.687L24.6092 24.6612C24.6836 24.6183 24.7208 24.6355 24.7494 24.7013C24.8267 24.8673 24.9956 24.916 25.2103 24.833V23.5879C24.7609 23.6709 24.5205 23.5879 24.5205 23.1356C24.5326 22.8884 24.6011 22.6472 24.7206 22.4304C24.8402 22.2136 25.0076 22.027 25.2103 21.8848V21.776C25.2066 21.7366 25.214 21.6969 25.2317 21.6615C25.2494 21.6261 25.2767 21.5964 25.3104 21.5757C25.3763 21.5385 25.4135 21.5757 25.4135 21.6615V21.7674C25.6997 21.6415 25.943 21.7073 26.0403 21.942C26.0531 21.9858 26.0493 22.0326 26.0298 22.0738C26.0103 22.1149 25.9764 22.1475 25.9344 22.1653L25.8743 22.1997C25.7999 22.2426 25.7627 22.2283 25.7255 22.1768C25.6886 22.1322 25.638 22.1011 25.5816 22.0881C25.5252 22.0752 25.4661 22.0812 25.4135 22.1052V23.1786C25.8772 23.0956 26.2149 23.1356 26.2149 23.6594C26.1977 23.937 26.1163 24.2068 25.9772 24.4477C25.8382 24.6885 25.6452 24.8939 25.4135 25.0477ZM25.2103 23.2186V22.2168C25.0956 22.3066 25.0012 22.4195 24.9332 22.5483C24.8651 22.677 24.8249 22.8186 24.8153 22.9639C24.8153 23.2101 24.9469 23.2587 25.2103 23.2186ZM25.4135 24.7214C25.5597 24.6209 25.6813 24.4886 25.7691 24.3345C25.8568 24.1803 25.9084 24.0082 25.9201 23.8312C25.9201 23.5449 25.777 23.4848 25.4135 23.5449V24.7214Z" fill="#2A94F4"/>
<path d="M15.1289 23.4849V20.2533L10.5492 17.6028V20.8343C10.5492 20.8343 10.6122 22.4602 9.92523 22.838L9.23828 23.2215L13.818 25.872L14.5049 25.4885C15.1919 25.1049 15.1289 23.4849 15.1289 23.4849Z" fill="#2A94F4"/>
<path d="M15.7062 24.478V21.2465L11.1264 18.5959V21.8275C11.1264 21.8275 11.1923 23.4533 10.5053 23.8311L9.81836 24.2176L14.3981 26.8652L15.0879 26.4817C15.7634 26.1038 15.7062 24.478 15.7062 24.478Z" fill="white"/>
<path d="M13.8173 26.018L9 23.2272L9.8587 22.7378C10.3711 22.4515 10.4312 21.2723 10.4312 20.8401V17.4053L15.2485 20.196V23.4934C15.2485 23.5936 15.3 25.2108 14.5644 25.6116L13.8173 26.018ZM9.49233 23.2301L13.8202 25.7375L14.447 25.3912C14.9594 25.1049 15.0195 23.9228 15.0195 23.4934V20.3248L10.6888 17.8146V20.8343C10.6888 20.9002 10.7489 22.5346 10.0047 22.9496L9.49233 23.2301Z" fill="#0E3151"/>
<path d="M11.5162 21.4068C11.4875 20.5138 12.5953 20.9574 12.8844 21.8877C13.1706 21.2923 14.2955 21.9936 14.2583 22.9782C14.2297 23.6824 13.0275 24.2319 12.8929 24.2892C12.7441 24.0688 11.5419 22.1424 11.5162 21.4068Z" fill="#2A94F4"/>
<path d="M12.7674 23.6565H12.7417H12.6987L12.6443 23.5706C12.4297 23.23 11.3019 21.4038 11.2762 20.6539C11.259 20.1702 11.5366 20.0814 11.6597 20.05C12.0175 19.9899 12.5442 20.3362 12.8046 20.8943C12.8737 20.8436 12.9538 20.8099 13.0383 20.7959C13.1229 20.782 13.2095 20.7883 13.2912 20.8142C13.5835 20.9133 13.8359 21.1043 14.0108 21.3586C14.1856 21.6129 14.2736 21.9169 14.2616 22.2253C14.2329 22.9609 13.1395 23.5019 12.8533 23.6307L12.8333 23.6565H12.7674ZM11.5166 20.6339C11.5366 21.1863 12.318 22.5745 12.8104 23.3703C13.2855 23.1441 13.9954 22.6862 14.0154 22.2024C14.0228 21.9506 13.9512 21.7028 13.8105 21.4939C13.6698 21.2849 13.4672 21.1253 13.2311 21.0375C13.1651 21.0121 13.0919 21.0121 13.0258 21.0374C12.9598 21.0628 12.9054 21.1118 12.8733 21.1749L12.7388 21.4468L12.6472 21.1605C12.4611 20.568 11.9545 20.2417 11.6998 20.2847C11.5395 20.3104 11.5137 20.4936 11.5166 20.6396V20.6339Z" fill="#0E3151"/>
<path d="M23.6956 5.69545C22.7739 5.39491 21.4057 5.80995 20.2608 6.84038C19.1159 7.87082 18.5634 9.16745 18.7609 10.1149L18.6035 10.2551L19.093 10.8018C19.8944 11.6949 21.712 11.3743 23.1575 10.0748C24.603 8.77532 25.1267 7.0064 24.3253 6.11335L23.8387 5.56665L23.6956 5.69545Z" fill="#2A94F4"/>
<path d="M23.2056 10.1034C21.74 11.4172 19.8824 11.7406 19.0609 10.8275L18.5371 10.2408L18.7088 10.0833C18.5228 9.09298 19.1325 7.77345 20.2345 6.78594C21.3365 5.79844 22.7161 5.33761 23.6693 5.64101L23.841 5.48645L24.3677 6.05892C25.2092 6.97772 24.6768 8.78957 23.2056 10.1034ZM18.6945 10.2494L19.1468 10.7503C19.9225 11.609 21.7229 11.2912 23.1311 10.0204C24.5394 8.7495 25.0747 7.00634 24.2961 6.13906L23.8467 5.64101L23.7093 5.76409H23.6778C22.7505 5.46069 21.388 5.91293 20.3118 6.88326C19.2355 7.85359 18.6316 9.15309 18.8291 10.1062V10.1377L18.6945 10.2494Z" fill="#0E3151"/>
<path d="M23.8527 5.55519C24.6513 6.44823 24.139 8.22287 22.6849 9.51664C21.2308 10.8104 19.419 11.1367 18.6175 10.2437C17.8161 9.35063 18.3313 7.57599 19.7854 6.28222C21.2394 4.98845 23.0513 4.66214 23.8527 5.55519Z" fill="#2A94F4"/>
<path d="M23.9677 5.68407C24.7663 6.57712 24.254 8.35176 22.7999 9.64553C21.3458 10.9393 19.534 11.2656 18.7354 10.3726C17.9368 9.47951 18.4492 7.70487 19.9032 6.4111C21.3573 5.11733 23.1663 4.78244 23.9677 5.68407Z" fill="white"/>
<path d="M22.7228 9.55963C21.2573 10.8734 19.3968 11.1969 18.5782 10.2809C17.7596 9.36499 18.2919 7.55314 19.7489 6.2422C21.2058 4.93125 23.0749 4.60495 23.8935 5.51803C24.7122 6.43111 24.1883 8.24582 22.7228 9.55963ZM19.8262 6.3252C18.395 7.59608 17.8826 9.33923 18.6612 10.2065C19.4397 11.0738 21.2373 10.7475 22.6484 9.47662C24.0595 8.20575 24.5891 6.4626 23.8105 5.59245C23.032 4.7223 21.2459 5.05147 19.8262 6.3252Z" fill="#0E3151"/>
<path d="M23.2601 5.95599C23.8612 6.62864 23.4146 8.01114 22.2611 9.04444C21.1076 10.0777 19.685 10.3726 19.0811 9.69991C18.4771 9.02726 18.9265 7.64476 20.08 6.61146C21.2336 5.57816 22.659 5.28334 23.2601 5.95599Z" fill="#2A94F4"/>
<path d="M22.2993 9.07591C21.1229 10.1292 19.6602 10.4212 19.0391 9.72852C18.418 9.03584 18.8674 7.61327 20.0438 6.55993C21.2202 5.5066 22.68 5.21464 23.304 5.91018C23.9279 6.60573 23.4728 8.03403 22.2993 9.07591ZM20.1182 6.64294C18.9904 7.6562 18.5439 9.00436 19.1221 9.6541C19.7003 10.3039 21.0942 10.0062 22.2249 8.99291C23.3555 7.97964 23.7991 6.63149 23.2181 5.9846C22.637 5.33772 21.2488 5.64112 20.1182 6.65152V6.64294Z" fill="#0E3151"/>
<path d="M20.0804 6.61146C18.9354 7.64476 18.4775 9.02726 19.0814 9.69991C19.1364 9.75827 19.1978 9.81013 19.2646 9.85447C18.8839 9.13317 19.3476 7.90523 20.4095 6.96639C21.4714 6.02755 22.7309 5.69838 23.4064 6.15349C23.3696 6.08254 23.3244 6.01624 23.2718 5.95599C22.6593 5.28334 21.2339 5.57816 20.0804 6.61146Z" fill="#2A94F4"/>
<path d="M23.4471 6.26507L23.3641 6.2021C22.7057 5.75558 21.4463 6.10192 20.4359 7.00641C19.4255 7.91091 18.9446 9.12453 19.3139 9.82866L19.374 9.94315L19.2337 9.90022C19.1624 9.85396 19.0971 9.79916 19.0391 9.73707C18.418 9.04152 18.8674 7.62181 20.0438 6.56848C21.2202 5.51514 22.68 5.22318 23.304 5.91873C23.3582 5.98301 23.4053 6.05308 23.4442 6.12768L23.4471 6.26507ZM20.1182 6.65148C18.9904 7.66474 18.5439 9.0129 19.1221 9.66265C18.896 8.89841 19.3826 7.78783 20.3529 6.91768C21.3232 6.04753 22.4796 5.68688 23.2152 5.99315C22.6342 5.35485 21.2488 5.64108 20.1182 6.65148Z" fill="#0E3151"/>
<path d="M19.7581 6.94922L20.0644 7.2927L19.5807 7.92527L19.2286 8.68379L19.137 9.4194L19.2629 9.85448L18.9653 9.57397L18.8164 9.05302L18.8679 8.4777L19.1542 7.75353L19.6579 7.03795L19.7581 6.94922Z" fill="#0E3151"/>
<path d="M22.8331 7.44146C22.8473 7.31722 22.8157 7.19209 22.7444 7.08939L22.5354 6.85754L22.3179 6.93196C22.2582 6.93798 22.199 6.94754 22.1405 6.96059C21.9229 7.00714 21.7197 7.1053 21.5479 7.24682C21.3247 7.45542 21.1397 7.70147 21.0012 7.97385L20.2055 8.15418C20.3038 8.01139 20.4437 7.90243 20.6062 7.84218L20.695 7.35559L20.5032 7.14092L20.2427 7.60175L20.1282 7.69907C19.9655 7.85518 19.8369 8.04326 19.7504 8.25149L19.6474 8.27439V8.23146L19.5558 8.13128L19.2695 8.37171L19.5729 8.70947L19.5987 8.5549H19.6617C19.6495 8.61808 19.6437 8.68234 19.6445 8.74668L19.53 8.79534L19.7533 9.04436C19.823 9.09833 19.9052 9.13373 19.9923 9.14724C20.0794 9.16076 20.1685 9.15195 20.2513 9.12164C20.4776 9.06917 20.6884 8.96426 20.8667 8.81537C21.0796 8.63271 21.2572 8.41247 21.3905 8.16563L22.2492 7.97385C22.1832 8.06246 22.1052 8.14146 22.0174 8.20856C21.9557 8.25453 21.8907 8.29568 21.8227 8.33164L21.7941 8.27153L21.402 8.68084L21.5966 8.89552C21.8573 8.80702 22.097 8.66574 22.3007 8.48048C22.4896 8.30951 22.639 8.09953 22.7387 7.86508L23.1079 7.78207L23.1995 7.49584L23.0077 7.28117L22.8331 7.44146ZM20.6091 8.50338C20.5434 8.5537 20.4686 8.59065 20.3887 8.61215C20.3233 8.63046 20.2534 8.62223 20.1941 8.58925C20.1687 8.57235 20.1481 8.54931 20.1341 8.52228C20.1201 8.49525 20.1131 8.46512 20.1139 8.43468L20.8209 8.27726C20.7623 8.36305 20.6909 8.43931 20.6091 8.50338ZM22.3723 7.659L21.5766 7.83932C21.6366 7.73113 21.715 7.63426 21.8084 7.55309C21.8833 7.48876 21.9727 7.44358 22.0689 7.42142C22.1084 7.40837 22.1505 7.40467 22.1917 7.41063C22.2329 7.41659 22.2722 7.43204 22.3065 7.45577C22.3359 7.48218 22.3576 7.51613 22.3692 7.55396C22.3808 7.59178 22.3819 7.63206 22.3723 7.67044V7.659Z" fill="#2A94F4"/>
<path d="M23.1578 7.81927L22.7829 7.90514C22.6791 8.13154 22.5312 8.33493 22.3478 8.50337C22.1363 8.69196 21.8891 8.83604 21.6208 8.92699H21.5864L21.3345 8.64076L21.8154 8.13699L21.8526 8.21713C21.9005 8.18995 21.9465 8.15934 21.99 8.12554C22.0291 8.09536 22.0664 8.06286 22.1016 8.02822L21.4404 8.17706C21.3065 8.42186 21.129 8.64012 20.9166 8.82108C20.7309 8.97605 20.5112 9.08491 20.2755 9.1388C20.184 9.17108 20.0859 9.17961 19.9903 9.16359C19.8946 9.14757 19.8047 9.10752 19.7287 9.04721L19.4969 8.7896L19.5255 8.70373L19.1992 8.36884L19.5856 8.05971L19.7259 8.20855C19.815 8.00426 19.9433 7.81947 20.1037 7.66471C20.1381 7.63322 20.1695 7.6046 20.2039 7.57884L20.4901 7.04644L20.7535 7.33268L20.6533 7.87652H20.6247C20.5252 7.91559 20.434 7.97286 20.3556 8.04539L20.9624 7.908C21.102 7.63803 21.2869 7.39405 21.5091 7.1867C21.6882 7.03732 21.9 6.93238 22.1274 6.88043C22.1859 6.86805 22.2452 6.85945 22.3048 6.85467L22.551 6.7688L22.7857 7.02927L22.8229 7.09796C22.8531 7.15803 22.8725 7.22295 22.8802 7.28974L23.0032 7.16666L23.258 7.45289L23.1578 7.81927ZM22.7027 7.81927L23.0691 7.73627L23.1406 7.51014L23.009 7.3613L22.7714 7.59601V7.45003C22.7857 7.33952 22.7593 7.22758 22.697 7.13518L22.6483 7.0722L22.5195 6.92909L22.322 6.99779C22.266 7.00119 22.2104 7.00981 22.156 7.02355C21.9443 7.06974 21.7475 7.16813 21.5835 7.30978C21.3659 7.51343 21.1857 7.75369 21.0511 8.01963V8.04253L20.0923 8.25721L20.1724 8.13985C20.2701 7.99684 20.4074 7.88543 20.5674 7.81927L20.6476 7.38992L20.5245 7.25253L20.3356 7.59315H20.3671L20.2955 7.65326C20.2583 7.68474 20.2182 7.71623 20.1839 7.75057C20.0263 7.90023 19.9024 8.08172 19.8203 8.28297V8.30873L19.6057 8.35739L19.6257 8.25721L19.5885 8.21713L19.4282 8.40605L19.5627 8.59496V8.51768L19.7488 8.47474L19.7316 8.56061C19.7177 8.6197 19.711 8.68025 19.7116 8.74094V8.7896L19.6343 8.82108L19.806 9.01C19.8685 9.05616 19.9416 9.08608 20.0185 9.09708C20.0954 9.10807 20.1739 9.09978 20.2468 9.07297C20.4653 9.02664 20.6695 8.92847 20.8422 8.78674C21.0511 8.61062 21.2241 8.39583 21.3517 8.15416V8.13413L22.3764 7.90228L22.2877 8.02536C22.2185 8.11755 22.1366 8.19946 22.0444 8.26865C21.9807 8.31771 21.9127 8.36083 21.8411 8.39746L21.7896 8.42608L21.7696 8.38601L21.4833 8.698L21.615 8.84684C21.8562 8.76164 22.078 8.62931 22.2676 8.45757C22.4502 8.29097 22.5947 8.08692 22.6913 7.85934L22.7027 7.81927ZM22.4165 7.72767L21.4605 7.94235L21.5234 7.83358C21.5866 7.71764 21.6699 7.61392 21.7696 7.52731C21.8512 7.45597 21.9498 7.4067 22.0558 7.3842C22.1035 7.36841 22.1543 7.36406 22.204 7.37152C22.2538 7.37898 22.301 7.39803 22.342 7.42713C22.3775 7.46017 22.4039 7.50167 22.419 7.54772C22.434 7.59378 22.4371 7.64289 22.4279 7.69047L22.4165 7.72767ZM21.6923 7.77634L22.3134 7.63608C22.3156 7.61361 22.3123 7.59094 22.3038 7.57001C22.2953 7.54908 22.282 7.53051 22.2648 7.51587C22.2373 7.49737 22.2059 7.48564 22.1731 7.48166C22.1402 7.47768 22.1069 7.48156 22.0759 7.49297C21.9893 7.51423 21.909 7.55539 21.8411 7.61318C21.7873 7.65758 21.7392 7.70854 21.698 7.76489L21.6923 7.77634ZM20.6991 8.50337L20.6447 8.5463C20.5744 8.60368 20.4923 8.64475 20.4043 8.66652C20.3647 8.67762 20.3234 8.6808 20.2826 8.67589C20.2419 8.67098 20.2025 8.65807 20.1667 8.6379C20.133 8.61677 20.1054 8.58712 20.0868 8.55194C20.0682 8.51676 20.0592 8.4773 20.0608 8.43753V8.38888L20.951 8.19137L20.8708 8.30873C20.8204 8.3793 20.7628 8.44452 20.6991 8.50337ZM20.5789 8.45757C20.6144 8.42941 20.6478 8.39881 20.679 8.36598L20.1781 8.47761C20.1857 8.5048 20.203 8.52824 20.2268 8.54344C20.2754 8.56332 20.3299 8.56332 20.3785 8.54344C20.4515 8.52423 20.5197 8.49012 20.5789 8.44326V8.45757Z" fill="#0E3151"/>
<path d="M22.0613 7.75056L21.2026 7.94234C21.0693 8.18918 20.8918 8.40942 20.6788 8.59208C20.4995 8.74101 20.2877 8.8459 20.0606 8.89836C19.978 8.92802 19.8892 8.93622 19.8026 8.92221C19.716 8.90819 19.6344 8.87241 19.5654 8.81821C19.5082 8.75257 19.4696 8.67288 19.4535 8.58735C19.4374 8.50181 19.4444 8.41354 19.4738 8.33161L19.2734 8.37741L19.3622 8.09118L19.5625 8.04538C19.6476 7.83785 19.7754 7.65055 19.9377 7.4957C20.0999 7.34085 20.293 7.2219 20.5042 7.14661L20.4126 7.63321C20.2508 7.6933 20.1117 7.80236 20.0148 7.9452L20.8105 7.76487C20.948 7.49268 21.1321 7.24664 21.3544 7.03784C21.5278 6.89731 21.7316 6.79929 21.9497 6.75161C22.0414 6.71954 22.1396 6.71008 22.2357 6.72403C22.3319 6.73798 22.4233 6.77494 22.5021 6.83176C22.5678 6.90063 22.6145 6.98538 22.6375 7.0777C22.6606 7.17002 22.6593 7.26675 22.6338 7.35842L23.0145 7.27255L22.9229 7.55878L22.5536 7.64179C22.4548 7.8775 22.3053 8.08857 22.1157 8.26005C21.9108 8.44512 21.6702 8.58636 21.4087 8.67509L21.5146 8.16846C21.6289 8.12327 21.736 8.06155 21.8324 7.98527C21.9199 7.9188 21.997 7.8397 22.0613 7.75056ZM19.9232 8.23143C19.9219 8.26196 19.9286 8.29229 19.9426 8.31942C19.9567 8.34654 19.9776 8.3695 20.0033 8.386C20.0327 8.40247 20.065 8.41298 20.0984 8.41691C20.1318 8.42084 20.1656 8.41812 20.198 8.4089C20.2778 8.3874 20.3527 8.35044 20.4184 8.30013C20.5 8.23672 20.5705 8.16033 20.6273 8.074L19.9232 8.23143ZM22.1787 7.45574C22.1884 7.4178 22.1873 7.37792 22.1757 7.34053C22.1641 7.30314 22.1423 7.2697 22.1129 7.24393C22.0782 7.22224 22.0394 7.20821 21.9989 7.20278C21.9584 7.19735 21.9172 7.20064 21.8781 7.21245C21.7819 7.2346 21.6926 7.27978 21.6177 7.34411C21.5231 7.42414 21.4445 7.52124 21.3858 7.63034L22.1787 7.45574Z" fill="#2A94F4"/>
<path d="M22.1378 7.86218L21.2791 8.05396C21.1458 8.3008 20.9683 8.52104 20.7553 8.70371C20.5767 8.85206 20.366 8.95691 20.1399 9.00998C20.0616 9.03735 19.9771 9.0422 19.8962 9.02399C19.8152 9.00577 19.741 8.96522 19.682 8.90693C19.6188 8.84972 19.573 8.77592 19.5497 8.69395C19.5264 8.61197 19.5266 8.5251 19.5503 8.44324L19.4043 8.40316L19.4387 8.19994L19.6419 8.15414C19.7284 7.94591 19.857 7.75782 20.0197 7.60172C20.1796 7.46858 20.3659 7.37101 20.5664 7.31548L20.492 7.75055C20.3295 7.8108 20.1895 7.91977 20.0913 8.06255L20.887 7.88222C21.0247 7.60937 21.2098 7.36318 21.4337 7.15519C21.6051 7.01319 21.8084 6.91497 22.0262 6.86896C22.1181 6.83599 22.2166 6.8258 22.3134 6.83926C22.4101 6.85272 22.5021 6.88943 22.5815 6.94624C22.6469 7.01696 22.6925 7.1037 22.7136 7.1977C22.7347 7.29169 22.7306 7.38959 22.7017 7.48149L23.0652 7.4357L22.9908 7.68472L22.6216 7.76773C22.5219 8.00218 22.3725 8.21216 22.1836 8.38313C22.0002 8.55539 21.78 8.68362 21.5396 8.75809L21.5825 8.29153C21.6968 8.24634 21.8039 8.18462 21.9003 8.10834C21.9917 8.03905 22.0718 7.95601 22.1378 7.86218ZM19.9997 8.34306C19.9989 8.37349 20.0058 8.40363 20.0198 8.43065C20.0339 8.45768 20.0545 8.48072 20.0798 8.49762C20.1391 8.5306 20.2091 8.53883 20.2745 8.52052C20.3543 8.49902 20.4292 8.46207 20.4949 8.41175C20.5764 8.34835 20.647 8.27195 20.7038 8.18563L19.9997 8.34306ZM22.258 7.56736C22.2665 7.52983 22.2649 7.49071 22.2533 7.454C22.2418 7.41729 22.2207 7.38431 22.1922 7.35842C22.1575 7.33583 22.1182 7.32106 22.0772 7.31513C22.0362 7.3092 21.9944 7.31225 21.9546 7.32407C21.8584 7.34622 21.769 7.3914 21.6942 7.45573C21.6 7.53613 21.5214 7.63316 21.4623 7.74197L22.258 7.56736Z" fill="white"/>
<path d="M22.9621 7.60466L22.59 7.68766C22.4865 7.91981 22.3365 8.12827 22.1492 8.3002C21.9389 8.48878 21.6926 8.63288 21.4251 8.72383H21.3879L21.3306 8.65513L21.385 8.48053L21.4623 8.11129H21.4909C21.6456 8.04853 21.7866 7.95616 21.9059 7.83936L21.2447 7.98821C21.1091 8.23186 20.9319 8.44984 20.7209 8.63223C20.5342 8.7856 20.3149 8.89427 20.0798 8.94995C19.988 8.98275 19.8893 8.99155 19.7931 8.97552C19.6969 8.95949 19.6064 8.91916 19.5302 8.85835C19.4739 8.79785 19.4335 8.72437 19.4126 8.64447C19.3916 8.56456 19.3907 8.48071 19.41 8.40038L19.1953 8.44904L19.3241 8.03686L19.5274 7.99107C19.6171 7.78643 19.7465 7.60158 19.908 7.44723C20.0775 7.27684 20.2775 7.13992 20.4977 7.04364L20.5692 7.12378L20.4691 7.66763H20.4404C20.3401 7.7049 20.2486 7.76238 20.1714 7.8365L20.7782 7.69911C20.917 7.42868 21.102 7.18457 21.3249 6.97781C21.5036 6.82787 21.7156 6.72286 21.9432 6.67154C22.0434 6.6376 22.1502 6.6282 22.2548 6.64414C22.3594 6.66008 22.4587 6.70089 22.5442 6.76313C22.608 6.82885 22.655 6.9089 22.6814 6.99656C22.7078 7.08421 22.7128 7.17692 22.6959 7.2669L23.0108 7.17245L23.0738 7.24114L22.9621 7.60466ZM22.5099 7.60466L22.8763 7.52165L22.9364 7.33274L22.5585 7.43864V7.35563C22.5853 7.27305 22.5898 7.18488 22.5718 7.09998C22.5537 7.01508 22.5136 6.93643 22.4555 6.8719C22.382 6.82337 22.2983 6.79244 22.211 6.78151C22.1236 6.77059 22.0349 6.77997 21.9517 6.80893C21.7405 6.85636 21.544 6.95461 21.3793 7.09516C21.1618 7.30006 20.9817 7.54123 20.8469 7.80788V7.82792L19.8851 8.04545L19.9681 7.9281C20.0644 7.78379 20.2021 7.67203 20.3631 7.60752L20.4347 7.2211C20.2662 7.30424 20.1124 7.41447 19.9796 7.54741C19.8217 7.6979 19.6977 7.88039 19.6161 8.08266V8.10842L19.4157 8.15422L19.3671 8.31738L19.5588 8.27444L19.5388 8.36031C19.5127 8.4331 19.5059 8.5114 19.5189 8.58761C19.532 8.66383 19.5644 8.73539 19.6132 8.79538C19.6764 8.84252 19.7502 8.87321 19.8282 8.8847C19.9061 8.8962 19.9857 8.88812 20.0597 8.86122C20.2778 8.81354 20.4817 8.71552 20.6551 8.57498C20.8634 8.39822 21.0363 8.18357 21.1646 7.94241V7.92237L22.1864 7.69053L22.1006 7.81074C22.0315 7.90385 21.9496 7.98672 21.8573 8.0569C21.7644 8.12913 21.6624 8.18879 21.5539 8.23437L21.4766 8.61219C21.6942 8.52609 21.8948 8.40204 22.0691 8.24582C22.2502 8.0779 22.3945 7.87418 22.4927 7.64759L22.5099 7.60466ZM22.2237 7.51306L21.2676 7.72773L21.3306 7.61897C21.3921 7.50109 21.4756 7.39613 21.5768 7.30984C21.6594 7.24054 21.7576 7.1924 21.863 7.16958C21.9107 7.15356 21.9615 7.1491 22.0113 7.15656C22.0611 7.16403 22.1083 7.18321 22.1492 7.21252C22.1842 7.24528 22.2104 7.28629 22.2254 7.3318C22.2404 7.37731 22.2437 7.42585 22.2351 7.47299L22.2237 7.51306ZM21.4995 7.56172L22.1206 7.42147C22.1223 7.39903 22.1188 7.37651 22.1104 7.35566C22.1019 7.3348 22.0888 7.31618 22.0719 7.30125C22.0444 7.28296 22.013 7.27136 21.9802 7.26739C21.9474 7.26341 21.9141 7.26717 21.883 7.27835C21.7952 7.29845 21.7137 7.33972 21.6455 7.39857C21.592 7.44245 21.5448 7.4935 21.5052 7.55027L21.4995 7.56172ZM20.5005 8.31165L20.4461 8.35458C20.3742 8.41098 20.2914 8.4519 20.2029 8.4748C20.1638 8.48582 20.1229 8.48897 20.0826 8.48405C20.0423 8.47914 20.0034 8.46627 19.9681 8.44618C19.9348 8.42464 19.9076 8.3949 19.889 8.35982C19.8705 8.32474 19.8613 8.28549 19.8622 8.24582V8.19715L20.7524 7.99679L20.6694 8.11701C20.6211 8.18324 20.5665 8.24459 20.5063 8.3002L20.5005 8.31165ZM19.9796 8.28589C19.9871 8.31308 20.0045 8.33652 20.0283 8.35172C20.0769 8.3713 20.1313 8.3713 20.18 8.35172C20.2519 8.33356 20.3192 8.3004 20.3775 8.2544C20.4136 8.22699 20.4471 8.19633 20.4776 8.16281L19.9796 8.28589Z" fill="#0E3151"/>
<path d="M22.9688 9.24476L23.4668 9.80006L23.9963 9.14172L24.4371 8.43187L24.7033 7.48157L24.6575 6.66581L24.4743 6.25078L24.0765 5.82715L24.2797 6.64005L24.0536 7.56172L23.4611 8.66085L22.9688 9.24476Z" fill="#0E3151"/>
<path d="M22.5946 9.60547L23.0811 10.1522L22.8121 10.3583L22.2969 9.78579L22.5946 9.60547Z" fill="#0E3151"/>
</svg>
