<svg width="18" height="18" viewBox="0 0 18 18" fill="none" xmlns="http://www.w3.org/2000/svg">
<path d="M9 17.0625C4.5525 17.0625 0.9375 13.4475 0.9375 9C0.9375 4.5525 4.5525 0.9375 9 0.9375C13.4475 0.9375 17.0625 4.5525 17.0625 9C17.0625 13.4475 13.4475 17.0625 9 17.0625ZM9 2.0625C5.175 2.0625 2.0625 5.175 2.0625 9C2.0625 12.825 5.175 15.9375 9 15.9375C12.825 15.9375 15.9375 12.825 15.9375 9C15.9375 5.175 12.825 2.0625 9 2.0625Z" fill="#EF4444"/>
<path d="M11.7825 11.9474C11.685 11.9474 11.5875 11.9249 11.4975 11.8649L9.17248 10.4774C8.59498 10.1324 8.16748 9.37495 8.16748 8.70745V5.63245C8.16748 5.32495 8.42248 5.06995 8.72998 5.06995C9.03748 5.06995 9.29248 5.32495 9.29248 5.63245V8.70745C9.29248 8.97745 9.51748 9.37495 9.74998 9.50995L12.075 10.8974C12.345 11.0549 12.4275 11.3999 12.27 11.6699C12.1575 11.8499 11.97 11.9474 11.7825 11.9474Z" fill="#EF4444"/>
</svg>
