<svg width="13" height="14" viewBox="0 0 13 14" fill="none" xmlns="http://www.w3.org/2000/svg">
<path d="M12.1115 4.97962L11.9544 3.47921C11.7269 1.84337 10.9848 1.17712 9.39773 1.17712H8.11939H7.31773H5.67106H4.86939H3.56939C1.97689 1.17712 1.24023 1.84337 1.00731 3.49546L0.86106 4.98504C0.806894 5.56462 0.963977 6.12796 1.30523 6.56671C1.71689 7.10296 2.35064 7.40629 3.05481 7.40629C3.73731 7.40629 4.39273 7.06504 4.80439 6.51796C5.17273 7.06504 5.80106 7.40629 6.49981 7.40629C7.19856 7.40629 7.81064 7.08129 8.18439 6.53962C8.60148 7.07587 9.24606 7.40629 9.91773 7.40629C10.6381 7.40629 11.2881 7.08671 11.6944 6.52337C12.0194 6.09004 12.1656 5.54296 12.1115 4.97962Z" fill="#EF4444"/>
<path d="M6.14786 9.52422C5.45994 9.59463 4.93994 10.1796 4.93994 10.873V12.3571C4.93994 12.5034 5.05911 12.6226 5.20536 12.6226H7.78911C7.93536 12.6226 8.05452 12.5034 8.05452 12.3571V11.0626C8.05994 9.93047 7.39369 9.39422 6.14786 9.52422Z" fill="#EF4444"/>
<path d="M11.5756 8.30004V9.91421C11.5756 11.4092 10.3623 12.6225 8.86731 12.6225C8.72106 12.6225 8.60189 12.5034 8.60189 12.3571V11.0625C8.60189 10.3692 8.39064 9.82754 7.97897 9.45921C7.61605 9.12879 7.12314 8.96629 6.51105 8.96629C6.37564 8.96629 6.24022 8.97171 6.09397 8.98796C5.1298 9.08546 4.39855 9.89796 4.39855 10.873V12.3571C4.39855 12.5034 4.27939 12.6225 4.13314 12.6225C2.63814 12.6225 1.4248 11.4092 1.4248 9.91421V8.31088C1.4248 7.93171 1.79855 7.67713 2.15064 7.80171C2.29689 7.85046 2.44314 7.88838 2.5948 7.91004C2.6598 7.92088 2.73022 7.93171 2.79522 7.93171C2.88189 7.94254 2.96855 7.94796 3.05522 7.94796C3.68355 7.94796 4.30105 7.71504 4.78855 7.31421C5.25439 7.71504 5.86105 7.94796 6.50022 7.94796C7.1448 7.94796 7.74064 7.72588 8.20647 7.32504C8.69397 7.72046 9.30064 7.94796 9.91814 7.94796C10.0156 7.94796 10.1131 7.94254 10.2052 7.93171C10.2702 7.92629 10.3298 7.92088 10.3894 7.91004C10.5573 7.88838 10.709 7.83963 10.8606 7.79088C11.2127 7.67171 11.5756 7.93171 11.5756 8.30004Z" fill="#EF4444"/>
</svg>
