<svg width="20" height="20" viewBox="0 0 20 20" fill="none" xmlns="http://www.w3.org/2000/svg">
<path opacity="0.4" d="M14.167 6.45842C14.0087 6.45842 13.8503 6.40008 13.7253 6.27508C13.4837 6.03341 13.4837 5.63342 13.7253 5.39175L15.4337 3.68341C13.967 2.43341 12.0753 1.66675 10.0003 1.66675C5.40033 1.66675 1.66699 5.40008 1.66699 10.0001C1.66699 14.6001 5.40033 18.3334 10.0003 18.3334C14.6003 18.3334 18.3337 14.6001 18.3337 10.0001C18.3337 7.92508 17.567 6.03342 16.317 4.56675L14.6087 6.27508C14.4837 6.40008 14.3253 6.45842 14.167 6.45842Z" fill="#525252"/>
<path d="M11.4587 9.85L10.6253 9.55833V7.70833H10.692C11.117 7.70833 11.4587 8.08333 11.4587 8.54167C11.4587 8.88333 11.742 9.16667 12.0837 9.16667C12.4253 9.16667 12.7087 8.88333 12.7087 8.54167C12.7087 7.39167 11.8086 6.45833 10.692 6.45833H10.6253V6.25C10.6253 5.90833 10.342 5.625 10.0003 5.625C9.65866 5.625 9.37533 5.90833 9.37533 6.25V6.45833H9.12534C8.117 6.45833 7.29199 7.30833 7.29199 8.35833C7.29199 9.575 8.00033 9.96667 8.54199 10.1583L9.37533 10.45V12.3H9.30867C8.88367 12.3 8.54199 11.925 8.54199 11.4667C8.54199 11.125 8.25866 10.8417 7.91699 10.8417C7.57533 10.8417 7.29199 11.125 7.29199 11.4667C7.29199 12.6167 8.192 13.55 9.30867 13.55H9.37533V13.7583C9.37533 14.1 9.65866 14.3833 10.0003 14.3833C10.342 14.3833 10.6253 14.1 10.6253 13.7583V13.55H10.8753C11.8836 13.55 12.7087 12.7 12.7087 11.65C12.7087 10.425 12.0003 10.0333 11.4587 9.85ZM8.95032 8.96667C8.66698 8.86667 8.54199 8.80833 8.54199 8.35C8.54199 7.99166 8.80867 7.7 9.12534 7.7H9.37533V9.10833L8.95032 8.96667ZM10.8753 12.2917H10.6253V10.8833L11.0503 11.0333C11.3337 11.1333 11.4587 11.1917 11.4587 11.65C11.4587 12 11.192 12.2917 10.8753 12.2917Z" fill="#525252"/>
<path d="M18.9079 1.42511C18.8412 1.27511 18.7246 1.15012 18.5662 1.08345C18.4912 1.05012 18.4079 1.03345 18.3245 1.03345H14.9912C14.6495 1.03345 14.3662 1.31678 14.3662 1.65845C14.3662 2.00011 14.6495 2.28345 14.9912 2.28345H16.8162L15.4246 3.67512C15.7412 3.95012 16.0329 4.24178 16.3079 4.55845L17.6995 3.16679V5.00012C17.6995 5.34178 17.9829 5.62512 18.3245 5.62512C18.6662 5.62512 18.9495 5.34178 18.9495 5.00012V1.66678C18.9579 1.58345 18.9412 1.50845 18.9079 1.42511Z" fill="#525252"/>
</svg>
