<svg width="33" height="33" viewBox="0 0 33 33" fill="none" xmlns="http://www.w3.org/2000/svg">
<path d="M21.2888 28.2112C27.7567 25.5665 30.856 18.1792 28.2112 11.7113C25.5664 5.24333 18.1791 2.14406 11.7112 4.78884C5.24329 7.43362 2.14402 14.8209 4.78879 21.2888C7.43357 27.7568 14.8209 30.856 21.2888 28.2112Z" fill="#BE4848"/>
<path d="M22.4964 22.5066C25.8057 19.1973 25.8057 13.832 22.4964 10.5227C19.1871 7.21341 13.8218 7.2134 10.5125 10.5227C7.20321 13.8319 7.2032 19.1973 10.5125 22.5066C13.8217 25.8159 19.1871 25.8159 22.4964 22.5066Z" fill="white"/>
<path d="M16.4996 20.6577C18.7884 20.6577 20.6438 18.8023 20.6438 16.5136C20.6438 14.2248 18.7884 12.3694 16.4996 12.3694C14.2109 12.3694 12.3555 14.2248 12.3555 16.5136C12.3555 18.8023 14.2109 20.6577 16.4996 20.6577Z" fill="#BE4848"/>
<path d="M25.3182 7.2491L24.9746 4.54816L27.7237 1.60669L27.923 4.52067L25.3182 7.2491Z" fill="#455A64"/>
<path d="M31.2144 5.09862L28.4309 4.87183L25.6338 7.55901L28.4309 7.86141L31.2144 5.09862Z" fill="#455A64"/>
<path d="M28.0323 4.11502L24.0943 8.05302L17.8471 14.3002L16.4108 15.7366C16.354 15.8324 16.3308 15.9444 16.3448 16.0549C16.3587 16.1654 16.409 16.2681 16.4878 16.3468C16.5665 16.4256 16.6692 16.4759 16.7797 16.4898C16.8902 16.5038 17.0022 16.4806 17.098 16.4239L21.0635 12.479L27.3107 6.23179L28.7471 4.79541C29.2007 4.34182 28.4928 3.64081 28.0598 4.10815L28.0323 4.11502Z" fill="#263238"/>
</svg>
