<svg width="20" height="20" viewBox="0 0 20 20" fill="none" xmlns="http://www.w3.org/2000/svg">
<path fill-rule="evenodd" clip-rule="evenodd" d="M2.5 4.16671C2.5 3.70647 2.8731 3.33337 3.33333 3.33337H9.16667C9.6269 3.33337 10 3.70647 10 4.16671C10 4.62694 9.6269 5.00004 9.16667 5.00004H7.08333V15H9.16667C9.6269 15 10 15.3731 10 15.8334C10 16.2936 9.6269 16.6667 9.16667 16.6667H3.33333C2.8731 16.6667 2.5 16.2936 2.5 15.8334C2.5 15.3731 2.8731 15 3.33333 15H5.41667V5.00004H3.33333C2.8731 5.00004 2.5 4.62694 2.5 4.16671Z" fill="#A3A3A3"/>
<path d="M12.7895 7.09444C12.9278 6.52413 13.7389 6.52413 13.8772 7.09444L14.2577 8.6637C14.3071 8.86731 14.4661 9.02629 14.6697 9.07567L16.2389 9.45619C16.8092 9.59448 16.8092 10.4056 16.2389 10.5439L14.6697 10.9244C14.4661 10.9738 14.3071 11.1328 14.2577 11.3364L13.8772 12.9056C13.7389 13.476 12.9278 13.476 12.7895 12.9056L12.409 11.3364C12.3596 11.1328 12.2006 10.9738 11.997 10.9244L10.4277 10.5439C9.85742 10.4056 9.85742 9.59448 10.4277 9.45619L11.997 9.07567C12.2006 9.0263 12.3596 8.86731 12.409 8.6637L12.7895 7.09444Z" fill="#A3A3A3"/>
<path fill-rule="evenodd" clip-rule="evenodd" d="M13.3333 7.70126L13.0616 8.82195C12.953 9.26991 12.6032 9.61967 12.1552 9.72829L11.0345 10L12.1552 10.2718C12.6032 10.3804 12.953 10.7302 13.0616 11.1781L13.3333 12.2988L13.6051 11.1781C13.7137 10.7302 14.0635 10.3804 14.5114 10.2718L15.6321 10L14.5114 9.72829C14.0635 9.61967 13.7137 9.26991 13.6051 8.82195L13.3333 7.70126ZM13.8772 7.09444C13.7389 6.52413 12.9278 6.52413 12.7895 7.09444L12.409 8.6637C12.3596 8.86731 12.2006 9.0263 11.997 9.07567L10.4277 9.45619C9.85742 9.59448 9.85742 10.4056 10.4277 10.5439L11.997 10.9244C12.2006 10.9738 12.3596 11.1328 12.409 11.3364L12.7895 12.9056C12.9278 13.476 13.7389 13.476 13.8772 12.9056L14.2577 11.3364C14.3071 11.1328 14.4661 10.9738 14.6697 10.9244L16.2389 10.5439C16.8092 10.4056 16.8092 9.59448 16.2389 9.45619L14.6697 9.07567C14.4661 9.02629 14.3071 8.86731 14.2577 8.6637L13.8772 7.09444Z" fill="#A3A3A3"/>
<path d="M17.5 4.16671C17.5 4.62694 17.1269 5.00004 16.6667 5.00004C16.2064 5.00004 15.8333 4.62694 15.8333 4.16671C15.8333 3.70647 16.2064 3.33337 16.6667 3.33337C17.1269 3.33337 17.5 3.70647 17.5 4.16671Z" fill="#A3A3A3"/>
<path d="M17.5 15.8334C17.5 16.2936 17.1269 16.6667 16.6667 16.6667C16.2064 16.6667 15.8333 16.2936 15.8333 15.8334C15.8333 15.3731 16.2064 15 16.6667 15C17.1269 15 17.5 15.3731 17.5 15.8334Z" fill="#A3A3A3"/>
</svg>
