<svg width="246" height="246" viewBox="0 0 246 246" fill="none" xmlns="http://www.w3.org/2000/svg">
<path d="M210.674 189.279L212.247 190.223C212.347 190.273 212.458 190.299 212.57 190.299C212.681 190.299 212.792 190.273 212.892 190.223L214.465 189.342C214.654 189.232 214.685 189.075 214.465 188.981L212.892 188.053C212.793 187.999 212.682 187.971 212.57 187.971C212.457 187.971 212.346 187.999 212.247 188.053L210.674 188.933C210.517 188.965 210.501 189.122 210.674 189.279Z" fill="#061749"/>
<path d="M208.283 185.694L206.71 186.574C206.521 186.685 206.49 186.858 206.71 186.952L208.283 187.88C208.383 187.93 208.494 187.956 208.605 187.956C208.717 187.956 208.828 187.93 208.928 187.88L210.501 186.999L208.283 185.694Z" fill="#061749"/>
<path d="M202.825 184.294C202.636 184.404 202.62 184.577 202.825 184.671L204.398 185.599C204.498 185.649 204.608 185.675 204.72 185.675C204.832 185.675 204.942 185.649 205.043 185.599L206.615 184.734L202.825 184.294Z" fill="#061749"/>
<path d="M198.877 182.013C198.689 182.123 198.673 182.296 198.877 182.391L200.45 183.319C200.551 183.369 200.661 183.395 200.773 183.395C200.885 183.395 200.995 183.369 201.095 183.319L198.877 182.013Z" fill="#061749"/>
<path d="M194.929 179.748C194.741 179.859 194.725 180.016 194.929 180.11L196.502 181.038C196.602 181.088 196.713 181.114 196.825 181.114C196.937 181.114 197.047 181.088 197.147 181.038L194.929 179.748Z" fill="#061749"/>
<path d="M192.507 176.587L190.934 177.467C190.745 177.577 190.729 177.735 190.934 177.829L192.507 178.773C192.607 178.823 192.717 178.849 192.829 178.849C192.941 178.849 193.051 178.823 193.151 178.773L192.507 176.587Z" fill="#061749"/>
<path d="M188.559 174.306L186.986 175.186C186.797 175.296 186.766 175.469 186.986 175.564L188.559 176.492C188.659 176.542 188.77 176.568 188.881 176.568C188.993 176.568 189.104 176.542 189.204 176.492L190.777 175.611L188.559 174.306Z" fill="#061749"/>
<path d="M184.611 171.978L183.038 172.843C182.85 172.953 182.818 173.126 183.038 173.22L184.611 174.148C184.711 174.198 184.822 174.224 184.934 174.224C185.046 174.224 185.156 174.198 185.256 174.148L186.829 173.283L184.611 171.978Z" fill="#061749"/>
<path d="M180.663 169.76L179.09 170.626C178.902 170.736 178.886 170.909 179.09 171.003L180.663 171.931C180.763 171.981 180.874 172.007 180.986 172.007C181.098 172.007 181.208 171.981 181.308 171.931L182.881 171.066L180.663 169.76Z" fill="#061749"/>
<path d="M176.731 167.479L175.158 168.36C174.97 168.47 174.954 168.628 175.158 168.722L176.731 169.65C176.829 169.7 176.936 169.726 177.046 169.726C177.155 169.726 177.263 169.7 177.36 169.65L178.933 168.769L176.731 167.479Z" fill="#061749"/>
<path d="M172.783 165.199L171.211 166.08C171.022 166.19 171.006 166.347 171.211 166.442L172.783 167.37C172.882 167.423 172.993 167.452 173.106 167.452C173.218 167.452 173.329 167.423 173.428 167.37L175.001 166.489L172.783 165.199Z" fill="#061749"/>
<path d="M168.835 162.918L167.262 163.799C167.058 163.909 167.042 164.082 167.262 164.176L168.835 165.104C168.935 165.154 169.046 165.18 169.158 165.18C169.27 165.18 169.38 165.154 169.48 165.104L171.053 164.224L168.835 162.918Z" fill="#061749"/>
<path d="M164.887 160.637L163.314 161.518C163.125 161.628 163.094 161.801 163.314 161.895L164.887 162.823C164.987 162.873 165.098 162.899 165.21 162.899C165.321 162.899 165.432 162.873 165.532 162.823L167.105 161.943L164.887 160.637Z" fill="#061749"/>
<path d="M206.93 191.387L208.503 192.315C208.603 192.365 208.714 192.391 208.825 192.391C208.937 192.391 209.048 192.365 209.148 192.315L210.721 191.45C210.91 191.34 210.941 191.167 210.721 191.073L209.148 190.145C209.048 190.095 208.937 190.069 208.825 190.069C208.714 190.069 208.603 190.095 208.503 190.145L206.93 191.01C206.773 191.12 206.757 191.293 206.93 191.387Z" fill="#061749"/>
<path d="M210.863 193.668L212.436 194.596C212.536 194.646 212.647 194.672 212.758 194.672C212.87 194.672 212.981 194.646 213.081 194.596L214.654 193.716C214.843 193.606 214.858 193.448 214.654 193.354L213.081 192.426C212.981 192.376 212.87 192.35 212.758 192.35C212.647 192.35 212.536 192.376 212.436 192.426L210.863 193.307C210.722 193.401 210.706 193.574 210.863 193.668Z" fill="#061749"/>
<path d="M168.331 148.652L169.904 149.58C170.002 149.63 170.109 149.656 170.219 149.656C170.328 149.656 170.436 149.63 170.533 149.58L172.106 148.699C172.295 148.589 172.311 148.432 172.106 148.337L170.533 147.409C170.433 147.36 170.323 147.334 170.211 147.334C170.099 147.334 169.989 147.36 169.888 147.409L168.316 148.29C168.19 148.385 168.174 148.558 168.331 148.652Z" fill="#061749"/>
<path d="M164.588 150.807L166.161 151.735C166.261 151.785 166.371 151.811 166.483 151.811C166.595 151.811 166.706 151.785 166.806 151.735L168.379 150.87C168.567 150.76 168.583 150.587 168.379 150.492L166.806 149.564C166.708 149.515 166.601 149.489 166.491 149.489C166.382 149.489 166.274 149.515 166.177 149.564L164.604 150.429C164.446 150.539 164.431 150.712 164.588 150.807Z" fill="#061749"/>
<path d="M168.536 153.103L170.109 154.031C170.209 154.081 170.32 154.107 170.432 154.107C170.543 154.107 170.654 154.081 170.754 154.031L172.327 153.166C172.516 153.056 172.531 152.883 172.327 152.789L170.754 151.861C170.654 151.811 170.543 151.785 170.432 151.785C170.32 151.785 170.209 151.811 170.109 151.861L168.536 152.726C168.395 152.82 168.363 152.993 168.536 153.103Z" fill="#061749"/>
<path d="M168.128 144.201L169.701 145.129C169.8 145.183 169.911 145.211 170.023 145.211C170.136 145.211 170.247 145.183 170.346 145.129L171.919 144.248C172.107 144.138 172.139 143.965 171.919 143.871L170.346 142.943C170.245 142.893 170.135 142.867 170.023 142.867C169.911 142.867 169.801 142.893 169.701 142.943L168.128 143.824C167.986 143.949 167.97 144.107 168.128 144.201Z" fill="#061749"/>
<path d="M202.983 189.107L204.555 190.035C204.657 190.081 204.766 190.105 204.878 190.105C204.989 190.105 205.099 190.081 205.2 190.035L206.773 189.154C206.978 189.044 206.993 188.871 206.773 188.776L205.2 187.848C205.1 187.799 204.99 187.773 204.878 187.773C204.766 187.773 204.656 187.799 204.555 187.848L202.983 188.729C202.841 188.855 202.809 189.012 202.983 189.107Z" fill="#061749"/>
<path d="M199.035 186.826L200.608 187.754C200.708 187.804 200.818 187.83 200.93 187.83C201.042 187.83 201.152 187.804 201.253 187.754L202.825 186.873C203.014 186.763 203.03 186.59 202.825 186.496L201.253 185.568C201.152 185.518 201.042 185.492 200.93 185.492C200.818 185.492 200.708 185.518 200.608 185.568L199.035 186.448C198.893 186.574 198.862 186.731 199.035 186.826Z" fill="#061749"/>
<path d="M195.086 184.561L196.659 185.489C196.759 185.539 196.87 185.565 196.982 185.565C197.094 185.565 197.204 185.539 197.304 185.489L198.877 184.608C199.066 184.498 199.081 184.341 198.877 184.247L197.304 183.319C197.205 183.265 197.094 183.237 196.982 183.237C196.869 183.237 196.758 183.265 196.659 183.319L195.086 184.199C194.945 184.294 194.929 184.451 195.086 184.561Z" fill="#061749"/>
<path d="M191.139 182.28L192.712 183.208C192.812 183.258 192.922 183.284 193.034 183.284C193.146 183.284 193.257 183.258 193.357 183.208L194.93 182.328C195.118 182.217 195.134 182.06 194.93 181.966L193.357 181.038C193.257 180.988 193.146 180.962 193.034 180.962C192.922 180.962 192.812 180.988 192.712 181.038L191.139 181.919C190.997 182.013 190.982 182.186 191.139 182.28Z" fill="#061749"/>
<path d="M187.19 180L188.763 180.928C188.863 180.978 188.974 181.004 189.086 181.004C189.198 181.004 189.308 180.978 189.408 180.928L190.981 180.063C191.17 179.953 191.201 179.78 190.981 179.686L189.408 178.758C189.308 178.708 189.198 178.682 189.086 178.682C188.974 178.682 188.863 178.708 188.763 178.758L187.19 179.623C187.049 179.733 187.033 179.843 187.19 180Z" fill="#061749"/>
<path d="M183.259 177.719L184.832 178.647C184.932 178.697 185.042 178.723 185.154 178.723C185.266 178.723 185.376 178.697 185.477 178.647L187.049 177.782C187.238 177.672 187.27 177.499 187.049 177.405L185.477 176.477C185.376 176.427 185.266 176.401 185.154 176.401C185.042 176.401 184.932 176.427 184.832 176.477L183.259 177.342C183.101 177.452 183.086 177.625 183.259 177.719Z" fill="#061749"/>
<path d="M179.311 175.438L180.884 176.366C180.984 176.416 181.094 176.442 181.206 176.442C181.318 176.442 181.428 176.416 181.528 176.366L183.101 175.486C183.306 175.376 183.322 175.203 183.101 175.108L181.528 174.18C181.428 174.13 181.318 174.104 181.206 174.104C181.094 174.104 180.984 174.13 180.884 174.18L179.311 175.061C179.169 175.124 179.138 175.344 179.311 175.438Z" fill="#061749"/>
<path d="M175.363 173.158L176.936 174.102C177.036 174.151 177.146 174.177 177.258 174.177C177.37 174.177 177.481 174.151 177.581 174.102L179.154 173.221C179.343 173.111 179.358 172.953 179.154 172.859L177.581 171.915C177.481 171.865 177.37 171.839 177.258 171.839C177.146 171.839 177.036 171.865 176.936 171.915L175.363 172.796C175.222 172.906 175.206 173.063 175.363 173.158Z" fill="#061749"/>
<path d="M171.415 170.893L172.987 171.821C173.088 171.871 173.198 171.897 173.31 171.897C173.422 171.897 173.532 171.871 173.632 171.821L175.205 170.94C175.394 170.83 175.41 170.673 175.205 170.578L173.632 169.65C173.535 169.601 173.427 169.575 173.318 169.575C173.208 169.575 173.101 169.601 173.003 169.65L171.43 170.531C171.273 170.625 171.257 170.798 171.415 170.893Z" fill="#061749"/>
<path d="M167.466 168.612L169.039 169.54C169.139 169.59 169.25 169.616 169.362 169.616C169.473 169.616 169.584 169.59 169.684 169.54L171.257 168.675C171.446 168.565 171.461 168.392 171.257 168.297L169.684 167.369C169.584 167.32 169.473 167.294 169.362 167.294C169.25 167.294 169.139 167.32 169.039 167.369L167.466 168.234C167.325 168.345 167.309 168.518 167.466 168.612Z" fill="#061749"/>
<path d="M163.534 166.331L165.107 167.259C165.207 167.309 165.318 167.335 165.429 167.335C165.541 167.335 165.652 167.309 165.752 167.259L167.325 166.394C167.513 166.284 167.545 166.111 167.325 166.016L165.752 165.088C165.652 165.038 165.541 165.013 165.429 165.013C165.318 165.013 165.207 165.038 165.107 165.088L163.534 165.953C163.377 166.064 163.361 166.237 163.534 166.331Z" fill="#061749"/>
<path d="M159.587 164.113L161.159 165.041C161.26 165.091 161.37 165.117 161.482 165.117C161.594 165.117 161.704 165.091 161.804 165.041L163.377 164.16C163.566 164.05 163.597 163.877 163.377 163.783L161.804 162.855C161.704 162.805 161.594 162.779 161.482 162.779C161.37 162.779 161.26 162.805 161.159 162.855L159.587 163.736C159.445 163.799 159.414 163.956 159.587 164.113Z" fill="#061749"/>
<path d="M155.639 161.77L157.212 162.698C157.311 162.752 157.422 162.78 157.535 162.78C157.647 162.78 157.758 162.752 157.857 162.698L159.43 161.817C159.619 161.707 159.634 161.55 159.43 161.44L157.857 160.512C157.757 160.462 157.647 160.436 157.535 160.436C157.423 160.436 157.312 160.462 157.212 160.512L155.639 161.393C155.498 161.518 155.466 161.676 155.639 161.77Z" fill="#061749"/>
<path d="M151.69 159.505L153.263 160.433C153.363 160.483 153.474 160.509 153.586 160.509C153.698 160.509 153.808 160.483 153.908 160.433L155.481 159.552C155.67 159.442 155.685 159.285 155.481 159.19L153.908 158.262C153.808 158.212 153.698 158.186 153.586 158.186C153.474 158.186 153.363 158.212 153.263 158.262L151.69 159.143C151.549 159.237 151.533 159.395 151.69 159.505Z" fill="#061749"/>
<path d="M147.742 157.225L149.315 158.153C149.413 158.202 149.521 158.228 149.63 158.228C149.739 158.228 149.847 158.202 149.945 158.153L151.517 157.272C151.706 157.162 151.722 157.004 151.517 156.91L149.945 155.982C149.844 155.932 149.734 155.906 149.622 155.906C149.51 155.906 149.4 155.932 149.3 155.982L147.727 156.863C147.601 156.957 147.585 157.13 147.742 157.225Z" fill="#061749"/>
<path d="M202.967 193.668L204.54 194.596C204.639 194.65 204.749 194.678 204.862 194.678C204.975 194.678 205.085 194.65 205.184 194.596L206.757 193.715C206.946 193.605 206.978 193.448 206.757 193.338L205.184 192.41C205.084 192.36 204.974 192.334 204.862 192.334C204.75 192.334 204.64 192.36 204.54 192.41L202.967 193.291C202.809 193.416 202.794 193.574 202.967 193.668Z" fill="#061749"/>
<path d="M206.899 195.949L208.472 196.877C208.572 196.927 208.683 196.953 208.795 196.953C208.906 196.953 209.017 196.927 209.117 196.877L210.69 195.996C210.879 195.886 210.91 195.713 210.69 195.619L209.117 194.691C209.017 194.641 208.906 194.615 208.795 194.615C208.683 194.615 208.572 194.641 208.472 194.691L206.899 195.572C206.758 195.697 206.742 195.855 206.899 195.949Z" fill="#061749"/>
<path d="M199.019 191.404L200.592 192.332C200.692 192.381 200.802 192.407 200.914 192.407C201.026 192.407 201.136 192.381 201.236 192.332L202.809 191.451C203.014 191.341 203.029 191.183 202.809 191.089L201.236 190.161C201.136 190.111 201.026 190.085 200.914 190.085C200.802 190.085 200.692 190.111 200.592 190.161L199.019 191.042C198.877 191.136 198.846 191.309 199.019 191.404Z" fill="#061749"/>
<path d="M195.071 189.123L196.644 190.051C196.744 190.1 196.855 190.126 196.966 190.126C197.078 190.126 197.189 190.1 197.289 190.051L198.862 189.17C199.051 189.06 199.066 188.902 198.862 188.808L197.289 187.88C197.189 187.83 197.078 187.804 196.966 187.804C196.855 187.804 196.744 187.83 196.644 187.88L195.071 188.761C194.93 188.855 194.914 189.028 195.071 189.123Z" fill="#061749"/>
<path d="M191.122 186.842L192.695 187.77C192.793 187.82 192.901 187.846 193.01 187.846C193.119 187.846 193.227 187.82 193.324 187.77L194.897 186.905C195.086 186.795 195.102 186.622 194.897 186.528L193.324 185.6C193.227 185.55 193.119 185.524 193.01 185.524C192.901 185.524 192.793 185.55 192.695 185.6L191.122 186.465C190.981 186.575 190.965 186.748 191.122 186.842Z" fill="#061749"/>
<path d="M187.175 184.561L188.748 185.489C188.848 185.539 188.959 185.565 189.07 185.565C189.182 185.565 189.293 185.539 189.393 185.489L190.966 184.608C191.155 184.498 191.17 184.325 190.966 184.231L189.393 183.303C189.293 183.253 189.182 183.227 189.07 183.227C188.959 183.227 188.848 183.253 188.748 183.303L187.175 184.183C187.034 184.309 187.018 184.467 187.175 184.561Z" fill="#061749"/>
<path d="M183.242 182.281L184.815 183.209C184.915 183.259 185.026 183.285 185.137 183.285C185.249 183.285 185.36 183.259 185.46 183.209L187.033 182.328C187.222 182.218 187.253 182.045 187.033 181.95L185.46 181.022C185.36 180.973 185.249 180.947 185.137 180.947C185.026 180.947 184.915 180.973 184.815 181.022L183.242 181.903C183.085 182.029 183.069 182.186 183.242 182.281Z" fill="#061749"/>
<path d="M179.296 180.015L180.868 180.943C180.969 180.993 181.079 181.019 181.191 181.019C181.303 181.019 181.413 180.993 181.513 180.943L183.086 180.062C183.275 179.952 183.306 179.795 183.086 179.701L181.513 178.773C181.414 178.719 181.303 178.691 181.191 178.691C181.078 178.691 180.967 178.719 180.868 178.773L179.296 179.654C179.154 179.748 179.122 179.842 179.296 180.015Z" fill="#061749"/>
<path d="M175.347 177.734L176.92 178.662C177.02 178.712 177.13 178.738 177.242 178.738C177.354 178.738 177.464 178.712 177.565 178.662L179.137 177.782C179.326 177.672 179.342 177.514 179.137 177.42L177.565 176.492C177.464 176.442 177.354 176.416 177.242 176.416C177.13 176.416 177.02 176.442 176.92 176.492L175.347 177.373C175.205 177.467 175.174 177.64 175.347 177.734Z" fill="#061749"/>
<path d="M171.398 175.454L172.971 176.382C173.071 176.432 173.182 176.458 173.294 176.458C173.406 176.458 173.516 176.432 173.616 176.382L175.189 175.517C175.378 175.407 175.393 175.234 175.189 175.14L173.616 174.212C173.516 174.162 173.406 174.136 173.294 174.136C173.182 174.136 173.071 174.162 172.971 174.212L171.398 175.077C171.257 175.124 171.241 175.36 171.398 175.454Z" fill="#061749"/>
<path d="M167.451 173.173L169.024 174.101C169.121 174.151 169.229 174.177 169.338 174.177C169.448 174.177 169.556 174.151 169.653 174.101L171.226 173.236C171.415 173.126 171.43 172.953 171.226 172.859L169.653 171.931C169.553 171.881 169.442 171.855 169.331 171.855C169.219 171.855 169.108 171.881 169.008 171.931L167.435 172.796C167.309 172.906 167.294 173.079 167.451 173.173Z" fill="#061749"/>
<path d="M163.503 170.893L165.076 171.821C165.176 171.87 165.287 171.896 165.399 171.896C165.511 171.896 165.621 171.87 165.721 171.821L167.294 170.94C167.483 170.83 167.514 170.657 167.294 170.562L165.721 169.634C165.621 169.584 165.511 169.558 165.399 169.558C165.287 169.558 165.176 169.584 165.076 169.634L163.503 170.515C163.362 170.641 163.346 170.798 163.503 170.893Z" fill="#061749"/>
<path d="M159.571 168.612L161.144 169.556C161.244 169.606 161.354 169.632 161.466 169.632C161.578 169.632 161.688 169.606 161.789 169.556L163.361 168.675C163.55 168.565 163.582 168.408 163.361 168.313L161.789 167.369C161.688 167.32 161.578 167.294 161.466 167.294C161.354 167.294 161.244 167.32 161.144 167.369L159.571 168.25C159.413 168.36 159.398 168.518 159.571 168.612Z" fill="#061749"/>
<path d="M155.623 166.347L157.196 167.275C157.296 167.325 157.406 167.351 157.518 167.351C157.63 167.351 157.74 167.325 157.84 167.275L159.413 166.394C159.618 166.284 159.634 166.127 159.413 166.033L157.84 165.105C157.74 165.055 157.63 165.029 157.518 165.029C157.406 165.029 157.296 165.055 157.196 165.105L155.623 165.985C155.481 166.08 155.45 166.253 155.623 166.347Z" fill="#061749"/>
<path d="M151.674 164.114L153.247 165.042C153.347 165.092 153.458 165.118 153.57 165.118C153.682 165.118 153.792 165.092 153.892 165.042L155.465 164.177C155.654 164.067 155.67 163.894 155.465 163.799L153.892 162.871C153.792 162.821 153.682 162.795 153.57 162.795C153.458 162.795 153.347 162.821 153.247 162.871L151.674 163.736C151.533 163.799 151.501 163.972 151.674 164.114Z" fill="#061749"/>
<path d="M147.727 161.786L149.3 162.714C149.4 162.764 149.51 162.789 149.622 162.789C149.734 162.789 149.844 162.764 149.944 162.714L151.517 161.849C151.706 161.738 151.722 161.565 151.517 161.471L149.944 160.543C149.847 160.493 149.739 160.467 149.63 160.467C149.52 160.467 149.413 160.493 149.315 160.543L147.742 161.408C147.585 161.518 147.569 161.691 147.727 161.786Z" fill="#061749"/>
<path d="M143.779 159.505L145.352 160.433C145.452 160.483 145.563 160.509 145.675 160.509C145.786 160.509 145.897 160.483 145.997 160.433L147.57 159.552C147.759 159.442 147.774 159.269 147.57 159.175L145.997 158.247C145.897 158.197 145.786 158.171 145.675 158.171C145.563 158.171 145.452 158.197 145.352 158.247L143.779 159.128C143.638 159.254 143.622 159.395 143.779 159.505Z" fill="#061749"/>
<path d="M199.224 195.839L200.796 196.767C200.897 196.817 201.007 196.843 201.119 196.843C201.231 196.843 201.341 196.817 201.441 196.767L203.014 195.902C203.203 195.792 203.234 195.619 203.014 195.524L201.441 194.596C201.341 194.546 201.231 194.52 201.119 194.52C201.007 194.52 200.897 194.546 200.796 194.596L199.224 195.461C199.066 195.571 199.051 195.744 199.224 195.839Z" fill="#061749"/>
<path d="M195.275 193.558L196.848 194.486C196.948 194.536 197.058 194.562 197.17 194.562C197.282 194.562 197.393 194.536 197.493 194.486L199.066 193.621C199.27 193.511 199.286 193.338 199.066 193.243L197.493 192.315C197.393 192.265 197.282 192.239 197.17 192.239C197.058 192.239 196.948 192.265 196.848 192.315L195.275 193.18C195.133 193.29 195.102 193.463 195.275 193.558Z" fill="#061749"/>
<path d="M191.328 191.277L192.901 192.205C193.001 192.255 193.111 192.281 193.223 192.281C193.335 192.281 193.445 192.255 193.546 192.205L195.118 191.324C195.307 191.214 195.323 191.041 195.118 190.947L193.546 190.019C193.445 189.969 193.335 189.943 193.223 189.943C193.111 189.943 193.001 189.969 192.901 190.019L191.328 190.9C191.186 191.026 191.155 191.183 191.328 191.277Z" fill="#061749"/>
<path d="M187.379 188.997L188.952 189.925C189.051 189.979 189.162 190.007 189.275 190.007C189.387 190.007 189.498 189.979 189.597 189.925L191.17 189.044C191.359 188.934 191.374 188.777 191.17 188.667L189.597 187.739C189.497 187.689 189.386 187.663 189.275 187.663C189.163 187.663 189.052 187.689 188.952 187.739L187.379 188.619C187.238 188.745 187.222 188.903 187.379 188.997Z" fill="#061749"/>
<path d="M183.432 186.732L185.005 187.66C185.105 187.71 185.215 187.736 185.327 187.736C185.439 187.736 185.55 187.71 185.65 187.66L187.223 186.779C187.411 186.669 187.427 186.512 187.223 186.417L185.65 185.489C185.55 185.439 185.439 185.413 185.327 185.413C185.215 185.413 185.105 185.439 185.005 185.489L183.432 186.37C183.29 186.464 183.275 186.637 183.432 186.732Z" fill="#061749"/>
<path d="M179.484 184.451L181.057 185.379C181.157 185.429 181.267 185.455 181.379 185.455C181.491 185.455 181.601 185.429 181.701 185.379L183.274 184.498C183.463 184.388 183.495 184.231 183.274 184.136L181.701 183.208C181.601 183.158 181.491 183.132 181.379 183.132C181.267 183.132 181.157 183.158 181.057 183.208L179.484 184.089C179.342 184.183 179.326 184.356 179.484 184.451Z" fill="#061749"/>
<path d="M175.552 182.171L177.125 183.099C177.225 183.148 177.335 183.174 177.447 183.174C177.559 183.174 177.669 183.148 177.769 183.099L179.342 182.233C179.531 182.123 179.563 181.95 179.342 181.856L177.769 180.928C177.669 180.878 177.559 180.852 177.447 180.852C177.335 180.852 177.225 180.878 177.125 180.928L175.552 181.793C175.394 181.903 175.379 182.076 175.552 182.171Z" fill="#061749"/>
<path d="M171.604 179.842L173.177 180.77C173.277 180.82 173.387 180.846 173.499 180.846C173.611 180.846 173.721 180.82 173.821 180.77L175.394 179.889C175.599 179.779 175.614 179.606 175.394 179.512L173.821 178.584C173.721 178.534 173.611 178.508 173.499 178.508C173.387 178.508 173.277 178.534 173.177 178.584L171.604 179.465C171.462 179.638 171.431 179.842 171.604 179.842Z" fill="#061749"/>
<path d="M167.655 177.609L169.228 178.537C169.328 178.587 169.439 178.613 169.55 178.613C169.662 178.613 169.773 178.587 169.873 178.537L171.446 177.656C171.634 177.546 171.65 177.373 171.446 177.279L169.873 176.351C169.773 176.301 169.662 176.275 169.55 176.275C169.439 176.275 169.328 176.301 169.228 176.351L167.655 177.231C167.514 177.357 167.498 177.514 167.655 177.609Z" fill="#061749"/>
<path d="M163.708 175.344L165.281 176.272C165.378 176.322 165.486 176.348 165.595 176.348C165.705 176.348 165.813 176.322 165.91 176.272L167.483 175.392C167.672 175.281 167.687 175.124 167.483 175.03L165.91 174.102C165.814 174.048 165.705 174.02 165.595 174.02C165.485 174.02 165.377 174.048 165.281 174.102L163.708 174.983C163.566 175.124 163.551 175.234 163.708 175.344Z" fill="#061749"/>
<path d="M159.76 173.063L161.333 173.991C161.433 174.041 161.543 174.067 161.655 174.067C161.767 174.067 161.877 174.041 161.977 173.991L163.55 173.111C163.739 173 163.755 172.843 163.55 172.749L161.977 171.821C161.877 171.771 161.767 171.745 161.655 171.745C161.543 171.745 161.433 171.771 161.333 171.821L159.76 172.702C159.618 172.796 159.602 172.969 159.76 173.063Z" fill="#061749"/>
<path d="M155.828 170.782L157.4 171.71C157.501 171.76 157.611 171.786 157.723 171.786C157.835 171.786 157.945 171.76 158.045 171.71L159.618 170.845C159.807 170.735 159.838 170.562 159.618 170.468L158.045 169.54C157.945 169.49 157.835 169.464 157.723 169.464C157.611 169.464 157.501 169.49 157.4 169.54L155.828 170.405C155.67 170.515 155.655 170.688 155.828 170.782Z" fill="#061749"/>
<path d="M151.879 168.502L153.452 169.43C153.552 169.48 153.662 169.506 153.774 169.506C153.886 169.506 153.997 169.48 154.097 169.43L155.67 168.565C155.858 168.455 155.89 168.282 155.67 168.188L154.097 167.26C153.997 167.21 153.886 167.184 153.774 167.184C153.662 167.184 153.552 167.21 153.452 167.26L151.879 168.125C151.737 168.235 151.706 168.408 151.879 168.502Z" fill="#061749"/>
<path d="M147.931 166.222L149.504 167.15C149.604 167.199 149.714 167.225 149.826 167.225C149.938 167.225 150.048 167.199 150.148 167.15L151.721 166.269C151.91 166.159 151.926 165.986 151.721 165.891L150.148 164.963C150.048 164.913 149.938 164.887 149.826 164.887C149.714 164.887 149.604 164.913 149.504 164.963L147.931 165.844C147.789 165.97 147.758 166.127 147.931 166.222Z" fill="#061749"/>
<path d="M143.984 163.94L145.557 164.884C145.657 164.934 145.767 164.96 145.879 164.96C145.991 164.96 146.101 164.934 146.201 164.884L147.774 164.003C147.963 163.893 147.979 163.736 147.774 163.641L146.201 162.698C146.101 162.648 145.991 162.622 145.879 162.622C145.767 162.622 145.657 162.648 145.557 162.698L143.984 163.578C143.842 163.688 143.826 163.846 143.984 163.94Z" fill="#061749"/>
<path d="M140.035 161.675L141.608 162.603C141.706 162.653 141.814 162.679 141.923 162.679C142.032 162.679 142.14 162.653 142.237 162.603L143.81 161.722C143.999 161.612 144.015 161.455 143.81 161.361L142.237 160.433C142.137 160.383 142.027 160.357 141.915 160.357C141.803 160.357 141.693 160.383 141.593 160.433L140.02 161.313C139.894 161.408 139.878 161.581 140.035 161.675Z" fill="#061749"/>
<path d="M144.188 168.392L145.76 169.32C145.861 169.369 145.971 169.395 146.083 169.395C146.195 169.395 146.305 169.369 146.405 169.32L147.978 168.439C148.183 168.329 148.198 168.171 147.978 168.077L146.405 167.149C146.305 167.099 146.195 167.073 146.083 167.073C145.971 167.073 145.861 167.099 145.76 167.149L144.188 168.03C144.046 168.124 144.015 168.297 144.188 168.392Z" fill="#061749"/>
<path d="M140.319 166.111L141.891 167.039C141.992 167.089 142.102 167.115 142.214 167.115C142.326 167.115 142.436 167.089 142.536 167.039L144.109 166.174C144.298 166.064 144.314 165.891 144.109 165.797L142.536 164.869C142.436 164.819 142.326 164.793 142.214 164.793C142.102 164.793 141.992 164.819 141.891 164.869L140.319 165.734C140.098 165.844 140.083 166.017 140.319 166.111Z" fill="#061749"/>
<path d="M136.292 163.83L137.865 164.758C137.962 164.808 138.07 164.834 138.179 164.834C138.289 164.834 138.397 164.808 138.494 164.758L140.067 163.893C140.256 163.783 140.271 163.61 140.067 163.516L138.494 162.588C138.397 162.538 138.289 162.512 138.179 162.512C138.07 162.512 137.962 162.538 137.865 162.588L136.292 163.453C136.15 163.563 136.135 163.736 136.292 163.83Z" fill="#061749"/>
<path d="M140.224 170.672L141.797 171.6C141.897 171.65 142.007 171.676 142.119 171.676C142.231 171.676 142.341 171.65 142.441 171.6L144.014 170.719C144.203 170.609 144.219 170.436 144.014 170.342L142.441 169.414C142.341 169.364 142.231 169.338 142.119 169.338C142.007 169.338 141.897 169.364 141.797 169.414L140.224 170.295C140.082 170.405 140.051 170.578 140.224 170.672Z" fill="#061749"/>
<path d="M136.277 168.392L137.85 169.32C137.95 169.37 138.06 169.396 138.172 169.396C138.284 169.396 138.394 169.37 138.495 169.32L140.067 168.439C140.256 168.329 140.272 168.172 140.067 168.062L138.495 167.134C138.394 167.084 138.284 167.058 138.172 167.058C138.06 167.058 137.95 167.084 137.85 167.134L136.277 168.014C136.135 168.14 136.119 168.298 136.277 168.392Z" fill="#061749"/>
<path d="M132.328 166.127L133.901 167.055C133.999 167.104 134.107 167.13 134.216 167.13C134.325 167.13 134.433 167.104 134.53 167.055L136.103 166.174C136.292 166.064 136.308 165.907 136.103 165.812L134.53 164.884C134.43 164.834 134.32 164.808 134.208 164.808C134.096 164.808 133.986 164.834 133.886 164.884L132.313 165.765C132.187 165.859 132.171 166.032 132.328 166.127Z" fill="#061749"/>
<path d="M132.533 170.563L134.106 171.491C134.206 171.541 134.317 171.567 134.428 171.567C134.54 171.567 134.651 171.541 134.751 171.491L136.324 170.626C136.513 170.516 136.528 170.343 136.324 170.248L134.751 169.32C134.651 169.27 134.54 169.244 134.428 169.244C134.317 169.244 134.206 169.27 134.106 169.32L132.533 170.185C132.454 170.295 132.454 170.405 132.533 170.563Z" fill="#061749"/>
<path d="M128.585 168.282L130.158 169.21C130.255 169.259 130.363 169.285 130.472 169.285C130.582 169.285 130.689 169.259 130.787 169.21L132.36 168.344C132.549 168.234 132.564 168.061 132.36 167.967L130.787 167.039C130.689 166.989 130.582 166.963 130.472 166.963C130.363 166.963 130.255 166.989 130.158 167.039L128.585 167.904C128.443 168.014 128.428 168.187 128.585 168.282Z" fill="#061749"/>
<path d="M128.789 172.717L130.362 173.645C130.462 173.695 130.572 173.721 130.684 173.721C130.796 173.721 130.906 173.695 131.007 173.645L132.579 172.765C132.768 172.654 132.784 172.481 132.579 172.387L131.007 171.459C130.906 171.409 130.796 171.383 130.684 171.383C130.572 171.383 130.462 171.409 130.362 171.459L128.789 172.34C128.647 172.466 128.616 172.623 128.789 172.717Z" fill="#061749"/>
<path d="M124.841 170.405L126.414 171.349C126.514 171.399 126.625 171.425 126.737 171.425C126.849 171.425 126.959 171.399 127.059 171.349L128.632 170.468C128.821 170.358 128.837 170.201 128.632 170.106L127.059 169.163C126.962 169.113 126.854 169.087 126.745 169.087C126.635 169.087 126.527 169.113 126.43 169.163L124.857 170.043C124.7 170.185 124.684 170.405 124.841 170.405Z" fill="#061749"/>
<path d="M120.877 172.733L122.45 173.661C122.547 173.711 122.655 173.737 122.765 173.737C122.874 173.737 122.982 173.711 123.079 173.661L124.652 172.796C124.841 172.686 124.856 172.513 124.652 172.419L123.079 171.491C122.979 171.441 122.869 171.415 122.757 171.415C122.645 171.415 122.534 171.441 122.434 171.491L120.861 172.356C120.673 172.466 120.657 172.639 120.861 172.733H120.877Z" fill="#061749"/>
<path d="M145.383 153.701L143.81 154.582C143.621 154.692 143.606 154.865 143.81 154.96L145.383 155.888C145.483 155.937 145.594 155.963 145.705 155.963C145.817 155.963 145.928 155.937 146.028 155.888L147.601 155.007C147.79 154.897 147.821 154.739 147.601 154.645L146.028 153.717L145.383 153.701Z" fill="#061749"/>
<path d="M135.915 154.959L137.487 155.887C137.588 155.937 137.698 155.963 137.81 155.963C137.922 155.963 138.032 155.937 138.132 155.887L139.705 155.007C139.91 154.896 139.925 154.723 139.705 154.629L135.915 154.959Z" fill="#061749"/>
<path d="M139.863 157.24L141.436 158.168C141.536 158.218 141.646 158.244 141.758 158.244C141.87 158.244 141.98 158.218 142.08 158.168L143.653 157.303C143.842 157.193 143.874 157.02 143.653 156.925L142.08 155.997C141.98 155.948 141.87 155.922 141.758 155.922C141.646 155.922 141.536 155.948 141.436 155.997L139.863 156.862C139.705 156.973 139.69 157.146 139.863 157.24Z" fill="#061749"/>
<path d="M132.218 156.752C132.029 156.862 131.998 157.035 132.218 157.13L133.791 158.058C133.891 158.107 134.002 158.133 134.113 158.133C134.225 158.133 134.336 158.107 134.436 158.058L136.009 157.177C136.198 157.067 136.229 156.909 136.009 156.815L134.436 155.887L132.218 156.752Z" fill="#061749"/>
<path d="M136.119 159.395L137.691 160.339C137.792 160.389 137.902 160.415 138.014 160.415C138.126 160.415 138.236 160.389 138.336 160.339L139.909 159.458C140.098 159.348 140.129 159.191 139.909 159.096L138.336 158.152C138.236 158.103 138.126 158.077 138.014 158.077C137.902 158.077 137.792 158.103 137.691 158.152L136.119 159.033C135.961 159.143 135.946 159.301 136.119 159.395Z" fill="#061749"/>
<path d="M128.428 159.284L130.001 160.212C130.101 160.262 130.211 160.288 130.323 160.288C130.435 160.288 130.545 160.262 130.645 160.212L132.218 159.347C132.407 159.237 132.438 159.064 132.218 158.97L130.645 158.042C130.545 157.992 130.435 157.966 130.323 157.966C130.211 157.966 130.101 157.992 130.001 158.042L128.428 158.907C128.27 159.017 128.255 159.19 128.428 159.284Z" fill="#061749"/>
<path d="M132.359 161.565L133.932 162.493C134.032 162.543 134.143 162.569 134.255 162.569C134.366 162.569 134.477 162.543 134.577 162.493L136.15 161.628C136.339 161.518 136.37 161.345 136.15 161.251L134.577 160.323C134.477 160.273 134.366 160.247 134.255 160.247C134.143 160.247 134.032 160.273 133.932 160.323L132.359 161.188C132.218 161.298 132.202 161.471 132.359 161.565Z" fill="#061749"/>
<path d="M124.59 156.642C124.401 156.752 124.369 156.909 124.59 157.004L126.163 157.932C126.263 157.982 126.373 158.008 126.485 158.008C126.597 158.008 126.707 157.982 126.807 157.932L128.38 157.051C128.585 156.941 128.6 156.768 128.38 156.673L124.59 156.642Z" fill="#061749"/>
<path d="M124.463 161.581L126.036 162.509C126.137 162.559 126.247 162.585 126.359 162.585C126.471 162.585 126.581 162.559 126.681 162.509L128.254 161.628C128.443 161.518 128.474 161.361 128.254 161.266L126.681 160.338C126.581 160.288 126.471 160.262 126.359 160.262C126.247 160.262 126.137 160.288 126.036 160.338L124.463 161.219C124.322 161.313 124.29 161.486 124.463 161.581Z" fill="#061749"/>
<path d="M128.412 163.846L129.984 164.774C130.083 164.828 130.194 164.856 130.307 164.856C130.42 164.856 130.53 164.828 130.629 164.774L132.202 163.893C132.391 163.783 132.422 163.626 132.202 163.516L130.629 162.588C130.529 162.538 130.419 162.512 130.307 162.512C130.195 162.512 130.085 162.538 129.984 162.588L128.412 163.469C128.254 163.594 128.239 163.752 128.412 163.846Z" fill="#061749"/>
<path d="M120.516 159.301L122.089 160.229C122.189 160.278 122.3 160.304 122.412 160.304C122.523 160.304 122.634 160.278 122.734 160.229L124.307 159.348C124.496 159.238 124.511 159.08 124.307 158.986L122.734 158.058C122.634 158.008 122.523 157.982 122.412 157.982C122.3 157.982 122.189 158.008 122.089 158.058L120.516 158.939C120.375 159.033 120.343 159.206 120.516 159.301Z" fill="#061749"/>
<path d="M118.125 155.777L116.552 156.642C116.364 156.752 116.348 156.925 116.552 157.02L118.125 157.948C118.225 157.998 118.336 158.024 118.448 158.024C118.559 158.024 118.67 157.998 118.77 157.948L120.343 157.083C120.532 156.973 120.547 156.8 120.343 156.705L118.77 155.777H118.125Z" fill="#061749"/>
<path d="M114.193 153.496L112.62 154.377C112.431 154.487 112.416 154.644 112.62 154.739L114.193 155.667C114.29 155.716 114.398 155.742 114.508 155.742C114.617 155.742 114.725 155.716 114.822 155.667L116.395 154.802L114.193 153.496Z" fill="#061749"/>
<path d="M108.672 152.459L110.245 153.387C110.345 153.436 110.455 153.462 110.567 153.462C110.679 153.462 110.789 153.436 110.89 153.387L108.672 152.459Z" fill="#061749"/>
<path d="M120.72 163.736L122.293 164.664C122.393 164.714 122.503 164.74 122.615 164.74C122.727 164.74 122.837 164.714 122.937 164.664L124.51 163.799C124.699 163.689 124.731 163.516 124.51 163.421L122.937 162.493C122.837 162.443 122.727 162.417 122.615 162.417C122.503 162.417 122.393 162.443 122.293 162.493L120.72 163.358C120.562 163.468 120.547 163.641 120.72 163.736Z" fill="#061749"/>
<path d="M124.589 166.017L126.162 166.945C126.262 166.995 126.373 167.021 126.485 167.021C126.597 167.021 126.707 166.995 126.807 166.945L128.38 166.08C128.569 165.97 128.6 165.797 128.38 165.702L126.807 164.774C126.707 164.724 126.597 164.698 126.485 164.698C126.373 164.698 126.262 164.724 126.162 164.774L124.589 165.639C124.589 165.687 124.495 165.922 124.589 166.017Z" fill="#061749"/>
<path d="M116.725 161.455L118.298 162.383C118.398 162.433 118.509 162.459 118.62 162.459C118.732 162.459 118.843 162.433 118.943 162.383L120.516 161.502C120.72 161.392 120.736 161.219 120.516 161.125L118.943 160.197C118.843 160.147 118.732 160.121 118.62 160.121C118.509 160.121 118.398 160.147 118.298 160.197L116.725 161.078C116.631 161.204 116.599 161.361 116.725 161.455Z" fill="#061749"/>
<path d="M112.824 159.175L114.397 160.103C114.496 160.157 114.607 160.185 114.719 160.185C114.832 160.185 114.943 160.157 115.042 160.103L116.615 159.222C116.803 159.112 116.819 158.955 116.615 158.845L115.042 157.917C114.942 157.867 114.831 157.841 114.719 157.841C114.608 157.841 114.497 157.867 114.397 157.917L112.824 158.797C112.682 158.923 112.667 159.081 112.824 159.175Z" fill="#061749"/>
<path d="M108.861 156.91L110.434 157.838C110.534 157.887 110.644 157.913 110.756 157.913C110.868 157.913 110.978 157.887 111.079 157.838L112.652 156.957C112.84 156.847 112.856 156.689 112.652 156.595L111.079 155.667C110.981 155.617 110.873 155.591 110.764 155.591C110.655 155.591 110.547 155.617 110.449 155.667L108.877 156.548C108.735 156.642 108.719 156.815 108.861 156.91Z" fill="#061749"/>
<path d="M104.929 154.676L106.501 155.604C106.602 155.654 106.712 155.68 106.824 155.68C106.936 155.68 107.046 155.654 107.146 155.604L108.719 154.724C108.908 154.613 108.924 154.456 108.719 154.362L107.146 153.434C107.046 153.384 106.936 153.358 106.824 153.358C106.712 153.358 106.602 153.384 106.501 153.434L104.929 154.315C104.787 154.362 104.771 154.535 104.929 154.676Z" fill="#061749"/>
<path d="M100.996 152.349L102.569 153.277C102.67 153.326 102.78 153.352 102.892 153.352C103.004 153.352 103.114 153.326 103.214 153.277L104.787 152.411C104.976 152.301 105.007 152.128 104.787 152.034L103.214 151.106C103.114 151.056 103.004 151.03 102.892 151.03C102.78 151.03 102.67 151.056 102.569 151.106L100.996 151.971C100.839 152.081 100.823 152.254 100.996 152.349Z" fill="#061749"/>
<path d="M99.2503 148.793C99.1501 148.744 99.0397 148.718 98.9278 148.718C98.8159 148.718 98.7056 148.744 98.6054 148.793L97.0325 149.674C96.8437 149.784 96.8123 149.942 97.0325 150.036L98.6054 150.964C98.7056 151.014 98.8159 151.04 98.9278 151.04C99.0397 151.04 99.1501 151.014 99.2503 150.964L100.823 150.083C101.012 149.973 101.043 149.8 100.823 149.706L99.2503 148.778V148.793Z" fill="#061749"/>
<path d="M94.7045 146.544L93.1316 147.425C92.9429 147.535 92.9114 147.692 93.1316 147.787L94.7045 148.715C94.8047 148.765 94.915 148.791 95.0269 148.791C95.1388 148.791 95.2492 148.765 95.3494 148.715L96.9223 147.834C97.111 147.724 97.1268 147.551 96.9223 147.456L94.7045 146.544Z" fill="#061749"/>
<path d="M90.7097 144.264L89.1368 145.145C88.948 145.255 88.9323 145.412 89.1368 145.522L90.7097 146.45C90.8098 146.5 90.9202 146.526 91.0321 146.526C91.144 146.526 91.2544 146.5 91.3546 146.45L92.9275 145.569L90.7097 144.264Z" fill="#061749"/>
<path d="M86.84 141.983L85.2671 142.864C85.0784 142.974 85.0627 143.147 85.2671 143.241L86.84 144.169C86.9375 144.219 87.0453 144.245 87.1546 144.245C87.264 144.245 87.3718 144.219 87.4692 144.169L89.0421 143.288L86.84 141.983Z" fill="#061749"/>
<path d="M116.976 165.891L118.549 166.835C118.65 166.884 118.76 166.91 118.872 166.91C118.984 166.91 119.094 166.884 119.194 166.835L120.767 165.954C120.956 165.844 120.987 165.686 120.767 165.592L119.194 164.648C119.094 164.598 118.984 164.572 118.872 164.572C118.76 164.572 118.65 164.598 118.549 164.648L116.976 165.529C116.819 165.686 116.803 165.797 116.976 165.891Z" fill="#061749"/>
<path d="M120.91 168.171L122.482 169.099C122.583 169.149 122.693 169.175 122.805 169.175C122.917 169.175 123.027 169.149 123.127 169.099L124.7 168.219C124.889 168.109 124.905 167.936 124.7 167.841L123.127 166.913C123.027 166.863 122.917 166.837 122.805 166.837C122.693 166.837 122.583 166.863 122.482 166.913L120.91 167.794C120.768 167.92 120.752 168.077 120.91 168.171Z" fill="#061749"/>
<path d="M113.029 163.626L114.602 164.554C114.702 164.604 114.812 164.63 114.924 164.63C115.036 164.63 115.147 164.604 115.247 164.554L116.82 163.673C117.024 163.563 117.04 163.406 116.82 163.311L115.247 162.383C115.147 162.334 115.036 162.308 114.924 162.308C114.812 162.308 114.702 162.334 114.602 162.383L113.029 163.264C112.887 163.359 112.856 163.532 113.029 163.626Z" fill="#061749"/>
<path d="M109.081 161.345L110.653 162.273C110.754 162.323 110.864 162.349 110.976 162.349C111.088 162.349 111.198 162.323 111.298 162.273L112.871 161.408C113.06 161.298 113.076 161.125 112.871 161.03L111.298 160.102C111.198 160.053 111.088 160.027 110.976 160.027C110.864 160.027 110.754 160.053 110.653 160.102L109.081 160.968C108.939 161.078 108.86 161.251 109.081 161.345Z" fill="#061749"/>
<path d="M105.133 159.065L106.706 159.993C106.806 160.043 106.916 160.069 107.028 160.069C107.14 160.069 107.25 160.043 107.35 159.993L108.923 159.128C109.112 159.018 109.128 158.845 108.923 158.75L107.35 157.822C107.25 157.772 107.14 157.746 107.028 157.746C106.916 157.746 106.806 157.772 106.706 157.822L105.133 158.687C104.991 158.797 104.975 158.97 105.133 159.065Z" fill="#061749"/>
<path d="M101.185 156.784L102.757 157.712C102.858 157.762 102.968 157.788 103.08 157.788C103.192 157.788 103.302 157.762 103.402 157.712L104.975 156.831C105.164 156.721 105.18 156.548 104.975 156.454L103.402 155.526C103.302 155.476 103.192 155.45 103.08 155.45C102.968 155.45 102.858 155.476 102.757 155.526L101.185 156.407C100.996 156.532 100.996 156.69 101.185 156.784Z" fill="#061749"/>
<path d="M97.2367 154.503L98.8096 155.431C98.9085 155.485 99.0194 155.513 99.132 155.513C99.2446 155.513 99.3555 155.485 99.4544 155.431L101.027 154.55C101.216 154.44 101.248 154.283 101.027 154.173L99.4544 153.245C99.3543 153.195 99.2439 153.169 99.132 153.169C99.0201 153.169 98.9097 153.195 98.8096 153.245L97.2367 154.126C97.0951 154.251 97.0794 154.409 97.2367 154.503Z" fill="#061749"/>
<path d="M93.3046 152.238L94.8775 153.166C94.9776 153.216 95.088 153.242 95.1999 153.242C95.3118 153.242 95.4222 153.216 95.5224 153.166L97.0953 152.285C97.284 152.175 97.3155 152.018 97.0953 151.923L95.5224 150.995C95.4222 150.945 95.3118 150.919 95.1999 150.919C95.088 150.919 94.9776 150.945 94.8775 150.995L93.3046 151.876C93.1316 151.97 93.1316 152.143 93.3046 152.238Z" fill="#061749"/>
<path d="M89.3565 149.958L90.9294 150.886C91.0296 150.936 91.14 150.961 91.2519 150.961C91.3638 150.961 91.4742 150.936 91.5743 150.886L93.1472 150.005C93.336 149.895 93.3517 149.737 93.1472 149.643L91.5743 148.715C91.4742 148.665 91.3638 148.639 91.2519 148.639C91.14 148.639 91.0296 148.665 90.9294 148.715L89.3565 149.596C89.215 149.69 89.1835 149.863 89.3565 149.958Z" fill="#061749"/>
<path d="M85.4089 147.677L86.9818 148.605C87.082 148.655 87.1924 148.68 87.3043 148.68C87.4162 148.68 87.5265 148.655 87.6267 148.605L89.1996 147.74C89.3883 147.629 89.4041 147.456 89.1996 147.362L87.6267 146.434C87.5265 146.384 87.4162 146.358 87.3043 146.358C87.1924 146.358 87.082 146.384 86.9818 146.434L85.4089 147.299C85.2673 147.409 85.2673 147.582 85.4089 147.677Z" fill="#061749"/>
<path d="M81.4608 145.396L83.0337 146.324C83.1311 146.374 83.2389 146.399 83.3483 146.399C83.4576 146.399 83.5655 146.374 83.6629 146.324L85.2358 145.443C85.4245 145.333 85.4402 145.16 85.2358 145.066L83.6629 144.138C83.5655 144.088 83.4576 144.062 83.3483 144.062C83.2389 144.062 83.1311 144.088 83.0337 144.138L81.4608 145.018C81.3192 145.144 81.3035 145.239 81.4608 145.396Z" fill="#061749"/>
<path d="M113.013 168.187L114.586 169.115C114.686 169.165 114.796 169.191 114.908 169.191C115.02 169.191 115.13 169.165 115.23 169.115L116.803 168.25C116.992 168.14 117.023 167.967 116.803 167.873L115.23 166.945C115.13 166.895 115.02 166.869 114.908 166.869C114.796 166.869 114.686 166.895 114.586 166.945L113.013 167.81C112.855 167.92 112.84 168.093 113.013 168.187Z" fill="#061749"/>
<path d="M116.945 170.405L118.518 171.333C118.618 171.383 118.729 171.409 118.841 171.409C118.953 171.409 119.063 171.383 119.163 171.333L120.736 170.452C120.925 170.342 120.956 170.185 120.736 170.091L119.163 169.163C119.063 169.113 118.953 169.087 118.841 169.087C118.729 169.087 118.618 169.113 118.518 169.163L116.945 170.044C116.804 170.201 116.725 170.405 116.945 170.405Z" fill="#061749"/>
<path d="M109.065 165.906L110.638 166.834C110.739 166.884 110.849 166.91 110.961 166.91C111.073 166.91 111.183 166.884 111.283 166.834L112.856 165.969C113.061 165.859 113.076 165.686 112.856 165.592L111.283 164.664C111.183 164.614 111.073 164.588 110.961 164.588C110.849 164.588 110.739 164.614 110.638 164.664L109.065 165.529C108.861 165.686 108.861 165.812 109.065 165.906Z" fill="#061749"/>
<path d="M105.117 163.626L106.69 164.554C106.79 164.603 106.9 164.629 107.012 164.629C107.124 164.629 107.235 164.603 107.335 164.554L108.908 163.673C109.096 163.563 109.112 163.39 108.908 163.295L107.335 162.367C107.235 162.317 107.124 162.291 107.012 162.291C106.9 162.291 106.79 162.317 106.69 162.367L105.117 163.248C104.975 163.374 104.96 163.531 105.117 163.626Z" fill="#061749"/>
<path d="M101.169 161.346L102.742 162.289C102.839 162.339 102.947 162.365 103.056 162.365C103.166 162.365 103.274 162.339 103.371 162.289L104.944 161.408C105.133 161.298 105.148 161.141 104.944 161.047L103.371 160.103C103.274 160.053 103.166 160.027 103.056 160.027C102.947 160.027 102.839 160.053 102.742 160.103L101.169 160.984C100.996 161.094 100.996 161.251 101.169 161.346Z" fill="#061749"/>
<path d="M97.2215 159.08L98.7944 160.008C98.8946 160.058 99.0049 160.084 99.1168 160.084C99.2287 160.084 99.3391 160.058 99.4393 160.008L101.012 159.127C101.201 159.017 101.217 158.86 101.012 158.766L99.4393 157.838C99.3391 157.788 99.2287 157.762 99.1168 157.762C99.0049 157.762 98.8946 157.788 98.7944 157.838L97.2215 158.718C97.08 158.813 97.0642 158.986 97.2215 159.08Z" fill="#061749"/>
<path d="M93.2889 156.8L94.8618 157.728C94.9619 157.778 95.0723 157.804 95.1842 157.804C95.2961 157.804 95.4065 157.778 95.5067 157.728L97.0795 156.863C97.2683 156.753 97.2998 156.58 97.0795 156.485L95.5067 155.557C95.4065 155.507 95.2961 155.481 95.1842 155.481C95.0723 155.481 94.9619 155.507 94.8618 155.557L93.2889 156.422C93.1316 156.532 93.1316 156.706 93.2889 156.8Z" fill="#061749"/>
<path d="M89.3409 154.519L90.9138 155.447C91.014 155.497 91.1244 155.523 91.2363 155.523C91.3482 155.523 91.4585 155.497 91.5587 155.447L93.1316 154.582C93.3361 154.472 93.3518 154.299 93.1316 154.204L91.5587 153.276C91.4585 153.226 91.3482 153.2 91.2363 153.2C91.1244 153.2 91.014 153.226 90.9138 153.276L89.3409 154.141C89.1994 154.251 89.1679 154.424 89.3409 154.519Z" fill="#061749"/>
<path d="M85.3932 152.238L86.9661 153.166C87.0663 153.216 87.1767 153.242 87.2886 153.242C87.4005 153.242 87.5108 153.216 87.611 153.166L89.1839 152.285C89.3726 152.175 89.3884 152.002 89.1839 151.908L87.611 150.98C87.5108 150.93 87.4005 150.904 87.2886 150.904C87.1767 150.904 87.0663 150.93 86.9661 150.98L85.3932 151.861C85.2674 151.987 85.2674 152.144 85.3932 152.238Z" fill="#061749"/>
<path d="M81.4447 149.957L83.0176 150.885C83.1166 150.939 83.2274 150.967 83.34 150.967C83.4526 150.967 83.5635 150.939 83.6625 150.885L85.2353 150.004C85.4241 149.894 85.4398 149.737 85.2353 149.627L83.6625 148.699C83.5623 148.649 83.4519 148.623 83.34 148.623C83.2281 148.623 83.1177 148.649 83.0176 148.699L81.4447 149.58C81.3031 149.706 81.2874 149.863 81.4447 149.957Z" fill="#061749"/>
<path d="M109.269 170.405L110.842 171.333C110.943 171.383 111.053 171.409 111.165 171.409C111.277 171.409 111.387 171.383 111.487 171.333L113.06 170.452C113.249 170.342 113.28 170.169 113.06 170.075L111.487 169.147C111.387 169.097 111.277 169.071 111.165 169.071C111.053 169.071 110.943 169.097 110.842 169.147L109.269 170.027C109.112 170.09 109.096 170.248 109.269 170.405Z" fill="#061749"/>
<path d="M113.202 172.623L114.775 173.551C114.875 173.601 114.985 173.627 115.097 173.627C115.209 173.627 115.32 173.601 115.42 173.551L116.993 172.67C117.181 172.56 117.213 172.387 116.993 172.293L115.42 171.365C115.32 171.315 115.209 171.289 115.097 171.289C114.985 171.289 114.875 171.315 114.775 171.365L113.202 172.245C113.06 172.371 113.045 172.529 113.202 172.623Z" fill="#061749"/>
<path d="M105.321 168.077L106.894 169.005C106.994 169.055 107.105 169.081 107.217 169.081C107.329 169.081 107.439 169.055 107.539 169.005L109.112 168.124C109.317 168.014 109.332 167.857 109.112 167.763L107.539 166.835C107.44 166.781 107.329 166.753 107.217 166.753C107.104 166.753 106.993 166.781 106.894 166.835L105.321 167.715C105.18 167.81 105.148 167.967 105.321 168.077Z" fill="#061749"/>
<path d="M101.374 165.796L102.947 166.724C103.047 166.774 103.158 166.8 103.269 166.8C103.381 166.8 103.492 166.774 103.592 166.724L105.165 165.844C105.354 165.734 105.369 165.576 105.165 165.482L103.592 164.554C103.492 164.504 103.381 164.478 103.269 164.478C103.158 164.478 103.047 164.504 102.947 164.554L101.374 165.435C101.233 165.529 101.201 165.686 101.374 165.796Z" fill="#061749"/>
<path d="M97.4254 163.516L98.9982 164.444C99.0984 164.494 99.2088 164.52 99.3207 164.52C99.4326 164.52 99.543 164.494 99.6431 164.444L101.216 163.579C101.405 163.469 101.421 163.296 101.216 163.201L99.6431 162.273C99.5457 162.224 99.4379 162.198 99.3285 162.198C99.2192 162.198 99.1114 162.224 99.0139 162.273L97.441 163.139C97.2838 163.249 97.2681 163.422 97.4254 163.516Z" fill="#061749"/>
<path d="M93.4784 161.235L95.0513 162.163C95.1514 162.213 95.2618 162.239 95.3737 162.239C95.4856 162.239 95.596 162.213 95.6961 162.163L97.269 161.298C97.4578 161.188 97.4735 161.015 97.269 160.921L95.6961 159.993C95.596 159.943 95.4856 159.917 95.3737 159.917C95.2618 159.917 95.1514 159.943 95.0513 159.993L93.4784 160.858C93.3368 160.968 93.3211 161.141 93.4784 161.235Z" fill="#061749"/>
<path d="M89.5296 158.955L91.1025 159.883C91.2027 159.932 91.3131 159.958 91.425 159.958C91.5369 159.958 91.6472 159.932 91.7474 159.883L93.3203 159.002C93.5091 158.892 93.5405 158.719 93.3203 158.624L91.7474 157.696C91.6472 157.646 91.5369 157.62 91.425 157.62C91.3131 157.62 91.2027 157.646 91.1025 157.696L89.5296 158.577C89.3881 158.703 89.3723 158.86 89.5296 158.955Z" fill="#061749"/>
<path d="M85.5976 156.674L87.1705 157.618C87.2706 157.668 87.381 157.693 87.4929 157.693C87.6048 157.693 87.7152 157.668 87.8154 157.618L89.3883 156.737C89.577 156.627 89.6085 156.469 89.3883 156.375L87.8154 155.431C87.7152 155.381 87.6048 155.356 87.4929 155.356C87.381 155.356 87.2706 155.381 87.1705 155.431L85.5976 156.312C85.4403 156.422 85.4245 156.58 85.5976 156.674Z" fill="#061749"/>
<path d="M81.6495 154.409L83.2224 155.337C83.3226 155.387 83.4329 155.413 83.5448 155.413C83.6567 155.413 83.7671 155.387 83.8672 155.337L85.4401 154.456C85.6289 154.346 85.6446 154.189 85.4401 154.095L83.8672 153.166C83.7671 153.117 83.6567 153.091 83.5448 153.091C83.4329 153.091 83.3226 153.117 83.2224 153.166L81.6495 154.047C81.508 154.142 81.4765 154.315 81.6495 154.409Z" fill="#061749"/>
<path d="M101.578 170.232L103.151 171.16C103.251 171.21 103.362 171.236 103.474 171.236C103.585 171.236 103.696 171.21 103.796 171.16L105.369 170.295C105.558 170.185 105.589 170.012 105.369 169.917L103.796 168.989C103.696 168.939 103.585 168.913 103.474 168.913C103.362 168.913 103.251 168.939 103.151 168.989L101.578 169.854C101.437 169.964 101.405 170.137 101.578 170.232Z" fill="#061749"/>
<path d="M97.63 167.951L99.2029 168.879C99.303 168.929 99.4134 168.955 99.5253 168.955C99.6372 168.955 99.7476 168.929 99.8478 168.879L101.421 167.998C101.609 167.888 101.625 167.715 101.421 167.621L99.8478 166.693C99.7476 166.643 99.6372 166.617 99.5253 166.617C99.4134 166.617 99.303 166.643 99.2029 166.693L97.63 167.574C97.4884 167.699 97.457 167.857 97.63 167.951Z" fill="#061749"/>
<path d="M93.682 165.686L95.2549 166.614C95.355 166.664 95.4654 166.69 95.5773 166.69C95.6892 166.69 95.7996 166.664 95.8998 166.614L97.4727 165.733C97.6614 165.623 97.6771 165.45 97.4727 165.356L95.8998 164.428C95.7996 164.378 95.6892 164.352 95.5773 164.352C95.4654 164.352 95.355 164.378 95.2549 164.428L93.682 165.309C93.5404 165.419 93.5247 165.576 93.682 165.686Z" fill="#061749"/>
<path d="M89.7346 163.406L91.3075 164.334C91.405 164.383 91.5128 164.409 91.6221 164.409C91.7315 164.409 91.8393 164.383 91.9367 164.334L93.5096 163.453C93.6983 163.343 93.7141 163.185 93.5096 163.091L91.9367 162.163C91.8365 162.113 91.7262 162.087 91.6143 162.087C91.5024 162.087 91.392 162.113 91.2918 162.163L89.7189 163.044C89.5931 163.138 89.5774 163.311 89.7346 163.406Z" fill="#061749"/>
<path d="M85.7865 161.125L87.3594 162.053C87.4595 162.103 87.5699 162.129 87.6818 162.129C87.7937 162.129 87.9041 162.103 88.0043 162.053L89.5771 161.173C89.7659 161.062 89.7973 160.905 89.5771 160.811L88.0043 159.883C87.9041 159.833 87.7937 159.807 87.6818 159.807C87.5699 159.807 87.4595 159.833 87.3594 159.883L85.7865 160.764C85.6449 160.858 85.6292 160.968 85.7865 161.125Z" fill="#061749"/>
<path d="M81.8534 158.844L83.4263 159.772C83.5265 159.822 83.6369 159.848 83.7488 159.848C83.8607 159.848 83.971 159.822 84.0712 159.772L85.6441 158.907C85.8329 158.797 85.8643 158.624 85.6441 158.53L84.0712 157.602C83.971 157.552 83.8607 157.526 83.7488 157.526C83.6369 157.526 83.5265 157.552 83.4263 157.602L81.8534 158.467C81.6961 158.577 81.6804 158.75 81.8534 158.844Z" fill="#061749"/>
<path d="M166.083 139.734V133.112L164.51 133.427C162.099 129.127 158.493 125.62 154.129 123.329C145.855 118.61 135.93 110.478 125.077 110.62C114.901 110.761 103.796 118.846 96.0259 123.329C91.6531 125.621 88.041 129.135 85.629 133.442L84.0562 133.112V140.096C84.0562 146.167 88.067 152.238 96.0888 156.863C112.132 166.127 138.148 166.127 154.192 156.863C162.245 152.16 166.24 145.931 166.083 139.734ZM146.61 152.553C140.649 155.998 132.375 151.562 124.59 151.562C116.804 151.562 109.474 155.998 103.513 152.553C91.606 145.68 91.606 134.528 103.513 127.654C115.42 120.781 134.735 120.781 146.642 127.654C158.548 134.528 158.47 145.68 146.61 152.553Z" fill="#061749"/>
<path d="M95.5537 157.539C87.5477 152.914 83.1436 146.733 83.1436 140.095V132.231L85.1254 132.624C87.6343 128.438 91.2334 125.013 95.538 122.715C96.8907 121.944 98.3377 121.047 99.8634 120.119C107.209 115.621 116.347 110.021 125.03 109.911H125.344C134.09 109.911 142.143 114.992 149.252 119.506C151.093 120.654 152.807 121.755 154.49 122.652C158.795 124.95 162.394 128.375 164.903 132.561L166.884 132.168V139.875C166.995 146.575 162.59 152.851 154.49 157.523C146.39 162.194 135.71 164.554 125.045 164.554C114.381 164.554 103.67 162.226 95.5537 157.539ZM165.312 134.04L164.006 134.291L163.754 133.772C161.398 129.614 157.899 126.219 153.672 123.989C151.973 123.014 150.243 121.913 148.387 120.749C141.451 116.36 133.602 111.311 125.297 111.311H125.014C116.804 111.421 107.869 116.895 100.681 121.299C99.1084 122.243 97.6771 123.124 96.3244 123.91C92.09 126.137 88.5889 129.54 86.2422 133.709L85.9748 134.228L84.685 133.961V140.032C84.685 146.072 88.8217 151.798 96.3402 156.139C112.148 165.261 137.88 165.261 153.688 156.139C161.364 151.703 165.485 145.868 165.327 139.686V139.073L165.312 134.04ZM133.067 153.512C130.262 152.834 127.395 152.439 124.511 152.332C121.692 152.436 118.893 152.836 116.159 153.528C111.44 154.55 107.036 155.51 103.056 153.213C97.0479 149.753 93.7449 145.097 93.7449 140.095C93.7449 135.093 97.0479 130.453 103.056 126.993C115.152 120.009 134.845 120.009 146.94 126.993C152.949 130.453 156.252 135.109 156.252 140.095C156.252 145.081 152.949 149.753 146.94 153.213C145.151 154.198 143.131 154.686 141.089 154.629C138.385 154.518 135.699 154.144 133.067 153.512ZM133.382 151.939C138.101 152.93 142.678 153.842 146.185 151.829C151.69 148.683 154.726 144.452 154.726 140.032C154.726 135.612 151.69 131.429 146.185 128.251C134.499 121.504 115.498 121.504 103.811 128.251C98.3063 131.397 95.2706 135.628 95.2706 140.032C95.2706 144.436 98.3063 148.652 103.811 151.829C107.288 153.827 111.251 152.961 115.828 151.971C118.669 151.248 121.581 150.836 124.511 150.744C127.502 150.872 130.473 151.293 133.382 152.002V151.939Z" fill="#061749"/>
<path d="M154.05 115.936C138.006 106.671 111.991 106.671 95.9472 115.936C79.9037 125.2 79.9037 140.221 95.9472 149.486C111.991 158.75 138.006 158.75 154.05 149.486C170.093 140.221 170.109 125.2 154.05 115.936ZM146.61 145.239C134.703 152.112 115.388 152.112 103.481 145.239C91.5745 138.365 91.5745 127.213 103.481 120.34C115.388 113.466 134.703 113.466 146.61 120.34C158.517 127.213 158.47 138.286 146.61 145.239Z" fill="#BE4848"/>
<path d="M95.5537 150.146C87.5477 145.522 83.1436 139.325 83.1436 132.703C83.1436 126.081 87.5477 119.899 95.5537 115.275C111.802 105.838 138.211 105.838 154.443 115.275C162.449 119.899 166.853 126.081 166.853 132.703C166.853 139.325 162.449 145.522 154.443 150.146C146.327 154.865 135.663 157.177 124.998 157.177C114.334 157.177 103.67 154.833 95.5537 150.146ZM96.3244 116.596C88.806 120.938 84.6693 126.663 84.6693 132.703C84.6693 138.743 88.806 144.484 96.3244 148.825C112.132 157.948 137.865 157.948 153.672 148.825C161.191 144.484 165.327 138.758 165.327 132.703C165.327 126.647 161.191 120.938 153.672 116.596C145.808 112.035 135.379 109.754 124.998 109.754C114.617 109.754 104.236 112.035 96.2772 116.596H96.3244ZM103.056 145.821C97.048 142.36 93.7449 137.689 93.7449 132.703C93.7449 127.717 97.048 123.061 103.056 119.601C115.152 112.617 134.845 112.617 146.94 119.601C152.949 123.061 156.252 127.717 156.252 132.703C156.252 137.689 152.949 142.36 146.94 145.821C140.139 149.265 132.622 151.059 124.998 151.059C117.375 151.059 109.858 149.265 103.056 145.821ZM146.185 120.922C134.499 114.174 115.498 114.174 103.811 120.922C98.3063 124.068 95.2706 128.299 95.2706 132.703C95.2706 137.107 98.3063 141.307 103.811 144.499C115.498 151.247 134.499 151.247 146.185 144.499C151.69 141.354 154.726 137.123 154.726 132.703C154.726 128.283 151.69 124.099 146.185 120.922Z" fill="#061749"/>
<path d="M142.333 154.44H141.153V161.723H142.333V154.44Z" fill="#BE4848"/>
<path d="M91.9048 146.576H90.7251V153.858H91.9048V146.576Z" fill="#BE4848"/>
<path d="M101.909 152.049H100.729V159.332H101.909V152.049Z" fill="#BE4848"/>
<path d="M142.333 118.012H141.153V125.295H142.333V118.012Z" fill="#BE4848"/>
<path d="M110.261 117.399H109.081V124.681H110.261V117.399Z" fill="#BE4848"/>
<path d="M131.793 123.596C124.495 119.381 112.651 119.381 105.353 123.596C98.0548 127.812 98.0548 134.606 105.353 138.853C112.651 143.1 124.495 143.069 131.793 138.853C139.092 134.638 139.092 127.812 131.793 123.596Z" fill="white"/>
<path d="M210.218 180.031C210.252 179.977 210.274 179.917 210.283 179.853C210.293 179.79 210.289 179.726 210.273 179.664C210.257 179.602 210.228 179.545 210.189 179.494C210.15 179.444 210.101 179.402 210.045 179.371L156.142 148.542C155.984 148.489 155.813 148.489 155.654 148.542L150.936 151.263C150.686 151.442 150.482 151.678 150.343 151.952C150.203 152.226 150.131 152.529 150.133 152.836V157.979C150.126 158.185 150.193 158.386 150.322 158.546L204.225 189.374C204.335 189.433 204.462 189.448 204.582 189.416C204.702 189.383 204.805 189.307 204.87 189.201L210.218 180.031Z" fill="white"/>
<path d="M203.864 190.019L149.96 159.191L149.787 159.049C149.524 158.75 149.383 158.362 149.394 157.964V152.82C149.401 152.388 149.511 151.964 149.716 151.583C149.922 151.202 150.216 150.877 150.574 150.634L155.293 147.913C155.614 147.754 155.98 147.71 156.331 147.787H156.441L210.438 178.679C210.581 178.759 210.707 178.867 210.807 178.997C210.907 179.126 210.979 179.275 211.02 179.434C211.067 179.591 211.08 179.757 211.058 179.919C211.037 180.082 210.981 180.238 210.894 180.378L205.562 189.532C205.453 189.718 205.296 189.873 205.109 189.981C204.921 190.088 204.709 190.145 204.493 190.145C204.275 190.161 204.058 190.118 203.864 190.019ZM155.937 149.297L151.329 151.955C151.205 152.064 151.106 152.197 151.035 152.346C150.965 152.495 150.926 152.656 150.92 152.82V157.964L204.398 188.541L209.447 179.89L155.937 149.297Z" fill="#061749"/>
<path d="M209.966 186.936L205.248 189.641C204.807 189.909 204.445 189.641 204.445 189.044V183.9C204.443 183.593 204.515 183.29 204.655 183.016C204.794 182.742 204.998 182.506 205.248 182.327L209.966 179.606C210.407 179.355 210.768 179.606 210.768 180.22V185.347C210.772 185.657 210.7 185.963 210.561 186.239C210.421 186.516 210.217 186.755 209.966 186.936Z" fill="#BE4848"/>
<path d="M204.367 190.349C204.149 190.211 203.973 190.017 203.857 189.787C203.741 189.557 203.688 189.301 203.706 189.044V183.9C203.708 183.467 203.817 183.041 204.023 182.66C204.229 182.279 204.525 181.954 204.886 181.714L209.604 178.993C209.8 178.878 210.023 178.818 210.249 178.818C210.476 178.818 210.699 178.878 210.894 178.993C211.104 179.142 211.274 179.341 211.389 179.571C211.504 179.801 211.561 180.057 211.555 180.314V185.442C211.548 185.878 211.435 186.306 211.227 186.69C211.019 187.073 210.721 187.4 210.359 187.644L205.641 190.349C205.428 190.482 205.183 190.552 204.933 190.554C204.729 190.54 204.532 190.469 204.367 190.349ZM209.589 186.275C209.713 186.164 209.814 186.029 209.884 185.877C209.954 185.726 209.993 185.561 209.998 185.395V180.519L205.656 183.035C205.528 183.141 205.424 183.273 205.35 183.422C205.277 183.571 205.237 183.734 205.232 183.9V188.776L209.589 186.275Z" fill="#061749"/>
<path d="M150.149 154.488V157.964L204.462 189.044V185.631L150.149 154.488Z" fill="#061749"/>
<path d="M158.786 152.589L158.196 153.615L186.276 169.753L186.866 168.727L158.786 152.589Z" fill="#061749"/>
<path d="M188.584 172.473L187.999 173.497L197.282 178.809L197.868 177.785L188.584 172.473Z" fill="#061749"/>
<path d="M125.612 146.56C140.633 146.56 147.884 138.444 147.963 138.35L147.082 137.579C146.988 137.689 137.865 147.85 118.66 144.814L118.487 145.978C120.843 146.362 123.225 146.557 125.612 146.56Z" fill="white"/>
<path d="M137.487 141.826C145.226 138.68 147.019 133.112 147.082 132.876L145.965 132.53C145.965 132.53 144.235 137.815 137.047 140.741L137.487 141.826Z" fill="white"/>
<path d="M98.8097 137.012C100.203 134.504 102.246 132.418 104.724 130.972L104.11 129.966C101.476 131.531 99.3053 133.767 97.8188 136.446L98.8097 137.012Z" fill="white"/>
<path d="M150.747 156.438H149.567V158.624H150.747V156.438Z" fill="#BE4848"/>
<path d="M74.8207 118.232L87.0893 111.249C90.6372 109.225 93.36 106.018 94.7808 102.189C96.7154 97.014 101.277 93.2076 106.106 90.5022L131.099 75.9686L87.4039 50.9439L63.2285 64.6281C58.101 67.3645 54.1759 71.9119 52.2182 77.3842L51.9823 78.0606C50.5336 82.1096 47.629 85.474 43.8347 87.4979L32.6829 93.7895L74.8207 118.232Z" fill="white"/>
<path d="M74.8208 119.176L31 93.7422L43.4101 86.8058C47.0666 84.891 49.8727 81.6752 51.2746 77.793L51.5105 77.101C53.5178 71.4447 57.5612 66.7396 62.8511 63.9044L87.404 50L132.751 75.9685L106.546 91.1627C100.868 94.3084 97.1874 98.1305 95.5359 102.44C94.0281 106.425 91.181 109.762 87.4826 111.878L74.8208 119.176ZM34.3188 93.7737L74.8208 117.273L86.6805 110.541C90.0556 108.605 92.6483 105.55 94.0102 101.906C95.7561 97.1868 99.704 93.1445 105.713 89.7785L129.447 75.9685L87.404 51.8875L63.6376 65.3514C58.7014 67.9914 54.927 72.3771 53.052 77.6515L52.8003 78.3436C51.2961 82.6004 48.2479 86.137 44.2595 88.2528L34.3188 93.7737Z" fill="#061749"/>
<path d="M79.3192 108.371L77.1171 107.112L77.9351 105.681L80.1371 106.939L79.3192 108.371ZM76.0161 106.483L73.7983 105.225L74.6162 103.793L76.834 105.052L76.0161 106.483ZM72.6973 104.596L70.4953 103.353L71.3131 101.906L73.5152 103.164L72.6973 104.596ZM69.3942 102.724L67.1922 101.466L68.0101 100.019L70.2121 101.277L69.3942 102.724ZM66.0754 100.836L63.8105 99.5624L64.6283 98.131L66.8304 99.3736L66.0754 100.836ZM62.7723 98.9489L60.5703 97.6906L61.3882 96.2593L63.5902 97.5176L62.7723 98.9489ZM59.4692 97.0615L57.2515 95.8031L58.0851 94.3718L60.2872 95.6301L59.4692 97.0615ZM56.1505 95.174L53.9484 93.9157L54.7663 92.4843L56.9683 93.7426L56.1505 95.174ZM52.8002 93.2708L50.5981 92.0125L51.416 90.5811L53.6181 91.8394L52.8002 93.2708Z" fill="#061749"/>
<path d="M90.1715 78.0764L99.8606 83.6759C100.358 83.9066 100.903 84.0142 101.451 83.9896C101.998 83.9649 102.532 83.8088 103.006 83.5343L114.017 77.2427C114.929 76.708 115.039 75.9058 114.237 75.4497L104.564 69.8659C104.067 69.634 103.523 69.5245 102.975 69.5464C102.428 69.5683 101.894 69.721 101.418 69.9917L90.4075 76.2833C89.4795 76.8181 89.3851 77.6202 90.1715 78.0764Z" fill="#BE4848"/>
<path d="M101.198 84.8081C100.584 84.8211 99.9771 84.6748 99.4364 84.3834L89.7632 78.7996C89.4863 78.6565 89.2519 78.4432 89.0835 78.1809C88.9151 77.9186 88.8186 77.6167 88.8037 77.3054C88.8294 76.9383 88.9521 76.5847 89.1594 76.2806C89.3667 75.9766 89.6511 75.7332 89.9834 75.5752L100.994 69.2836C101.589 68.9431 102.259 68.7537 102.944 68.7317C103.63 68.7098 104.31 68.8561 104.926 69.1578L114.599 74.7415C114.879 74.8807 115.116 75.0931 115.285 75.3562C115.454 75.6193 115.549 75.9233 115.559 76.2358C115.53 76.6001 115.406 76.9505 115.199 77.2515C114.992 77.5525 114.709 77.7936 114.379 77.9503L103.369 84.2418C102.705 84.6109 101.958 84.8056 101.198 84.8081ZM90.5496 77.2896L90.6597 77.3683L100.349 82.9521C100.712 83.1006 101.104 83.1663 101.495 83.1445C101.887 83.1228 102.269 83.014 102.614 82.8262L113.624 76.5346C113.758 76.4649 113.872 76.3621 113.954 76.2358H113.844L104.155 70.6363C103.791 70.4901 103.398 70.4271 103.007 70.4516C102.615 70.476 102.233 70.5875 101.89 70.7779L90.8799 77.0694C90.7518 77.1406 90.6395 77.2369 90.5496 77.3526V77.2896Z" fill="#061749"/>
<path d="M62.589 76.8482L61.771 78.2829L91.053 94.9783L91.871 93.5435L62.589 76.8482Z" fill="#061749"/>
<path d="M65.5382 72.8514L64.7202 74.2862L94.0022 90.9815L94.8202 89.5468L65.5382 72.8514Z" fill="#061749"/>
<path d="M85.2511 59.3636L84.4331 60.7983L97.0723 68.0046L97.8903 66.5699L85.2511 59.3636Z" fill="#061749"/>
<path d="M80.1832 62.2321L79.3652 63.6668L92.0045 70.8732L92.8225 69.4385L80.1832 62.2321Z" fill="#061749"/>
<path d="M75.1369 65.1966L74.3188 66.6313L86.9581 73.8377L87.7761 72.403L75.1369 65.1966Z" fill="#061749"/>
<path d="M47.4396 93.0448L46.6216 94.4796L75.9036 111.175L76.7216 109.74L47.4396 93.0448Z" fill="#061749"/>
<path d="M162.132 105.413L173.457 98.9801C176.727 97.1058 179.237 94.1451 180.551 90.6124C182.342 85.8278 185.777 81.8361 190.24 79.3504L213.299 65.9808L190.067 52.5168L167.748 65.1C163.033 67.6312 159.429 71.8245 157.634 76.8652L157.398 77.5101C156.07 81.2567 153.388 84.3707 149.879 86.2397L139.593 91.9965L162.132 105.413Z" fill="white"/>
<path d="M162.132 106.373L137.957 92.012L149.486 85.5789C152.823 83.7989 155.375 80.8372 156.643 77.274L156.863 76.6449C158.721 71.4046 162.467 67.0464 167.37 64.4234L190.082 51.5729L214.95 65.9806L190.711 80.0266C186.418 82.4289 183.114 86.2737 181.384 90.8795C180 94.5898 177.363 97.6998 173.929 99.672L162.132 106.373ZM141.26 92.0592L162.132 104.469L173.048 98.1778C176.141 96.422 178.522 93.6399 179.78 90.3133C181.636 85.3441 185.199 81.1964 189.831 78.611L211.647 66.0278L190.051 53.4447L168.203 65.8705C163.666 68.3071 160.195 72.3435 158.467 77.1954L158.247 77.8245C156.855 81.7593 154.052 85.0379 150.382 87.026L141.26 92.0592Z" fill="#061749"/>
<path d="M152.884 93.3966L160.67 97.9895C161.121 98.1991 161.617 98.2983 162.114 98.2792C162.612 98.2601 163.098 98.123 163.532 97.8794L167.197 95.7402C168.046 95.2526 168.141 94.5134 167.402 94.0887L159.537 89.4958C159.086 89.2913 158.593 89.196 158.099 89.2179C157.604 89.2398 157.121 89.3781 156.69 89.6217L153.01 91.7451C152.239 92.2484 152.144 92.9877 152.884 93.3966Z" fill="#BE4848"/>
<path d="M161.912 99.106C161.336 99.1196 160.767 98.9841 160.26 98.7128L152.474 94.1828C152.208 94.0478 151.983 93.8437 151.822 93.5919C151.662 93.3402 151.572 93.0499 151.562 92.7515C151.574 92.3891 151.687 92.0371 151.886 91.7345C152.086 91.432 152.366 91.1906 152.694 91.037L156.359 88.8979C156.92 88.5792 157.549 88.4025 158.194 88.3833C158.838 88.3641 159.477 88.503 160.056 88.7878L167.841 93.3806C168.105 93.5178 168.327 93.7228 168.484 93.9744C168.642 94.226 168.73 94.5152 168.738 94.812C168.706 95.1469 168.587 95.4677 168.394 95.7433C168.202 96.0189 167.941 96.2399 167.637 96.3849L163.956 98.524C163.338 98.8942 162.633 99.0949 161.912 99.106ZM153.308 92.6886L161.094 97.2814C161.42 97.4142 161.771 97.4718 162.123 97.45C162.474 97.4282 162.816 97.3276 163.123 97.1556L166.788 95.0322C166.883 94.9788 166.968 94.9097 167.039 94.8277L159.253 90.2349C158.927 90.1054 158.576 90.0496 158.225 90.0714C157.874 90.0931 157.533 90.1919 157.224 90.3607L153.544 92.4998C153.428 92.5557 153.33 92.6429 153.261 92.7515L153.308 92.6886Z" fill="#061749"/>
<path d="M177.106 83.9903L174.92 82.7163L175.738 81.2849L177.94 82.559L177.106 83.9903ZM173.819 82.0871L171.617 80.8131L172.451 79.3817L174.637 80.6558L173.819 82.0871ZM170.516 80.1682L168.33 78.8942L169.148 77.4786L171.35 78.7526L170.516 80.1682ZM167.229 78.265L165.058 77.0224L165.892 75.5911L168.047 76.8337L167.229 78.265Z" fill="#061749"/>
<path d="M168.647 71.9195L167.819 73.3484L179.864 80.3274L180.692 78.8985L168.647 71.9195Z" fill="#061749"/>
<path d="M186.806 59.4447L185.98 60.8751L197.955 67.7859L198.78 66.3555L186.806 59.4447Z" fill="#061749"/>
<path d="M182.151 62.0905L181.325 63.5209L193.3 70.4317L194.125 69.0012L182.151 62.0905Z" fill="#061749"/>
<path d="M177.515 64.8784L176.689 66.3088L188.664 73.2196L189.49 71.7892L177.515 64.8784Z" fill="#061749"/>
</svg>
